<svg xmlns="http://www.w3.org/2000/svg" viewBox="0 0 300 300"><title>Los Angeles Angels cap on dark logo</title><path fill="#fff" d="M245.76 259.54h2.83v8.02h-1.65v-6.39h-.04l-2.32 6.39h-1.59l-2.24-6.39h-.04v6.39h-1.65v-8.02h2.84l1.87 5.24h.05Zm-14.66 0h6.5v1.42h-2.42v6.6h-1.65v-6.6h-2.43Zm-65.78 12.78c5.68-4.38 8.79-12.03 6.24-20.81l-1.7-5.82h-39.65l-1.71 5.82c-2.56 8.78.56 16.43 6.26 20.81H65.03c6.42-4.38 12.07-12.03 14.66-20.81l19.5-66.87c2.1-7.19-1.35-14.41-6.82-19.27 7.77-2.39 14.69-7.78 16.85-15.24l10.91-37.44C104.6 107.5 94.46 98.3 94.46 87.62c0-13.95 17.28-25.36 41.32-28.63l9.13-31.31h10.21l9.13 31.3c24.03 3.28 41.29 14.69 41.29 28.64 0 10.68-10.11 19.88-25.63 25.07l10.91 37.44c2.16 7.46 9.06 12.85 16.84 15.24-5.48 4.86-8.91 12.08-6.8 19.27l19.49 66.87c2.54 8.78 8.24 16.43 14.68 20.81Zm-21.3-74.01h12.02l-6.01-20.68Z"/><path fill="#003263" d="M223.3 267.56c-3.33-4.33-5.97-9.4-7.52-14.71l-19.36-66.44c-3.07-10.54 2.61-18.03 3.36-19.22-6.73-3.64-11.65-9.19-13.53-15.75l-11.78-40.43c16.62-4.42 27.94-13.23 27.94-23.4 0-12.85-18.2-23.58-42.31-25.96l-8.51-29.21h-3.09l-8.51 29.21c-24.12 2.36-42.34 13.1-42.34 25.96 0 10.17 11.34 18.98 27.95 23.4l-11.79 40.43c-1.9 6.57-6.81 12.11-13.54 15.75.76 1.19 6.44 8.68 3.36 19.22l-19.35 66.44c-1.55 5.31-4.19 10.37-7.54 14.71h48.27c-3.89-8.6-1.84-14.86-.09-20.76l1.71-5.89h46.8l1.73 5.89c1.71 5.9 3.77 12.16-.12 20.76h48.27Zm-85.67-64.48 12.41-42.5 12.37 42.5z"/><path fill="#862633" d="M150.04 68.8c-1.47 0-2.92.04-4.35.09l4.35-14.92Zm60.42 191.25H184.1c.61-3.98 0-9.26-1.06-12.98l-4-13.64h-58.06l-8.16-11.41-8.76 30.02 11.88 8.02H89.55c1.08-2.23 1.97-4.51 2.66-6.87l18.53-63.34c2.91-9.9 1.3-14.18-.8-20.15 5.58-4.27 9.25-9.82 11.05-16.08l14.06-48.24h.02l2.12-7.35 6.21-21.34c2.15-.12 4.37-.2 6.64-.2 1.91 0 3.78.07 5.61.15.34.01.67.03 1 .05l1.22 4.25c-2.54-.14-5.16-.24-7.83-.24v13.85l-37.22 127.46h74.4l8.54 29.25Zm-60.42-165.5 37.18 127.46-14.83-11.43-22.35-76.76Z"/><path fill="#ba0021" d="m172.39 210.58 14.83 11.43h-74.4l37.22-127.46v39.27l-22.42 76.76Zm-68.33 41.45.002.002-.002.008Zm.002.002 8.758-30.012 8.16 11.41-3.94 13.64c-1.14 3.72-1.74 8.99-1.1 12.98ZM150.04 68.8V53.97l4.35 14.92c-1.43-.05-2.88-.09-4.35-.09m12.828 29.222.002-.002 2.11 7.35c.01 0 .03-.01.03-.01l14.05 48.25c1.8 6.26 5.5 11.81 11.06 16.08-2.11 5.98-3.71 10.25-.8 20.15l18.51 63.34c.69 2.36 1.61 4.64 2.64 6.87l-14.7-8.79-8.54-29.25-37.19-127.46V80.7c2.67 0 5.29.1 7.83.24l-1.22-4.25Z"/><path fill="#c4ced4" d="M137.19 98.03c-13.47-1.61-23.04-5.68-23.04-10.41 0-5.44 12.6-9.97 29.25-10.94 2.15-.12 4.37-.2 6.64-.2 1.91 0 3.78.06 5.61.15.33.01.66.03 1 .05 16.65.96 29.27 5.48 29.27 10.94 0 4.73-9.58 8.8-23.04 10.41h-.01l2.11 7.35s.02 0 .03-.01c17.36-2.6 29.79-9.53 29.79-17.75 0-9.77-17.73-17.81-40.4-18.73-1.43-.05-2.88-.09-4.35-.09s-2.92.04-4.35.09c-22.71.92-40.41 8.96-40.41 18.73 0 8.21 12.42 15.15 29.78 17.75h.02l2.12-7.35Z"/></svg>