<svg xmlns="http://www.w3.org/2000/svg" viewBox="0 0 300 300"><title>Baltimore Orioles cap on dark logo</title><path fill="#fff" d="M166.05 119.26c5.8-1.55 12.56 4.9 15.1 14.42 2.52 9.51-.13 18.47-5.94 20.01-3.87 1.03-8.16-1.49-11.34-6.09 1.62 1.04 3.35 1.35 4.77.66 2.7-1.3 3.3-5.68 1.32-9.78-1.97-4.09-5.77-6.35-8.48-5.05-.96.46-1.65 1.32-2.06 2.41-1.13-8.15 1.52-15.22 6.63-16.57Zm-24.56 9.85c5.71-1.87 12.82 4.2 15.88 13.56 3.06 9.35.91 18.44-4.8 20.32-4.11 1.34-8.95-1.42-12.47-6.56 2.1 1.6 4.46 2.13 6.26 1.13 2.85-1.57 3.23-6.35.84-10.67-2.39-4.31-6.64-6.52-9.49-4.94-1.05.57-1.77 1.59-2.13 2.85-1.13-7.55 1.14-14.12 5.89-15.69Zm-61.16 3.81.004.009-.004.001Zm.004.009c.276-.037 13.891-1.638 28.096-8.299l-25.48 13.43-.04.02-.8-1.58-1.74-3.49ZM217.11 233.55h2.79v7.93h-1.62v-6.32h-.04l-2.31 6.32h-1.55l-2.23-6.32h-.04v6.32h-1.61v-7.93h2.8l1.85 5.18h.04Zm-14.47 0h6.4v1.42h-2.39v6.51h-1.62v-6.51h-2.39Zm62.92-163.24c5.67 13.51 2.11 24.06-11.89 35.27-15.58 12.47-37.59 19.33-50.98 22.59.17.79.41 1.78.74 2.99 30.81-2.26 52.64 8.31 53.93 20.03.27 3.9-2.38 8.52-8.92 10.34-22.67 5.91-27.1 16.54-33.16 43.17-8.11 35.56-42.75 52.43-76.35 52.43-3.82 0-7.63-.22-11.38-.65-20.46-2.36-39.08-10.82-52.45-23.81-14.51-14.11-22.48-33.07-23.15-55.03l-6.75 1.08-.67-2.78c-.23-.95-5.21-22.89 18.19-42.39-6.29-15.54-11.68-42.54 13.27-63.67 2.71-2.64 4.5-3.88 5.8-4.79.48-.34.88-.61 1.25-.91 1.59-4.09 4.48-7.64 5.86-9.02 8.13-8.45 18.52-9.86 18.96-9.92 10.71-1.62 17.08 2.83 19.49 4.51l.1.07c.63.13 1.48.16 2.59.19 1.52.04 3.41.1 5.97.44 14.08 1.86 26.1 8.23 35.76 18.93 4.17-.56 15.35-2.11 21.2-3.33 3.26-.67 6.51-1.37 9.73-2.06 17.74-3.79 34.48-7.39 45.47-6.26 8.36 1.45 14.61 6.02 17.35 12.56Zm-66.45 55.5c15.82-3.59 37.54-10.62 52.59-22.66 12.02-9.62 16.41-18.71 10.97-31.67-2.04-4.86-6.94-9.3-14.81-10.68-12.44-1.26-33.36 3.93-54.26 8.27-7.45 1.55-23.06 3.58-23.06 3.58-12.19-14.2-26.11-17.98-34.94-19.15-5.01-.67-7.4-.18-9.47-.85-1.83-1.2-7.44-5.94-17.88-4.36 0 0-9.65 1.24-17.18 9.05-1.5 1.49-4.18 4.99-5.42 8.65-1.89 1.73-3.4 2.1-7.68 6.24-26.83 22.72-15.85 52.39-11.52 62.26-24.23 18.85-18.94 40.71-18.94 40.71l7.46-1.2c-.55 97.22 140.34 104.23 157.27 29.99 6.14-26.98 11.1-39.14 35.34-45.46 4.89-1.36 6.84-4.6 6.67-7.03-1.05-9.54-21.84-20.06-53.13-17.07-1.86-6.23-2.01-8.62-2.01-8.62"/><path d="M151.95 88.53c.21-.44.72-.78 1.52-1.03.03.03.1.07.1.07.06.08.1.17.13.24.21.51.14.94.03 1.22-.13.34-.33.53-.7.68-.36.15-.72.08-.96-.17-.23-.26-.28-.65-.12-1.01m-14.98-5.48c-1.46-.56-2.72-1.75-3.29-3.09-.55-1.32-.51-2.73.12-3.69.48-.72 1.22-1.12 2.12-1.12 2.18 0 4.12 4.17 5.14 7.67-1.54.79-2.83.74-4.1.24Zm2.5 14.59c-2.89.57-5.22-3.74-6.12-6.87-.61-2.11-.63-4.54-.02-6.64 2.67 1.66 5.17 1.62 8.1-.02.6 1.9 1.02 4.65 1.04 6.76 0 1.69-.17 4.01-1.07 5.41-.55.85-1.04 1.18-1.93 1.35Zm112.59-19.36c2.15 5.03-3.63 11.37-5.13 12.85-1.98 1.96-9.33 7.4-20.09 12.31-15.1 6.89-32.68 10.99-36.98 12.15-6.86 1.86-6.6 3.66-5.27 6.64 3.01 6.71 3.94 10.98 5.1 26.76 9.91-2.97 27.74-2.55 43.67 1.29-9.92 3.94-20.25 10.77-28.99 22.36-26.16 34.74-67.74 31.55-86.54 13.47-4.1 3.46 1.25 15.2 1.25 15.2-.85.8-2.86 0-2.86 0-13.94-23.15.97-29.24 12.61-29.88 4.92-.89 4.29 2.05-.22 2.89-19.43 4.45 7.38 26.76 40.59 18.04 29.27-7.68 27.51-26.34 53.63-40.81-20.91-3.96-35.55 1.3-41.79 4.53-4.16 2.15-10.99 2.28-14.04 1.21-3.86 11.8-16.48 15.11-40.62 9.24-17.15-4.17-30.73 12.69-23.2 34.33 7.72 22.2 46.09 44.41 88.05 18.31-3.42 4.36-7.68 8.18-12.7 11.39-10.85 6.93-24.91 10.75-39.59 10.75-20.92 0-40.36-7.51-53.3-20.6-11.85-12-17.75-27.85-17.52-47.13 0-3.4 1.19-10.91 2.35-13.22l-8.46.58s2.68-12.3 20.96-22.89l-.02-.01 25.48-13.43c-14.34 6.72-28.06 8.3-28.1 8.3-15.72-33.05 1.14-46.49 8.65-52.7 6.35-5.25 7.96-5.05 9.12-9.55.68-2.67 3.39-5.49 6.77-7.29 4.31-2.6 9.53-2.9 12.61-.61 2.9 2.88 8.56 3.56 12.02 3.56 26.92.96 35.01 20.64 35.01 20.64 6.11-1.9 16.12-2.12 33.31-5.59 32.99-7.31 35.43-7.51 40.78-7.99 6.18-.56 11.3-.19 13.48 4.95Zm-136.04-9.29s-9.84-7.54-13.22 4.97Zm33.86 17.5-.23 2.74c-.17 1.84-.45 3.09-1.33 3.63l-.03.02-.28 1.54.14-.07c1.1-.45 1.84-1.56 2.25-3.41l.21-1.54.1-1.39.02-.4.11-1.49c.05-.44.12-.77.19-1.02l.06-.18c.05.09.1.16.1.16.37.6 1.33 1.4 1.85 1.76 0 0 .08.04.15.09-.08.04-.16.06-.16.06-1.74.65-2.03 1.9-1.82 2.53.13.42.5.73.79.83.37.15.97.17 1.48-.12 1.11-.62 1.69-1.77 1.49-2.96l-.04-.24-.16-.51c-.07-.27-.37-.63-.87-1.09l-1.2-1.01-.43-.35c-.29-.25-.47-.58-.54-.95l-.02-.14-.12.08-1.39 1c-.2.6-.26 1.62-.29 2.44Zm-2.22-2.21c.07.19.32.17.8-.03.2-.08.3-.18.41-.36.27-.42.37-1.03.24-1.36-.1-.23-.29-.31-.68-.25.03-.42.04-.48.21-1.14-.07.02-.14.04-.18.06-.19.08-.33.28-.56.76-.32.71-.44 1.84-.24 2.32m-17.02-4.07c-1.59 3.87-1.45 8.42-.29 11.95 1.21 3.64 3.08 6.29 5.43 7.63 1.37.79 3.12.9 4.48.43 1.66-.57 2.98-1.8 3.86-3.64 1.92-3.97 1.6-10.12.15-14.06.75-.62 1.51-1.71 1.98-2.78l-1.2-.43c-.28.7-.78 1.38-1.26 1.9-2.2-5.82-5.08-8.76-8.15-8.59-1.79.09-3.31.89-4.28 2.28-1.03 1.48-1.36 3.53-.72 5.3Zm21.9 82.78c5.72-1.87 7.87-10.97 4.8-20.32-3.06-9.36-10.16-15.43-15.88-13.56-4.75 1.56-7.02 8.14-5.89 15.69.36-1.26 1.08-2.28 2.13-2.85 2.86-1.59 7.1.63 9.49 4.94s2.02 9.1-.84 10.67c-1.8 1-4.17.48-6.26-1.13 3.53 5.14 8.36 7.9 12.47 6.56Zm22.67-9.27c5.81-1.54 8.46-10.5 5.94-20.01-2.54-9.52-9.3-15.97-15.1-14.42-5.11 1.35-7.76 8.42-6.63 16.57.41-1.09 1.1-1.95 2.06-2.41 2.71-1.3 6.5.95 8.48 5.05 1.99 4.1 1.38 8.48-1.32 9.78-1.42.68-3.15.37-4.77-.66 3.18 4.6 7.47 7.12 11.34 6.09Zm-27.74-36.87c20.63.46 33.64-3.84 51.47-14.5 16.29-11.37 32.88-21.45 32.88-21.45s-33.67 7.48-54.86 10.13c-22.86 2.61-43.08 18.33-43.08 18.33-8.7 5.75.07 5.65 13.59 7.49M245.3 80.5c-1.21-1.64-34.28 21.41-34.28 21.41 20.56-6.97 37.26-17.33 34.28-21.41"/><path fill="#df4601" d="m116.02 68.99-13.22 4.97c3.38-12.51 13.22-4.97 13.22-4.97m60.94 22.04c21.19-2.65 54.86-10.13 54.86-10.13s-16.58 10.08-32.88 21.45c-17.83 10.66-30.84 14.96-51.47 14.5-13.52-1.83-22.29-1.73-13.59-7.49 0 0 20.22-15.73 43.08-18.33M245.3 80.5c2.98 4.08-13.73 14.44-34.28 21.41 0 0 33.08-23.05 34.28-21.41M135.78 99.77c-2.35-1.35-4.22-3.99-5.43-7.63-1.17-3.53-1.3-8.08.29-11.95-.64-1.78-.31-3.82.72-5.3.97-1.39 2.49-2.18 4.28-2.28 3.08-.17 5.95 2.77 8.15 8.59.48-.51.98-1.2 1.26-1.9l1.2.43c-.47 1.07-1.23 2.17-1.98 2.78 1.45 3.94 1.77 10.09-.15 14.06-.88 1.84-2.2 3.07-3.86 3.64-1.36.47-3.11.37-4.48-.43Zm-1.99-23.48c-.63.96-.67 2.38-.12 3.69.58 1.34 1.84 2.52 3.29 3.09 1.28.5 2.56.55 4.1-.24-1.02-3.51-2.96-7.67-5.14-7.67-.9 0-1.64.4-2.12 1.12Zm-.46 7.82c-.6 2.11-.59 4.53.02 6.64.9 3.12 3.22 7.43 6.12 6.87.88-.17 1.37-.5 1.93-1.35.91-1.4 1.07-3.72 1.07-5.41-.02-2.1-.44-4.85-1.04-6.76-2.93 1.65-5.43 1.68-8.1.02Zm14.34.17c-.2-.47-.08-1.61.24-2.32.23-.47.37-.68.56-.76.05-.02.12-.04.18-.06-.17.66-.18.72-.21 1.14.38-.06.58.02.68.25.13.33.03.95-.24 1.36-.11.18-.21.27-.41.36-.47.2-.72.22-.8.03m.71 8.6c.87-.54 1.16-1.79 1.33-3.63l.23-2.74c.03-.82.09-1.85.29-2.44l1.39-1 .12-.08.02.14c.07.37.25.7.54.95l.43.35 1.2 1.01c.49.46.8.82.87 1.09l.16.51.04.24c.2 1.19-.38 2.35-1.49 2.96-.51.29-1.11.27-1.48.12-.29-.1-.66-.4-.79-.83-.21-.63.08-1.87 1.82-2.53l.16-.06c-.07-.05-.15-.09-.15-.09-.51-.36-1.48-1.16-1.85-1.76 0 0-.05-.07-.1-.16-.04.1-.06.18-.06.18-.08.25-.14.58-.19 1.02l-.11 1.49-.02.4-.1 1.39-.21 1.54c-.41 1.84-1.15 2.96-2.25 3.41l-.14.07.28-1.54.03-.02Zm5.19-5.31s-.07-.04-.1-.07c-.8.25-1.31.59-1.52 1.03-.17.36-.12.75.12 1.01.24.24.6.32.96.17s.57-.34.7-.68c.12-.28.18-.7-.03-1.22a.7.7 0 0 0-.13-.24m109.08-16.09c5.44 12.96 1.05 22.04-10.97 31.67-15.05 12.04-36.77 19.06-52.59 22.66 0 0 .15 2.39 2.01 8.62 31.3-2.99 52.09 7.53 53.14 17.07.18 2.43-1.78 5.67-6.67 7.03-24.24 6.32-29.2 18.48-35.34 45.46C195.3 278.23 54.41 271.22 54.96 174l-7.46 1.2s-5.29-21.85 18.94-40.71c-4.33-9.87-15.31-39.54 11.52-62.26 4.27-4.14 5.79-4.52 7.68-6.24 1.24-3.66 3.92-7.16 5.42-8.65 7.53-7.81 17.18-9.05 17.18-9.05 10.45-1.58 16.05 3.16 17.89 4.36 2.06.67 4.46.18 9.47.85 8.84 1.17 22.75 4.95 34.94 19.15 0 0 15.61-2.02 23.06-3.58 20.9-4.33 41.82-9.53 54.26-8.27 7.87 1.37 12.77 5.81 14.81 10.68Zm-35.76 32.05c10.76-4.92 18.11-10.36 20.09-12.31 1.51-1.49 7.28-7.82 5.13-12.85-2.18-5.14-7.31-5.51-13.48-4.95-5.35.48-7.79.68-40.78 7.99-17.19 3.47-27.2 3.69-33.31 5.59 0 0-8.09-19.68-35.01-20.64-3.45 0-9.11-.68-12.02-3.56-3.08-2.29-8.31-2-12.61.61-3.38 1.8-6.09 4.63-6.77 7.29-1.15 4.5-2.77 4.3-9.12 9.55-7.51 6.21-24.38 19.65-8.65 52.7l.04.09c.54 1.14 1.12 2.3 1.74 3.49l.79 1.58.04-.02.02.01c-18.28 10.58-20.96 22.89-20.96 22.89l8.46-.58c-1.16 2.31-2.35 9.82-2.35 13.22-.23 19.28 5.67 35.13 17.52 47.13 12.94 13.09 32.38 20.6 53.3 20.6 14.68 0 28.74-3.83 39.59-10.75 5.02-3.21 9.28-7.04 12.7-11.39-41.96 26.1-80.33 3.88-88.05-18.31-7.54-21.64 6.05-38.5 23.2-34.33 24.13 5.87 36.76 2.56 40.62-9.24 3.05 1.07 9.88.93 14.04-1.21 6.24-3.23 20.88-8.49 41.79-4.53-26.12 14.47-24.36 33.13-53.63 40.81-33.21 8.72-60.02-13.59-40.59-18.04 4.51-.84 5.14-3.78.22-2.89-11.64.64-26.56 6.72-12.61 29.88 0 0 2.01.8 2.86 0 0 0-5.36-11.74-1.25-15.2 18.8 18.08 60.38 21.27 86.54-13.47 8.74-11.59 19.07-18.42 28.99-22.36-15.93-3.84-33.76-4.27-43.67-1.29-1.16-15.78-2.1-20.05-5.1-26.76-1.33-2.98-1.59-4.78 5.27-6.64 4.31-1.16 21.88-5.26 36.98-12.15Z"/></svg>