<svg xmlns="http://www.w3.org/2000/svg" viewBox="0 0 300 300"><title>Colorado Rockies cap on dark logo</title><path fill="#c4ced4" d="M256.79 252.29v7.96h-1.63v-6.33h-.04l-2.32 6.33h-1.57l-2.24-6.33h-.03v6.33h-1.64v-7.96h2.83l1.86 5.2h.04l1.93-5.2Zm-17.38 0h6.44v1.42h-2.4v6.54h-1.63v-6.54h-2.41Zm-19.68-7.49c7.31 6.34 15.16 5.06 15.16 5.06v10.37s-39.09.03-41.55.03c-.95 0-35.74-58.57-35.74-58.57h-9.44v29.72c0 16.42 5.16 18.41 19.06 18.41v10.43h-67.5v-10.43c14.96 0 18.52-3.33 18.52-19.52v-43.77c-.42.01-.81.04-1.23.04-24.15 0-40.74-10.1-51.01-24.02-10.29-13.92-14.79-31.43-14.79-46.92 0-22.44 7.22-41.08 19.84-54.77 12.44-13.47 30.29-21.1 51.2-21.1 19.3 0 29.93 6.74 34.43 6.74 1.63 0 2.53-.9 3.25-3.15h6.68l1.61 46.92h-8.47c-1.98-11.45-6.48-20.88-12.8-27.39-6.31-6.51-14.24-10.1-23.26-10.1-23.97 0-40.38 24.47-40.38 59.26 0 32.86 13.85 56.24 34.94 60.68v-19.84c0-16.63-3.21-20.18-18.52-20.18v-10.43c10.86-.89 18.16-1.55 32.41-2.44 11.22-.66 22.26-1.11 28.32-1.11 28.5 0 57 9.94 57.12 40.59-.12 28.35-26.45 34.47-30.63 36.56 11.41 2.56 25.22 41.51 32.79 48.92ZM58.67 114.54c-.05 47.6 35.28 56.59 35.28 56.59s-18.18-22.75-18.13-59.27C75.89 72.54 95.3 53.8 95.3 53.8s-36.59 14.28-36.63 60.74m82.24 15.3-15.38 1.06v118.88h15.38Zm67.58 30.08c-.07-26.51-28.13-29.03-28.13-29.03s10.15 6.46 10.14 29.29c-.01 22.61-10.6 28.97-10.6 28.97s28.68-5.89 28.6-29.24Zm-60.32 30.89c25.83.44 35.09-9.54 35.09-32.39 0-17.52-9.09-29.05-26.37-29.05h-8.73v35.46c6.4-5.75 11.78-14.37 16.09-25.87h8.47c-1.44 12.8-5.77 29.42-10.99 44.68l-.55 1.57c-1.62-.67-3.43-1.12-5.23-1.34-1.62-.45-3.6-.45-5.77-.45-.66 0-1.34.04-2.02.06v7.33Zm46.02 59.03 21.93.05s-4.58-3.62-10.97-16.37c-5.93-14.13-17.03-31.41-24.8-35.3 0 0-2.17.85-5.14 1.69-3.27.94-9.95 1.99-9.95 1.99 9.11 12.64 28.92 47.94 28.92 47.94Z"/><path fill="#33006f" d="M95.3 53.8s-19.41 18.74-19.48 58.06c-.06 36.52 18.13 59.27 18.13 59.27s-35.32-8.99-35.28-56.59C58.7 68.09 95.3 53.8 95.3 53.8m30.23 77.1 15.38-1.06v119.94h-15.38Zm64.98 29.26c.01-22.83-10.14-29.29-10.14-29.29s28.05 2.52 28.13 29.03c.08 23.36-28.6 29.24-28.6 29.24s10.6-6.36 10.6-28.97Zm14.62 73.36c6.4 12.74 10.97 16.37 10.97 16.37l-21.93-.05s-19.81-35.3-28.92-47.94c0 0 6.69-1.05 9.95-1.99 2.97-.84 5.14-1.69 5.14-1.69 7.77 3.89 18.87 21.17 24.8 35.3Z"/></svg>