<svg xmlns="http://www.w3.org/2000/svg" viewBox="0 0 300 300"><title>New York Mets cap on dark logo</title><path fill="#ff5910" d="M234.07 177.24h6.92v1.53h-2.58v7.06h-1.76v-7.06h-2.58Zm18.68 0v8.59h-1.76v-6.84h-.04l-2.48 6.84h-1.7l-2.41-6.84h-.04v6.84h-1.75v-8.59h3.05l1.98 5.61h.05l2.08-5.61Zm-77.6-36.31c3.06-3.56 6.33-6.58 9.71-8.98l.89-.63v23.17l-10.9-13.21.3-.36Zm-59.62-45.66 39.8 48.9.2.29-4.6 10.6-.49-1.29c-9.22-24.32-23.91-35.89-34.6-41.32l-.31-.16Zm104.48 78.76-.005.017-.005-.007Zm-.005.017 4.215 5.503c5.2 6.78 4.58 16.93-1.45 23.59-5.21 5.74-15.14 9.04-27.87 2.25-12.72 6.79-22.66 3.49-27.85-2.25-.73-.8-1.35-1.68-1.92-2.58v33.66c0 3.65 2.78 7.8 5.31 7.82 4.35.02 5.55-7.53 5.55-7.53l4.22 5.51c5.06 6.6 4.65 15.9-.98 22.11-5.13 5.67-15.19 8.8-28.33 1.69-13.14 7.11-23.19 3.98-28.32-1.69-5.62-6.21-6.04-15.51-.98-22.11l4.22-5.51s1.82 7.97 5.81 7.69c2.12-.15 5.05-3.67 5.05-7.99v-34.66c-.7 1.27-1.51 2.48-2.5 3.58-5.21 5.74-15.14 9.04-27.86 2.25-12.72 6.79-22.66 3.49-27.85-2.25-6.05-6.66-6.67-16.8-1.47-23.59l4.22-5.51s2.63 8.51 6.93 8.58c1.91.03 3.52-1.08 3.94-1.65v-26.91c-7.27-1.03-19.88-6.99-19.88-23.21 0-13.83 9.5-22.87 19.88-26.42V70.3c-.42-.57-2.03-1.65-3.94-1.65-4.81 0-6.93 8.58-6.93 8.58L77 71.72c-5.2-6.79-4.58-16.93 1.47-23.59 5.2-5.74 15.14-9.04 27.85-2.24 12.72-6.8 22.66-3.5 27.86 2.24 6.03 6.66 6.66 16.8 1.46 23.59l-4.21 5.51s-1.89-8.58-6.94-8.58c-.95.01-1.81.29-2.51.63 3.99 4.84 37.92 45.98 43.33 52.54 4.64-4.82 9.78-8.86 15.37-12.08V70.3c-.43-.57-2.02-1.65-3.93-1.65-4.7 0-6.93 8.58-6.93 8.58l-4.22-5.51c-5.2-6.79-4.58-16.93 1.46-23.59 5.2-5.74 15.14-9.04 27.85-2.24 12.73-6.8 22.67-3.5 27.87 2.24 6.03 6.66 6.65 16.8 1.45 23.59l-4.22 5.51s-2.38-8.58-6.93-8.58c-1.9 0-3.5 1.08-3.94 1.65v33.91c10.48 3.37 20.54 12.52 20.54 26.63 0 16.71-13.4 22.54-20.54 23.3v26.82c.44.57 2.04 1.8 3.94 1.65 4.537-.38 6.808-8.153 6.925-8.563M195.24 199.76c9.53 5.91 18.44 5.9 23.82-.05 2.45-2.7 3.7-6.15 3.7-9.53 0-2.51-.77-4.93-2.18-7.01-2.26 3.47-5.84 5.12-9.93 4.13-3.61-.88-6.47-3.46-6.51-5.87v-54.87l.77.32c4.1 1.68 7.07 5.59 7.95 10.46.17.97.26 1.93.26 2.87 0 3.34-1.26 6.3-3.26 8.66 3.74-.75 14.8-4.12 14.8-18.08 0-12.88-10.4-20.76-20.07-22.63l-.45-.09V69.73c.04-2.42 2.9-5 6.51-5.87 4.09-.99 7.67.65 9.93 4.13 1.4-2.08 2.18-4.5 2.18-7.01 0-3.38-1.25-6.83-3.7-9.53-5.38-5.94-14.29-5.96-23.82-.05l-.3.18-.29-.18c-9.54-5.9-18.44-5.89-23.83.06a14.25 14.25 0 0 0-3.69 9.52c0 2.51.78 4.93 2.19 7.01 2.26-3.48 5.84-5.12 9.94-4.13 3.6.88 6.46 3.46 6.5 5.88v42.84l-.31.16c-7.46 3.88-14.12 9.34-19.85 16.21l-.43.52-.44-.52s-48.98-59.4-49.11-59.88c.55-2.53 3.83-4.91 7.47-5.42 3.71-.53 6.83 1.16 8.9 4.33 1.4-2.08 2.18-4.5 2.18-7.01 0-3.38-1.25-6.83-3.7-9.53-5.38-5.95-14.3-5.97-23.83-.06l-.29.18-.29-.18c-9.54-5.91-18.44-5.89-23.83.06-2.44 2.7-3.7 6.15-3.7 9.53 0 2.51.78 4.93 2.19 7.01 2.26-3.48 5.84-5.12 9.94-4.13 3.6.88 6.46 3.46 6.5 5.88v38.45l-.44.1c-9.68 2.14-19.44 9.92-19.44 22.51 0 13.96 11.08 17.33 14.82 18.08-1.99-2.35-3.26-5.34-3.26-8.69 0-.77.06-1.55.18-2.33.71-4.78 3.46-8.76 7.35-10.65l.8-.39v54.64c-.04 2.41-2.9 4.99-6.5 5.86-4.1 1-7.68-.65-9.94-4.12-1.4 2.08-2.19 4.5-2.19 7.01 0 3.37 1.26 6.83 3.7 9.52 5.39 5.95 14.29 5.97 23.83.06l.29-.18.29.18c9.54 5.91 18.45 5.89 23.83-.06 2.45-2.69 3.7-6.15 3.7-9.52 0-2.52-.77-4.93-2.18-7.01-2.27 3.47-5.85 5.12-9.95 4.12-3.6-.88-6.46-3.45-6.5-5.87v-50.6l.88.6c13.58 9.26 24.06 28.18 25.32 40.11v62.62c0 6.67-4.5 11.78-8.85 12.88-3.07.77-5.75-.57-7.61-3.38-1.37 2.05-2.15 4.38-2.15 6.75 0 2.97 1.07 5.94 3.21 8.29 5.28 5.85 14.37 5.66 24.29-.49l.29-.18.3.18c9.92 6.14 19 6.33 24.29.49a12.33 12.33 0 0 0 3.21-8.29c0-2.37-.78-4.7-2.16-6.75-1.8 2.69-4.37 3.96-7.34 3.22-4.4-1.11-9.12-6.48-9.12-12.71v-61.75c.28-4.26 1.93-9.75 4.65-15.46l.38-.8.56.69s19.89 24.46 20.02 24.87c-.24 2.47-3.29 4.98-6.93 5.7-1.91.39-6.48.58-9.54-4.13-1.36 2.07-2.14 4.45-2.14 6.92 0 3.38 1.25 6.84 3.69 9.53 5.39 5.94 14.29 5.96 23.83.05l.29-.18.3.18Zm-59.58-20.22c.4.51.72 1.08 1.04 1.63v-9.27c-.85-7.43-6.8-20.72-16.12-30.31v39.37c.42.57 2.03 1.78 3.93 1.65 4-.29 6.94-8.58 6.94-8.58Zm29.96-.01 4.22-5.51s2.86 8.51 6.92 8.58c1.08.02 2.04-.34 2.78-.74-2.51-3.07-8.19-10.07-12.94-15.89-.81 2.51-1.32 4.82-1.45 6.74v7.56c.16-.24.29-.5.47-.74"/><path fill="#002d72" d="M222.74 190.22c0-2.51-.78-4.93-2.18-7.01-2.26 3.47-5.84 5.12-9.93 4.13-3.61-.87-6.47-3.46-6.51-5.87V126.6l.77.32c4.1 1.68 7.07 5.59 7.95 10.46.17.97.26 1.92.26 2.87 0 3.34-1.26 6.3-3.26 8.66 3.75-.75 14.8-4.12 14.8-18.08 0-12.88-10.41-20.76-20.07-22.63l-.45-.09V69.77c.04-2.42 2.9-4.99 6.51-5.87 4.09-.99 7.67.66 9.93 4.13 1.41-2.08 2.18-4.5 2.18-7.01 0-3.38-1.25-6.83-3.7-9.53-5.38-5.94-14.29-5.96-23.82-.05l-.3.18-.29-.18c-9.54-5.91-18.44-5.89-23.83.06-2.44 2.7-3.69 6.15-3.69 9.52 0 2.51.79 4.93 2.19 7.01 2.26-3.48 5.84-5.13 9.94-4.13 3.6.88 6.46 3.45 6.5 5.88v42.84l-.31.16c-7.45 3.88-14.12 9.34-19.85 16.21l-.43.52-.44-.52s-48.99-59.4-49.11-59.88c.55-2.52 3.83-4.9 7.47-5.42 3.71-.52 6.83 1.16 8.9 4.33 1.41-2.08 2.18-4.5 2.18-7.01 0-3.38-1.25-6.83-3.7-9.53-5.38-5.95-14.3-5.96-23.83-.06l-.29.18-.29-.18c-9.54-5.91-18.44-5.89-23.83.06-2.44 2.7-3.7 6.15-3.7 9.53 0 2.51.79 4.93 2.19 7.01 2.26-3.48 5.84-5.13 9.94-4.13 3.6.88 6.46 3.45 6.5 5.88v38.45l-.44.1c-9.68 2.13-19.44 9.92-19.44 22.51 0 13.96 11.08 17.33 14.82 18.08-1.99-2.35-3.26-5.34-3.26-8.69 0-.77.06-1.55.18-2.33.71-4.78 3.45-8.76 7.35-10.65l.8-.39v54.64c-.04 2.41-2.9 4.98-6.5 5.86-4.1 1-7.68-.65-9.94-4.12-1.41 2.08-2.19 4.5-2.19 7.01 0 3.37 1.26 6.83 3.7 9.52 5.39 5.95 14.29 5.97 23.83.06l.29-.18.29.18c9.54 5.91 18.45 5.89 23.83-.06 2.45-2.69 3.7-6.15 3.7-9.52 0-2.51-.78-4.93-2.18-7.01-2.27 3.47-5.85 5.12-9.95 4.12-3.6-.87-6.46-3.45-6.5-5.87v-50.6l.88.6c13.58 9.26 24.06 28.18 25.32 40.11v62.62c0 6.66-4.5 11.78-8.85 12.88-3.07.77-5.75-.57-7.61-3.38-1.38 2.05-2.15 4.38-2.15 6.75 0 2.97 1.08 5.94 3.21 8.29 5.28 5.84 14.37 5.65 24.29-.49l.29-.18.3.18c9.92 6.15 19 6.34 24.29.49 2.14-2.35 3.21-5.32 3.21-8.29 0-2.37-.79-4.7-2.16-6.75-1.8 2.69-4.37 3.96-7.34 3.22-4.41-1.11-9.12-6.48-9.12-12.71v-61.75c.28-4.26 1.93-9.75 4.65-15.46l.38-.8.56.69s19.9 24.46 20.02 24.87c-.24 2.47-3.29 4.98-6.93 5.7-1.91.38-6.48.58-9.54-4.13-1.36 2.06-2.14 4.44-2.14 6.92 0 3.38 1.25 6.83 3.69 9.53 5.39 5.95 14.29 5.96 23.83.05l.29-.18.3.18c9.53 5.91 18.44 5.89 23.82-.05a14.22 14.22 0 0 0 3.7-9.53Zm-71.8-35.17-.49-1.29c-9.22-24.32-23.92-35.89-34.6-41.32l-.31-.16V95.25l39.8 48.9.2.29-4.6 10.6Zm34.81-.56-10.9-13.21.3-.36c3.06-3.55 6.33-6.57 9.71-8.98l.89-.63v23.17Z"/></svg>