<svg id="ロゴ" xmlns="http://www.w3.org/2000/svg" viewBox="0 0 160 160">
  <g id="マリーンズ">
    <path d="M126.41,32.09c3.85-5,5.51-9,5.81-11.25,1.91-2.3,2.81-4.44,2.68-6.37a5.17,5.17,0,0,0-.41-1.68c.9-3.34.67-5.27-.7-6.06s-2.89,0-4.71,1.14l-.16.1L114,17.4l-4.5,2.85a65.84,65.84,0,0,0-29.28-6.78A66.63,66.63,0,0,0,23.89,115.71c-7.24,11.74-9.45,15.23-10,16.07,0,.05-.08.12-.14.19-.78,1.08-2.08,2.89-1,4.3.63.82,1.79,1.14,3.49.94a16.18,16.18,0,0,0,3.16-.76,4.31,4.31,0,0,0,1.67.4h.11c2.09,0,4.13-1.48,5.27-2.48h.25c2.52,0,5.55-1.48,9.22-4.53a66.63,66.63,0,0,0,90.54-97.75" style="fill: #fff"/>
    <path d="M81.63,43.35c0-.42-.07-.71-.08-1v-.17h-.16l-1.14,0a37.93,37.93,0,0,0-38,38A38.7,38.7,0,0,0,43,87.35l.09.44.23-.38c1.6-2.58,2.16-3,5-3.55,1.22-.25,2.31-.41,3.38-.57,3.37-.51,7.45-1.61,14.42-6.23l.14-.09L64.7,74.29l-.22-.18a17.17,17.17,0,0,1-5.64-6.54l0,0c-.52-.44-3.81-2.51-7.14-4.59-1.25-.79-1.91-2-1.55-2.83s1.5-1.3,3-1c.69.16,2.41.69,2.43.7L56,60a26.88,26.88,0,0,0,5.41,1.18A5.58,5.58,0,0,0,64,60.92c3-.67,5.06-.19,7.11,1.67.1.09.21.21.34.34a7.29,7.29,0,0,0,4.84,2.48h.1l.05-.08a34.23,34.23,0,0,0,5.2-22" style="fill: #fff"/>
    <path d="M107.08,53.29c-.82-.82-1.7-1.63-2.62-2.39l-.21-.17-.07.26a134.18,134.18,0,0,1-7.85,20.77v0a45,45,0,0,1-3.45,11.32.5.5,0,0,0,0,.54s1,1,1.42,1.47,1.38,1.78,1.39,1.79l.06.08,12-1L109,86c1.91-.17,3.06-.28,3.49,1a5,5,0,0,1-.87,3.54l-.07.1.07.1a3.19,3.19,0,0,1,.22,2.54,2.42,2.42,0,0,1-.89,1.18l-.1.07,0,.11a4,4,0,0,1-.09,2.46,3.9,3.9,0,0,1-1.85,2l-.12.07,0,.13a3.89,3.89,0,0,1-.16,2.82c-.48,1-1.31,1.34-2.77,1.73l-.13,0V104a4.18,4.18,0,0,1-1,2.79,3.87,3.87,0,0,1-3.44.65l-.15,0,0,.15a3.21,3.21,0,0,1-1.58,2.07c-.94.44-2.13.23-3.52-.63l-.09-.06-.09.06c-.61.41-2.33,1.09-3.45.49-.45-.25-.75-1-.88-2.28-.17-1.65-.39-4.31-.54-6.26v-.14l-.15,0a2,2,0,0,1-1.34-.94,6.93,6.93,0,0,0-4.09-3.19.55.55,0,0,1-.38-.46l0-.08-.08,0a26.85,26.85,0,0,1-3.36-1.78l-.09,0-.09,0c-.65.41-3.31,1.82-10.22,2.89l-.07,0c-.15.09-.4.28-.76.55a56.17,56.17,0,0,1-16.51,8.8s-.09,0-.14.1h0v0l-.09.13-.14.2,0,0,0,0h0l.06.06a38,38,0,0,0,53.57-53.8" style="fill: #fff"/>
    <path d="M31.51,71.81,32,69.67l-4.69.1Zm1.2-19.27c-1.4-.77-2.62-.69-3.1.19l-.44.8,4.62,2.52.43-.8a1.44,1.44,0,0,0-.1-1.38,3.56,3.56,0,0,0-1.41-1.33m10.15,6.81-2.47.3-4.77-2.6.36-.66,7.81,1.27,1.91-3.49-2.52.3-6.53-.84a4.45,4.45,0,0,0-2.45-3.81,4.39,4.39,0,0,0-6.42,1.91l-2.5,4.57,2.47-.3L39,62.16,40.1,64.4Zm-3.29,6.22-2.33,1L22,67.23,21.62,69l13.75,6.69,1.73,1.87,1-4.65-2.23,1-2.38-1.15.65-3.14,2.62,0,1.66,1.79Zm-.8,27.18-.61-4.62-1.82,1.7-9.87,1.3,7.79-4.38-8.68-2.2,9.89-1.31,2.2,1.17-.75-5.7L35.1,80.42,22.37,82.1l-2.2-1.17.53,4,7.35,1.89-6.61,3.73L22,95l1.82-1.7,12.72-1.69ZM34.87,41.3l2.46.34,9.35,8.8.48,2.44L51.1,48.7l-2.47-.34-9.34-8.8-.48-2.44Zm9.51-9.18,2.29,1,6.67,11-.19,2.48,4-2.42-2.29-1-4.86-8,12.95,8L54.08,28.59l.19-2.49-4,2.43,2.29,1,3.61,5.94L47.69,30.1Zm16.47-8.58,1.91,1.6L66,37.57l-.9,2.32,8.6-2.21-1.19-4.59-1.17,3-2.6.67-1.46-5.65L69,30.7l2,1.73-1.61-6.25-1,2.5-1.72.44-1.19-4.63,2.6-.67,2.49,2.09-1.18-4.59Zm21.34,10a3,3,0,0,1-.53,1.83,1.29,1.29,0,0,1-1,.52h0a1.57,1.57,0,0,1-1-.43L78,32.83l-1.53,4,2.89.7a5.92,5.92,0,0,0,1.3.16h.07A3.68,3.68,0,0,0,83.89,36a6.35,6.35,0,0,0,1-3.52,5.26,5.26,0,0,0-1.52-4L80.91,26a3,3,0,0,1-1-2.21,2.17,2.17,0,0,1,.37-1.27,1.11,1.11,0,0,1,.94-.5,1.25,1.25,0,0,1,.8.34l1.54,2.38,1.53-3.67-2.78-.7a5.34,5.34,0,0,0-1.15-.16h-.06a3.36,3.36,0,0,0-2.88,1.51,6.09,6.09,0,0,0,.9,7.59l2.46,2.48a2.28,2.28,0,0,1,.62,1.76M42.07,69.82a39.87,39.87,0,0,0-.2,19.8v.07l0,.07c-2.45,4-8.76,14.31-14.61,23.83l-.15.24-.15-.24a62.92,62.92,0,0,1,53.3-96.41,62.17,62.17,0,0,1,27.16,6.17l.28.13-.27.17c-13.83,8.77-21.47,13.66-22.7,14.52A10.08,10.08,0,0,0,82,40.56l-.06.08h-.1A39.5,39.5,0,0,0,42.07,69.82m53.45,55.26c-.48-1.55-1.33-2.34-2.2-2.07l-.63.2,1.56,5,.63-.2c.87-.27,1.12-1.4.64-3m40.89-32.82a13.22,13.22,0,0,0-11.8-3.43,4.39,4.39,0,0,0-2.28,7.83,12.55,12.55,0,0,0,5.48,3.17,14,14,0,0,0,3.81.55,10.54,10.54,0,0,0,2.51-.29,4.39,4.39,0,0,0,2.28-7.83m-3.2,15.62-4-2.5,1.25,3-1.32,2.14-10.86-6.74-1-2.29-3,4.88,2.49-.16L127.66,113l1,2.29Zm-16.29,19.65-2.35-1L103.7,116l-.11-.1-1.54,1,4.64,14.57-.16,2.54,4-2.51-2.25-.93L107.5,128l2.72-1.69,1.85,1.86-.16,2.44Zm-15.81,3.69a4.54,4.54,0,0,0-3.6-3.2,4.37,4.37,0,0,0-4.82-7L88,122.49,90,124l3.82,12.26L93,138.62l5.12-1.6c1.32-.41,4.25-1.79,3-5.8m-14.73,8.31-1.55-1.95-.7-12.82,1.33-2.1-5.74.31,1.56,2,.7,12.82-1.34,2.1Zm-9.06-16.34L71.7,122l1,2.28-1,4.63-3.32-.7,1-4.63,1.83-1.68-5.62-1.19,1,2.28-2.65,12.57-1.83,1.68,5.62,1.19-1-2.29L68,130.27l3.32.7-1.23,5.88-1.84,1.69,5.63,1.18-1-2.28,2.64-12.56Zm-16.53,1.26,2.3-4.14-.05-.1a5.74,5.74,0,0,0-2.51-2.52c-2.69-1.49-6.8.74-9.15,5a11.83,11.83,0,0,0-1.61,6.15A4.84,4.84,0,0,0,52,133.07a5.47,5.47,0,0,0,3,.81h.61l2.36-4.25-3.44,1.64a1.43,1.43,0,0,1-1.47,0c-1.35-.75-.94-3.1,1.22-7,1.43-2.56,3.53-5.84,5.35-4.83a1.42,1.42,0,0,1,.78,1.25Zm61.6-52.81,4.52-1.44-3.1-1-.41-1.29L135.57,64l2.37.76-1.75-5.48-1.49,2-12.17,3.88-.41-1.29,1.95-2.61-4.51,1.44Zm-3.07-13.56L130,51l2.49.09-4.89-7.41-3.95,2.61,3.25.12,1.48,2.25-4.87,3.21-1-1.47,1-2.51-5.38,3.56,2.68.1,1,1.48-4,2.63-1.48-2.24,1.17-3L113.54,53l4.89,7.41Zm20.52,18.51-2,1.47-12.77.13,0-1.35,2.63-1.92-4.74,0,.1,9.34,4.74,0L125.1,82.4l0-1.36,12.78-.13,2,1.43Zm3.35,3.55A62.91,62.91,0,0,1,37.5,126.31l-.13-.13.13-.13a139,139,0,0,0,14.86-17.59l.12-.17.14.14A39.54,39.54,0,0,0,108.2,52.17a42.2,42.2,0,0,0-3.43-3.06l-.09-.06.06-.25.06,0a80.4,80.4,0,0,0,17.75-14.7l.24-.28.13.12a63.18,63.18,0,0,1,20.27,46.24M97.26,130.31a1.43,1.43,0,0,0-1.36-.41l-1,.32,1.6,5.13,1-.32c1-.3,1.29-1.43.82-2.93a4,4,0,0,0-1-1.79M130,92.23c-3-.87-6.67-1.52-7.2.32s2.91,3.27,5.9,4.14,6.67,1.52,7.2-.33S133,93.1,130,92.23m-24.63,29.28,3.31,3.32L106.84,126Z" style="fill: #efefef"/>
    <path d="M80.65,55.81c.18-.66.34-1.35.49-2.06l-.84.63-4.08-.14.46,1.44Z" style="fill: #b81649"/>
    <path d="M77.27,57.51l.57,1.4,1.83-.09c.18-.46.34-.94.51-1.45Z" style="fill: #b81649"/>
    <path d="M75.44,50.9l.34,1.47,4,.46h0l1.66-1.05c.09-.59.17-1.19.22-1.81L79.5,51.37Z" style="fill: #b81649"/>
    <path d="M74.94,47.51,75.15,49l4,.8h0l2.66-1.39q0-.79,0-1.62l-2.91,1.52Z" style="fill: #b81649"/>
    <polygon points="109.78 76.83 109.77 76.77 108.29 76.45 108.81 80.5 106.68 83.99 108.16 84.3 110.28 80.82 109.78 76.83" style="fill: #b81649"/>
    <polygon points="104.26 79.24 104.41 75.16 103 74.61 102.86 78.69 100.19 81.79 101.6 82.33 104.26 79.24" style="fill: #b81649"/>
    <polygon points="104.84 83.45 107.22 80.18 107.24 80.16 107.06 76.07 105.61 75.64 105.8 79.72 103.39 83.02 104.84 83.45" style="fill: #b81649"/>
    <path d="M52.1,83.22l-.43-3.34,2.13-3.49-1.47-.31-2.11,3.45,0,0,.49,3.88,1-.15.42-.07" style="fill: #b81649"/>
    <path d="M98.56,76.71l.81-4-1.29-.77-.81,4-2.4,2c-.09.29-.18.59-.28.88l.85.5,3.1-2.59Z" style="fill: #b81649"/>
    <path d="M54.69,80.66l2.4-3.3-1.44-.43-2.41,3.3L53.37,83c.45-.1.92-.21,1.41-.35Z" style="fill: #b81649"/>
    <path d="M58.88,78.05l-2.66,3.08,0,1.08c.47-.15,1-.33,1.45-.53l2.66-3.09Z" style="fill: #b81649"/>
    <polygon points="101.35 78.09 101.83 74.03 100.48 73.36 100 77.42 97.09 80.29 98.45 80.95 101.35 78.09" style="fill: #b81649"/>
    <polygon points="85.54 112.87 85.33 111.38 81.36 110.58 81.33 110.58 77.7 112.47 77.92 113.96 81.54 112.07 85.54 112.87" style="fill: #b81649"/>
    <polygon points="81.79 113.68 81.76 113.67 78.06 115.23 77.99 115.26 78.08 116.77 81.85 115.18 85.78 116.3 85.68 114.79 81.79 113.68" style="fill: #b81649"/>
    <polygon points="85.04 109.48 84.7 108.01 80.68 107.55 80.65 107.54 77.19 109.71 77.52 111.19 80.98 109.01 85.04 109.48" style="fill: #b81649"/>
    <polygon points="113.82 77.41 114.99 81.33 113.44 85.11 114.95 85.18 116.48 81.43 116.49 81.4 115.33 77.48 113.82 77.41" style="fill: #b81649"/>
    <polygon points="111.03 77.04 111.88 81.04 110.03 84.68 111.53 84.88 113.36 81.27 113.37 81.24 112.53 77.24 111.03 77.04" style="fill: #b81649"/>
    <polygon points="84.26 106.14 83.81 104.7 79.76 104.57 79.73 104.56 76.46 107.01 76.91 108.45 80.18 106 84.26 106.14" style="fill: #b81649"/>
    <polygon points="83.21 102.87 82.64 101.47 78.56 101.67 75.51 104.37 76.07 105.77 79.13 103.06 83.21 102.87" style="fill: #b81649"/>
    <path d="M78.69,46.7h0l3.09-1.3q0-.75-.12-1.5L78.63,45.2l-3.92-1.12.09,1.51Z" style="fill: #b81649"/>
    <path d="M71.48,97.12l.83,1.14,1-1.46-1.84.32" style="fill: #b81649"/>
    <polygon points="49.45 83.34 48.61 79.34 50.45 75.7 48.95 75.5 47.11 79.14 47.95 83.14 49.45 83.34" style="fill: #b81649"/>
    <polygon points="46.66 82.97 45.49 79.05 47.04 75.27 45.53 75.2 44 78.95 43.98 78.98 45.15 82.89 46.66 82.97" style="fill: #b81649"/>
    <polygon points="81.91 99.7 81.23 98.36 77.18 98.88 74.35 101.82 75.03 103.17 77.86 100.23 81.91 99.7" style="fill: #b81649"/>
    <path d="M80.34,96.64l-.79-1.29-1.76.38c-.67.2-1.45.41-2.34.62l-2.47,3,.79,1.29,2.58-3.17Z" style="fill: #b81649"/>
    <path d="M124.45,28.94a.59.59,0,0,0-.24-.41c-.42-.31-1.54.17-4.28,1.83l-.11.07a2.5,2.5,0,0,1-.53.28,1.45,1.45,0,0,1,.16-.18L120,30c2.47-2.54,4-4.13,3.86-4.85a.42.42,0,0,0-.23-.32c-.55-.26-3.46.69-6,2.37a1.3,1.3,0,0,1-.41.19s0-.11.26-.29,6.61-5.59,6.47-6.52a.24.24,0,0,0-.15-.2c-.62-.26-3.33,1.06-3.87,1.33-1.25.62-2.72,1.42-4.25,2.32a1.21,1.21,0,0,1-.45.17.57.57,0,0,1,.24-.28c5.49-4.07,8.23-6.62,8.14-7.6a.41.41,0,0,0-.23-.35c-.64-.39-9.87,5.1-11.72,6.21C100.55,29.18,87,37.82,85.27,39c-2.65,1.84-2.79,2.21-2.65,4.28a34.41,34.41,0,0,1-5.6,23l-.16.22,0,0c-.71.93-1.36,1.48-1.66,1.4a4.28,4.28,0,0,1,.53-1.3l.12-.22-.24,0a8.71,8.71,0,0,1-5.15-3l-.16-.17a5.41,5.41,0,0,0-3.44-1.59l-.22,0,0,.23s0,.07,0,.1a.84.84,0,0,1-.89.77,1.15,1.15,0,0,1-.92-.46.19.19,0,0,1,0-.22l.22-.37-.53.09c-.67.13-1.17.23-1.56.29l-.27.05.16.22a8.23,8.23,0,0,1,.92,2l0,.1.11,0a1.61,1.61,0,0,0,.5,0,1.29,1.29,0,0,1-.64.44,8,8,0,0,0-3.74,2.86l0,.09,0,.09a17.41,17.41,0,0,0,5.26,5.85l2.29,3.84a9.25,9.25,0,0,0,1,1.07c.19.19.48.47.44.53a.16.16,0,0,1-.12.07c-.31,0-1-.51-1.84-1.35l-.1-.11-.12.08c-7.21,4.82-11.47,6-15,6.5-1,.16-2.13.32-3.33.56-2.49.51-3.06.81-4.61,3.49-.63,1.08-11,18.09-18.78,30.64-3.24,5.56-3.07,5.9-3,6a.41.41,0,0,0,.33.27c1,.15,3.61-2.72,7.85-8.49a.65.65,0,0,1,.25-.24,1.42,1.42,0,0,1-.19.47c-2,3.32-4.29,7.45-4.05,8.23a.24.24,0,0,0,.2.17c.75.15,4.65-3.78,6.82-6.39a1.58,1.58,0,0,1,.25-.26,1.18,1.18,0,0,1-.2.43c-1.37,2.06-3.32,5.36-3.09,6a.3.3,0,0,0,.23.17c.69.11,3.56-1.92,5.45-4.07a1.43,1.43,0,0,1,.25-.23,2.32,2.32,0,0,1-.14.23.86.86,0,0,1-.07.1c-.64,1-2.13,3.49-2,4.43a.34.34,0,0,0,.22.28l.16,0c.91,0,3.44-1.82,4.6-2.93a162.36,162.36,0,0,0,13.46-16.6l.5-.7h0v0l.08-.14.18,0A54.71,54.71,0,0,0,70.6,96.32l.14-.09.11,0a33.71,33.71,0,0,0,9.72-2.68l.2-.1-.14-.17a9.41,9.41,0,0,1-1-1.24,1,1,0,0,1-.17-.5A18.31,18.31,0,0,1,82,93.25l0,0A16.2,16.2,0,0,0,85,95l.15.06.08-.14a3.3,3.3,0,0,1,.4-.6l.12-.15-.16-.1-.41-.24c-.38-.22-.87-.49-1-.75a.61.61,0,0,1,.17-.74c1.16-1.1,3.63.12,4.58.84.75.57,1.09,1.11,1,1.64a1,1,0,0,1-.07.25l-.06.17.17.06a6.92,6.92,0,0,0,3.25.29l.21,0,.27-.07-.18-.21L93.42,95a6.93,6.93,0,0,0-4.1-3.2c-.09,0-.39-.13-.41-.71a2.74,2.74,0,0,1,.69-1.61l.13-.15-.17-.11-.4-.23a2.61,2.61,0,0,1-1-.75.6.6,0,0,1,.17-.74c1.15-1.1,3.63.12,4.58.84.75.57,1.09,1.11,1,1.64a1,1,0,0,1-.06.25l-.06.17.17.06a7.07,7.07,0,0,0,3.25.29l.27-.06.08,0a1.28,1.28,0,0,1,.3.43,1.82,1.82,0,0,1,.29,1.14,1.27,1.27,0,0,1-.55.94l-.13.08.07.14A1.65,1.65,0,0,1,97.71,95c-.34.55-1.14.58-1.74.5h-.09l-.06.07a1.36,1.36,0,0,1-.88.46,1.33,1.33,0,0,1-.68-.16l-.49-.27.25.5a1.59,1.59,0,0,1,.22,1,1.23,1.23,0,0,1-.55.94l-.12.09.06.13a1.65,1.65,0,0,1,.13,1.54c-.26.43-.81.6-1.63.51l-.21,0v.21c.17,2.07.4,4.9.57,6.63.08.8.15,1.24.53,1.45,1,.54,2.52-.58,3-.92.43.35,2,1.53,3.12,1.09.94-.36,1.07-2,1.08-2.7.74.31,2.94,1.08,3.89,0a3.5,3.5,0,0,0,.46-3c.69,0,2.68-.12,3.25-1.43a2.91,2.91,0,0,0-.5-3,3.87,3.87,0,0,0,2.55-1.91,2.57,2.57,0,0,0-.49-2.72,2.15,2.15,0,0,0,1.53-1.08,2.28,2.28,0,0,0-.54-2.45c.39-.48,1.48-1.94,1.14-2.94-.24-.73-1.13-.66-2.48-.56L108,87,96.24,88l.06.2c.18.67.09.78.09.78s-.71-.44-1.24-1.15l-.33-.44c-.41-.57-.93-1.28-1.15-1.54-.51-.58-1.5-1.5-1.53-1.53l0,0c-.43-.52-.54-.66-.11-1.54a45.28,45.28,0,0,0,3.37-11.13v-.07l0-.07c6.34-13.61,8.23-22.11,8.43-23l.05-.2.17-.11a83.9,83.9,0,0,0,16-12.79h0c1.06-1.15,4.52-5,4.36-6.34" style="fill: #fff"/>
    <path d="M93.54,96.39l-.14,0A8,8,0,0,1,88,94.87l0,0c-.07,0-.41-.29-.31-.47s.37-.05.52,0l.78.39.15.08.08-.16c0-.07.1-.38-.72-1s-2.68-1.87-3.37-1.1a.31.31,0,0,0-.06.26c.06.26.46.45,1.06.72l.24.11a.41.41,0,0,1,.25.32.44.44,0,0,1-.14.39c-.84.77-.87,1.19-.85,1.34a.39.39,0,0,0,.24.3,8.12,8.12,0,0,1,4.34,3.47c.18.25.53.65.81.65h0c.26,0,.46-.37.46-.37a.45.45,0,0,1,.46-.22c.93.15,1.17.07,1.27,0l.08-.08v0c0-.16-.05-.45-.47-1.29-.13-.27-.12-.39-.11-.41s.12-.09.46-.13c.19,0,.43-.14.47-.59a1,1,0,0,0,0-.47Z" style="fill: #f5d465"/>
    <path d="M97.54,91.72l-.05-.13-.15,0a7.84,7.84,0,0,1-5.4-1.55l0,0c-.2-.14-.39-.33-.31-.48s.36,0,.53,0l.77.39.15.07.08-.15c0-.08.1-.38-.72-1-1-.74-2.68-1.87-3.37-1.09a.3.3,0,0,0-.06.26c.06.25.46.45,1.06.72l.24.1a.49.49,0,0,1,.25.33.43.43,0,0,1-.14.38c-.84.77-.87,1.2-.85,1.35a.38.38,0,0,0,.24.3,8.14,8.14,0,0,1,4.34,3.46c.18.25.52.66.81.66h0c.27,0,.47-.36.47-.36a.45.45,0,0,1,.46-.23c.93.16,1.16.07,1.26,0l.08-.08v-.06c0-.15,0-.44-.46-1.28-.14-.27-.13-.39-.11-.42s.12-.09.45-.12.43-.14.48-.59a1.62,1.62,0,0,0,0-.48" style="fill: #f5d465"/>
    <path d="M63,63.69a3.75,3.75,0,0,0-.67-1.57l-.05-.06h-.08a4.68,4.68,0,0,1-1-.12,47.79,47.79,0,0,1-6-1.56l-.33-.1c-.82-.27-1.83-.5-2.22-.59a1.3,1.3,0,0,0-1.48,2.06l.24.29.07-.36c.13-.65.62-.91,1.41-.76s2,.56,4.71,1.43L62.76,64l.29.09Z" style="fill: #f5d465"/>
    <path d="M58.28,63l-2.94-.94-.71-.23.54.52a.56.56,0,0,1,.1.81.93.93,0,0,1-.54.36l0,0-.09.15-.09.15.1.06.06,0h0c3.21,1.86,4.81,2.89,4.9,3l.22.2.11-.17a6.62,6.62,0,0,1,2.35-2.18l.37-.3-.3-.1-4-1.31" style="fill: #f5d465"/>
    <path d="M55.42,63.28a.75.75,0,0,0-.13-1s-.17-.17-.31-.28a22,22,0,0,0-2.22-.63c-.78-.15-1,.26-1,.39a.53.53,0,0,0,.12.56l.06,0,0,0,2.48,1.41a1.57,1.57,0,0,0,.29,0h0a1.2,1.2,0,0,0,.72-.45" style="fill: #b81649"/>
    <path d="M80.24,142.92a62.52,62.52,0,0,1-42.62-16.74A140.78,140.78,0,0,0,52.5,108.56,39.72,39.72,0,1,0,104.88,49s0,0,0-.07a80.77,80.77,0,0,0,17.79-14.74l.12-.14A62.75,62.75,0,0,1,80.24,142.92m9.09-43a2.13,2.13,0,0,0,1.47,1c.16,2.06.37,4.64.54,6.25.13,1.26.42,2.12,1,2.42,1.19.64,2.94,0,3.62-.49,1.45.89,2.68,1.1,3.69.64a3.38,3.38,0,0,0,1.66-2.18,4,4,0,0,0,3.59-.69A4.43,4.43,0,0,0,106,104c1.48-.39,2.36-.79,2.88-1.82a4.14,4.14,0,0,0,.16-3,4,4,0,0,0,1.93-2.1,4.14,4.14,0,0,0,.1-2.56,2.58,2.58,0,0,0,1-1.26,3.33,3.33,0,0,0-.24-2.7,5.13,5.13,0,0,0,.89-3.7c-.55-1.66-2.21-1.2-4.84-1l-11.93.95s-1-1.34-1.4-1.8S93,83.53,93,83.53a.28.28,0,0,1,0-.33,44.61,44.61,0,0,0,3.46-11.37A134.43,134.43,0,0,0,104.35,51c.9.75,1.77,1.54,2.61,2.38A37.79,37.79,0,0,1,53.64,107l.16-.23a59.08,59.08,0,0,0,17.37-9.4c6-.94,9.14-2.2,10.28-2.91a28.72,28.72,0,0,0,3.38,1.79.72.72,0,0,0,.51.59,6.79,6.79,0,0,1,4,3.12m1.36-10.75a.59.59,0,0,0-.34-.45c-.5-.23-1.39-.57-1.19-.82.54-.61,2,.27,3.13,1.12.71.55.68.8.67.8l-.77-.39c-.31-.16-.63-.19-.75,0s.06.5.37.7c.11.08,2.74,2.07,5.56,1.6a.89.89,0,0,1,0,.4c0,.09,0,.4-.32.43s-.49.08-.58.21,0,.35.1.59a3.43,3.43,0,0,1,.45,1.18s0,.19-1.14,0a.61.61,0,0,0-.64.31c0,.06-.19.27-.33.28s-.38-.14-.7-.58a8.22,8.22,0,0,0-4.42-3.52.22.22,0,0,1-.13-.17c0-.07,0-.44.8-1.19a.61.61,0,0,0,.19-.54m-4,4.81a.62.62,0,0,0-.34-.46c-.5-.23-1.39-.57-1.18-.82.53-.6,2,.27,3.12,1.13.72.54.68.79.68.8l-.78-.4c-.3-.16-.63-.19-.75,0s.07.51.37.71c.12.07,2.74,2.07,5.57,1.6a1.06,1.06,0,0,1,0,.39c0,.09,0,.4-.32.44a.85.85,0,0,0-.59.2c-.08.13,0,.36.11.59a3.28,3.28,0,0,1,.44,1.18s0,.19-1.14,0a.6.6,0,0,0-.64.31c0,.05-.19.26-.33.27s-.37-.13-.7-.58a8.23,8.23,0,0,0-4.42-3.52.22.22,0,0,1-.13-.17c0-.06,0-.43.8-1.19a.58.58,0,0,0,.19-.53M34.14,125.8c-.07-.66.82-2.43,2-4.31.11-.17.34-.44.21-.6s-.4.15-.53.3c-2.1,2.38-5.19,4.41-5.39,3.94s1.25-3.08,3.07-5.84c.12-.17.35-.59.18-.7s-.37.16-.5.32c-2.63,3.17-6.54,6.86-6.73,6.27s1.7-4.16,4-8.08c.11-.18.31-.6.16-.72s-.39.13-.51.29c-7.1,9.66-7.79,8.5-7.88,8.27s1.37-3.11,3-5.89C33.18,106.22,43.42,89.48,44,88.4c1.53-2.63,2-2.9,4.49-3.39,1.2-.25,2.28-.41,3.33-.56,4-.6,8.28-2,15.06-6.53.63.67,1.86,1.8,2.22,1.25.21-.3-.61-.73-1.41-1.79l-2.3-3.86a17.14,17.14,0,0,1-5.23-5.81,7.81,7.81,0,0,1,3.64-2.79,1.58,1.58,0,0,0,.63-.39.93.93,0,0,0,.21-.33s0,0,0-.06h0l0,0h-.11l-.28,0H64a8.15,8.15,0,0,0-.94-2c.38-.06.87-.15,1.57-.29l.15,0,0,0c-.27.44.48.94,1.07.94a1,1,0,0,0,1.06-.94.66.66,0,0,0,0-.14,5.19,5.19,0,0,1,3.32,1.54,9.09,9.09,0,0,0,5.41,3.23c-.34.66-.68,1.41-.5,1.51.53.29,1.51-.88,1.92-1.42h0l0,0,.17-.22v0a34.63,34.63,0,0,0,5.61-23.08c-.13-2,0-2.31,2.58-4.1C87,38,99.87,29.81,111.75,22.28c3.39-2,11.09-6.49,11.54-6.2.21.1,1.32.82-7.92,7.66-.16.11-.39.35-.29.51s.52,0,.69-.11c1.53-.89,3-1.7,4.24-2.32,1.8-.9,3.37-1.47,3.72-1.32.55.24-3.32,3.86-6.36,6.43-.15.12-.4.33-.3.5s.5,0,.66-.13c2.64-1.74,5.41-2.55,5.83-2.36.74.43-1.91,3.06-4.19,5.42-.13.14-.37.35-.24.48s.7-.22.89-.33c1.84-1.12,3.67-2.15,4.09-1.84,1,.67-2.74,5-4.15,6.49a83.28,83.28,0,0,1-16,12.76l-.24.15-.06.27c0,.09-1.8,8.78-8.42,23l0,.09,0,.1a43.73,43.73,0,0,1-3.35,11.07c-.5,1-.29,1.21.19,1.79,0,0,1,.94,1.53,1.53.27.32,1,1.39,1.47,2,0,0,1.06,1.42,1.46,1.21.19-.1.12-.54,0-1L108,87.2c1.94-.11,3.1-.38,3.35.37.37,1.1-1.24,2.91-1.24,2.91a2.06,2.06,0,0,1,.64,2.36,2.15,2.15,0,0,1-1.74,1,2.4,2.4,0,0,1,.7,2.77,3.73,3.73,0,0,1-2.74,1.85,2.83,2.83,0,0,1,.69,3.08c-.64,1.47-3.32,1.32-3.32,1.32s.6,2-.36,3-3.94-.16-3.94-.16.09,2.39-1,2.8C97.84,109,96,107.4,96,107.4s-1.85,1.56-2.88,1c-.29-.17-.35-.5-.43-1.32-.18-1.72-.41-4.5-.57-6.62a1.82,1.82,0,0,0,1.8-.6,1.78,1.78,0,0,0-.12-1.7,1.43,1.43,0,0,0,.62-1.07A1.81,1.81,0,0,0,94.18,96a1.41,1.41,0,0,0,.68.18H95a1.49,1.49,0,0,0,1-.52,1.89,1.89,0,0,0,1.91-.58,1.85,1.85,0,0,0-.12-1.71,1.42,1.42,0,0,0,.62-1.06,2,2,0,0,0-.3-1.24c-.18-.33-.36-.54-.46-.52s-.19.06-.38.09a6.91,6.91,0,0,1-3.17-.29,1.23,1.23,0,0,0,.08-.29c.07-.6-.29-1.19-1.09-1.8s-3.5-2.07-4.81-.82a.75.75,0,0,0-.21.92c.18.42,1,.77,1.45,1.07a2.86,2.86,0,0,0-.73,1.72c0,.8.53.88.55.88a6.82,6.82,0,0,1,4,3.13l.19.24-.19,0a6.79,6.79,0,0,1-3.16-.28,1.32,1.32,0,0,0,.07-.3c.07-.6-.29-1.18-1.09-1.79s-3.5-2.08-4.81-.83a.79.79,0,0,0-.21.93c.18.42,1,.77,1.45,1.06a4.5,4.5,0,0,0-.41.63,15.47,15.47,0,0,1-3-1.69,16.16,16.16,0,0,0-2.64-1.82c-.16,0-.2.35.07.79a10.42,10.42,0,0,0,1,1.27A33.55,33.55,0,0,1,70.82,96l-.14,0-.13.08a54.19,54.19,0,0,1-17.39,9.39l-.24.07-.13.22c.9-1.47-6.25,9.24-14,17.26-1.52,1.45-4.58,3.45-4.68,2.72M61.47,61a26.48,26.48,0,0,1-5.92-1.34c-.1,0-1.77-.54-2.44-.7C51.63,58.62,50.39,59,50,60c-.37.89.24,2.18,1.61,3,3,1.9,6.6,4.13,7.12,4.58a17.35,17.35,0,0,0,5.87,6.72L66,76.91c-6.39,4.24-10.42,5.61-14.35,6.21-1.06.16-2.16.32-3.39.57-2.87.57-3.48,1-5.14,3.63a38.09,38.09,0,0,1-.68-7.19A37.76,37.76,0,0,1,80.24,42.36l1.13,0c0,.31,0,.63.09,1a34.13,34.13,0,0,1-5.17,21.86c-2.81-.15-4.34-2.09-5.07-2.76-2.29-2.08-4.5-2.34-7.26-1.72a5.3,5.3,0,0,1-2.49.26m.8,3.49-.12.1a6.7,6.7,0,0,0-2.38,2.21l-.07-.06C59.61,66.67,57,65,52,62.17h0c-.21-.12-.2-.85.77-.67s3.32,1,9.54,3m-9.4-3.75c-1.34-.25-1.57.64-1.62.89a1.16,1.16,0,0,1-.23-1.1,1.19,1.19,0,0,1,1.53-.68c.21,0,1.32.3,2.21.58a49.22,49.22,0,0,0,6.36,1.67,4.53,4.53,0,0,0,1,.12,4,4,0,0,1,.66,1.63c-6.44-2-9-2.93-9.94-3.11M17.47,80.13A62.76,62.76,0,0,1,107.32,23.5C96.59,30.31,86.09,37,84.61,38a10.12,10.12,0,0,0-2.75,2.45A39.68,39.68,0,0,0,41.7,89.67c-2.58,4.21-8.81,14.39-14.61,23.83a62.41,62.41,0,0,1-9.62-33.37M124.29,32.25c5.36-6.66,6.38-10.85,6.41-12,1.86-2.12,2.74-4,2.64-5.63A3.14,3.14,0,0,0,132.8,13c.64-2.16,1-4.44.21-4.9s-1.66.24-3.25,1.2c0,0-6.68,4.22-14.9,9.44l-5.25,3.32a65.07,65.07,0,0,0-83.87,93.64c-5.09,8.26-9.58,15.51-10.59,17-.31.46-1.62,2.1-1.2,2.65s1.41.41,2,.33a13.93,13.93,0,0,0,3.54-.94,2.49,2.49,0,0,0,1.54.57c1.92.05,4-1.81,4.77-2.52a7.38,7.38,0,0,0,.82,0c2.58,0,5.87-2.07,9.26-5.05a65.06,65.06,0,1,0,88.38-95.5"/>
    <g>
      <polygon points="36.34 89.83 26.47 91.14 34.27 86.75 25.58 84.55 35.47 83.24 37.67 84.41 36.92 78.71 35.1 80.42 22.37 82.1 20.17 80.93 20.7 84.94 28.05 86.82 21.44 90.55 22.03 94.97 23.85 93.27 36.57 91.58 38.77 92.75 38.16 88.13 36.34 89.83"/>
      <path d="M22,67.23,21.62,69l13.75,6.68,1.73,1.87,1-4.65-2.23,1-2.38-1.15.64-3.14,2.63,0,1.66,1.79,1.19-5.78-2.33,1Zm9.53,4.58-4.25-2,4.69-.1Z"/>
      <path d="M36.65,53.63a4.45,4.45,0,0,0-2.45-3.81,4.39,4.39,0,0,0-6.42,1.91l-2.5,4.57,2.47-.3L39,62.16l1.09,2.24,2.75-5.05-2.47.3-4.77-2.6.36-.66,7.81,1.27,1.91-3.49-2.52.3Zm-2.43,1.62-.43.8-4.62-2.52.44-.8c.48-.88,1.7-1,3.1-.19a3.56,3.56,0,0,1,1.41,1.33A1.44,1.44,0,0,1,34.22,55.25Z"/>
      <polygon points="48.63 48.36 39.29 39.56 38.81 37.12 34.87 41.3 37.34 41.64 46.68 50.44 47.16 52.88 51.1 48.7 48.63 48.36"/>
      <polygon points="53.34 44.07 53.15 46.55 57.14 44.13 54.85 43.15 49.99 35.16 62.94 43.15 54.08 28.59 54.27 26.11 50.28 28.53 52.57 29.51 56.18 35.45 47.69 30.1 44.38 32.12 46.67 33.1 53.34 44.07"/>
      <polygon points="65.97 37.57 65.07 39.89 73.67 37.68 72.48 33.09 71.31 36.13 68.71 36.8 67.25 31.15 68.97 30.7 71.02 32.43 69.41 26.18 68.45 28.68 66.73 29.12 65.54 24.49 68.14 23.82 70.63 25.91 69.45 21.32 60.85 23.54 62.76 25.14 65.97 37.57"/>
      <path d="M80.73,37.64A3.68,3.68,0,0,0,83.89,36a6.35,6.35,0,0,0,1-3.52,5.26,5.26,0,0,0-1.52-4L80.91,26a3,3,0,0,1-1-2.21,2.24,2.24,0,0,1,.37-1.27,1.11,1.11,0,0,1,.94-.5,1.25,1.25,0,0,1,.8.34l1.54,2.38,1.53-3.67-2.78-.7a6.05,6.05,0,0,0-1.15-.16h-.06a3.36,3.36,0,0,0-2.88,1.51,5.83,5.83,0,0,0-.93,3.2,5.75,5.75,0,0,0,1.83,4.38l2.46,2.49a2.28,2.28,0,0,1,.62,1.76,3,3,0,0,1-.53,1.83,1.29,1.29,0,0,1-1,.52h0a1.53,1.53,0,0,1-1-.44L78,32.83l-1.53,4,2.89.7a5.92,5.92,0,0,0,1.3.16Z"/>
      <path d="M63,120.21a5.74,5.74,0,0,0-2.51-2.52c-2.69-1.49-6.8.74-9.15,5a11.83,11.83,0,0,0-1.61,6.15A4.84,4.84,0,0,0,52,133.07a5.47,5.47,0,0,0,3,.81h.62l2.35-4.25-3.44,1.64a1.41,1.41,0,0,1-1.47,0c-1.35-.74-.94-3.09,1.22-7,1.43-2.57,3.53-5.85,5.35-4.84a1.42,1.42,0,0,1,.78,1.25l.43,3.78,2.3-4.14Z"/>
      <polygon points="72.7 124.29 71.72 128.92 68.4 128.22 69.38 123.59 71.21 121.91 65.59 120.72 66.59 123 63.94 135.57 62.11 137.25 67.73 138.44 66.73 136.15 67.97 130.27 71.3 130.97 70.06 136.85 68.22 138.54 73.84 139.72 72.85 137.44 75.49 124.88 77.32 123.19 71.7 122.01 72.7 124.29"/>
      <polygon points="84.13 124.77 85.46 122.66 79.72 122.97 81.28 124.92 81.98 137.74 80.64 139.84 86.38 139.53 84.83 137.58 84.13 124.77"/>
      <path d="M97.51,128a4.37,4.37,0,0,0-4.82-7L88,122.49,90,124l3.82,12.25L93,138.62l5.12-1.6c1.32-.41,4.25-1.79,3-5.8A4.54,4.54,0,0,0,97.51,128Zm-4.82-4.81.63-.2c.87-.27,1.72.52,2.2,2.07s.23,2.68-.64,3l-.63.2ZM97.49,135l-1,.32-1.6-5.13,1-.32a1.43,1.43,0,0,1,1.36.41,4,4,0,0,1,1,1.79C98.78,133.6,98.47,134.73,97.49,135Z"/>
      <path d="M103.7,116l-.11-.1-1.54,1,4.64,14.57-.16,2.54,4-2.51-2.25-.93L107.5,128l2.72-1.69,1.85,1.86-.16,2.44,5-3.12-2.35-1Zm3.14,10-1.45-4.48,3.31,3.32Z"/>
      <polygon points="130.43 108.39 129.1 110.53 118.25 103.79 117.29 101.5 114.26 106.38 116.75 106.22 127.66 112.98 128.61 115.28 133.21 107.88 129.18 105.38 130.43 108.39"/>
      <path d="M130.93,89.09a12.57,12.57,0,0,0-6.32-.26,4.39,4.39,0,0,0-2.28,7.83,12.55,12.55,0,0,0,5.48,3.17,14,14,0,0,0,3.81.55,10.54,10.54,0,0,0,2.51-.29,4.39,4.39,0,0,0,2.28-7.83A12.55,12.55,0,0,0,130.93,89.09Zm5,7.27c-.53,1.85-4.21,1.2-7.2.33s-6.44-2.29-5.9-4.14,4.21-1.19,7.2-.32S136.46,94.52,135.92,96.36Z"/>
      <polygon points="125.06 78.19 125.04 76.84 127.67 74.92 122.93 74.97 123.03 84.31 127.77 84.26 125.1 82.4 125.08 81.04 137.86 80.91 139.9 82.34 139.84 76.59 137.83 78.06 125.06 78.19"/>
      <polygon points="122.12 63.9 124.07 61.29 119.56 62.73 122.39 71.64 126.91 70.2 123.81 69.2 123.4 67.91 135.57 64.03 137.94 64.79 136.19 59.31 134.7 61.31 122.53 65.19 122.12 63.9"/>
      <polygon points="119.32 58.08 130.03 51 132.52 51.09 127.63 43.68 123.68 46.29 126.93 46.41 128.41 48.66 123.54 51.87 122.56 50.4 123.52 47.89 118.14 51.45 120.82 51.55 121.8 53.02 117.8 55.66 116.32 53.42 117.49 50.38 113.53 52.99 118.43 60.4 119.32 58.08"/>
    </g>
  </g>
</svg>
