<svg id="ロゴ" xmlns="http://www.w3.org/2000/svg" viewBox="0 0 160 160">
  <g>
    <g>
      <path d="M150.29,55.66C146.23,45,134.52,38.6,131,36.92A84.32,84.32,0,0,0,105,29.47c3.71-.76,8.08-1.47,11.27-2,1.79-.29,3.35-.54,4.47-.74a1.38,1.38,0,0,0-.21-2.73l-2.74,0a99.45,99.45,0,0,0-22,2.34,101.47,101.47,0,0,1,11.64-3.54,1.38,1.38,0,0,0,1.06-1.46,1.36,1.36,0,0,0-1.3-1.25c-.88-.05-1.77-.07-2.66-.07a57.86,57.86,0,0,0-12.08,1.3l-.34.07c-14.2,2.86-18.52,9.11-19.7,11.6l-62,1.25A1.37,1.37,0,0,0,10.27,37c.4,0,38.27,3.15,47.17,4.15C59.81,67.26,76.57,70.4,84.05,70.47c-.33,3.3-2.65,5.63-4.67,7-7.12,5-15.62,6.07-21.5,6.07A40.36,40.36,0,0,1,44.7,81.65C30.42,76.13,29.45,67.33,29.27,62.1L53,48.33a1.38,1.38,0,0,0-.69-2.57,1.22,1.22,0,0,0-.41.07c-1.54.48-37.69,11.9-42.43,13.54a1.36,1.36,0,0,0-.93,1.2c-.19,2.72,2,10.24,3.84,13.2,5.34,8.55,16.07,20,36.91,25.8l.66.19c1.79.53,3.6,1,5.41,1.43-4.26.86-9.69,1.94-10.89,2.15l-1,.15c-2.53.39-7.24,1.11-10.07,2.86-4.17,2.59-6.18,5.58-6,8.9a1.4,1.4,0,0,0,1.22,1.28l.63,0A165.93,165.93,0,0,0,54.07,114l3.52-.7c3.3-.65,7.4-1.46,8.76-1.82,5.49-1.46,9.68-3.22,12.46-5.22a6.5,6.5,0,0,0,2.07-2.76,72.88,72.88,0,0,0,7.37-.79c.38,1.36,2.39,5.8,12.35,8.26l.37.09a131.79,131.79,0,0,0,17.46,3.09c2,.23,14.5,1,16.73,1h4.63a1.38,1.38,0,0,0,1.37-1.28c.19-2.83-1.19-8-12.67-10.75-2.26-.54-16.2-2.33-21.5-2.6-1.25-.21-3.69-.44-5.26-.58,0-.35.08-.68.11-1,12.28-5,19-13.72,21.24-20.26a69.66,69.66,0,0,0,14.33-2.36l.11,0c6.85-2.54,11.08-5.77,12.94-9.87C151.9,63.3,151.85,59.76,150.29,55.66Z" style="fill: #fff"/>
      <path d="M119.5,122.38c-.07-.84-.66-1.76-1.72-3.24-.36-.49-.39-.6-.31-.88.17-.55.56-1.56.62-1.68a.83.83,0,0,0-.19-1.15c-.61-.44-1.56-1.07-1.56-1.07a.8.8,0,0,0-.45-.14.86.86,0,0,0-.46.14c-.51.34-1,.67-1.31.9-.48-.33-.8-.53-.8-.53a.8.8,0,0,0-.44-.13.84.84,0,0,0-.64.31c-.37.46-.79.92-1,1.15a2.32,2.32,0,0,0-1.43-.43,4.25,4.25,0,0,0-2.14.8.78.78,0,0,0-.53-.2h-.09c-.89.1-2.23.29-2.23.29a.8.8,0,0,0-.68.6c-.11.42-.48,1.88-.5,1.94a3.35,3.35,0,0,0-2.38-2.42,2.67,2.67,0,0,0-.64-.08,4.58,4.58,0,0,0-2.92,1.28,10,10,0,0,0-2.41,3.23l.65-2.77a.82.82,0,0,0-.8-1H95l-2,.31a.68.68,0,0,0-.24.08,2.77,2.77,0,0,0-1.08-.2,4.24,4.24,0,0,0-.77.07,5.45,5.45,0,0,0-3.35,2.77c.06-.24.12-.46.16-.65a.79.79,0,0,0-.19-.75.82.82,0,0,0-.61-.27h-.11l-2.1.28a.78.78,0,0,0-.6.4,2.69,2.69,0,0,0-.79-.11,4.23,4.23,0,0,0-1,.14,5.37,5.37,0,0,0-2.82,1.91l-.15.19a.39.39,0,0,0-.08-.1c-.7-.71-1.42-1.49-1.42-1.5a.83.83,0,0,0-.61-.26.82.82,0,0,0-.43.12,5.59,5.59,0,0,1-2.62.9,2.25,2.25,0,0,1-1.41-.44.83.83,0,0,0-.65-.31h0a.81.81,0,0,0-.64.33l-1.07,1.43A10.24,10.24,0,0,0,69.32,119a10.68,10.68,0,0,0-4.4-4.09,9.71,9.71,0,0,0-4.19-1,7.48,7.48,0,0,0-1.26.1l-.42,0a19.64,19.64,0,0,0-4.45,1l-.12,0a12.1,12.1,0,0,0-4.27,2.7c-.69.62-2.07,2.58-1.63,4.41a4.25,4.25,0,0,0,1.84,2.61,3.39,3.39,0,0,0,1.66.46,4.24,4.24,0,0,0,2.18-.69l.16-.13.08-.08a2.62,2.62,0,0,0,.86-1.72c0-.23.07-.75.07-.75a.84.84,0,0,0-.47-.8.86.86,0,0,0-.36-.08.88.88,0,0,0-.55.21,1,1,0,0,1-.6.31c-.27,0-.32-.34-.33-.45s0-1.08,1.66-2a8.65,8.65,0,0,1,3.78-1.1,3.83,3.83,0,0,1,.56,0,8.7,8.7,0,0,1,1,.18,11.73,11.73,0,0,0-4.49,5,36.15,36.15,0,0,0-2,6.16c-.08.24-.18.64-.3,1.06-.05.21-.13.49-.2.74a5.27,5.27,0,0,0-1.45-.21,5.69,5.69,0,0,0-2.2.47A4.17,4.17,0,0,0,47,135.57,3.12,3.12,0,0,0,50.2,138h.35a6.1,6.1,0,0,0,4.12-2.09,11,11,0,0,0,4.95,1.24,8.16,8.16,0,0,0,1-.06,11.74,11.74,0,0,0,6.83-2.79l.12-.1A17.39,17.39,0,0,0,71.26,130a3.44,3.44,0,0,0,1.59,3.27,2.5,2.5,0,0,0,1.3.35,6.07,6.07,0,0,0,3.85-2A3.09,3.09,0,0,0,80.43,133a2.79,2.79,0,0,0,.76-.11,5,5,0,0,0,2.31-1.16,2.33,2.33,0,0,0,1,.27,2.64,2.64,0,0,0,1.82-.84,12.05,12.05,0,0,0,1-1,2.78,2.78,0,0,0,1.1.47l-1.35,1.32c-3,.57-14.39,2.93-16.13,3.4s-7.63,1.82-9.52,2.54a9.7,9.7,0,0,0-4.75,3.76,3.66,3.66,0,0,0-.49,1.51.83.83,0,0,0,.41.75.79.79,0,0,0,.42.12.8.8,0,0,0,.44-.13,7,7,0,0,1,3.63-.92,9,9,0,0,1,3.93.93.94.94,0,0,0,.36.08.82.82,0,0,0,.67-.36A4.94,4.94,0,0,1,69,141.28c.15,0,1.29-.36,2.92-.83,3.2-.91,8.7-2.49,11.67-3.29a4.22,4.22,0,0,0,.16,2.11,3,3,0,0,0,1.91,1.87,5.32,5.32,0,0,0,1.7.32h0a3.61,3.61,0,0,0,2.13-.67,5.89,5.89,0,0,0,1.94-3.51c.12-.51.44-1.66.62-2.31l3.08-.74c4.82-1.17,12.72-3.08,13.37-3.25,1.31-.32,8.51-1.94,9.45-2.15l.32-.06a3.22,3.22,0,0,0,3-2.46C121.31,126,121.74,124.16,119.5,122.38ZM50.78,135a1,1,0,0,1-.29,0c-.26,0-.29-.1-.32-.23a1.6,1.6,0,0,1,1-.64,3.28,3.28,0,0,1,.52,0,2.06,2.06,0,0,1,.39,0A2.89,2.89,0,0,1,50.78,135Zm12-6.08a7,7,0,0,1-3.85,3,10.8,10.8,0,0,1-1.46.18,37.13,37.13,0,0,0,1.81-3.59,33.94,33.94,0,0,0,1.28-4.15,14.26,14.26,0,0,1,1.4-3.57c.15-.21.5-.68.78-.78l.26-.09a4.62,4.62,0,0,1,1.21,3A10.6,10.6,0,0,1,62.82,128.87Zm14.44-2.77a13.35,13.35,0,0,0-.18,2.81c-.44.42-.77.63-1,.63s-.22-.16-.23-.18a3.72,3.72,0,0,1,.36-2.64l.07-.15A11.66,11.66,0,0,1,78,123.79,8.92,8.92,0,0,0,77.26,126.1Zm5.43-.86c-.06.23-.48,1.87-.66,2.65-.15-.15-.35-.42-.25-1.21v-.1A5.48,5.48,0,0,1,82.6,124l.09-.11a4,4,0,0,1,.44-.56C83,124.11,82.76,125,82.69,125.24Zm3.26,2,0-.09v.07Zm1.93,10.05a.42.42,0,0,1-.36.16h-.1a.92.92,0,0,1,0-.28,4.61,4.61,0,0,1,.38-1l.46-.13C88.16,136.43,88,136.82,87.88,137.27Zm2.85-12.34c-.07.32-.21.88-.23.94l0,.08a1.78,1.78,0,0,1-.3-1.08,9.36,9.36,0,0,1,.59-2,8.54,8.54,0,0,1,.79-1.31C91.25,122.68,90.77,124.68,90.73,124.93Zm2.33,5.7v0c.53-.53,1.31-1.34,1.88-1.94a2.74,2.74,0,0,0,1.58,1.08,2.92,2.92,0,0,0,.57.09ZM111.41,120a4.29,4.29,0,0,1-.3,1.17C111.23,120.76,111.33,120.38,111.41,120Zm-10.82-.29v0a1.37,1.37,0,0,1,0,.76c0,.08,0,.18,0,.29a.94.94,0,0,1-.24-.13,1.56,1.56,0,0,1-.4-.36C100.34,119.76,100.56,119.75,100.59,119.75Zm-2,5.68a1.58,1.58,0,0,1-.1-.92,9.64,9.64,0,0,1,.18-1.19,6.07,6.07,0,0,0,1.08.58,3.83,3.83,0,0,1-.94,1.36C98.64,125.35,98.55,125.4,98.54,125.43Zm.44,4a5.09,5.09,0,0,0,1.06-.7,8.67,8.67,0,0,0,1.29-1.15.86.86,0,0,0,.18.43.85.85,0,0,0,.63.29h.1l2.34-.27a.83.83,0,0,0,.71-.62c.23-.93.79-3.05,1.2-4.57,0,.06-.15.57-.15.57a5,5,0,0,0-.15,2.07,2.52,2.52,0,0,0,1.29,1.8,2.26,2.26,0,0,0,.94.17l.47,0Zm13.2-2.69-2.59.53a4.24,4.24,0,0,0,.52-.2,6.1,6.1,0,0,0,1.75-1.34,4.92,4.92,0,0,0,1.44.78Zm2.8-4.42a1.37,1.37,0,0,1-.75.64.72.72,0,0,1-.31-.16c.15-.57.34-1.34.52-2,.09.16.18.32.25.47l.07.13A1.43,1.43,0,0,1,115,122.32Z" style="fill: #fff"/>
    </g>
    <path d="M149,56.15c-4.18-11-16.84-17.16-18.57-18-13.47-6.5-27.17-7.66-33-8,3.48-1.85,17.88-3.83,23-4.75-19.85-.47-31.85,4.29-36.26,5.8,3.74-4.73,19.9-9,22.91-9.75a56.06,56.06,0,0,0-14.74,1.28c-14.77,3-18.46,9.63-19,11.6L10.38,35.59s42.07,3.46,48.34,4.29c2.14,29.36,22.44,29.36,26.73,29.2.33,5.44-4,8.67-5.28,9.57-12.87,9.07-30.8,6.29-36,4.29C28.86,77,28,67.26,27.87,61.32L52.28,47.14S14.67,59,9.88,60.67C9.72,63,11.77,70.25,13.51,73c12,19.3,33.29,24.37,36.79,25.4,24.75,7.26,42.07,2.12,45.05,1.32C112,95.31,120,84.53,122.07,77.39a65.91,65.91,0,0,0,15-2.32C151.09,69.84,151.36,62.36,149,56.15Zm-64.6,3.3a13.42,13.42,0,0,1-6.93-11.87c0-1.66-.36-6.39-4.51-7.59-3.41-1-6.72-1-5.28-1C73.4,39,81.21,39,89,41.09c1.42.38,11.45,2.85,11.55,10.89C100.68,60.77,89,61.76,84.4,59.45Z" style="fill: #08b1e8"/>
    <g>
      <path d="M62,101.1l-.93.32c-.52.13-14.52,3-16.38,3.27s-7.53,1-10.53,2.83c-1.35.83-5.59,3.53-5.33,7.64a160.13,160.13,0,0,0,25-2.5c2.35-.5,10.28-2,12.2-2.51s8.1-2.18,12-5a4.66,4.66,0,0,0,1.79-3A86.26,86.26,0,0,1,62,101.1Z" style="fill: #28648d"/>
      <path d="M128.16,104.5c-2.07-.5-16-2.31-21.32-2.57-1.8-.32-6.68-.7-6.68-.7.21-1.34.33-2.44.39-3.16a51.13,51.13,0,0,1-5.2,1.69c-.86.23-2.9.82-6,1.37a6.32,6.32,0,0,0,.17,1.19c.22.8,1.74,4.94,11.37,7.32a131.84,131.84,0,0,0,17.66,3.14c1.92.23,14.45,1,16.57,1h4.63C139.92,112,139.34,107.2,128.16,104.5Z" style="fill: #28648d"/>
    </g>
    <g>
      <path d="M89.22,40.8l-.11,0c-7.85-2.1-15.7-2.1-21.43-2.1-.42,0-.66,0-.67.32s.27.34.51.36a28.55,28.55,0,0,1,5.35.95c4.16,1.21,4.29,6.27,4.28,7.27a13.7,13.7,0,0,0,7.11,12.18,12.85,12.85,0,0,0,5.5,1.1A14.17,14.17,0,0,0,97.12,59a7.75,7.75,0,0,0,3.78-7C100.81,44.93,93.54,42,89.22,40.8Zm6.07,16.29a5.22,5.22,0,0,0,4.72-3,6.92,6.92,0,0,1-3.24,4.32,14.09,14.09,0,0,1-12.22.76A13.18,13.18,0,0,1,77.8,47.58c0-1.08-.13-6.56-4.75-7.91-.4-.11-.82-.22-1.25-.32a70.84,70.84,0,0,1,17.14,2l.11,0c3.47.93,8.91,3.07,10.64,7.63a5.22,5.22,0,1,0-4.4,8Z" style="fill: #231815"/>
      <path d="M149.31,56C145.39,45.68,134,39.5,130.57,37.86c-9.15-4.42-19.81-7.09-31.7-7.95,3.68-1.27,11.67-2.57,17.18-3.46,1.79-.29,3.34-.54,4.45-.74l0-.65c-18.19-.43-29.87,3.54-35.06,5.36,4.74-4.09,18.16-7.83,21.78-8.66l-.06-.65a56.7,56.7,0,0,0-14.49,1.22l-.33.07C76.94,25.49,73.63,32.45,73.07,34l-62.7,1.26,0,.66c.42,0,41,3.38,48.06,4.25C60.48,67,77.55,69.62,85.13,69.42c.09,3.38-1.73,6.55-5.15,9C66.39,88,48.11,84.1,44.32,82.63c-15.5-6-16-16.1-16.12-21.12L52.45,47.42l-.26-.59c-.38.11-37.68,11.89-42.41,13.53l-.21.07v.21c-.18,2.47,2,9.87,3.68,12.57,5.24,8.4,15.79,19.62,36.3,25.35l.67.2a96.71,96.71,0,0,0,10.38,2.42c-2.29.48-14.2,2.88-16,3.19-.26,0-.59.1-1,.15-2.46.38-7,1.08-9.68,2.72-3.82,2.37-5.66,5-5.48,7.94l0,.27.27,0h.57A164.63,164.63,0,0,0,53.86,113c.74-.16,2-.42,3.54-.71,3.28-.65,7.35-1.45,8.68-1.8,5.37-1.43,9.44-3.14,12.11-5.06a5.1,5.1,0,0,0,1.88-2.94,73.57,73.57,0,0,0,9-1,5.35,5.35,0,0,0,.15.92c.32,1.18,2.11,5.22,11.6,7.56l.36.09a133.33,133.33,0,0,0,17.34,3.06c1.88.22,14.48,1,16.61,1h4.93l0-.31c.18-2.49-1.14-7.06-11.87-9.65-2.14-.51-16.28-2.33-21.34-2.57-1.53-.27-5.2-.59-6.36-.68.16-1.09.26-2,.31-2.63,12.7-5,19.45-13.83,21.46-20.59a66.49,66.49,0,0,0,14.85-2.34c6.47-2.4,10.63-5.54,12.35-9.33C150.83,63.14,150.76,59.86,149.31,56Zm-71.5,48.85c-2.6,1.88-6.61,3.54-11.9,5-1.31.35-5.37,1.15-8.64,1.8l-3.55.71c-8.67,1.82-22.3,2.52-24.6,2.51,0-2.54,1.72-4.91,5.19-7,2.53-1.57,7-2.26,9.43-2.63l1-.15c1.78-.31,15.77-3.13,16.42-3.29l.85-.29.87.12,1.61.22c1.56.21,3.11.38,4.65.5.23,0,.45,0,.68.06.88.07,1.76.11,2.64.15l1,0c.9,0,1.79,0,2.68,0h.6c.91,0,1.82,0,2.72,0A4.5,4.5,0,0,1,77.81,104.88Zm29-2.62c5.08.25,19.13,2,21.26,2.56,9.82,2.37,11.4,6.33,11.38,8.66h-4.31c-2.12,0-14.66-.8-16.53-1a130.92,130.92,0,0,1-17.26-3l-.36-.09C91.63,107,90.09,103,89.88,102.23a4.47,4.47,0,0,1-.14-.83c2.58-.48,4.38-1,5.37-1.23h0l.31-.08c.88-.24,1.76-.5,2.63-.79l1.27-.44.84-.29c-.06.68-.17,1.58-.33,2.62l-.06.34.36,0S105,101.94,106.83,102.26Zm42.08-36.49c-1.64,3.62-5.67,6.65-11.95,9-.87.24-8.66,2.31-14.89,2.31h-.25v0A63,63,0,0,1,111,76c-9.9-2.61-13.23-7.32-15.18-11.59l-.6.27c2,4.41,5.45,9.27,15.62,11.95a66.43,66.43,0,0,0,10.42,1.15h.36c-2,6.53-8.54,15-20.69,19.84h0l-.2.08L99.66,98c-.56.21-1.12.42-1.69.61-.88.28-1.78.56-2.71.81l-.3.08h0c-13.31,3.62-29.13,3.12-44.55-1.4l-.69-.2C29.41,92.25,19,81.17,13.79,72.86c-1.71-2.73-3.62-9.54-3.59-12,4.62-1.56,30.67-9.81,39.36-12.56L27.7,61l-.17.1v.19C27.68,66.42,28,77,44.08,83.24c6.1,2.36,23.69,4.55,36.28-4.33,3.72-2.62,5.64-6.12,5.42-9.85l0-.32h-.32C78.15,69,61,66.77,59,39.85v-.26l-.27,0c-4.72-.62-30-2.76-42-3.76l56.83-1.14.06-.23c.25-.83,2.84-8.17,18.8-11.38l.34-.07A56.45,56.45,0,0,1,104.5,21.7h.27C99.63,23.09,87.25,26.79,83.92,31l-.69.87,1.06-.36,1-.35a91.62,91.62,0,0,1,31.37-5.46l-.72.11c-6.7,1.09-15.87,2.58-18.65,4.05l-1,.55,1.16.07c12.37.74,23.42,3.43,32.85,8,3.34,1.62,14.57,7.69,18.41,17.81C150.08,59.92,150.15,63,148.91,65.77Z" style="fill: #231815"/>
    </g>
    <path d="M118.65,122.78c.14-.67-.34-1.48-1.54-3.16a1.63,1.63,0,0,1-.43-1.6,14.54,14.54,0,0,1,.74-1.92c-.61-.43-1.53-1-1.53-1-1,.64-1.78,1.23-1.78,1.23-.69-.52-1.23-.85-1.23-.85-.55.67-1.19,1.35-1.19,1.35a5.79,5.79,0,0,1-.18,5.43c-1.33,2-2.1,1.91-1.7.71.19-.76,1.19-4.47,1.23-4.86s.29-1.58-1.22-1.61c-.29,0-.94.1-2.38,1.12l-.3-.51c-.88.09-2.21.28-2.21.28-.18.69-.59,2.33-.64,2.52a1.43,1.43,0,0,1-1.19,1c0-.88-.27-3-2-3.41-.38-.1-1.39-.2-2.84,1a10.63,10.63,0,0,0-2.92,4.8,18.92,18.92,0,0,0-.43,2.91c-.74.69-2,1.67-2,1.67.35-1.56,2.27-9.74,2.27-9.74l-2,.31-.21.36a2,2,0,0,0-1.88-.41c-.35.06-1.5.33-2.81,2.43a10.09,10.09,0,0,0-1.53,4.59,9.76,9.76,0,0,0,.09,2.11c-.62.58-1,.89-1.21,1.07s-.88.14-.67-.82c.09-.41,2-8.27,2-8.27l-2.1.28c-.06.36-.16.72-.16.72a2.55,2.55,0,0,0-2.14-.3,4.63,4.63,0,0,0-2.41,1.64,10.56,10.56,0,0,0-2.08,4.4,11.2,11.2,0,0,0-.14,3c-.48.49-1.89,2-2.81.49a4.41,4.41,0,0,1,.36-3.34,11.31,11.31,0,0,1,3.22-4.4c-.71-.72-1.44-1.52-1.44-1.52a6.37,6.37,0,0,1-2.92,1,3,3,0,0,1-2.19-.75L71,122.3a7.56,7.56,0,0,1,.17,3.57,5.83,5.83,0,0,1-1.42,2.38c-.3.39-.55.71-.72.91s-.29.35-.38.48a14.76,14.76,0,0,0,1.21-5.23,8,8,0,0,0-1.21-4.92,9.64,9.64,0,0,0-4.1-3.84,8.63,8.63,0,0,0-5-.81,21.84,21.84,0,0,0-4.7,1,11.5,11.5,0,0,0-4.13,2.6c-.46.4-1.74,2.09-1.38,3.59a3.38,3.38,0,0,0,1.44,2.09,2.7,2.7,0,0,0,3-.22,1.92,1.92,0,0,0,.72-1.34c0-.2.05-.68.05-.68-1.09,1-2.19.47-2.3-.68-.06-.53.29-1.83,2.07-2.85a8.85,8.85,0,0,1,4.79-1.17,6.11,6.11,0,0,1,2.91,1,10.3,10.3,0,0,0-5.71,5.4,36.36,36.36,0,0,0-2,6c-.21.64-.6,2.31-.78,2.61a4.56,4.56,0,0,0-3.84,0,3.38,3.38,0,0,0-2,3.3,2.39,2.39,0,0,0,2.71,1.68,5,5,0,0,0,4-2.44c.27.43,3.08,1.86,6,1.54a11.21,11.21,0,0,0,6.46-2.6,16.89,16.89,0,0,0,4.79-6.16,14.47,14.47,0,0,0,1.25-3.7c1.34-.21,2.11-.39,2.11-.39a10.47,10.47,0,0,0-3,6.42,2.79,2.79,0,0,0,1.17,2.76c.3.18,1.78,1.06,4.9-2.23.38.76,1.27,2.16,2.77,1.78a4,4,0,0,0,2.42-1.44,1.65,1.65,0,0,0,2.46-.12,6.64,6.64,0,0,0,1.42-1.69,2.16,2.16,0,0,0,3.12.5,1.54,1.54,0,0,1,0,.49c-1.08,1.1-2.86,2.82-2.86,2.82-2.65.5-14.56,3-16.34,3.44s-7.58,1.81-9.39,2.51A8.65,8.65,0,0,0,57.44,142a2.65,2.65,0,0,0-.38,1.14,8.87,8.87,0,0,1,8.36-.05,5.72,5.72,0,0,1,3.37-2.65c.49-.12,13.1-3.78,16-4.5-.66,1.11-1,3.65,1.07,4.38a3.29,3.29,0,0,0,3.08-.24,4.88,4.88,0,0,0,1.61-3c.18-.74.77-2.81.77-2.81l16.91-4.1c1.34-.33,8.68-2,9.48-2.16s2-.07,2.65-2C120.56,125.59,120.66,124.19,118.65,122.78ZM52.76,134.59A3.78,3.78,0,0,1,51,135.74c-.81.22-1.5-.06-1.63-.86s1-1.48,1.69-1.58c1.24-.18,1.94.17,2.11.51A2,2,0,0,1,52.76,134.59Zm10.77-5.3a7.81,7.81,0,0,1-4.33,3.37,9.77,9.77,0,0,1-3.08.16,46.17,46.17,0,0,0,2.44-4.67,33.94,33.94,0,0,0,1.24-4,14.69,14.69,0,0,1,1.52-3.85,3,3,0,0,1,1.17-1.09,5.93,5.93,0,0,1,.8-.21,5.3,5.3,0,0,1,1.78,3.86A11.45,11.45,0,0,1,63.53,129.29Zm20.64-6.92c-.07.41-.57,2.68-.68,3.1s-.7,2.74-.72,2.88c-.12.79-.81.65-1.2.25a2,2,0,0,1-.61-2,6.63,6.63,0,0,1,1-3,4.63,4.63,0,0,1,1.43-1.43c.13-.08.23-.29.56-.21S84.22,122.12,84.17,122.37Zm4.49,15.18a1.2,1.2,0,0,1-1.23.7c-.75-.07-.93-.6-.81-1.25a6.24,6.24,0,0,1,.63-1.54l2.16-.63A23.76,23.76,0,0,1,88.66,137.55Zm25.42-18.68a10.55,10.55,0,0,1,1.36,2,2.31,2.31,0,0,1,.32,1.71,2.11,2.11,0,0,1-1.23,1.13c-.15,0-.5.22-1.19-.33l-.35-.27C113.25,122.06,114.08,118.87,114.08,118.87ZM101,119c.19.08.64.37.49,1.57,0,.28-.17.9-.2,1.11a2.21,2.21,0,0,1-1.36-.35,2.16,2.16,0,0,1-.78-.85l-.1-.3C99.32,119.7,100.05,118.63,101,119Zm-3.36,5.47a9.84,9.84,0,0,1,.32-1.75c.09-.29.28-.82.28-.82a5.43,5.43,0,0,0,2.59,1.5,6,6,0,0,1-1.55,2.53,1,1,0,0,1-1.23.14C97.9,126,97.54,125.65,97.61,124.47Zm-6.39,1.81a.93.93,0,0,1-.85.55c-.24,0-1-.44-1-2a8.75,8.75,0,0,1,.67-2.35,6.36,6.36,0,0,1,1.18-1.77c.19-.12.66-.68,1.16-.5.15.05.36.14.16.83-.11.39-.91,3.7-1,4A7.72,7.72,0,0,1,91.22,126.28Zm26.85.08c-.4.1-1.8.42-2.17.49s-3.1.59-3.54.69-19,3.85-20.3,4.14c.15-.91.24-1.49.24-1.49.85-.84,2.8-2.92,2.8-2.92.15.32.64,1.43,1.59,1.64a3,3,0,0,0,2.77-.77,7.72,7.72,0,0,0,2.26-2.5,9,9,0,0,0,1.3-3.31l.72-.3c-.16.62-1.6,5.45-1.6,5.45l2.35-.28c.37-1.51,1.57-6,1.69-6.35a1.82,1.82,0,0,1,.72-1.08,4.82,4.82,0,0,1,1.14-.67c.15,0,.29,0,.2.32s-.43,1.7-.55,2.1-.47,1.8-.55,2.09a4.16,4.16,0,0,0-.14,1.71,1.68,1.68,0,0,0,.84,1.21,2.85,2.85,0,0,0,1.92-.21,5.47,5.47,0,0,0,2-1.79,4.54,4.54,0,0,0,2,1.26,4.25,4.25,0,0,0,2.46-.19,4.59,4.59,0,0,0,1.72-1.19,1.3,1.3,0,0,1,.78,1A.89.89,0,0,1,118.07,126.36Z" style="fill: #00418d"/>
  </g>
</svg>
