<svg width="160" height="160" viewBox="0 0 160 160" fill="none" xmlns="http://www.w3.org/2000/svg">
<g clip-path="url(#clip0_31999_32151)">
<path d="M80 145C115.899 145 145 115.899 145 80C145 44.1015 115.899 15 80 15C44.1015 15 15 44.1015 15 80C15 115.899 44.1015 145 80 145Z" fill="black"/>
<path d="M123.012 36.5971C111.024 24.7237 95.3584 18.8268 79.723 18.9015C64.0875 18.9761 48.477 25.0123 36.6036 36.9952C24.7253 48.983 18.8284 64.6483 18.903 80.2837C18.9727 95.9241 25.0139 111.53 36.9968 123.403C48.9846 135.276 64.6499 141.168 80.2853 141.099C95.9207 141.024 111.531 134.988 123.405 123.005C135.278 111.017 141.17 95.3518 141.1 79.7164C141.031 64.081 134.994 48.4704 123.007 36.5971H123.012ZM80.0016 139.412C47.1881 139.412 20.59 112.814 20.59 80.0001C20.59 47.1866 47.1881 20.5884 80.0016 20.5884C112.815 20.5884 139.413 47.1866 139.413 80.0001C139.413 112.814 112.815 139.412 80.0016 139.412Z" fill="url(#paint0_linear_31999_32151)"/>
<path d="M142.698 77.273C141.19 42.6531 111.9 15.8012 77.2752 17.304C42.6504 18.8118 15.8034 48.1021 17.3062 82.727C18.814 117.352 48.0994 144.199 82.7242 142.696C117.349 141.188 144.196 111.903 142.693 77.278L142.698 77.273ZM123.41 123.005C111.537 134.988 95.9263 141.024 80.2908 141.094C64.6554 141.168 48.9901 135.271 37.0023 123.398C25.0194 111.525 18.9832 95.9141 18.9086 80.2787C18.8339 64.6433 24.7308 48.978 36.6042 36.9901C48.4726 25.0073 64.0831 18.9711 79.7186 18.9014C95.354 18.8317 111.019 24.7236 123.007 36.597C134.99 48.4704 141.026 64.0809 141.101 79.7164C141.175 95.3518 135.279 111.017 123.405 123.005H123.41Z" fill="url(#paint1_linear_31999_32151)"/>
<path d="M80.0015 20.5884C47.188 20.5884 20.5898 47.1865 20.5898 80C20.5898 112.814 47.188 139.412 80.0015 139.412C112.815 139.412 139.413 112.814 139.413 80C139.413 47.1865 112.815 20.5884 80.0015 20.5884ZM80.0015 138.297C47.8548 138.297 21.7045 112.147 21.7045 80C21.7045 47.8533 47.8548 21.7031 80.0015 21.7031C112.148 21.7031 138.298 47.8533 138.298 80C138.298 112.147 112.148 138.297 80.0015 138.297Z" fill="#F49C00"/>
<path d="M121.225 121.222C143.992 98.4558 143.992 61.5442 121.225 38.7778C98.4587 16.0114 61.5471 16.0114 38.7808 38.7778C16.0144 61.5442 16.0144 98.4558 38.7808 121.222C61.5471 143.989 98.4587 143.989 121.225 121.222Z" fill="black"/>
<path d="M87.0069 96.9841C87.838 96.2177 88.5048 96.1879 89.3358 96.9841C90.9282 98.5118 93.2123 99.3329 95.0735 99.3329C97.2133 99.3329 99.3182 98.2978 100.403 95.6703C92.9138 95.4464 92.1275 78.547 101.125 77.1238C100.343 74.8994 98.3279 73.4015 95.9344 73.4015C94.5012 73.4015 92.9884 73.9539 92.2221 74.6854C91.391 75.4866 90.7292 75.4518 89.8932 74.6854C89.0124 73.8892 87.4648 73.4015 86.1759 73.4015C83.7823 73.4015 81.7669 74.8994 80.9906 77.1238C90.8038 78.6764 86.3899 91.6993 79.438 91.6993C70.7395 91.6993 69.381 76.3972 76.3328 70.8437C69.1869 65.136 70.6251 49.396 79.438 49.396C86.2854 49.396 89.1467 58.8509 80.9906 63.2848C81.7669 65.5092 83.7823 67.007 86.1759 67.007C87.619 67.007 89.1218 66.4596 89.8932 65.7232C90.7192 64.922 91.386 64.9568 92.2221 65.7232C93.0929 66.5194 94.6455 67.007 95.9344 67.007C98.3279 67.007 100.343 65.5042 101.125 63.2848C98.8355 62.6478 96.9296 60.5329 96.1135 56.1289C94.5012 47.4503 87.8579 41.653 79.662 41.653C68.9033 41.653 63.2403 50.0131 62.4789 58.1692C62.0758 62.4537 60.4834 68.8582 58.0898 70.8487C60.6576 72.9736 62.1156 78.2235 62.4789 82.9261C63.2353 92.59 70.1872 99.3329 79.662 99.3329C82.4387 99.3329 85.5638 98.2978 87.0069 96.9841Z" fill="#F49C00"/>
<path d="M114.094 106.464H47.3125V107.255H114.094V106.464Z" fill="#F49C00"/>
<path d="M96.4699 115.735C95.405 114.884 95.818 113.112 96.8829 113.112C97.9478 113.112 98.3609 114.889 97.296 115.735C98.3609 116.586 97.9478 118.357 96.8829 118.357C95.818 118.357 95.405 116.586 96.4699 115.735ZM96.8829 119.487C98.2663 119.487 98.9779 118.412 99.0775 117.362C99.1272 116.81 99.3312 115.988 99.6448 115.735C99.3362 115.481 99.1322 114.66 99.0775 114.107C98.9779 113.057 98.2663 111.983 96.8829 111.983C95.4995 111.983 94.7879 113.057 94.6884 114.107C94.6386 114.66 94.4296 115.481 94.1211 115.735C94.4296 115.988 94.6336 116.81 94.6884 117.362C94.7879 118.412 95.4995 119.487 96.8829 119.487Z" fill="#F49C00"/>
<path d="M63.9266 115.735C62.9014 116.705 63.1503 118.815 64.046 118.919C63.9465 119.208 63.6877 119.397 63.3792 119.397C63.195 119.397 63.001 119.328 62.9014 119.233C62.7969 119.128 62.7074 119.133 62.6029 119.233C62.4884 119.337 62.2894 119.397 62.1251 119.397C61.8166 119.397 61.5579 119.203 61.4583 118.919C62.359 118.815 62.6078 116.705 61.5778 115.735C62.2645 115.098 62.4735 113.65 61.8315 113.65C61.6823 113.65 61.5678 113.719 61.4434 113.819C61.3439 113.898 60.8512 114.386 60.7666 114.471C60.5875 114.65 60.3436 114.535 60.4332 114.302C60.5278 114.038 60.9806 112.774 61.0105 112.46C61.0552 112.007 61.115 111.983 61.5827 112.197C61.8714 112.326 62.4138 112.475 62.7721 112.475C63.1304 112.475 63.6678 112.326 63.9564 112.197C64.4242 111.983 64.4839 112.012 64.5287 112.46C64.5585 112.774 65.0064 114.038 65.1059 114.302C65.1905 114.535 64.9517 114.655 64.7725 114.471C64.6879 114.386 64.1953 113.898 64.0957 113.819C63.9713 113.719 63.8569 113.65 63.7076 113.65C63.0657 113.65 63.2597 115.098 63.9465 115.735H63.9266Z" fill="#F49C00"/>
<path d="M70.4074 115.735C69.3425 114.884 69.7555 113.112 70.8204 113.112C71.8853 113.112 72.2984 114.889 71.2335 115.735C72.2984 116.586 71.8853 118.357 70.8204 118.357C69.7555 118.357 69.3425 116.586 70.4074 115.735ZM70.8204 119.487C72.2038 119.487 72.9154 118.412 73.015 117.362C73.0647 116.81 73.2687 115.988 73.5822 115.735C73.2737 115.481 73.0697 114.66 73.015 114.107C72.9154 113.057 72.2038 111.983 70.8204 111.983C69.437 111.983 68.7254 113.057 68.6259 114.107C68.5761 114.66 68.3671 115.481 68.0586 115.735C68.3671 115.988 68.5711 116.81 68.6259 117.362C68.7254 118.412 69.437 119.487 70.8204 119.487Z" fill="#F49C00"/>
<path d="M81.3234 117.133C80.5769 116.775 80.1639 115.68 79.9947 114.963C80.6665 113.933 81.194 113.142 82.3783 112.56C82.2888 112.276 81.9305 112.072 81.6468 112.072C81.4925 112.072 81.3084 112.142 81.2039 112.246C81.1044 112.346 81.0248 112.346 80.9253 112.246C80.8357 112.152 80.6565 112.072 80.4824 112.072C80.1987 112.072 79.7956 112.276 79.7011 112.56C80.2634 112.634 80.0046 113.774 78.8303 114.695C78.5864 113.724 78.8949 112.634 79.5369 112.56C79.4374 112.276 79.1786 112.072 78.8701 112.072C78.6859 112.072 78.4919 112.152 78.3923 112.246C78.2878 112.346 78.1983 112.346 78.0938 112.246C77.9793 112.142 77.7803 112.072 77.616 112.072C77.3075 112.072 77.0487 112.276 76.9492 112.56C77.8449 112.664 78.0938 114.769 77.0687 115.74C78.0938 116.71 77.8449 118.815 76.9492 118.919C77.0487 119.203 77.3075 119.402 77.616 119.402C77.7803 119.402 77.9793 119.333 78.0938 119.233C78.2032 119.133 78.2878 119.128 78.3923 119.233C78.4919 119.328 78.6859 119.407 78.8701 119.407C79.1786 119.407 79.4374 119.208 79.5369 118.924C78.7407 118.83 78.5814 117.238 79.1537 116.143C79.6563 116.69 79.6513 117.437 79.6513 117.437C80.2137 117.651 80.4426 118.551 79.9201 118.934C80.0693 119.218 80.4973 119.412 80.771 119.412C80.9352 119.412 81.0895 119.342 81.1542 119.248C81.2288 119.148 81.3035 119.148 81.4179 119.248C81.5373 119.352 81.7264 119.412 81.8757 119.412C82.1494 119.412 82.443 119.218 82.4679 118.934C81.7812 118.656 81.3433 117.994 81.3134 117.143L81.3234 117.133Z" fill="#F49C00"/>
<path d="M87.919 112.545C87.5209 112.868 87.491 114.083 88.5112 114.739C89.392 113.963 89.7552 112.624 89.0984 112.545C89.1979 112.261 89.4567 112.067 89.7652 112.067C89.9493 112.067 90.1434 112.137 90.2429 112.231C90.3524 112.336 90.437 112.331 90.5415 112.231C90.6559 112.127 90.855 112.067 91.0192 112.067C91.3277 112.067 91.5865 112.261 91.686 112.545C90.8152 113.033 89.795 114.396 89.795 115.735C88.765 116.705 88.8993 118.815 89.795 118.924C89.6955 119.208 89.4368 119.402 89.1282 119.402C88.9441 119.402 88.75 119.332 88.6505 119.238C88.541 119.133 88.4564 119.138 88.3519 119.238C88.2375 119.342 88.0384 119.402 87.8742 119.402C87.5657 119.402 87.3069 119.208 87.2074 118.924C88.1081 118.82 88.2375 116.71 87.2074 115.735C87.2074 114.396 86.1873 113.033 85.3164 112.545C85.4159 112.261 85.6747 112.067 85.9832 112.067C86.1474 112.067 86.3515 112.132 86.4609 112.231C86.5704 112.331 86.655 112.336 86.7595 112.231C86.859 112.137 87.0531 112.067 87.2372 112.067C87.5458 112.067 87.8045 112.261 87.9041 112.545H87.919Z" fill="#F49C00"/>
<path d="M36.8964 67.3405V80.6968H35.0352V69.0622H33.0547V67.3405H36.9013H36.8964Z" fill="#F49C00"/>
<path d="M47.4168 80.6967H45.1924L48.0389 76.3126C47.6607 76.3723 47.4965 76.3922 47.2576 76.3922C44.8342 76.3922 42.9531 74.4117 42.9531 71.8837C42.9531 69.1617 44.9337 67.0767 47.5412 67.0767C50.1488 67.0767 52.1692 69.1816 52.1692 71.7444C52.1692 72.7048 51.8109 73.8096 51.149 74.8297L47.4218 80.6967H47.4168ZM50.3031 71.8041V71.7046C50.3031 70.1022 49.059 68.7785 47.5412 68.7785C46.0235 68.7785 44.8192 70.0823 44.8192 71.6847C44.8192 73.287 46.0384 74.6704 47.5213 74.6704C49.0043 74.6704 50.3031 73.4264 50.3031 71.8041Z" fill="#F49C00"/>
<path d="M107.09 76.7705H108.951C109.011 78.2932 109.991 79.2536 111.454 79.2536C112.778 79.2536 113.858 78.1539 113.858 76.7705C113.858 75.3871 112.778 74.3868 111.355 74.3868H110.673V72.5058H111.315C112.514 72.5058 113.275 71.7842 113.275 70.6248C113.275 69.6046 112.474 68.7835 111.474 68.7835C110.474 68.7835 109.812 69.4653 109.673 70.6845H107.811C107.931 68.5397 109.454 67.0817 111.539 67.0817C113.624 67.0817 115.141 68.7039 115.141 70.8686C115.141 71.9285 114.883 72.4909 113.917 73.3916C115.077 74.133 115.719 75.3323 115.719 76.7356C115.719 79.0794 113.778 80.9605 111.355 80.9605C108.931 80.9605 107.09 79.1193 107.09 76.7754V76.7705Z" fill="#F49C00"/>
<path d="M128.038 67.3405V76.8949H129.442V78.5968H128.038V80.7017H126.157V78.5968H120.066V76.7954L126.157 67.3405H128.038ZM126.157 76.8949V70.4855L122.211 76.8949H126.157Z" fill="#F49C00"/>
</g>
<defs>
<linearGradient id="paint0_linear_31999_32151" x1="138.488" y1="78.9799" x2="21.5156" y2="81.0202" gradientUnits="userSpaceOnUse">
<stop stop-color="#472911"/>
<stop offset="0.1" stop-color="#A26F28"/>
<stop offset="0.15" stop-color="white"/>
<stop offset="0.22" stop-color="#D29942"/>
<stop offset="0.34" stop-color="#895824"/>
<stop offset="0.5" stop-color="#D0A14D"/>
<stop offset="0.66" stop-color="#ECDC80"/>
<stop offset="0.72" stop-color="#D2BB64"/>
<stop offset="0.77" stop-color="white"/>
<stop offset="0.83" stop-color="#9B732A"/>
<stop offset="1" stop-color="#64411D"/>
</linearGradient>
<linearGradient id="paint1_linear_31999_32151" x1="1.40209" y1="-13.6732" x2="127.849" y2="137.023" gradientUnits="userSpaceOnUse">
<stop stop-color="#F5F0AF"/>
<stop offset="0.22" stop-color="#D29942"/>
<stop offset="0.38" stop-color="#E0BF75"/>
<stop offset="0.5" stop-color="#D0A14D"/>
<stop offset="0.66" stop-color="#ECDC80"/>
<stop offset="0.72" stop-color="#D2BB64"/>
<stop offset="1" stop-color="#F5F0AF"/>
</linearGradient>
<clipPath id="clip0_31999_32151">
<rect width="160" height="160" fill="white"/>
</clipPath>
</defs>
</svg>
