<?xml version="1.0" encoding="UTF-8"?>
<svg id="_ロゴ" data-name="ロゴ" xmlns="http://www.w3.org/2000/svg" xmlns:xlink="http://www.w3.org/1999/xlink" viewBox="0 0 160 160">
  <defs>
    <clipPath id="clippath">
      <path d="m216.79,280c0-34.86,28.35-63.19,63.2-63.19s63.21,28.33,63.21,63.19-28.35,63.19-63.21,63.19-63.2-28.34-63.2-63.19m-3.33,0c0,36.69,29.85,66.54,66.53,66.54s66.54-29.85,66.54-66.54-29.85-66.54-66.54-66.54-66.53,29.84-66.53,66.54" style="fill: none; stroke-width: 0px;"/>
    </clipPath>
    <linearGradient id="_名称未設定グラデーション_4" data-name="名称未設定グラデーション 4" x1="-99.54" y1="702.72" x2="-98.18" y2="702.72" gradientTransform="translate(127460.54 -17605.21) rotate(-90) scale(180.98 -180.98)" gradientUnits="userSpaceOnUse">
      <stop offset="0" stop-color="#d7c29b"/>
      <stop offset="0" stop-color="#d7c29b"/>
      <stop offset=".13" stop-color="#fff"/>
      <stop offset=".31" stop-color="#dcc08d"/>
      <stop offset=".54" stop-color="#815835"/>
      <stop offset=".87" stop-color="#dcc08d"/>
      <stop offset="1" stop-color="#fff"/>
    </linearGradient>
    <clipPath id="clippath-1">
      <path d="m217.51,280c0-34.46,28.03-62.51,62.49-62.51s62.51,28.04,62.51,62.51-28.05,62.49-62.51,62.49-62.49-28.03-62.49-62.49m-2,0c0,35.56,28.93,64.49,64.49,64.49s64.5-28.93,64.5-64.49-28.93-64.48-64.5-64.48-64.49,28.93-64.49,64.48" style="fill: none; stroke-width: 0px;"/>
    </clipPath>
    <linearGradient id="_名称未設定グラデーション_5" data-name="名称未設定グラデーション 5" x1="-98.65" y1="703.48" x2="-97.29" y2="703.48" gradientTransform="translate(-79875.97 11446.05) rotate(90) scale(113.94 -113.94)" gradientUnits="userSpaceOnUse">
      <stop offset="0" stop-color="#d7c29b"/>
      <stop offset="0" stop-color="#d7c29b"/>
      <stop offset=".13" stop-color="#fff"/>
      <stop offset=".31" stop-color="#dcc08d"/>
      <stop offset="1" stop-color="#815835"/>
    </linearGradient>
  </defs>
  <g id="_タイガース" data-name="タイガース">
    <circle cx="80" cy="80" r="65" transform="translate(-24.53 36.7) rotate(-22.5)" style="fill: #241916; stroke-width: 0px;"/>
    <path d="m80.02,119.5c21.81,0,39.49-17.68,39.49-39.49s-17.68-39.5-39.49-39.5-39.49,17.68-39.49,39.5,17.68,39.49,39.49,39.49Z" style="fill: #e7380d; stroke-width: 0px;"/>
    <path d="m77.29,53.94c-1.42-.13-2.85,0-4.22.39,1.35-.38,2.78-.45,4.22-.39Z" style="fill: #231815; stroke-width: 0px;"/>
    <path d="m54.31,62.81c-.59,1.96-2.03,3.62-1.65,5.73.52,2.4,2.03,4.67,1.42,7.05-.03.08-.05.18-.07.28.73-1.57,1.36-3.14,1.29-4.85.02-1.15-.53-2.3-.8-3.6-.28-.58-.13-1.01-.12-1.58.15-.57.75-1.99,1.31-1.12.7.87.67,2.59,1.81,2.75,2,.18,1.48-2.84,1.51-4.27-.11-1.72-1.52-3.46-.63-5.17.6-1.28,2.18-1.54,3.47-1.52,1,.02,2.28.47,2.69,1.62.41,1.01-.47,2.14.24,2.87,2.1,2.76,4.32-1.5,6.49-2.61.58-.28,1.01-.41,1.59-.69,1.44-.69,3.01-.23,4.59-.35.72-.13,1.45-.98.74-1.42-1.55-1.32-3.72-.35-5.45.33-.72.13-1.44.26-2.15.11-.28-.15-.42-.58-.27-.72.64-.48,1.32-.84,2.04-1.1-.12.04-.24.08-.36.13-.99.4-1.97.84-2.97,1.07-1.13.26-2.12.52-3.24.65-1.4-.02-2.81-.05-4.2-.49-1.26-.44-2.38-.74-3.49-1.47-.84-.44-1.53-.87-2.36-1.59-.83-.58-1.95-.88-2.67.09-.43.55-.72,1.25-.88,1.95-.46,2.24,1.2,3.95,2.01,5.79.27.71.26,1.41.1,2.11Z" style="fill: #241916; stroke-width: 0px;"/>
    <path d="m106.7,70.41c1.22-.91,1.14-1.2,1.3-2.03.16-.82-.12-1.27-.12-1.41-.68-1.28-.94-2.54-.49-3.94.73-1.81,2.3-2.77,3.17-4.3.87-1.39-.79-2.82-2.05-3.27-.84-.3-1.82-.31-2.67-.19-2.68.51-4.82,2.58-7.62,2.11-1.82-.31-3.49-1.04-5.45-1.5-2.37-.74-4.5.34-6.88-.26-2.24-.6-4.33-1.2-6.71-1.8-.69-.15-1.25.11-1.81.11.67.03,1.35.09,2.01.16,2.43.19,4.26,2.08,6.54,2.98.57.15,1.14.16,1.72.17,1.57.31,2.55,1.48,3.97,2.07.85.3,1.99.89,2.86.05.29-.42.02-1,.03-1.58,0-.14.15-.28.29-.28,1.15.02,2.28.76,3.43.49.58-.13,1.01-.27,1.58-.4,2.01-.11,4.03-.79,5.87-.04,1.28.6-.33,2.29-.92,3.28-.6,1.57.81,3.02.64,4.6-.15.43-.45,1.28-1.02.98-.57-.3-.99-.88-.98-1.45-.27-1.01-.39-2.01-.81-2.88-.42-.58-1.13-1.17-1.85-.89-1.3.55-2.33,2.11-1.35,3.27,2.8,3.77,7.96,5.84,10.58,10.56-.87.7-2.56.38-3.56.51l-3.05-1.11c-.86-.16-2.25-.9-2.98-.05-.88,1.13-1.19,2.27-.5,3.57.14.43.7.87,1.12,1.31,1.19.88,2.46.86,3.27,1.35.71.44,1.13,1.17.97,2.02-.31,1.28-1.19,2.27-2.34,2.97-1.01.41-2.16.68-3.3.52-3.43-.49-5.83-2.54-8.66-4.31-1.27-.88-3-.34-4.31.64-2.91,2.39-3.68,5.81-5.89,8.92-.59.71-.88,1.42-1.75,1.69,0,0-.29-.15-.28-.29.34-3.29,1.97-6.13,3.88-8.96,1.03-1.27,2.05-2.54,3.49-3.09,2.6-.96,5.3.24,7.71,1.57.71.44,1.85.61,2.29-.1.3-.71-.55-1.3-1.12-1.31-1.71-.46-3.72-.21-4.98-1.66-.14-.43.3-.71.58-.71,2.87-.38,4.98,1.81,7.4,2.85.71.3,2,.61,2.15-.25.31-1.57-1.83-2.04-2.97-2.49-1.71-.75-3.43-.63-4.99-1.66-.28-.29-.56-.58-.41-1.01.15-.43.58-.56,1.01-.41,1.28.6,3.67,2.93,4.28.93.16-.86-.98-1.31-1.83-1.61-1.42-.45-2.84-1.2-4.13-1.65-1.85-.75-3.85-.78-5.59.05-1.88.97-3.06,2.81-3.67,4.81-.75,2.14-1.36,4.27-1.98,6.56-.47,2-.93,4-2.25,5.69-.88.99-1.47,1.98-2.06,3.12-1.63,2.84-1.97,6.13-.73,9.16.28.43.85.59,1.28.45.29-.14.29-.42.44-.71.32-1.71-.8-3.45.37-4.86.29-.14.72.01.85.3.4,1.87-.78,3.57-.53,5.58.65,3.59,4.2,5.66,7.64,5.29,3.88-.51,7.34-1.88,11.2-1.52.57.15,1.14.31,1.57.46.85.45,1.27,1.17,1.68,2.04,0,0,0,0,0,0-.55-2.32-2.36-4.97-2.36-4.97l.53-1.19s1.87.2,2.43.07c.95-.22,1.28-.35,1.94-1.46.44-.84,2.16-.91,2.4-2.05.21-1.01-.14-1.17-.14-2.02,0-1.58,2.28-1.18-.43-5.12-.18-.26-.25-.88-.1-1.16,1.16-2.23,2.64-3.6,4.08-5.83.72-1.11,1.07-1.44,1.54-2.73.35-.96.6-1.48.92-2.44.37-1.12.7-2.25.7-4.28,0-2.25-4.14-6.01-4.14-6.01Z" style="fill: #241916; stroke-width: 0px;"/>
    <path d="m72.46,54.53c.13-.05.25-.09.38-.12-.13.04-.25.08-.38.12Z" style="fill: #231815; stroke-width: 0px;"/>
    <path d="m93.52,101.83c-2.53,0-5.16,1.38-6.08,1.78-.92.4-3.54.9-3.95.94-1.19.09-2.57.05-2.57.56,0,.41,2.04.51,3.07.51,2.04,0,4.96-1.92,8.21-1.92,1.12,0,2.99.38,3.72.66.73.28.84-1.92.84-1.92,0,0-1.05-.61-3.23-.61Z" style="fill: #e50012; stroke-width: 0px;"/>
    <g>
      <path d="m104.28,80.61c-.81-.48-2.09-.47-3.27-1.35-.42-.44-.99-.88-1.12-1.31-.69-1.3-.38-2.44.5-3.57.73-.85,2.13-.11,2.98.05l3.05,1.11c1.01-.13,2.97-.09,3.84-.79-2.72-5.07-8.05-6.5-10.85-10.27-.98-1.16.05-2.72,1.35-3.27.72-.27,1.43.31,1.85.89.41.87.54,1.87.81,2.88,0,.57.41,1.15.98,1.45.57.3.87-.56,1.02-.98.17-1.57-1.24-3.03-.64-4.6.59-.99,2.2-2.68.92-3.28-1.85-.75-3.87-.07-5.87.04-.58.13-1.01.27-1.58.4-1.15.27-2.28-.47-3.43-.49-.14,0-.29.14-.29.28-.01.57.27,1.15-.03,1.58-.87.84-2.01.25-2.86-.05-1.42-.6-2.4-1.76-3.97-2.07-.57,0-1.15-.02-1.72-.17-2.28-.9-4.11-2.79-6.54-2.98-3.15-.34-6.44-.4-9.05,1.56-.15.14-.01.57.27.72.71.16,1.43.02,2.15-.11,1.73-.69,3.9-1.65,5.45-.33.71.44-.02,1.29-.74,1.42-1.58.12-3.15-.34-4.59.35-.58.28-1.01.41-1.59.69-2.17,1.11-4.39,5.37-6.49,2.61-.7-.73.17-1.86-.24-2.87-.41-1.15-1.69-1.61-2.69-1.62-1.29-.02-2.87.24-3.47,1.52-.89,1.7.51,3.45.63,5.17-.02,1.43.5,4.45-1.51,4.27-1.14-.16-1.11-1.88-1.81-2.75-.56-.87-1.16.55-1.31,1.12-.01.57-.16,1,.12,1.58.26,1.29.82,2.45.8,3.6.1,2.58-1.37,4.85-2.42,7.26-1.04,1.99-2.78,3.53-3.39,5.53-.6,1.57,1.1,2.88.64,4.6-.16.86-.46,1.57-.47,2.43,0,.29.13.72.41,1.01,2.82,2.34,4.2,5.37,5.87,8.55.56,1.01,1.69,1.46,2.69,1.91,5.13,1.52,10.42,2.19,15.24,4.99,3.26,1.92,5.36,5.11,8.61,7.17,2.7,1.48,5.84,2.11,8.72,1.15,2.16-.82,4.32-1.36,6.48-2.04,1.59-.55,2.33-2.4,1.65-3.98-.41-.87-.83-1.59-1.68-2.04-.43-.15-1-.3-1.57-.46-3.86-.35-7.32,1.02-11.2,1.52-3.45.37-6.99-1.7-7.64-5.29-.25-2.01.92-3.71.53-5.58-.14-.29-.57-.44-.85-.3-1.17,1.41-.06,3.15-.37,4.86-.15.29-.15.57-.44.71-.43.14-1-.02-1.28-.45-1.24-3.03-.89-6.32.73-9.16.59-1.14,1.18-2.13,2.06-3.12,1.32-1.7,1.78-3.69,2.25-5.69.61-2.28,1.22-4.42,1.98-6.56.61-2,1.79-3.84,3.67-4.81,1.73-.83,3.74-.79,5.59-.05,1.28.45,2.7,1.19,4.13,1.65.85.3,1.99.75,1.83,1.61-.61,2-3-.34-4.28-.93-.43-.15-.86-.02-1.01.41-.15.43.13.72.41,1.01,1.56,1.03,3.28.92,4.99,1.66,1.14.45,3.28.92,2.97,2.49-.16.86-1.44.55-2.15.25-2.42-1.05-4.53-3.23-7.4-2.85-.29,0-.72.27-.58.71,1.26,1.45,3.27,1.2,4.98,1.66.57.01,1.42.6,1.12,1.31-.44.71-1.58.55-2.29.1-2.41-1.33-5.11-2.53-7.71-1.57-1.44.55-2.47,1.82-3.49,3.09-1.91,2.83-3.54,5.67-3.88,8.96,0,.14.28.29.28.29.86-.27,1.16-.98,1.75-1.69,2.2-3.11,2.98-6.54,5.89-8.92,1.31-.98,3.03-1.52,4.31-.64,2.83,1.77,5.23,3.82,8.66,4.31,1.14.16,2.29-.1,3.3-.52,1.16-.7,2.04-1.68,2.34-2.97.16-.86-.26-1.58-.97-2.02Z" style="fill: #ffe100; stroke-width: 0px;"/>
      <path d="m109.4,79.65c-.89,0-2.18,1.53-2.68,2.6-.47,1-1.95,4.09.02,4.29.84.09,2.03-2.28,2.37-3.01.45-.98.91-2.23,1.12-3.06.09-.35.06-.83-.83-.83Z" style="fill: #ffe100; stroke-width: 0px;"/>
      <path d="m103.63,92.75c-1.75,1.69-4.06,2.51-5.52,4.34-.88.99-1.59,2.42-1.15,3.84.42,1.34-.08,2.42.73,2.59,1.68.34,2.68.11,3.37-.39,1.24-.8.75-1.23,1.39-1.56.53-.27,1.92-.62,1.92-1.98,0-.76-.19-.69-.19-1.56s.82-1.39.98-2.1c.02-1.15-.97-2.17-1.52-3.18Z" style="fill: #ffe100; stroke-width: 0px;"/>
    </g>
    <path d="m66.4,77.81c-1.1,1.42-2.16,2.77-3.44,4.15-.86.97-1.3,2.08-2.16,3.19-1.73,2.5-.65,5.19.29,7.59.13.56.11,1.97-.87,1.81-.7-.15-1.11-.86-1.52-1.43-1.22-2.55-2.01-5.23-1.68-8.04.79-5.18,4.78-8.48,7.8-12.5,1.44-1.8.07-3.93.38-5.89,0-.42.44-.97.99-.68,2.08,1.44,2.32,4.11,2.28,6.36.11,1.97-.77,3.78-2.06,5.44Z" style="fill: #241916; stroke-width: 0px;"/>
    <path d="m72.91,75.26c.73-1.05,1.68-1.72,2.28-2.07.61-.35,3.12-1.91,4.37-1.05,1.25.87-1.23,1.82-1.71,2.05-.48.24-.86.57-1.57.98-.57.41-1.71,1.66-.88,1.95.56.15,1.56-.96,2.54-.8.42.15.83.58.68,1.14-.15.28-.43.55-.72.83,0,0-1.4,1.78-2.28,2.71-.6.63-1.04,1.07-2.08,2.1-.96.96-2.37,3.22-2.68,4.48-.16,1.4.66,2.68.21,4.08-.44,1.26-.89,2.51-1.19,3.77-.17,1.82.64,3.38,1.32,4.94.27.71.53,1.55-.04,2.25-.29.27-.71.27-.98.12-2.49-2.43-4.12-5.41-4.62-8.79-.77-4.37,2.61-8.88,4.27-11.3,1.66-2.42,2.35-6.34,3.08-7.39Z" style="fill: #241916; stroke-width: 0px;"/>
    <path d="m77.22,61.43c-1.44.69-2.83,1.36-3.56,2.75-.29.7.12,1.41.81,1.7.42.15.84.02,1.27-.26,1.99-1.09,4.55-3.43,6.76-1.29,1.41-.26,3.24-.37,4.05,1.19.68,1.27.51,2.96-.77,3.78-1.42.96-2.96.51-4.38,1.19-.56.13-1.13.12-1.68-.17-1.81-.87-3.18-2.72-5.42-3.04-1.54-.17-3.1.65-4.49-.36-1.66-1.29-.64-3.52.78-4.62.85-.55,1.83-.25,2.54-.8,1-.97,2-1.79,3.27-2.19,1.13-.26,3.37-.08,3.06,1.46-.16.84-1.41.26-2.26.66Z" style="fill: #241916; stroke-width: 0px;"/>
    <path d="m94.67,67.63c.99.68,2.93,1.03,2.48,2.57-.59,1.54-2.42,1.78-3.81,1.06-.84-.44-1.81-1.02-2.66-.75-.85.27-1.42.96-2.27,1.08-.7-.01-1.67-.73-1.38-1.57.58-.97,1.3-1.94,1.32-3.07.01-.7-.12-1.41-.53-1.97-1.37-1.99-3.91-1.33-5.28-3.18-1.1-1.28.33-2.8,1.74-3.34,1.98-.67,3.35,1.04,4.59,2.33,1.11.86,2.37,1.02,3.77,1.19.7.01.54.99.26,1.13-1.7.95-3.51-.2-5.18-.79-.14,0-.56-.15-.56.13.14.28.55.57.83.72,1.4.31,2.94.61,3.33,2.16.12,1.27-.47,2.66.78,3.38.28.15.7.01.85-.27,0-.28.15-.56.01-.84-.41-.85-1.23-1.71-.94-2.68.15-.28.71-.41.99-.26.7.43.68,1.13.67,1.84.13.42.55.85.96,1.14Z" style="fill: #241916; stroke-width: 0px;"/>
    <g>
      <path d="m85,66.62c-.26-1.13-1.38-1.57-2.5-1.87-1.26-.16-2.54.38-3.11,1.35-.44.83-.31,1.82.52,2.4,1.11.72,2.36,1.45,3.64.91,1.16-.49,1.71-1.66,1.45-2.78Zm-2.8-.61c.14-.14.15-.42.43-.55.56-.13.99-.12,1.4.45.41.71.39,1.83-.59,1.96-.98.12-1.39-1.01-1.23-1.85Z" style="fill: #fff; stroke-width: 0px;"/>
      <path d="m54.39,120.52c0,.84-.39,3.85.82,3.85,1.34,0,2.89-5.32,2.89-6.97,0-.91-.05-1.27-.68-1.58-.84-.41-1.59.32-2.45.32-.6,0-1.2-.42-1.44-.58-.23-.16-4.4-3.12-4.74-3.38-.45-.34-.64-1.16-.6-1.8.02-.33.45-1.95-1.28-1.95-.27,0-2.55.3-4.63,1-1.97.67-3.84,1.39-3.65,2.29.3,1.44,2,.54,5.48.54.71,0,1.48.09,1.99.43.51.35,1.49,1.08,1.64,1.19.15.11.08.37-.03.49-.11.12-6.87,7.17-6.87,7.17-.46.43-.85.74-1.75.74s-1.32-.26-1.87-.26-1.34.33-1.34.94c0,.55.72.97.99,1.2.27.23,4.88,3.85,5.18,4.08.4.3.97.55,1.27.55.4,0,1.29-.13,1.29-1.05,0-1.09-.59-1.59-.59-2.41,0-.68.89-1.56,1.24-1.92.45-.46,6.28-6.4,6.28-6.4.19-.21.29-.14.49-.02.2.12,1.54,1.2,1.88,1.45.57.42.47,1.24.47,2.09Z" style="fill: #fff; stroke-width: 0px;"/>
      <path d="m66.91,122.05c0-1.49-1.51-2.24-2.94-2.24-.89,0-2.12.49-2.12,1.65,0,1.42,1.94,2.24,3.22,2.24.65,0,1.84-.39,1.84-1.65Z" style="fill: #fff; stroke-width: 0px;"/>
      <path d="m63.55,124.93c-.87-.52-3.06-1.18-3.85-1.18-.67,0-1.31.42-1.31,1.04s.37.76.72,1.01c.34.25.36.5.19.73-.17.23-2.75,3.42-3.31,4.06s-.83.61-1.45.61-1.9.06-1.9,1.11c0,.97,2.06,1.79,3.34,2.37,1.23.56,2.87,1.09,3.34,1.04.51-.05,1.23-.25,1.23-1.03s-.42-1.12-.87-1.59c-.45-.47-.44-.72-.11-1.12.33-.41,3.17-3.9,4.1-5.09.94-1.19.59-1.54-.11-1.97Z" style="fill: #fff; stroke-width: 0px;"/>
      <path d="m80.52,124.32c-1.19,0-1.84.75-2.56.75-1.06,0-.87-.81-3.4-.81-6.03,0-6.75,5.73-6.75,6.85,0,4.28,3.79,4.63,4.76,4.63.69,0,1-.19,1.43-.28.44-.09.66.25.47.62-1.13,2.27-2.68,3.21-4.06,3.21-1,0-1.8-.75-1.58-.97.22-.22,1.24-.02,1.24-1.12,0-1.18-1.28-1.78-2.18-1.78s-2,.56-2,2.06c0,1.23,1.23,3.43,5.01,3.43,7.15,0,9.27-7.93,11.23-13.77.51-1.51-.28-2.84-1.61-2.84Zm-4.84,8.18c-.37.69-.87,1.47-2.18,1.47s-1.84-.94-1.84-1.96,1.15-4.56,2.12-5.34c.97-.78,1.72-.66,1.72-.66.81,0,1.78.59,1.78,1.65s-1.22,4.15-1.59,4.84Z" style="fill: #fff; stroke-width: 0px;"/>
      <path d="m87.76,133.29c.48,0,4.99-.28,6.52-1.2,1.25-.76,1.47-1.54,1.47-2.41,0-2.66-2.62-3.51-4.66-3.51-4.23,0-7.72,3.39-7.72,7.44,0,3.75,3.22,5.08,5.43,5.08,3.88,0,5.84-2.76,6.37-3.74.54-.98-.27-1.17-.62-.89-.35.28-2.64,2.44-4.61,2.44-2.18,0-2.53-2.03-2.53-2.55,0-.34.08-.65.34-.65Zm2.46-5.62c.84,0,2.15.83,2.15,2.11,0,.23-.09.51-.29.67-.69.56-3.11,1.01-3.64,1.01-.3,0-.66-.12-.66-.56,0-.95.97-3.23,2.43-3.23Z" style="fill: #fff; stroke-width: 0px;"/>
      <path d="m106.49,120.25c-2.09,0-3.27,3.09-3.39,3.35-.12.27-.31.46-.47.17-.27-.48-.81-1.15-1.93-1.15-2,0-3.18,1.96-3.18,3.06s.95,1.68,1.72,1.68,1.14-.67,1.25-.89c.11-.22.25-.23.28.12.03.41.54,4.11.63,4.91.09.8-.02,1.19-.33,1.59-.3.4-.95.82-.87,1.43.2,1.53,2.6.28,4.02-.3,1.43-.59,3.14-1.22,3.14-2.25s-1.33-.94-1.66-.94-.66-.16-.75-.61c-.09-.44-.61-4.07-.61-5.55s.55-1.53.81-1.19c.29.36.73.77,1.32.77,1.26,0,1.99-.83,1.99-1.97s-.49-2.25-1.97-2.25Z" style="fill: #fff; stroke-width: 0px;"/>
      <path d="m120.04,116.32c-2.28,0-4.8,2.57-6.46,2.57-.56,0-1.17-.26-1.17-1.15,0-1.71,1.8-2.99,2.08-2.99.13,0,.25.04.23.19-.03.19-.09.38-.09.55,0,.3.26,1.01,1.22,1.01,1.54,0,2.06-1.81,2.06-2.43,0-1.13-.95-1.52-1.52-1.52-1.26,0-3.67,1.5-4.98,3.32-1.42,1.98-1.55,2.83-1.55,4.35s1.29,2.48,2.55,2.48c2.5,0,4.71-2.46,6.18-2.39.87.04.91.76.91,1.04,0,2.11-2.41,3-2.67,3.08-.26.09-.59.12-.7.04-.09-.07.02-.23.02-.48s-.26-1.09-1.22-1.09c-.58,0-1.94.82-1.94,2.58,0,1.17.94,1.71,2.08,1.71,3.35,0,7.39-4.26,7.39-8.49,0-.77-.28-2.36-2.43-2.36Z" style="fill: #fff; stroke-width: 0px;"/>
      <path d="m38.91,55.4c0,.25-.1.27-.1.78s.55.73.75.73.44-.1.71-.41c.27-.3,1.73-2.08,1.99-2.42s.45-.61.45-.92c0-.5-.45-.73-.73-.73-.34,0-.41.23-.83.23-.15,0-.36-.03-.62-.21-.26-.18-1.47-1.23-1.81-1.52-.34-.29-.21-.75.03-1.05.25-.3,2.27-2.77,2.61-3.14.34-.36.67-.15.84-.01.17.14,1.61,1.29,1.86,1.5.24.21.33.47.33.68s-.07.05-.07.48.29.76.74.76,1.05-.71,1.75-1.6c.7-.89,1.35-1.58,1.35-2.06s-.34-.7-.64-.7-.79.25-1.02.25-.4-.08-.83-.42c0,0-5.5-4.54-5.67-4.68-.18-.14-.37-.29-.37-.56s.08-.41.08-.77-.34-.73-.68-.73c-.23,0-.4.13-.63.34-.23.21-2.22,2.56-2.46,2.93-.23.36-.2.73-.01.92.19.19.37.25.51.25s.33-.1.51-.19c.19-.08.27-.13.48-.13s.43.15.58.27c.15.12,1.9,1.57,2.18,1.84.26.25.09.63-.11.89-.2.25-2.13,2.6-2.54,3.01-.41.41-.76.28-1.03.1-.27-.17-1.47-1.15-1.85-1.46-.37-.32-.38-.88-.31-1.4.06-.46-.25-.81-.56-.89-.24-.06-.47.08-.64.28-.18.2-2.41,2.85-2.6,3.04-.19.19-.33.47-.27.77.07.37.4.6.7.6s.71-.25.98-.25.45.09.96.46c.25.18,5.42,4.46,5.62,4.63.2.17.37.33.37.53Z" style="fill: #fff; stroke-width: 0px;"/>
      <path d="m111.39,34.6c-.18.24-3.72,5.17-3.88,5.38-.16.21-.52.65-.72.69-.41.08-.7-.03-1.21.05-.59.09-.66.54-.65.74.03.42.41.79.73,1.04.32.25,2,1.39,2.36,1.62.5.33,1.04.55,1.36.55.41,0,.82-.27.76-.8-.04-.34-.47-.68-.47-1.19,0-.23.3-.55.52-.83.61-.78,3.81-5.31,4.14-5.76.33-.44.63-.54,1.15-.51.46.02.79-.07.93-.44.09-.23.07-.67-.58-1.15-.36-.27-2.34-1.64-2.77-1.93-.41-.28-.78-.39-1.02-.39-.43,0-.73.44-.68.83.05.51.45.7.45,1.13,0,.27-.04.48-.41.98Z" style="fill: #fff; stroke-width: 0px;"/>
      <path d="m59.89,26.9c.21.16.27.43.42,1.04.11.45,1.5,6.49,1.52,6.59.05.22.19.86.08,1.06-.12.22-.3.4-.53.7-.38.48-.08.84.08.95.29.19.97.17,1.34.1.4-.08,2.09-.54,2.5-.66.41-.12,1.03-.38,1.23-.62.27-.33.13-.78-.09-.95-.27-.21-.61-.21-.87-.42-.15-.12-.21-.3-.28-.61-.07-.3-1.03-4.58-1.13-5.02-.1-.47.15-.6.5-.36.45.31,7.4,5,8.35,5.64.86.57,1.3.4,1.55.1.2-.25.21-.59.09-1.13-.12-.54-1.8-7.79-2.06-8.87-.17-.73.2-1.05.39-1.25.31-.34.19-.8-.08-.99-.33-.23-.69-.2-1.11-.12-.31.06-2.88.66-3.29.8-.5.17-.65.5-.65.77,0,.37.36.63.56.7.54.18.87.47.98.94.22.95.8,3.57.89,3.95.1.45-.17.47-.44.29-1.06-.71-6.02-4.04-7.11-4.79-.2-.14-.52-.25-.78-.2-.26.05-2.22.52-2.48.59-.26.06-.77.24-.91.52-.17.34-.05.71.19.9.26.2.94.22,1.15.38Z" style="fill: #fff; stroke-width: 0px;"/>
      <path d="m128.26,47.28c-.2-.24-1.93-2.16-2.25-2.45-.39-.35-.77-.34-1.01-.21-.32.19-.36.68-.26.91.23.51-.04.79-.4,1.12-.72.66-2.84,2.56-3.14,2.81-.3.25-.51.09-.47-.24.15-1.29.85-7.4.96-8.72.02-.24-.09-.65-.26-.85-.16-.18-.91-.98-1.12-1.19-.18-.19-.55-.53-.86-.54-.38-.01-.69.23-.73.53-.05.33.21.76.18,1.15-.02.23-.32.52-.77.95-.34.32-4.92,4.39-4.99,4.46-.17.15-.66.55-.86.58-.24.04-.43-.13-.81-.19-.61-.09-.79.37-.8.57-.02.35.37.93.62,1.22.27.31,1.38,1.55,1.69,1.85.31.29.73.67,1.04.72.38.06.74-.13.83-.51.08-.33-.15-.76-.09-1.09.03-.19.16-.33.39-.55.23-.21,3.01-2.65,3.35-2.95.36-.32.6-.2.56.21-.05.54-.9,8.1-.98,9.24-.07,1.03.41,1.41.8,1.47.32.05.68-.12,1.1-.48.43-.38,5.86-5.43,6.69-6.18.49-.45.95-.2,1.27-.15.46.07.75-.2.8-.54.05-.34-.18-.64-.46-.97Z" style="fill: #fff; stroke-width: 0px;"/>
      <path d="m90.55,34.75c.09.31.2.34.59.54.36.18,2.36,1.02,2.75,1.17.4.16.83.3,1.13.22.48-.14.58-.59.5-.86-.09-.33-.3-.32-.41-.73-.04-.15-.03-.36.07-.65.1-.3.74-1.67.93-2.08.19-.41.54-.45.9-.29.36.15,3.67,1.58,4.11,1.81.44.23.33.64.25.84-.09.21-.85,1.88-.98,2.18-.13.29-.28.38-.48.44-.2.06-.37.04-.71.12-.3.07-.55.28-.55.66,0,.63,1.09,1.03,2.16,1.51,1.04.46,1.73.71,2.15.71.33,0,.77-.3.6-.8-.1-.29-.31-.48-.35-.74-.06-.33.18-.83.36-1.21.19-.37,2.89-6.52,2.98-6.73.09-.21.32-.54.44-.62.21-.13.39-.19.58-.2.19-.01.5-.15.5-.66,0-.26-.31-.46-.53-.56-.33-.15-2.91-1.22-3.33-1.39-.49-.2-.95.06-.95.54,0,.26.13.47.29.59.18.13.29.31.29.52,0,.25-.16.5-.23.68-.07.18-1.06,2.34-1.24,2.68-.17.32-.6.28-.9.16-.3-.12-3.38-1.46-3.88-1.74-.51-.28-.51-.57-.42-.87.1-.31,1.1-2.4,1.3-2.85.2-.45.35-.45.86-.57.47-.11.55-.36.54-.69,0-.25-.21-.42-.45-.54-.2-.11-2.88-1.31-3.26-1.44-.37-.12-.59-.16-.87-.03-.24.12-.41.41-.32.73.08.29.31.48.4.74.1.3-.05.61-.19,1.01-.1.28-2.79,6.42-2.91,6.66-.12.24-.32.66-.44.71-.22.1-.35.01-.84.15-.52.15-.49.69-.43.88Z" style="fill: #fff; stroke-width: 0px;"/>
      <path d="m49.36,43.59c.01.26-.23.44-.32.74-.09.3-.07.61.16.86.16.17.58.23.83.08.28-.16,2.49-1.68,2.77-1.96.35-.35.4-.75.11-1.01-.25-.23-.59-.15-.73-.2-.14-.05-.23-.21-.28-.37-.05-.16-.23-1.12-.28-1.47-.05-.35,0-.75.21-.94.21-.19,1.9-1.33,2.15-1.47.2-.11.51-.13.65-.02.16.12,1.38.84,1.54.98.16.14.28.16.28.4s-.14.25-.23.44c-.09.19-.08.51.12.71.2.2.65.22,1,.04.4-.2,2.67-1.96,2.91-2.19.17-.17.31-.52.02-.82-.27-.27-.42-.29-.87-.23-.26.03-.56-.09-.7-.19-.14-.09-8.6-5.73-9.02-5.94-.38-.19-.53-.17-.97.07,0,0-1.12.77-1.36.91-.23.14-.19.4-.16.65.02.26,2.15,10.71,2.16,10.94Zm1.38-8.13c.13-.09.24-.05.44.06.21.12,1.16.74,1.36.88.21.14.19.44.03.57-.15.12-.77.57-1.02.72-.25.15-.44.04-.5-.2-.04-.16-.33-1.4-.36-1.62-.04-.22-.07-.32.06-.41Z" style="fill: #fff; stroke-width: 0px;"/>
      <path d="m77.61,33.46c.3-.09.94-.44,1.45-.44,1.08,0,3.18,1.66,6.18,1.66,2.69,0,4.49-1.59,4.49-3.39s-1.27-2.7-2.57-3.35c-1.76-.87-5.52-1.19-5.52-3.18,0-1,1.12-1.36,1.94-1.36,1.05,0,1.78.43,2.71,1.11.94.68,1.76,1.27,2.54,1.27s2.12-1.32,2.12-2.37c0-.33-.23-.65-.73-.65-.33,0-1.33.84-1.92.84-.98,0-2.47-1.9-5.62-1.9-2.86,0-4.56,1.35-4.56,2.92,0,.37-.07,2.52,3.72,3.81,2.21.75,3.93,1.47,3.93,2.8,0,.58-.27,1.43-2.19,1.43-2.01,0-3.12-1.33-3.57-1.82-.44-.49-.61-.63-1.08-.63s-1.04.48-1.44.87c-.4.4-1.49,1.56-.98,2.24.28.37.68.29,1.08.16Z" style="fill: #fff; stroke-width: 0px;"/>
      <path d="m99.07,95.39c1.74-.8,2.55-3.2,3.66-3.87.3-.18.49-.63.35-.91-.45-.69-.28-.88-.25-1.25.01-.14-.09-.3-.23-.3-.42,0-.61.29-1.11.15-.64-.18-.66-.63-1.09-.8-.41-.16-.99.05-1.23-.02-.47-.15-.62-.66-.87-.73-.25-.08-.56.04-.88.04-.79,0-.71-.89-1.26-.89-.4,0-.38.27-.93.27-1.02,0-.73-1.12-1.64-1.12-.61,0-.91.25-1.3.25-.8,0-.73-1.28-1.69-1.28-.65,0-.67.45-1.16.94-.5.5-1.52.38-1.52,1.33,0,.46.7.55.7.88,0,.62-1.23,3.24-1.67,3.88-.71,1.04-.35,1.25.48.53,2.7-2.32,2.74-4.97,4.46-4.97,1.15,0,1.36.9,1.94.9s.7-.25,1.27-.25c1.5,0,1.23,1.5,2.25,1.5.4,0,.51-.23,1.26-.23s1.15,1.06,1.57,1.06.91,0,.91.52c0,.63-.58,1.53-.94,2.29-.33.7-1.06,1.63-1.08,2.08Z" style="fill: #fff; stroke-width: 0px;"/>
      <path d="m110.31,70.85c-.13-1.06-.22-1.4-.49-2.25-.13-.42-.53-1.25-1.21-.92-.49.23-.05,1.2.4,2.27.44,1.04,1.34,2.42,1.38,2.68,0,0,.02-1.01-.08-1.78Z" style="fill: #fff; stroke-width: 0px;"/>
      <path d="m110.86,69.72c.52,1.83.53,3.72.53,3.72,1.89-3.96.09-7.77-.81-7.49-1.25.38-.03,2.66.29,3.78Z" style="fill: #fff; stroke-width: 0px;"/>
      <path d="m75.79,74.72c.66-.04,1.17-.11,1.81-.13-1.26-.87-4.02-1.36-5.07-1.57-.82-.18-2.34-.19-2.48.94-.14,1.14,3.76.89,5.74.76Z" style="fill: #fff; stroke-width: 0px;"/>
      <path d="m78.89,81.34s-3.48.04-4.96.01c-1.31-.02-3.31.59-3.12,1.82.27,1.77,7.3-1.48,8.08-1.83Z" style="fill: #fff; stroke-width: 0px;"/>
      <path d="m68.46,78.95c-.16.97.9.73,1.13.75.38.03,4.56-.11,8.05-.96-1.47-.36-2.78-.54-4.26-.57-1.97-.03-4.75-.2-4.91.78Z" style="fill: #fff; stroke-width: 0px;"/>
      <path d="m97.91,99.43c-.57.55-.59,1.39-.88,2.09-.5,1.19-1.44,2.08-1.33,3.49.14.28.55.57.84.3.85-.69,1.15-1.81,1.45-2.78.3-.98.6-2.24-.09-3.09Z" style="fill: #fff; stroke-width: 0px;"/>
      <path d="m84.56,105.71c-.04.13.26.4.52.47.69.19,1.09-.35,1.24-1.05.02-1.26.19-2.41.05-3.84-.08-.85-.2-1.93-.89-2.5-.42.66-.12,4.28-.91,6.93Z" style="fill: #fff; stroke-width: 0px;"/>
    </g>
    <path d="m105.18,79.56c.22.39.64.74,1.04.6.8-.57,1.25-1.46,2.05-2.02.79-.42,2.32-.98,2.47-1.85.42-1.31-.83-2.72-2.31-1.91-1.12.62-2.61.79-3.77.45-1.01-.24-3-1.84-4.24-.36-.67.86-.23,1.69.42,2.43,1.16,1.19,3.5,1.17,4.35,2.66Z" style="fill: #f5aa00; stroke-width: 0px;"/>
  </g>
  <g>
    <g style="clip-path: url(#clippath);">
      <rect x="186.23" y="186.23" width="187.54" height="187.54" transform="translate(-114.59 246.8) rotate(-40.19)" style="fill: url(#_名称未設定グラデーション_4); stroke-width: 0px;"/>
    </g>
    <g style="clip-path: url(#clippath-1);">
      <rect x="190.07" y="190.08" width="179.86" height="179.86" transform="translate(-110.46 214.08) rotate(-35.42)" style="fill: url(#_名称未設定グラデーション_5); stroke-width: 0px;"/>
    </g>
  </g>
</svg>