<?xml version="1.0" encoding="UTF-8"?>
<svg id="_ロゴ" data-name="ロゴ" xmlns="http://www.w3.org/2000/svg" xmlns:xlink="http://www.w3.org/1999/xlink" viewBox="0 0 160 160">
  <defs>
    <clipPath id="clippath">
      <path d="m16.79,80c0-34.86,28.35-63.19,63.2-63.19s63.21,28.33,63.21,63.19-28.35,63.19-63.21,63.19-63.2-28.34-63.2-63.19m-3.33,0c0,36.69,29.85,66.54,66.53,66.54s66.54-29.85,66.54-66.54S116.69,13.46,80,13.46,13.46,43.31,13.46,80" style="fill: none; stroke-width: 0px;"/>
    </clipPath>
    <linearGradient id="_名称未設定グラデーション_4" data-name="名称未設定グラデーション 4" x1="-299.54" y1="502.72" x2="-298.18" y2="502.72" gradientTransform="translate(91064.26 -54001.84) rotate(-90) scale(180.98 -180.98)" gradientUnits="userSpaceOnUse">
      <stop offset="0" stop-color="#d7c29b"/>
      <stop offset="0" stop-color="#d7c29b"/>
      <stop offset=".13" stop-color="#fff"/>
      <stop offset=".31" stop-color="#dcc08d"/>
      <stop offset=".54" stop-color="#815835"/>
      <stop offset=".87" stop-color="#dcc08d"/>
      <stop offset="1" stop-color="#fff"/>
    </linearGradient>
    <clipPath id="clippath-1">
      <path d="m17.51,80c0-34.46,28.03-62.51,62.49-62.51s62.51,28.04,62.51,62.51-28.05,62.49-62.51,62.49-62.49-28.03-62.49-62.49m-2,0c0,35.56,28.93,64.49,64.49,64.49s64.5-28.93,64.5-64.49S115.56,15.52,80,15.52,15.51,44.44,15.51,80" style="fill: none; stroke-width: 0px;"/>
    </clipPath>
    <linearGradient id="_名称未設定グラデーション_5" data-name="名称未設定グラデーション 5" x1="-298.65" y1="503.48" x2="-297.29" y2="503.48" gradientTransform="translate(-57287.84 34034.4) rotate(90) scale(113.94 -113.94)" gradientUnits="userSpaceOnUse">
      <stop offset="0" stop-color="#d7c29b"/>
      <stop offset="0" stop-color="#d7c29b"/>
      <stop offset=".13" stop-color="#fff"/>
      <stop offset=".31" stop-color="#dcc08d"/>
      <stop offset="1" stop-color="#815835"/>
    </linearGradient>
    <clipPath id="clippath-2">
      <path d="m24.87,80.57c0-30.4,24.73-55.12,55.13-55.12s55.13,24.72,55.13,55.12-24.73,55.12-55.13,55.12-55.13-24.73-55.13-55.12m-2.91,0c0,32,26.03,58.03,58.04,58.03s58.03-26.03,58.03-58.03-26.04-58.03-58.03-58.03-58.04,26.02-58.04,58.03" style="fill: none; stroke-width: 0px;"/>
    </clipPath>
    <radialGradient id="_名称未設定グラデーション_6" data-name="名称未設定グラデーション 6" cx="-297.32" cy="501.11" fx="-297.32" fy="501.11" r="1" gradientTransform="translate(17332.91 29159.21) scale(58.03 -58.03)" gradientUnits="userSpaceOnUse">
      <stop offset="0" stop-color="#950022"/>
      <stop offset="1" stop-color="#570000"/>
    </radialGradient>
    <clipPath id="clippath-3">
      <path d="m23.74,80.57c0-31.02,25.23-56.25,56.25-56.25s56.25,25.23,56.25,56.25-25.23,56.24-56.25,56.24-56.25-25.24-56.25-56.24m-1.79,0c0,32,26.03,58.03,58.04,58.03s58.03-26.03,58.03-58.03-26.04-58.03-58.03-58.03-58.04,26.02-58.04,58.03" style="fill: none; stroke-width: 0px;"/>
    </clipPath>
    <linearGradient id="_名称未設定グラデーション_7" data-name="名称未設定グラデーション 7" x1="-298.71" y1="503.45" x2="-297.35" y2="503.45" gradientTransform="translate(-63095.91 37480.41) rotate(90) scale(125.49 -125.49)" gradientUnits="userSpaceOnUse">
      <stop offset="0" stop-color="#d7c29b"/>
      <stop offset="0" stop-color="#d7c29b"/>
      <stop offset=".25" stop-color="#fbddaf"/>
      <stop offset=".34" stop-color="#fff9bf"/>
      <stop offset=".54" stop-color="#92643d"/>
      <stop offset=".59" stop-color="#a4692e"/>
      <stop offset=".66" stop-color="#b66e1f"/>
      <stop offset=".71" stop-color="#bd701a"/>
      <stop offset="1" stop-color="#6e2724"/>
    </linearGradient>
  </defs>
  <path d="m28.73,22.82c-1.37,5.87.35,9.72,1.55,10.84-11.33,12.15-18.29,28.45-18.29,46.34,0,37.49,30.51,68,67.99,68s68.01-30.51,68.01-68S117.5,12,79.99,12c-15.12,0-29.11,4.97-40.41,13.35-1.54-.8-8.31-4.38-10.06-5.3,0,0-.41,1.04-.8,2.77" style="fill: #fff; stroke-width: 0px;"/>
  <g style="clip-path: url(#clippath);">
    <rect x="-13.77" y="-13.77" width="187.54" height="187.54" transform="translate(-32.74 70.52) rotate(-40.19)" style="fill: url(#_名称未設定グラデーション_4); stroke-width: 0px;"/>
  </g>
  <g style="clip-path: url(#clippath-1);">
    <rect x="-9.93" y="-9.92" width="179.86" height="179.86" transform="translate(-31.56 61.17) rotate(-35.42)" style="fill: url(#_名称未設定グラデーション_5); stroke-width: 0px;"/>
  </g>
  <path d="m134.48,80.4h-.06c0,15-6.08,28.57-15.91,38.4-9.83,9.83-23.41,15.91-38.4,15.91s-28.58-6.08-38.41-15.91c-9.83-9.83-15.91-23.41-15.91-38.4s6.08-28.58,15.91-38.41c9.83-9.83,23.4-15.91,38.41-15.91s28.57,6.08,38.4,15.91c9.83,9.83,15.91,23.41,15.91,38.41h.11c0-30.06-24.36-54.43-54.42-54.43s-54.43,24.37-54.43,54.43,24.36,54.43,54.43,54.43,54.42-24.38,54.42-54.43h-.06Z" style="fill: #231815; stroke-width: 0px;"/>
  <path d="m142.43,80.57c0,34.48-27.95,62.44-62.43,62.44s-62.44-27.97-62.44-62.44,27.96-62.45,62.44-62.45,62.43,27.96,62.43,62.45" style="fill: #860010; stroke-width: 0px;"/>
  <g style="clip-path: url(#clippath-2);">
    <rect x="21.96" y="22.54" width="116.07" height="116.06" style="fill: url(#_名称未設定グラデーション_6); stroke-width: 0px;"/>
  </g>
  <g style="clip-path: url(#clippath-3);">
    <rect x="-.57" y="0" width="161.14" height="161.13" transform="translate(-31.38 58.53) rotate(-34.01)" style="fill: url(#_名称未設定グラデーション_7); stroke-width: 0px;"/>
  </g>
  <path d="m80.89,84.95h0s-.2-1.62-.2-1.62l-.49-4.05c-.12-1-.23-1.91-.31-2.58h0l-.14-1.14-.14-1.17h-1.17s-5.5.09-5.5.09c-7.08.1-14.4.21-22.13.07l-1.47-.02.14,1.46c.18,1.76,2.01,3.72,4.09,4.38.34.11.68.21,1.03.31.72.79,1.69,1.45,2.73,1.78,7.1,2.25,15.27,3.28,23.74,4.17h0c-.05-.46-.12-1.03-.2-1.67" style="fill: #5c0000; stroke-width: 0px;"/>
  <path d="m79.23,71.34h.02s-.19-1.58-.19-1.58l-.86-7.41-.13-1.09-1.1-.06c-10.52-.58-23.21-1.52-37.56-4.09l-1.58-.28.04,1.6c.05,2.03,1.47,3.97,3.51,4.82.55.23,1.11.45,1.68.68.6.83,1.44,1.51,2.44,1.93,9.32,3.88,20.74,6.44,33.96,7.62l-.25-2.13Z" style="fill: #5c0000; stroke-width: 0px;"/>
  <path d="m127.4,94l1.72-.51-13.06-9.04c-.41.14-1.35.35-1.35.35-3.55.69-8.54,1.59-12.76,2.2-.29.04-.56.06-.81.06-.07-.3-.14-.64-.18-1.01l-.11-.9c-.18-1.54-.59-4.95-1.03-9.58,5.25.4,10.55.67,15.79.79l1.42.02c-.04-.41-.13-1.41-.13-1.41l-.56-6.02-.27-2.87-.1-1.13-1.14-.02c-.19,0-.38,0-.56-.01l-.13-1.44-.11-1.17-1.17-.02c-5.27-.08-9.97-.18-14.27-.3v-.12s-.15-1.43-.15-1.43c8.34.64,15.98,1.03,21.15,1.06h1.55c-.12-.73-.31-1.57-.31-1.57-.43-1.74-1.27-3.32-2.46-4.72-2.37-5.28-8.76-8.84-17.28-9.46-26.17-1.92-49.4-8.48-69.04-19.5l-1.95-1.1v2.24c.01,2.69,1.01,4.88,3.05,6.68,1.37,1.21,2.87,2.39,4.46,3.55,9.85,8.65,25.85,16.07,42.45,19.81l1.4,12.66c.76,6.97,1.42,13,1.69,14.84.95,6.55,3.09,10.86,6.55,13.19.62.41,1.29.76,1.99,1.06.22.18.45.34.68.5,3.72,2.49,8.94,2.71,16.93.71l7.3-1.77c3.76-.9,7.32-1.74,11.18-2.78l1.66-.45-2.04-1.42Z" style="fill: #5c0000; stroke-width: 0px;"/>
  <path d="m82.28,82.64h0s-.2-1.62-.2-1.62l-.49-4.05c-.12-1-.23-1.91-.31-2.58h0l-.14-1.14-.14-1.16h-1.17s-5.5.09-5.5.09c-7.08.1-14.4.21-22.13.07l-1.46-.02.14,1.46c.18,1.76,2.01,3.72,4.09,4.38.34.11.69.21,1.03.31.72.79,1.69,1.45,2.73,1.78,7.1,2.24,15.27,3.27,23.75,4.17h0c-.05-.46-.12-1.03-.2-1.67" style="fill: #f5aa00; stroke-width: 0px;"/>
  <path d="m80.62,69.03h.02s-.19-1.58-.19-1.58l-.85-7.41-.13-1.09-1.1-.06c-10.52-.58-23.21-1.52-37.56-4.09l-1.58-.28.04,1.6c.06,2.03,1.47,3.97,3.51,4.82.56.23,1.12.45,1.68.67.6.83,1.44,1.51,2.44,1.93,9.32,3.88,20.74,6.44,33.96,7.62l-.25-2.13Z" style="fill: #f5aa00; stroke-width: 0px;"/>
  <path d="m128.79,91.69l1.72-.51-13.06-9.04c-.41.14-1.35.35-1.35.35-3.55.69-8.54,1.59-12.76,2.2-.29.04-.56.06-.81.06-.08-.3-.14-.64-.18-1.01l-.11-.9c-.18-1.54-.59-4.95-1.03-9.58,5.25.4,10.55.67,15.79.79l1.42.02c-.04-.41-.13-1.41-.13-1.41l-.56-6.02-.27-2.87-.11-1.13h-1.14c-.19-.02-.38-.02-.57-.03l-.13-1.44-.11-1.17-1.17-.02c-5.27-.08-9.97-.18-14.28-.29v-.12s-.14-1.43-.14-1.43c8.34.64,15.98,1.03,21.14,1.06h1.55c-.13-.73-.31-1.57-.31-1.57-.43-1.74-1.27-3.32-2.46-4.72-2.36-5.27-8.76-8.83-17.28-9.46-26.17-1.92-49.4-8.48-69.04-19.5l-1.96-1.1v2.24c.01,2.69,1.02,4.88,3.06,6.68,1.37,1.21,2.87,2.4,4.46,3.55,9.86,8.65,25.85,16.07,42.45,19.81l1.4,12.66c.76,6.97,1.42,13,1.69,14.84.94,6.55,3.09,10.86,6.55,13.19.62.41,1.28.76,1.99,1.06.22.18.45.35.68.5,3.72,2.5,8.94,2.71,16.92.72l7.31-1.77c3.76-.9,7.32-1.74,11.18-2.78l1.66-.45-2.04-1.42Z" style="fill: #f5aa00; stroke-width: 0px;"/>
  <path d="m117.14,83.62c-3.55.71-8.98,1.7-13.62,2.37-3.37.48-4.58-1.29-4.88-4.09-.09-.84-.69-5.44-1.31-12.36,6.03.5,11.95.8,17.75.93-.29-3.09-.56-6.05-.85-9.16-6.21-.09-12.05-.22-17.68-.39-.23-2.64-.47-4.95-.65-6.96,8.03.64,16.99,1.17,23.25,1.21-1.56-6.38-8.77-9.81-16.76-10.4-25.1-1.84-48.76-7.97-69.59-19.67,0,2.33.83,4.14,2.6,5.7,10.73,9.45,28.71,17.49,46.99,20.98,1.22,10.53,2.97,27.43,3.44,30.68,2.03,14.03,9.32,16.11,22.39,12.84,6.6-1.65,12.5-2.93,19.04-4.69l-10.11-7Zm-38.85-23.44c-11.52-.63-23.84-1.62-37.72-4.11.03,1.35,1,2.94,2.71,3.65,9.46,3.94,21.51,6.7,35.87,7.87l-.86-7.41Zm1.55,13.21c-8.98.11-17.93.31-27.66.15.12,1.21,1.6,2.76,3.19,3.26,7.75,2.45,16.88,3.48,25.41,4.37l-.94-7.78Z" style="fill: #fff; stroke-width: 0px;"/>
  <path d="m43.7,114.23l.07.19s.18.08.39.11v.2h-3.41v-.2c.21-.03.34-.06.39-.11l.07-.19v-7.72l-.07-.19c-.05-.05-.18-.09-.39-.11v-.2h6.06c1.23,0,2.12.22,2.67.67.55.45.83,1.14.83,2.08,0,.76-.22,1.36-.67,1.79-.45.43-1.01.74-1.7.93l1.96,2.75c.13.2.29.3.48.3v.2h-3.45v-.2c.24-.01.36-.11.36-.3,0-.02-.04-.1-.13-.23-.09-.13-.2-.29-.33-.48-.13-.19-.28-.39-.44-.61-.16-.21-.32-.42-.46-.62-.15-.2-.28-.38-.39-.53-.11-.15-.18-.26-.22-.31h-1.62v2.78Zm2.78-4.54c.49,0,.82-.09,1-.27.18-.18.27-.39.27-.64s-.09-.46-.27-.64-.52-.27-1-.27h-2.78v1.82h2.78Z" style="fill: #5c0000; stroke-width: 0px;"/>
  <path d="m54.68,114.36l.06.13.24.04v.2h-2.93v-.2l.26-.11c.06-.05.11-.14.17-.28.02-.05.08-.2.16-.45.09-.24.2-.55.35-.92.14-.37.3-.78.48-1.23.18-.45.35-.91.53-1.38.18-.47.35-.93.52-1.37.17-.45.32-.85.46-1.2.13-.35.24-.64.32-.86.08-.22.13-.34.13-.35l-.11-.12-.22-.05v-.2h4.32v.2l-.21.05-.08.16s.05.17.16.43c.1.26.24.61.41,1.04.17.43.36.91.57,1.44.22.54.44,1.08.67,1.64.23.56.46,1.1.67,1.63.21.53.41,1.01.59,1.42.09.2.16.33.22.4l.24.1v.2h-3.26v-.2c.21-.01.32-.08.32-.2,0-.01-.03-.09-.08-.22-.06-.14-.12-.29-.18-.46-.07-.17-.13-.33-.19-.49-.06-.16-.1-.26-.11-.32h-3.93c-.11.3-.2.54-.27.73-.07.19-.12.34-.16.45l-.08.24-.03.11Zm4.03-2.85l-1.61-3.94-1.47,3.94h3.08Z" style="fill: #5c0000; stroke-width: 0px;"/>
  <path d="m71.22,114.53l.23-.03.08-.19s-.05-.13-.15-.3c-.1-.16-.23-.37-.38-.61-.16-.24-.33-.5-.51-.78-.19-.27-.37-.54-.53-.8-.16-.25-.31-.48-.45-.66-.13-.19-.22-.31-.27-.38l-1.63,1.46v1.99l.08.19s.18.08.39.11v.2h-3.41v-.2c.21-.02.34-.06.39-.11l.07-.19v-7.72l-.07-.19s-.18-.09-.39-.11v-.2h3.41v.2c-.21.02-.34.06-.39.11l-.08.19v2.98h.12c.33-.32.69-.65,1.07-.99.38-.34.73-.66,1.05-.95.32-.29.59-.54.8-.75.21-.2.32-.33.32-.37l-.08-.17-.22-.04v-.2h4.21v.2l-.27.05-.2.1-.2.16-.26.22-2.87,2.47,3.38,5.05c.09.13.17.21.25.23l.28.04v.2h-3.79v-.2Z" style="fill: #5c0000; stroke-width: 0px;"/>
  <path d="m83.83,106.5l-.07-.19c-.05-.05-.18-.09-.39-.11v-.2h3.41v.2c-.21.02-.34.06-.39.11l-.07.19v4.44c0,.73-.12,1.34-.36,1.84-.24.5-.56.9-.98,1.2-.41.3-.9.5-1.46.62-.56.12-1.15.18-1.78.18s-1.23-.06-1.78-.18-1.04-.32-1.46-.62c-.41-.3-.74-.7-.98-1.2-.24-.5-.35-1.11-.35-1.84v-4.44l-.07-.19s-.18-.09-.39-.11v-.2h3.41v.2c-.21.02-.34.06-.39.11l-.07.19v4.44c0,.64.18,1.1.55,1.38.37.28.88.41,1.54.41s1.18-.14,1.54-.41c.36-.28.55-.73.55-1.38v-4.44Z" style="fill: #5c0000; stroke-width: 0px;"/>
  <path d="m91.54,114.53c.21-.02.34-.06.39-.11l.07-.19v-6.2h-2.85l-.2.09c-.04.06-.08.19-.1.37h-.2v-2.95h.2c.02.19.06.31.1.37l.2.09h8.19l.2-.09c.04-.06.08-.19.1-.37h.2v2.95h-.2c-.02-.19-.06-.31-.1-.37l-.2-.09h-2.85v6.2l.07.19s.18.08.39.11v.2h-3.41v-.2Z" style="fill: #5c0000; stroke-width: 0px;"/>
  <path d="m106.19,111.54l-.14-.27c-.07-.07-.19-.11-.36-.11h-3.08v1.54h5.32l.2-.09c.04-.06.08-.2.1-.41h.2v2.83h-.2c-.02-.14-.05-.23-.1-.26l-.2-.05h-8.27v-.2c.21-.02.34-.06.39-.11l.07-.19v-7.72l-.07-.19c-.05-.05-.18-.09-.39-.11v-.2h8.27l.2-.09c.04-.06.08-.19.1-.38h.2v2.89h-.2c-.02-.19-.05-.31-.1-.38l-.2-.09h-5.32v1.37h3.08c.17,0,.29-.04.36-.11l.14-.27h.2v2.59h-.2Z" style="fill: #5c0000; stroke-width: 0px;"/>
  <path d="m111.18,106.5l-.08-.19s-.18-.09-.39-.11v-.2h3.99v.2c-.19.01-.31.04-.37.07l-.09.14s.07.12.21.3c.15.18.33.4.56.66.23.27.49.56.79.89s.59.65.89.98c.3.33.58.63.86.93.28.29.51.55.71.75v-4.42c0-.19-.12-.29-.35-.3v-.2h3.03v.2c-.21.02-.34.06-.39.11l-.07.19v7.72l.07.19c.05.05.18.08.39.11v.2h-3.15v-.2c.15,0,.26-.02.31-.05l.07-.13-.05-.12-.21-.26c-.11-.12-.27-.3-.49-.52-.22-.23-.5-.53-.85-.91-.35-.38-.79-.86-1.31-1.43-.52-.57-1.14-1.26-1.87-2.08v5.2l.07.19c.05.05.18.08.39.11v.2h-3.15v-.2c.21-.02.34-.06.39-.11l.08-.19v-7.72Z" style="fill: #5c0000; stroke-width: 0px;"/>
  <path d="m56.3,123.85l-.13-.25c-.07-.06-.17-.1-.32-.1h-2.81v1.4h4.84l.18-.08c.04-.06.07-.18.09-.37h.18v2.58h-.18c-.02-.13-.05-.21-.09-.24l-.18-.05h-7.53v-.18c.19-.02.31-.05.35-.1l.07-.17v-7.03l-.07-.17s-.16-.08-.35-.1v-.18h7.53l.18-.08c.04-.06.07-.17.09-.34h.18v2.63h-.18c-.02-.17-.05-.28-.09-.34l-.18-.08h-4.84v1.25h2.81c.15,0,.26-.03.32-.1l.13-.25h.18v2.35h-.18Z" style="fill: #5c0000; stroke-width: 0px;"/>
  <path d="m62.21,126.42l.05.11.22.04v.18h-2.67v-.18l.24-.1.15-.25s.07-.19.15-.41c.08-.22.19-.5.32-.84.13-.34.28-.71.44-1.12.16-.41.32-.83.48-1.26.16-.43.32-.84.47-1.25.16-.41.29-.77.41-1.09.12-.32.22-.58.3-.78.07-.2.11-.31.11-.32l-.1-.1-.2-.05v-.18h3.94v.18l-.2.05-.07.15s.05.15.14.39c.1.24.22.55.37.94.15.39.33.82.52,1.31.2.49.4.99.61,1.5.21.51.42,1,.61,1.48.2.48.37.92.53,1.3.08.18.15.3.2.36l.22.09v.18h-2.97v-.18c.19-.01.29-.07.29-.18,0,0-.03-.08-.08-.2-.05-.13-.11-.27-.17-.42-.06-.16-.12-.3-.17-.44-.05-.14-.09-.24-.1-.29h-3.58c-.1.27-.18.49-.24.66-.06.17-.11.31-.14.41l-.08.22-.02.1Zm3.67-2.59l-1.46-3.59-1.34,3.59h2.81Z" style="fill: #5c0000; stroke-width: 0px;"/>
  <path d="m76.02,123.87l-.17.08-.06.22h-.18v-2.11h.18c.02.18.1.27.23.27h4.45v.18c-.16,0-.24.1-.24.25v2.51l.03.18.15.07h.07v.18c-1.37.72-2.99,1.09-4.86,1.09-.63,0-1.24-.08-1.83-.24-.59-.16-1.11-.4-1.56-.73-.45-.33-.82-.75-1.09-1.26-.28-.5-.41-1.1-.41-1.79s.14-1.28.41-1.79c.28-.5.64-.93,1.09-1.27.45-.33.97-.59,1.56-.75.59-.17,1.2-.25,1.83-.25.25,0,.47,0,.66.01.19.01.38.03.56.06.18.03.37.07.56.11.19.05.42.1.68.17.25.07.48.16.69.25.21.09.35.14.41.14l.21-.12.18.06-.98,1.99-.18-.1.03-.16c0-.07-.08-.15-.26-.24-.17-.08-.39-.16-.65-.23-.26-.07-.56-.13-.88-.18-.33-.05-.65-.07-.96-.07-.36,0-.71.05-1.03.14s-.62.24-.88.44c-.25.2-.46.45-.61.75-.15.3-.23.65-.23,1.06s.09.75.27,1.05c.18.3.41.54.69.73.27.19.58.33.93.42.34.09.68.14,1.01.14.42,0,.8-.03,1.14-.08.34-.05.66-.12.97-.21v-.99h-1.95Z" style="fill: #5c0000; stroke-width: 0px;"/>
  <path d="m90.07,124.91l.18-.08c.04-.06.07-.17.09-.34h.18v2.61h-.18c-.02-.16-.05-.26-.09-.29l-.18-.05h-7.87v-.18c.19-.02.31-.05.35-.1l.07-.17v-7.03l-.07-.17s-.16-.08-.35-.1v-.18h3.11v.18c-.19.02-.31.05-.35.1l-.07.17v5.64h5.19Z" style="fill: #5c0000; stroke-width: 0px;"/>
  <path d="m98.2,123.85l-.13-.25c-.07-.06-.17-.1-.33-.1h-2.8v1.4h4.84l.18-.08c.04-.06.07-.18.09-.37h.18v2.58h-.18c-.02-.13-.05-.21-.09-.24l-.18-.05h-7.53v-.18c.19-.02.31-.05.35-.1l.07-.17v-7.03l-.07-.17s-.16-.08-.35-.1v-.18h7.53l.18-.08c.04-.06.07-.17.09-.34h.18v2.63h-.18c-.02-.17-.05-.28-.09-.34l-.18-.08h-4.84v1.25h2.8c.15,0,.26-.03.33-.1l.13-.25h.18v2.35h-.18Z" style="fill: #5c0000; stroke-width: 0px;"/>
  <path d="m102.99,123.69c-.02.06-.03.17-.03.32,0,.1.09.21.28.34.18.13.43.24.72.36.3.11.64.2,1.02.28.38.07.77.11,1.16.11.76,0,1.31-.09,1.66-.26.35-.18.53-.43.53-.76,0-.18-.15-.31-.46-.39-.31-.08-.69-.13-1.15-.18-.46-.04-.96-.1-1.49-.15-.53-.06-1.03-.16-1.49-.3-.46-.15-.85-.36-1.15-.63-.31-.28-.46-.66-.46-1.14,0-.38.09-.73.27-1.04.18-.31.42-.58.74-.8.32-.22.7-.39,1.15-.52.45-.13.96-.19,1.51-.19.51,0,.99.03,1.43.1.44.06.84.14,1.18.22.34.08.63.15.86.22.23.06.4.1.5.1l.24-.07.17-.16.17.06-1.04,2.1-.18-.09v-.16c0-.09-.1-.18-.3-.28-.19-.1-.44-.18-.75-.26-.3-.08-.64-.14-1.01-.19-.37-.05-.73-.08-1.09-.08-.65,0-1.11.08-1.37.23-.26.15-.39.31-.39.48s.09.3.27.38c.18.09.42.15.71.19.29.04.62.07,1,.1.37.02.75.06,1.15.11.39.05.77.12,1.15.21.37.09.7.23,1,.4.29.18.53.41.71.69.18.29.27.64.27,1.08,0,.33-.07.66-.2.98-.14.32-.37.61-.69.87-.33.26-.76.46-1.31.61-.55.15-1.23.23-2.04.23-.63,0-1.18-.03-1.64-.09-.46-.06-.85-.13-1.17-.22-.32-.09-.58-.16-.76-.24-.18-.07-.32-.11-.41-.11l-.16.06-.14.13-.18-.04,1.12-2.69.15.08Z" style="fill: #5c0000; stroke-width: 0px;"/>
  <path d="m43.07,113.21l.07.19c.05.05.18.08.39.11v.2h-3.41v-.2c.21-.02.34-.06.39-.11l.07-.19v-7.72l-.07-.19s-.18-.09-.39-.11v-.2h6.06c1.23,0,2.12.22,2.67.67.55.45.83,1.14.83,2.08,0,.76-.22,1.36-.67,1.79-.45.43-1.01.74-1.7.93l1.96,2.75c.13.2.29.3.48.3v.2h-3.45v-.2c.24-.01.37-.11.37-.3,0-.02-.04-.1-.13-.23-.09-.13-.2-.29-.33-.48-.13-.19-.28-.39-.44-.61-.16-.21-.32-.42-.47-.62-.15-.2-.28-.38-.39-.53-.11-.15-.18-.26-.22-.31h-1.62v2.78Zm2.78-4.54c.49,0,.82-.09,1-.27.18-.18.27-.39.27-.64s-.09-.46-.27-.64c-.18-.18-.52-.27-1-.27h-2.78v1.82h2.78Z" style="fill: #fff; stroke-width: 0px;"/>
  <path d="m54.06,113.34l.06.12.24.04v.2h-2.93v-.2l.27-.11c.05-.05.11-.14.17-.28.02-.05.08-.2.16-.45.09-.24.2-.55.35-.92.14-.37.3-.78.48-1.23.18-.45.35-.91.53-1.38.18-.47.35-.93.52-1.38.17-.45.32-.85.46-1.2.13-.35.24-.64.32-.86.08-.22.12-.34.12-.35l-.11-.12-.22-.05v-.2h4.32v.2l-.22.05-.08.16s.05.17.16.43c.1.27.24.61.41,1.04.17.43.36.91.57,1.44.22.54.44,1.08.67,1.64.23.56.46,1.1.67,1.63.21.53.41,1.01.59,1.42.09.2.16.33.22.4l.24.1v.2h-3.26v-.2c.21-.01.31-.08.31-.2,0-.01-.03-.09-.08-.22-.05-.14-.12-.29-.18-.46-.07-.17-.13-.33-.19-.49-.06-.16-.1-.26-.11-.31h-3.93c-.11.3-.2.54-.27.73-.06.19-.12.34-.16.45l-.08.24-.03.11Zm4.03-2.85l-1.61-3.94-1.48,3.94h3.08Z" style="fill: #fff; stroke-width: 0px;"/>
  <path d="m70.6,113.5l.23-.03.08-.19s-.05-.13-.15-.3c-.1-.16-.23-.37-.38-.61-.15-.24-.33-.5-.51-.78-.19-.27-.37-.54-.53-.8s-.31-.48-.45-.66c-.13-.19-.22-.31-.26-.38l-1.63,1.46v1.99l.07.19s.18.08.39.11v.2h-3.41v-.2c.21-.02.34-.06.39-.11l.07-.19v-7.72l-.07-.19c-.05-.05-.18-.09-.39-.11v-.2h3.41v.2c-.21.02-.34.06-.39.11l-.07.19v2.98h.12c.33-.32.69-.65,1.07-1,.38-.34.73-.66,1.05-.95.32-.3.59-.54.8-.75.21-.2.32-.33.32-.37l-.08-.17-.22-.04v-.2h4.21v.2l-.27.05-.2.1-.2.16-.26.22-2.87,2.47,3.38,5.06c.09.13.17.21.25.23l.28.03v.2h-3.8v-.2Z" style="fill: #fff; stroke-width: 0px;"/>
  <path d="m83.21,105.48l-.08-.19s-.18-.09-.39-.11v-.2h3.41v.2c-.21.02-.34.06-.39.11l-.08.19v4.44c0,.73-.12,1.34-.36,1.84-.24.5-.56.89-.98,1.19-.41.3-.9.5-1.46.62-.56.12-1.15.18-1.78.18s-1.22-.06-1.78-.18c-.56-.12-1.04-.32-1.46-.62-.41-.3-.74-.7-.98-1.19-.24-.5-.35-1.11-.35-1.84v-4.44l-.08-.19s-.18-.09-.39-.11v-.2h3.41v.2c-.21.02-.34.06-.39.11l-.07.19v4.44c0,.64.18,1.1.55,1.37.37.28.88.41,1.54.41s1.18-.14,1.54-.41c.36-.28.55-.73.55-1.37v-4.44Z" style="fill: #fff; stroke-width: 0px;"/>
  <path d="m90.91,113.5c.21-.02.34-.06.39-.11l.07-.19v-6.2h-2.85l-.2.09c-.05.06-.08.19-.1.37h-.2v-2.95h.2c.02.19.05.31.1.38l.2.09h8.19l.2-.09c.04-.06.08-.19.1-.38h.2v2.95h-.2c-.02-.18-.06-.31-.1-.37l-.2-.09h-2.85v6.2l.07.19c.05.05.18.08.39.11v.2h-3.41v-.2Z" style="fill: #fff; stroke-width: 0px;"/>
  <path d="m105.56,110.52l-.14-.28c-.07-.07-.19-.11-.35-.11h-3.08v1.54h5.32l.2-.09c.04-.06.08-.2.1-.41h.2v2.83h-.2c-.02-.14-.06-.23-.1-.27l-.2-.05h-8.27v-.2c.21-.02.34-.06.39-.11l.08-.19v-7.72l-.08-.19c-.05-.05-.18-.09-.39-.11v-.2h8.27l.2-.09c.04-.06.08-.19.1-.38h.2v2.89h-.2c-.02-.19-.06-.31-.1-.38l-.2-.09h-5.32v1.37h3.08c.16,0,.28-.03.35-.1l.14-.27h.2v2.59h-.2Z" style="fill: #fff; stroke-width: 0px;"/>
  <path d="m110.55,105.48l-.07-.19c-.05-.05-.18-.09-.39-.11v-.2h3.99v.2c-.19.01-.31.04-.37.07l-.09.14s.07.12.21.3c.15.18.33.4.56.66.23.27.49.56.79.89.29.33.59.65.89.98.3.33.58.63.86.93.28.29.51.55.71.75v-4.42c0-.19-.12-.29-.35-.3v-.2h3.03v.2c-.21.02-.34.06-.39.11l-.07.19v7.72l.07.19c.05.05.18.08.39.11v.2h-3.15v-.2c.15,0,.26-.02.31-.05l.07-.13-.05-.12-.22-.26c-.11-.12-.27-.3-.49-.52-.22-.23-.5-.53-.85-.91-.35-.38-.79-.86-1.31-1.43-.52-.57-1.14-1.26-1.87-2.08v5.2l.07.19c.05.05.18.08.39.11v.2h-3.15v-.2c.21-.02.34-.06.39-.11l.07-.19v-7.72Z" style="fill: #fff; stroke-width: 0px;"/>
  <path d="m55.67,122.83l-.13-.25c-.07-.06-.17-.1-.32-.1h-2.81v1.4h4.84l.18-.08c.04-.06.07-.18.09-.37h.18v2.58h-.18c-.02-.13-.05-.21-.09-.24l-.18-.05h-7.53v-.18c.19-.02.31-.05.35-.1l.07-.17v-7.03l-.07-.17s-.16-.08-.35-.1v-.18h7.53l.18-.08c.04-.06.07-.17.09-.34h.18v2.63h-.18c-.02-.17-.05-.28-.09-.34l-.18-.08h-4.84v1.25h2.81c.15,0,.26-.03.32-.1l.13-.25h.18v2.35h-.18Z" style="fill: #fff; stroke-width: 0px;"/>
  <path d="m61.59,125.4l.05.11.22.04v.18h-2.67v-.18l.24-.1.15-.25s.07-.19.15-.41c.08-.22.19-.5.32-.84.13-.34.28-.71.44-1.12.16-.41.32-.83.48-1.26.16-.43.32-.84.47-1.25.16-.41.3-.77.42-1.09.12-.32.22-.58.29-.78.07-.2.11-.31.11-.32l-.1-.1-.2-.05v-.18h3.94v.18l-.2.05-.07.15s.05.15.14.39c.1.24.22.55.37.94.15.39.33.82.52,1.31.2.49.4.99.61,1.5.21.51.42,1,.61,1.49.19.48.37.92.53,1.3.08.18.15.3.2.36l.22.09v.18h-2.97v-.18c.19-.01.29-.07.29-.18,0,0-.03-.08-.08-.2-.05-.12-.11-.27-.17-.42-.06-.16-.12-.31-.17-.45-.05-.14-.09-.24-.1-.29h-3.58c-.1.27-.18.49-.24.66-.06.17-.11.31-.14.41l-.08.22-.02.1Zm3.67-2.59l-1.46-3.59-1.34,3.59h2.81Z" style="fill: #fff; stroke-width: 0px;"/>
  <path d="m75.39,122.85l-.17.08-.06.22h-.18v-2.11h.18c.02.18.1.27.23.27h4.45v.18c-.16.01-.24.1-.24.26v2.5l.03.18.15.08h.07v.18c-1.37.72-2.99,1.09-4.86,1.09-.63,0-1.24-.08-1.83-.24-.59-.16-1.11-.4-1.56-.73-.45-.33-.82-.75-1.09-1.26-.28-.51-.42-1.1-.42-1.79s.14-1.28.42-1.79c.28-.51.64-.93,1.09-1.27.45-.34.97-.59,1.56-.75.59-.17,1.2-.25,1.83-.25.25,0,.47,0,.66.01.19.01.38.03.56.06.18.03.37.07.56.11.19.05.42.1.68.18.25.07.48.15.69.25.21.1.35.14.41.14l.21-.12.18.06-.98,1.99-.18-.11.03-.16c0-.07-.09-.15-.26-.24-.17-.08-.39-.16-.65-.23-.26-.07-.55-.13-.88-.18-.33-.05-.65-.07-.96-.07-.36,0-.71.05-1.03.14-.33.1-.62.24-.88.44-.25.2-.46.45-.61.75-.15.3-.23.65-.23,1.06s.09.75.27,1.05c.18.3.41.54.69.73.28.19.59.33.93.42.34.09.68.14,1.01.14.42,0,.8-.02,1.14-.08.34-.05.66-.12.97-.21v-.99h-1.95Z" style="fill: #fff; stroke-width: 0px;"/>
  <path d="m89.45,123.89l.18-.08c.04-.06.07-.17.09-.34h.18v2.61h-.18c-.02-.16-.05-.26-.09-.3l-.18-.05h-7.87v-.18c.19-.02.31-.05.35-.1l.07-.17v-7.03l-.07-.17s-.16-.08-.35-.1v-.18h3.11v.18c-.19.02-.31.05-.35.1l-.07.17v5.64h5.19Z" style="fill: #fff; stroke-width: 0px;"/>
  <path d="m97.58,122.83l-.13-.25c-.07-.06-.17-.1-.33-.1h-2.81v1.4h4.84l.18-.08c.04-.06.07-.18.09-.37h.18v2.58h-.18c-.02-.13-.05-.21-.09-.24l-.18-.05h-7.53v-.18c.19-.02.31-.05.35-.1l.07-.17v-7.03l-.07-.17s-.16-.08-.35-.1v-.18h7.53l.18-.08c.04-.06.07-.17.09-.34h.18v2.63h-.18c-.02-.17-.05-.28-.09-.34l-.18-.08h-4.84v1.25h2.81c.15,0,.26-.03.33-.1l.13-.25h.18v2.35h-.18Z" style="fill: #fff; stroke-width: 0px;"/>
  <path d="m102.36,122.67c-.02.06-.03.17-.03.32,0,.1.09.21.28.34.18.13.43.24.72.36.3.11.64.2,1.02.28.38.07.77.11,1.16.11.75,0,1.31-.09,1.66-.26.35-.18.53-.43.53-.76,0-.18-.16-.31-.46-.39-.31-.08-.69-.13-1.15-.18-.46-.04-.96-.1-1.49-.15-.53-.06-1.03-.16-1.49-.3-.46-.15-.85-.36-1.15-.63-.31-.28-.46-.66-.46-1.14,0-.38.09-.73.27-1.04.18-.31.42-.58.74-.8.32-.22.7-.39,1.15-.52.45-.13.96-.18,1.51-.18.51,0,.99.03,1.43.1.44.06.84.14,1.18.22.34.08.63.15.86.22.23.06.4.1.5.1l.24-.07.17-.16.17.06-1.04,2.1-.18-.09v-.16c0-.09-.1-.18-.29-.28-.2-.1-.44-.18-.75-.26-.3-.07-.64-.14-1.01-.19-.37-.05-.73-.08-1.09-.08-.65,0-1.11.08-1.37.23-.26.15-.39.31-.39.49s.09.3.27.38c.18.09.42.15.71.19.29.04.62.07,1,.1.37.02.75.06,1.15.11.39.05.77.12,1.15.21.37.09.7.23,1,.4.29.18.53.41.71.69.18.29.27.64.27,1.08,0,.33-.07.66-.2.98-.14.33-.37.61-.69.87-.33.26-.76.46-1.31.61-.55.15-1.23.23-2.04.23-.63,0-1.18-.03-1.64-.09-.46-.06-.85-.13-1.17-.22-.32-.09-.58-.16-.76-.24-.19-.07-.33-.11-.41-.11l-.16.06-.14.13-.18-.04,1.12-2.69.15.08Z" style="fill: #fff; stroke-width: 0px;"/>
</svg>