<svg id="ロゴ" xmlns="http://www.w3.org/2000/svg" viewBox="0 0 160 160">
  <g id="ライオンズ">
    <path d="M101.53,129.27v.09l0,.21a1.55,1.55,0,0,0,.92,1.31,1.5,1.5,0,0,0,1.57-.22l1.13-1,1.44-1.36a20.5,20.5,0,0,0,5.93-13.58v-1.46a52.61,52.61,0,0,0,18.8-28.45l0-.33a1.47,1.47,0,0,0-.25-.78A8.72,8.72,0,0,0,133,83L136.39,81a6.64,6.64,0,0,0,1.71,1.32,1.45,1.45,0,0,0,1.45,0l6.7-3.87a1.51,1.51,0,0,0,.75-1.3l0-.3a1.49,1.49,0,0,0-1.3-1.18,1.55,1.55,0,0,1-1.4-1.66v-.14c0-.8,0-4.74,0-4.74v-.74a9.92,9.92,0,0,0-.43-2.95,7.37,7.37,0,0,0-1-2.07l-2-2.55a1.6,1.6,0,0,0-.42-.35l2.75-3.24,1.15-1.35a1.51,1.51,0,0,0,.36-1l-.07-.45a6.87,6.87,0,0,0-1.29-2.4l-.14-.15a6.77,6.77,0,0,0-3.51-2.07,7.7,7.7,0,0,0-3.14-.07,9.27,9.27,0,0,0-2.77,1l-.9.52a.33.33,0,0,1,.22,0,24.2,24.2,0,0,0-3.6,2,8,8,0,0,0-1.11-.63h0a1.56,1.56,0,0,0,.35-1l-.13-.6a52,52,0,0,0-4.79-8.57l.48-.74a33.61,33.61,0,0,0,3.34-8,13,13,0,0,0,.53-3.54A9.8,9.8,0,0,0,127,25.45a14.1,14.1,0,0,0-2.35-3.07,20.7,20.7,0,0,0-4-2.89C116.28,17,104,11,84,10.76H82.54c-16.91,0-27.39,4.2-32.14,6.71A25.67,25.67,0,0,0,43.85,22a1.41,1.41,0,0,0-.39,1s0,.23.08.41a22.55,22.55,0,0,0-4.71,4.27l-2.11,2.81a1.48,1.48,0,0,0-.3.9,1.49,1.49,0,0,0,1.83,1.46L40,32.45c-.18.69-.36,1.37-.49,2.13A34.9,34.9,0,0,0,39,40.45a52.21,52.21,0,0,0-5.6,9.27l-.14.64a1.51,1.51,0,0,0,.48,1.1l.13.07a13.86,13.86,0,0,0-2.19,2,1.2,1.2,0,0,0-.18-.31,1.5,1.5,0,0,0-1.9-.34l-3.12,1.81L15.28,61.11a1.49,1.49,0,0,0,.13,2.66l1.89.85a1.52,1.52,0,0,0,1.27,0l.49-.16a1.09,1.09,0,0,1,.92.19,1,1,0,0,1,.33.81V90.75a13.21,13.21,0,0,1-.22,2.6c-.2.62-.94,1.78-3.58,2.36a.27.27,0,0,1,.2,0c-.09,0-.09,0-2.11.25l-.22,0a1.5,1.5,0,0,0-1.1,2.37l2.94,4a1.49,1.49,0,0,0,1,.59,1.31,1.31,0,0,0,.69-.1l-.08,0A37.81,37.81,0,0,0,25,100.59l.7-.32a36.32,36.32,0,0,1,4.17-1.56c1.12-.3,2.31-.57,3.54-.8l.8-.14,1.5-.21a1,1,0,0,0-.08.29,1.5,1.5,0,0,0,.22.77A52.53,52.53,0,0,0,46.35,111.2a35.6,35.6,0,0,0,3.79,5.69s1.32,1.51,1.32,1.51l.79.8.13.13.67.63.24.21.53.47.27.22.51.42.31.24.49.37s.2.15.3.22l-.65.31a1.51,1.51,0,0,0-1,1.29v.11a1.48,1.48,0,0,0,.76,1.3l.86.48.67.36,1.59.81L60.67,128l.07,0,.83.33.25.1,1.35.5.41.15.63.21.72.24.43.13,1.11.33.26.07,1,.28.35.09,1.26.3.89.19.17,0-.17.17a1.54,1.54,0,0,0-.55,1.17l0,.3a1.5,1.5,0,0,0,1,1.15l.87.25,1.23.32.29.07.86.18.79.15.8.14.16,0h0a4.32,4.32,0,0,0,.62.08l.17,0,.6.07.27,0,.53,0,.21,0,.56,0,.32,0h.81l-.06,0a4.35,4.35,0,0,0,.63,0h.22l.93,0c1.08,0,2.18-.12,3.28-.26l.32,0,.6-.09.51-.08.61-.11.5-.1.55-.12s0,0-.08,0a4.27,4.27,0,0,0,.69-.14l.45-.1,1-.29,1.15-.36,2.59-1,.16-.06L95,132l.22-.1,1-.5.24-.12,1-.53.22-.13.85-.49.12-.07.16-.12a0,0,0,0,0,0,0l.9-.56.34-.22.84-.57.37-.26.13-.1,0,.15s0,.23,0,.23l0,.33,0,.26a0,0,0,0,1,0,0M146.38,77,79.57,135h0Zm.57,0ZM147,76.84ZM54.08,123.71" style="fill: #fff"/>
    <path d="M87.53,97.05l0,0a31.61,31.61,0,0,1,2.54,2.19,28.41,28.41,0,0,0-.79,3.14v0a1.67,1.67,0,0,0,.35,1.09c.11.13.22.17.3.15s.13-.13.15-.3c.13-1.34.34-2.67.61-4a.67.67,0,0,0,0-.24.6.6,0,0,0-.11-.21,41.09,41.09,0,0,0-2.83-3.12.37.37,0,0,0-.35-.13h0a.38.38,0,0,0-.22.32,1.21,1.21,0,0,0,0,.59,1.31,1.31,0,0,0,.3.5m-7.45,4,0,0a31.51,31.51,0,0,1,2.68,2,29.52,29.52,0,0,0-.59,3.19v0a1.36,1.36,0,0,0,.12.57,1.4,1.4,0,0,0,.3.49c.11.12.22.16.3.13s.13-.14.13-.31a40,40,0,0,1,.35-4,.55.55,0,0,0,0-.25.75.75,0,0,0-.11-.2c-1-1-2-2-3-2.93a.36.36,0,0,0-.37-.11.4.4,0,0,0-.2.34,1.37,1.37,0,0,0,.43,1.06m11.23-5.34,0,0A28.9,28.9,0,0,1,93.79,98a30.41,30.41,0,0,0-.89,3.11v0a1.69,1.69,0,0,0,.06.58,1.49,1.49,0,0,0,.26.52c.11.13.21.18.29.16s.14-.12.16-.29c.17-1.34.43-2.66.74-4a.5.5,0,0,0,0-.24.34.34,0,0,0-.09-.21c-.84-1.09-1.75-2.19-2.72-3.22a.39.39,0,0,0-.36-.14c-.11,0-.19.14-.23.32a1.16,1.16,0,0,0,0,.58,1.06,1.06,0,0,0,.28.51m3.77-1v0a29.65,29.65,0,0,1,2.2,2.52,31.76,31.76,0,0,0-1.23,3v0a1.88,1.88,0,0,0,0,.58,1.49,1.49,0,0,0,.2.54c.09.15.19.21.27.2s.15-.11.19-.28c.32-1.31.72-2.59,1.18-3.9a.6.6,0,0,0,0-.24.71.71,0,0,0-.07-.22c-.72-1.17-1.51-2.36-2.36-3.49a.36.36,0,0,0-.34-.18.37.37,0,0,0-.26.29,1.28,1.28,0,0,0,0,.59,1.34,1.34,0,0,0,.23.53m15.6,8.66c.08,0,.18,0,.29-.16a40.66,40.66,0,0,1,2.73-3,.72.72,0,0,0,.12-.21.51.51,0,0,0,0-.24,41.12,41.12,0,0,0-.64-4.16.35.35,0,0,0-.22-.3h0a.37.37,0,0,0-.36.15,1.13,1.13,0,0,0-.27.51,1.29,1.29,0,0,0,0,.58v0a31.26,31.26,0,0,1,.91,3.22,32.19,32.19,0,0,0-2.4,2.18l0,0a1.48,1.48,0,0,0-.25.52,1.69,1.69,0,0,0,0,.58c0,.16.08.26.16.28M83.74,99l0,0a32.57,32.57,0,0,1,2.57,2.14,27.77,27.77,0,0,0-.74,3.16v0a1.69,1.69,0,0,0,.09.57,1.65,1.65,0,0,0,.28.51c.11.13.22.17.3.15s.13-.14.15-.31a37.77,37.77,0,0,1,.54-4,.67.67,0,0,0,0-.24.51.51,0,0,0-.1-.21c-.9-1-1.86-2.1-2.88-3.08a.41.41,0,0,0-.36-.12h0a.38.38,0,0,0-.22.33,1.19,1.19,0,0,0,.07.58,1.31,1.31,0,0,0,.3.5m-14.19,7.78,0,0a31.61,31.61,0,0,1,2.44,2.3,31.06,31.06,0,0,0-.93,3.1v0a1.63,1.63,0,0,0,.06.57,1.48,1.48,0,0,0,.25.52c.1.14.21.19.29.17s.14-.12.16-.29c.19-1.34.46-2.65.79-4a.66.66,0,0,0,0-.24.49.49,0,0,0-.09-.22c-.83-1.09-1.72-2.2-2.68-3.24a.37.37,0,0,0-.36-.14.38.38,0,0,0-.24.31,1.2,1.2,0,0,0,0,.59,1.25,1.25,0,0,0,.27.51m-3.62,1.43,0,0s1.72,1.66,2.33,2.4a28,28,0,0,0-1.07,3.06v0a1.41,1.41,0,0,0,0,.57,1.66,1.66,0,0,0,.23.54c.09.14.19.19.28.17s.14-.11.17-.28c.25-1.33.58-2.63,1-4a.62.62,0,0,0,0-.24.72.72,0,0,0-.08-.22c-.78-1.13-1.63-2.28-2.54-3.36a.38.38,0,0,0-.35-.16.39.39,0,0,0-.25.3,1.4,1.4,0,0,0,.26,1.12m10.57-5,0,0a31.37,31.37,0,0,1,2.74,1.92,29.37,29.37,0,0,0-.48,3.21v0a1.32,1.32,0,0,0,.14.56,1.44,1.44,0,0,0,.32.48c.12.12.23.16.3.12s.12-.14.12-.31c0-1.35.08-2.69.21-4.07a.4.4,0,0,0,0-.23.52.52,0,0,0-.11-.21c-1-1-2-1.93-3.13-2.82a.35.35,0,0,0-.37-.09h0a.37.37,0,0,0-.19.34,1.24,1.24,0,0,0,.12.58,1.27,1.27,0,0,0,.34.47M72.88,105l0,0a33.25,33.25,0,0,1,2.62,2.09,31.34,31.34,0,0,0-.68,3.17v0a1.65,1.65,0,0,0,.39,1.07.33.33,0,0,0,.3.14c.08,0,.13-.14.14-.31a40.49,40.49,0,0,1,.46-4,.63.63,0,0,0,0-.23.52.52,0,0,0-.11-.21,41.73,41.73,0,0,0-2.94-3,.38.38,0,0,0-.37-.11h0a.4.4,0,0,0-.21.33,1.34,1.34,0,0,0,.4,1.07m57-20.55a9.06,9.06,0,0,1-1,.07A7.9,7.9,0,0,1,127,84.3c-.18,0-.36-.1-.54-.15a47.4,47.4,0,0,1-7.25,15.3c-.54.75-1.22,1.61-1.91,2.43,0-1.28,0-2.6-.06-3.92a.35.35,0,0,0-.18-.33h0a.36.36,0,0,0-.38.09,1.23,1.23,0,0,0-.34.48,1.18,1.18,0,0,0-.11.57v0a32.75,32.75,0,0,1,.45,3.32A32,32,0,0,0,114,104l0,0a1.44,1.44,0,0,0-.32.49,1.71,1.71,0,0,0-.14.55c0,.18,0,.28.12.31s.19,0,.32-.12c.62-.58,1.27-1.14,1.94-1.68-.56.64-1,1.14-1.24,1.37a45.83,45.83,0,0,1-4.18,3.82,24.69,24.69,0,0,0-1.81-5.32,22.4,22.4,0,0,0-.26-2.73c.49-.74,1-1.47,1.57-2.2a.63.63,0,0,0,.09-.22.66.66,0,0,0,0-.24c-.33-1.33-.72-2.7-1.18-4-.06-.16-.16-.26-.27-.27h0c-.11,0-.23,0-.34.19a1.21,1.21,0,0,0-.2.55,1.39,1.39,0,0,0,0,.58v0a29.65,29.65,0,0,1,1.33,3.08,19.09,19.09,0,0,0-1.27,1.44A18.48,18.48,0,0,0,107,96.14c-.08-.18-.48-.87-.48-.87a11.69,11.69,0,0,0-5.67-4.88l-.14-.06a20,20,0,0,1,.05,4.69c-.34-.74-.69-1.48-1.08-2.21a.37.37,0,0,0-.3-.23h0c-.12,0-.23.09-.31.25a1.26,1.26,0,0,0-.12.57,1.2,1.2,0,0,0,.14.57v0s.92,1.36,1.48,2.32a12.8,12.8,0,0,1-.7,2.58c.3-.68-.36.84-.42,1a9.61,9.61,0,0,1-1.53,2.37,11.91,11.91,0,0,0-3.69,1.69,14.44,14.44,0,0,0-5.74,8.64h0a.28.28,0,0,1,0,.06l-.09.35h0a3.08,3.08,0,0,1-.15.47s0,.19-.1.42a7.79,7.79,0,0,1-6.37,5.37H80.71A46.69,46.69,0,0,1,63.53,116a.36.36,0,0,0,.13-.22c.39-1.29.85-2.55,1.37-3.83a.47.47,0,0,0,0-.24.52.52,0,0,0,0-.23c-.66-1.2-1.38-2.43-2.18-3.6a.37.37,0,0,0-.33-.2h0a.41.41,0,0,0-.28.28,1.22,1.22,0,0,0,0,.58,1.2,1.2,0,0,0,.19.55l0,0a28.12,28.12,0,0,1,2.07,2.63,29.92,29.92,0,0,0-1.38,2.93v0a1.39,1.39,0,0,0,0,.58,1.48,1.48,0,0,0,.16.55l0,0-.08,0c-.37-.15-1.47-.55-2.86-1.21.3-.75.63-1.5,1-2.26a.56.56,0,0,0,0-.23.6.6,0,0,0,0-.24c-.59-1.24-1.25-2.5-2-3.71A.36.36,0,0,0,59,108h0c-.11,0-.22.09-.29.26a1.21,1.21,0,0,0-.08.58,1.22,1.22,0,0,0,.16.55l0,0a32.06,32.06,0,0,1,1.92,2.74c-.31.48-.83,1.45-1.18,2.12-.58-.29-1.19-.63-1.81-1l-.66-.4.46-.77a.52.52,0,0,0,.07-.23.62.62,0,0,0,0-.24,41.47,41.47,0,0,0-1.59-3.9.34.34,0,0,0-.29-.24h0c-.11,0-.22.07-.31.23a1.26,1.26,0,0,0-.15.56,1.14,1.14,0,0,0,.11.57v0A29.79,29.79,0,0,1,57,111.84c-.15.17-.32.41-.52.68L53.94,111v0a.47.47,0,0,0,0-.24,41.47,41.47,0,0,0-1.54-3.93c-.07-.15-.17-.24-.28-.24h0c-.12,0-.23.07-.33.22a1.26,1.26,0,0,0-.15.57,1.19,1.19,0,0,0,.1.57v0s.88,1.49,1.37,2.48A45.09,45.09,0,0,1,41,97.64c-1.34,0-2.62.09-3.83.21a51.28,51.28,0,0,0,10.41,12.4,35.07,35.07,0,0,0,3.76,5.69c.41.49.83,1,1.26,1.44l.75.76.15.14.62.58.22.2.5.44.25.21.49.4.3.23.47.35.33.25.46.32.44.3.27.18.68.43.06,0,.12.07h0l-.09.06a19.65,19.65,0,0,1-3,1.47c.32.19.66.37,1,.55l.5.27.05,0c.49.26,1,.51,1.49.76h0s0,0,0,0c.85.41,1.72.8,2.59,1.17l.06,0,.82.33.23.09,1.32.5.4.14.61.21.6.19.51.16,1.08.32.35.1.91.24.34.09,1.21.28.87.19.71.13.17,0,.81.14h0l.83.13.23,0,.19,0-.2.22a22.18,22.18,0,0,1-2.13,2.08v.05l.83.24,1.18.3.28.07.17,0,.65.15h0l.72.14h.08l.66.11.16,0,.59.08.21,0,.53.06.25,0,.5,0,.29,0,.47,0,.3,0,.46,0h1.13l.83,0c1,0,2.09-.11,3.13-.24l.31,0,.64-.1.42-.07.58-.1.48-.1.53-.11.57-.14.43-.1,1-.28h0c.36-.1.72-.22,1.08-.34.84-.27,1.67-.58,2.5-.93l.12-.05,1-.47.2-.09,1-.49.22-.12,1-.5.21-.12.82-.48.27-.16c.29-.17.58-.36.86-.54l.33-.21.81-.56.35-.24.78-.57.44-.34a3.15,3.15,0,0,0,.29-.22l.5-.39.12.49,0,.16c0,.12,0,.23.07.34s0,.15,0,.22l.06.32c0,.08,0,.16,0,.24l.06.39.06.45,0,.26,0,.35,0,.25c0,.12,0,.24,0,.37a.13.13,0,0,0,0,.06l1.13-1,0,0c.47-.41.92-.84,1.33-1.26a19,19,0,0,0,5.51-12.6c0-.72,0-1.42,0-2.1a50.86,50.86,0,0,0,18.85-28.11M99.4,106.6c.07-.28.13-.55.17-.8a8.82,8.82,0,0,0,.11-1.58l.1-.12a19,19,0,0,0,2.74-4.83q.2-.52.36-1.08a12.94,12.94,0,0,0,.54-2.9l.15.2a14,14,0,0,1,2.43,8.29V104c-.07.12-.15.25-.25.39a10.26,10.26,0,0,1-1.38,1.54,5,5,0,0,0-.77-1.91l-.64-.94a7.33,7.33,0,0,1-3.57,3.49h0m9,7.82a1.21,1.21,0,0,0,0,.19,16.52,16.52,0,0,1-1.51,6.26,14.89,14.89,0,0,1-.81,1.52,18.1,18.1,0,0,1-1.2,1.74v0l-.11-.32s0-.06,0-.08l-.14-.39a.49.49,0,0,0,0-.11,1.34,1.34,0,0,0-.07-.18.14.14,0,0,0,0-.06.69.69,0,0,0,0-.13,1.19,1.19,0,0,0-.08-.2.5.5,0,0,0-.05-.13l-.09-.23,0-.07-.13-.28,0-.06c0-.07-.07-.15-.11-.22s0,0,0-.06-.07-.15-.11-.22h0l-.12-.24a.34.34,0,0,1-.06.06c-.67.65-1.35,1.26-2,1.85a.1.1,0,0,0,0,0l-.61.5-.25.19-.43.35-.24.18-.91.68-.19.13-1,.66-.13.09c-.34.22-.68.44-1,.64l0,0c-.34.22-.69.42-1,.62l-.1.05c-.35.2-.7.38-1,.56l-.13.07-1,.51-.14.06c-.35.17-.71.32-1.07.47l-.11.05c-.37.15-.75.3-1.13.43h0c-.79.3-1.6.55-2.41.78h0c-.4.11-.8.21-1.21.3h0c-.4.1-.81.18-1.21.25h0a28.45,28.45,0,0,1-5.24.48l-1.09,0-.5,0-.57,0-.86-.08-.19,0c-.31,0-.61-.07-.91-.12l-.13,0c.14-.16.27-.33.39-.49a27.52,27.52,0,0,0,1.87-2.73l-1.1-.06-1.16-.09-.32,0-.51,0a46.54,46.54,0,0,1-8.27-1.62l0,0-1-.31-.08,0-1-.34L65,125l-.85-.3-.24-.09-1-.37s0,0,0,0l-1.15-.48-.24-.11h0c.67-.48,1.21-.92,1.61-1.25l.43-.35c-.93-.42-1.82-.87-2.66-1.34l-.85-.49-.44-.27-.21-.14-.56-.35-.26-.18-.46-.32-.7-.52-.19-.14L56.9,118c-.44-.35-.87-.72-1.28-1.1s-.85-.8-1.25-1.23-.56-.61-.83-.93l0,0-.29-.35h0c.3.26.63.53,1,.78l.59.41.34.22c.05.11.12.17.2.17h.06l.27.17a43,43,0,0,0,5.55,2.7l.31.12c2.25.92,4.19,1.55,4.86,1.76A48.76,48.76,0,0,0,73,122.15c.95.15,1.91.27,2.87.36h0a27.2,27.2,0,0,0,4.15.09,16,16,0,0,0,2.77-.38,11,11,0,0,0,3.42-1.54,9.29,9.29,0,0,1-.74,1.7q-.24.44-.48.81l-.27.4a12.33,12.33,0,0,1-1.21,1.51,18,18,0,0,0,2.76-2.33l.48-.52a18,18,0,0,0,2.58-3.79,15.63,15.63,0,0,0,1.56-4.57,4.37,4.37,0,0,0,.13-.46c1-4.17,3-6.3,4.75-7.48a8.71,8.71,0,0,1,1.63-.89l.19-.14a.28.28,0,0,1,0,.06,10.88,10.88,0,0,1-1.54,4.23l1.06-.14a11.86,11.86,0,0,0,2.75-.75,8,8,0,0,0,2.69-1.71,5,5,0,0,1,.17,3l1.18-.88a20.78,20.78,0,0,0,2-1.71c.32-.32.65-.68,1-1a23.26,23.26,0,0,1,1.23,4.56,21.07,21.07,0,0,1,.26,3.89m-1.84-19.15,0,.07s0-.07,0-.07" style="fill: #00214b"/>
    <g>
      <path d="M116.25,49h0a30.87,30.87,0,0,1-2.94-1.29,30.54,30.54,0,0,0-.17-3.11v0a1.68,1.68,0,0,0-.24-.51,1.8,1.8,0,0,0-.39-.39c-.14-.09-.25-.1-.32-.06s-.08.15,0,.31a29.11,29.11,0,0,1,.58,3.87.65.65,0,0,0,.08.22.51.51,0,0,0,.15.17,32.21,32.21,0,0,0,3.46,2.06.37.37,0,0,0,.38,0,.35.35,0,0,0,.12-.35,1.12,1.12,0,0,0-.22-.52A1.23,1.23,0,0,0,116.25,49Z" style="fill: #00214b"/>
      <path d="M104.85,53a23.12,23.12,0,0,1-2-2.54,21.43,21.43,0,0,0,1.35-2.8v0a1.47,1.47,0,0,0,0-.56,1.65,1.65,0,0,0-.15-.53c-.08-.14-.16-.21-.23-.2h0c-.08,0-.14.09-.19.25a24.5,24.5,0,0,1-1.37,3.65.79.79,0,0,0,0,.23.51.51,0,0,0,0,.22,25.7,25.7,0,0,0,2,3.49.38.38,0,0,0,.33.2.39.39,0,0,0,.28-.27,1.1,1.1,0,0,0,.07-.55,1.24,1.24,0,0,0-.19-.53Z" style="fill: #00214b"/>
      <path d="M101.05,46.41h0c-.07,0-.16.06-.23.21a25.67,25.67,0,0,1-2,3.37.56.56,0,0,0-.07.44,26,26,0,0,0,1.38,3.78.37.37,0,0,0,.29.25.35.35,0,0,0,.32-.2,1,1,0,0,0,.16-.53,1.27,1.27,0,0,0-.09-.56v0a24.51,24.51,0,0,1-1.48-2.85,23.26,23.26,0,0,0,1.83-2.52l0,0a1.48,1.48,0,0,0,.12-.54,1.61,1.61,0,0,0,0-.55C101.2,46.5,101.13,46.42,101.05,46.41Z" style="fill: #00214b"/>
      <path d="M98.18,46q-.12,0-.27.18a33.08,33.08,0,0,1-2.51,3,.43.43,0,0,0-.11.2.49.49,0,0,0,0,.23A33.31,33.31,0,0,0,96,53.51c0,.17.13.27.24.29a.38.38,0,0,0,.35-.15,1.21,1.21,0,0,0,.24-.51,1.18,1.18,0,0,0,0-.56v0a28.8,28.8,0,0,1-1-3,25.18,25.18,0,0,0,2.22-2.2l0,0a1.54,1.54,0,0,0,.22-.52,1.74,1.74,0,0,0,0-.55C98.31,46.06,98.25,46,98.18,46Z" style="fill: #00214b"/>
      <path d="M89,42.75h0a1.55,1.55,0,0,0,.36-.43,1.37,1.37,0,0,0,.17-.53c0-.17,0-.28-.11-.32h0c-.07-.05-.2,0-.33.07l-3.25,2.32a.42.42,0,0,0-.15.17.63.63,0,0,0-.07.22l-.26,3.95c0,.16,0,.28.12.32s.2,0,.33-.07a1.31,1.31,0,0,0,.37-.43,1.37,1.37,0,0,0,.17-.53v0l-.14-3.14Z" style="fill: #00214b"/>
      <path d="M122.08,42.42c.34-.49.67-1,1-1.5a32.29,32.29,0,0,0,3.18-7.63,11.49,11.49,0,0,0,.47-3.13,8.31,8.31,0,0,0-1-4,12.26,12.26,0,0,0-2.11-2.73,19.13,19.13,0,0,0-3.72-2.65c-5.71-3.33-17.67-8.27-35.93-8.52H82.55c-16.6,0-26.85,4.1-31.45,6.53h0A24.64,24.64,0,0,0,44.93,23a17.28,17.28,0,0,1,1.84.12A22,22,0,0,0,40,28.61l-2.08,2.77,3.42-.79c.26-.06.56-.11.88-.16a19.58,19.58,0,0,0-1.27,4.41,34.12,34.12,0,0,0-.49,5.88v.21a51,51,0,0,0-5.73,9.43A15.84,15.84,0,0,1,39.4,48.6a46.65,46.65,0,0,1,4.25-6.3l.06.21a.53.53,0,0,0,.12.2.54.54,0,0,0,.19.13,32.65,32.65,0,0,1,3.53,1.69c.14.08.25.09.31,0s.08-.15,0-.31a1.59,1.59,0,0,0-.27-.49,1.45,1.45,0,0,0-.41-.38h0a29.06,29.06,0,0,0-2.94-1.07c0-.17-.07-.39-.11-.63.68-.82,1.39-1.62,2.12-2.4l.1,0c0,.35.09.69.14,1a.67.67,0,0,0,.1.21.49.49,0,0,0,.16.16A29.49,29.49,0,0,1,50,42.81c.13.1.24.13.31.09s.09-.14.07-.3a1.43,1.43,0,0,0-.19-.52,1.53,1.53,0,0,0-.35-.43l0,0a24,24,0,0,0-2.73-1.48,10.77,10.77,0,0,1,0-1.18,14,14,0,0,1,2.57-.62.64.64,0,0,1,0,.07.66.66,0,0,0,.14.18,30.39,30.39,0,0,1,2.86,2.65c.11.12.21.17.28.14s.12-.11.12-.28a1.59,1.59,0,0,0-.1-.54,1.41,1.41,0,0,0-.28-.48l0,0a21.16,21.16,0,0,0-2.32-1.8,24.8,24.8,0,0,1,2.75-.15l.89,0q.81,1,1.5,2c.09.13.18.19.26.18s.14-.1.17-.26a1.48,1.48,0,0,0,0-.55,1.28,1.28,0,0,0-.19-.52l0,0s-.3-.36-.69-.79a58.19,58.19,0,0,1,5.94.68,10.87,10.87,0,0,0,1.69.13,15.47,15.47,0,0,0,7.21-2.05c.35-.2.69-.4,1-.59a12.33,12.33,0,0,1-1.38,6l1.67-.68a12.35,12.35,0,0,0,3.72-2.51s0,.19,0,.53c0,.06,0,.13,0,.19s0,.1,0,.16c0,1.66-.29,5.32-2.28,8l1.33-.13a14.42,14.42,0,0,0,7.77-3.4l.69-.61-.15,2.24a.33.33,0,0,0,.12.32.32.32,0,0,0,.33-.08,1.18,1.18,0,0,0,.36-.43,1.22,1.22,0,0,0,.17-.53v0s0-1.2-.1-2.2c.38-.39.68-.73.91-1h.39a11.6,11.6,0,0,0,5.69-1.77c.3-.18.57-.35.82-.52a17.29,17.29,0,0,1,.53,4c-.83.63-1.66,1.25-2.51,1.87a.55.55,0,0,0-.15.18.45.45,0,0,0-.06.21c-.08,1.32-.15,2.64-.17,4a.32.32,0,0,0,.14.33.35.35,0,0,0,.35-.07,1.42,1.42,0,0,0,.35-.44,1.22,1.22,0,0,0,.15-.54v0s-.2-2.26-.23-3.16c.51-.28,1.47-.86,2.11-1.25a11.33,11.33,0,0,1-.7,3.38,9.92,9.92,0,0,0,1.46-.28c0,1.25.08,2.5.21,3.79a.35.35,0,0,0,.18.33.41.41,0,0,0,.37-.11,1.29,1.29,0,0,0,.39-1v0s-.47-2.27-.56-3.14a12.87,12.87,0,0,0,3.72-2c.71-.58,1.37-1.21,2-1.8a34.42,34.42,0,0,0,2.43-2.82,10.19,10.19,0,0,0,3.94-1.89s1.46,1.78.73,8.67l.85-.44a23,23,0,0,1-.54,2.72.57.57,0,0,0,0,.23.58.58,0,0,0,.09.21,26.88,26.88,0,0,0,2.62,3.08.36.36,0,0,0,.36.12.37.37,0,0,0,.24-.3,1.09,1.09,0,0,0,0-.56,1.24,1.24,0,0,0-.28-.49l0,0a25.53,25.53,0,0,1-2.37-2.15,23.56,23.56,0,0,0,.82-3v0a2.35,2.35,0,0,0,0-.26,14.22,14.22,0,0,0,2.27-1.57,26.8,26.8,0,0,1,0,3.8.45.45,0,0,0,0,.22.76.76,0,0,0,.12.2,29.9,29.9,0,0,0,3.11,2.57.38.38,0,0,0,.38.07.37.37,0,0,0,.17-.34,1.22,1.22,0,0,0-.13-.54,1.18,1.18,0,0,0-.36-.43l0,0a28.37,28.37,0,0,1-2.7-1.72,25.34,25.34,0,0,0,.3-3.1v0a1.45,1.45,0,0,0-.16-.53,1.59,1.59,0,0,0-.33-.45h0a16.61,16.61,0,0,0,3.3-4.23,17.61,17.61,0,0,0,.78-1.58,13.24,13.24,0,0,1,1.26,8.69l1.38-.71a12.25,12.25,0,0,0,1.06-.62c.81.36,1.64.69,2.48,1a.36.36,0,0,0,.37,0,.37.37,0,0,0,.07-.37,1.17,1.17,0,0,0-.29-.48,1.28,1.28,0,0,0-.46-.32h0l-1.34-.34c.47-.36.92-.75,1.35-1.15a47.44,47.44,0,0,1,3.74,6.5l.3-.07a8.19,8.19,0,0,1,1.47-.13h0a7.83,7.83,0,0,1,1.89.23A50.8,50.8,0,0,0,122.08,42.42ZM82.32,40.65a13.43,13.43,0,0,1-5.66,3.93l-.21.08a17.71,17.71,0,0,0,.64-4l.33-.18a9.29,9.29,0,0,0,2-1.44,6.25,6.25,0,0,0,.78-.87l.17-.05a9.92,9.92,0,0,0,1.14-.53,8.94,8.94,0,0,0,1.76-1.34,9.13,9.13,0,0,0,1.69-2.19,8.88,8.88,0,0,1,.17,1.5c0,.36,0,.72,0,1.06A18.7,18.7,0,0,1,82.32,40.65Zm17.17-1.91a16.12,16.12,0,0,1-5.63,5.88l0,0v0l0-.3v-.05a16.21,16.21,0,0,0-.24-3.63l0,0a8,8,0,0,0,2.51-2.12,6,6,0,0,0,1-.46,7.76,7.76,0,0,0,1.63-1.21,8.93,8.93,0,0,0,1.72-2.29,10.35,10.35,0,0,1,.14,1.12v0c0,.24,0,.48,0,.73A23.94,23.94,0,0,1,99.49,38.74Zm8.56,4.7a10.92,10.92,0,0,0-.36-3.69,6.87,6.87,0,0,0,.85-1l.5-.22A7.33,7.33,0,0,0,111.73,36s0-.06,0-.09a7.4,7.4,0,0,0,.51-.94,10.85,10.85,0,0,1,.15,1.66v.08C110.61,41.49,108.05,43.44,108.05,43.44Zm8.19-5.15a8.46,8.46,0,0,0-1.12-1.73c-.11-.12-.21-.24-.33-.35.13-.41.28-1,.45-1.58a46.6,46.6,0,0,0,1.29-6.14,2.34,2.34,0,0,0,0-.48c0-1-.41-3.3-3.07-5.56a18,18,0,0,0-4.12-2.59,28.54,28.54,0,0,0-12.25-2.24s8.28,1.12,14.17,5.69a10.49,10.49,0,0,1,.85.66,9,9,0,0,1,.76.73h0a5,5,0,0,1,1.59,3.3c0,.08,0,.13,0,.16h0v.05a41.11,41.11,0,0,1-1,4.87s0,.06,0,.08h0l-.06.28v0c0-.18-.08-.36-.12-.52a4.83,4.83,0,0,0-.8-1.95c-.05.17-.11.33-.17.48s-.14.35-.21.51a11.17,11.17,0,0,1-1.74,2.91,6.11,6.11,0,0,1-.59.62,8.6,8.6,0,0,0,0-2.43,4.19,4.19,0,0,0-.08-.42A7.49,7.49,0,0,1,109.3,34a10,10,0,0,1-2.44,3.72c-.06-.1-.12-.21-.19-.31a7.64,7.64,0,0,0-.69-.86l-1-1-.94,1h0a8.78,8.78,0,0,1-1.79,1.35,42.87,42.87,0,0,0,2.42-7c.21-.86.4-1.74.55-2.64a5.3,5.3,0,0,0,.08-.88,7,7,0,0,0-.43-2.7,7.07,7.07,0,0,0-.46-.91c-1.15-1.89-3.52-3.91-8.1-5.5l-.84-.28-.59-.17-.41-.11C84.88,15.25,74.61,17,74.61,17a94.08,94.08,0,0,1,17.51,2.27,31.49,31.49,0,0,1,5.68,1.86s0,0,0,0c.51.24,1,.47,1.4.72a9.67,9.67,0,0,1,3.2,2.66l.09.12a3.23,3.23,0,0,1,.18.28l0,0a2.39,2.39,0,0,1,.12.22,4.54,4.54,0,0,1,.42,1.22,4.27,4.27,0,0,1,0,1.52l0-.09h0l0,.08V28c-.11.67-.25,1.32-.4,2-.21.94-.46,1.84-.73,2.7h0L102,33a.66.66,0,0,1-.06.2v0c-.08-.36-.16-.69-.24-1a4.59,4.59,0,0,0-.89-1.83q-.13.34-.27.66a12.29,12.29,0,0,1-2,3.13,7.48,7.48,0,0,1-1,1,7.85,7.85,0,0,0-.2-3.09,10,10,0,0,1-4.14,6.52c-.15-.62-.31-1.19-.45-1.67l-.46-1.49-1.51,1.35s0,0,0,0a14,14,0,0,1-2.23,1.55,10.57,10.57,0,0,1-2.3,1l-.31.08-.19.05a27.07,27.07,0,0,0,4.2-11.4.44.44,0,0,1,0-.1,6.39,6.39,0,0,0-.19-2.65,7.15,7.15,0,0,0-1.84-3.11,9.14,9.14,0,0,0-.85-.72c-.26-.19-.53-.39-.83-.57a16.39,16.39,0,0,0-3-1.4h0L83,19.4h0l-.15,0c-10.18-3-22.71.43-22.71.43,2.92-.2,5.54-.29,7.88-.29a47.45,47.45,0,0,1,13.6,1.57,15.11,15.11,0,0,1,3.51,1.53,7.67,7.67,0,0,1,1.94,1.68,3.69,3.69,0,0,1,.38.62,5.18,5.18,0,0,1,.45,2.72l0,.1a25.85,25.85,0,0,1-1.32,5.49.13.13,0,0,1,0-.06,6.45,6.45,0,0,0-1.33-3.42,13,13,0,0,1-2.46,3.94,9.47,9.47,0,0,1-1.2,1.1,8.31,8.31,0,0,0,0-1.87,6.84,6.84,0,0,0-.31-1.46,9.89,9.89,0,0,1-4.19,6.82,20,20,0,0,0-.54-3.35l-.47-1.55L74.54,35.6v0A11.17,11.17,0,0,1,73.34,37c0-.05,0-.1,0-.15a10.7,10.7,0,0,0-.7-5.15L71.19,33l0,0a17.55,17.55,0,0,1-2.89,1.88,12.45,12.45,0,0,1-5.64,1.57,9.29,9.29,0,0,1-1.28-.09,55,55,0,0,0-7.43-.77H53.1c-.82,0-1.64,0-2.45.1l-.68.07-.26,0a18.43,18.43,0,0,0-2.7.54,8.81,8.81,0,0,0-.87.28l-.45.17a9.66,9.66,0,0,0-2.52,1.43l-.06,0a.13.13,0,0,1,0-.06c0-.16,0-.33,0-.49.07-.78.17-1.6.31-2.42a13.65,13.65,0,0,1,2.09-5.58l1.13-1.53a21,21,0,0,0-2.76.22c2.65-3.46,7.81-4.73,9.46-5.05a15.29,15.29,0,0,0-3.3-1.19A42.82,42.82,0,0,1,60,17.82l.16-.05.95-.24a45.07,45.07,0,0,1,7-1.57h0a84.15,84.15,0,0,1,14.43-1.18h1.36a80.91,80.91,0,0,1,27.25,4.73,47.64,47.64,0,0,1,7.4,3.45,17.05,17.05,0,0,1,3.17,2.21,10.2,10.2,0,0,1,1.7,2.18,5.75,5.75,0,0,1,.69,2.81,8.85,8.85,0,0,1-.37,2.46c-.16.59-.36,1.21-.58,1.85a.22.22,0,0,1,0-.08,6,6,0,0,0-.94-2.79,13.08,13.08,0,0,1-.89,2,9.31,9.31,0,0,1-1.62,2.22,7.86,7.86,0,0,0,0-2.59,10,10,0,0,1-3.46,5Zm3.1,3.52a14.48,14.48,0,0,1-1,1.17c-.15.15-.31.31-.47.45s-.39.35-.39.35a16,16,0,0,0-.16-2.09c0-.33-.11-.67-.19-1,0-.11,0-.21-.08-.32h0a6.21,6.21,0,0,0,1.35-1.3,4.67,4.67,0,0,0,.78-.37,4.26,4.26,0,0,0,.5-.32A7.8,7.8,0,0,0,121.71,36a5.44,5.44,0,0,0,.29-.59,5.06,5.06,0,0,1,.1.75c0,.36,0,.74.05,1.1a19.58,19.58,0,0,1-1.68,3C120.08,40.86,119.7,41.37,119.34,41.81Z" style="fill: #00214b"/>
    </g>
    <g>
      <path d="M136.09,80.69h0v0l0,0h0s.08,0,.12,0a.24.24,0,0,0,.17.06c.09,0,.18,0,.23-.09a.41.41,0,0,0,0-.12.37.37,0,0,0,0-.09l0,0a.2.2,0,0,0,0-.15l0-.05v0a.25.25,0,0,0-.36-.12.29.29,0,0,0-.17.28.23.23,0,0,0,0,.12Z" style="fill: #fff"/>
      <path d="M46.77,139.47a.94.94,0,0,0,0-.89.91.91,0,0,1,0-1l0,0h0l1.43-1.88a.94.94,0,0,0,1.33-1l-.13-.67c0-.1,0-.16-.06-.32a.36.36,0,0,0,0-.1l-.17-.83a1.29,1.29,0,0,0,0-.19,3.72,3.72,0,0,0-.51-1.24c-.09-.13-.2-.25-.3-.37a7.27,7.27,0,0,0,.92-.17,3.2,3.2,0,0,0,2.57-3.13,2.36,2.36,0,0,0,0-.3.68.68,0,0,1,0-.14s0-.06,0-.09a2.77,2.77,0,0,0-1.12-1.66,2.82,2.82,0,0,0-2.1-.51,2.32,2.32,0,0,0-1.52,1,2.35,2.35,0,0,0-.34,1.91h0l0,.14a.76.76,0,0,1,.06.22s-.07.11-.06.16a.76.76,0,0,0-.33-.08.91.91,0,0,0-.41,0,1.23,1.23,0,0,0-.76.6,1,1,0,0,0-.09.49l-.74-.2a1,1,0,0,0-1,.31.47.47,0,0,0-.06.09c-.05-.45-.1-.84-.17-1.4l0-.23a3.74,3.74,0,0,0-.47-1.54,3.82,3.82,0,0,0-.91-1.1l-.06-.05a2.9,2.9,0,0,0-.58-.42l-.12-.08-.36-.19a7,7,0,0,0-1-.39,5.11,5.11,0,0,0-2.24-.25l-2,.14a1.62,1.62,0,0,0,.35-.19l.23-.18a3.4,3.4,0,0,0,.84-1.28.82.82,0,0,0,.08-.25,3.78,3.78,0,0,0,0-1.92,4.32,4.32,0,0,0-.58-1.29,4.25,4.25,0,0,0-1-1l-.39-.28-.06-.06,0,0-.44-.31-.09-.07a4.1,4.1,0,0,0,0-.87,1,1,0,0,0-.4-.73l-1.13-.77c-.32-.22-.53-.37-.86-.58l-.28-.19-.19-.13a.94.94,0,0,0-1.45,1.1.53.53,0,0,1-.07.61h0a.1.1,0,0,1-.05,0l-.82.61-.37.28a4.09,4.09,0,0,1-1.13.65,1,1,0,0,0-.67,1,1.21,1.21,0,0,1,0,.28,2.54,2.54,0,0,1-.05.49,3.54,3.54,0,0,1-.27.84s0,0,0,.06l-1.44-.32a1.27,1.27,0,0,0-.88.26l-.09.08a.12.12,0,0,0-.05,0l-.06,0a.52.52,0,0,0-.1.11.08.08,0,0,0,0,0,3.36,3.36,0,0,0-.75,1.36.29.29,0,0,0,0,.09h0a3.62,3.62,0,0,0,0,1.79,3.44,3.44,0,0,0,.57,1.22,3.56,3.56,0,0,0,.86.87l.47.33,0,0,.45.32a3.79,3.79,0,0,0-.08.77.93.93,0,0,0,.4.77l1.8,1.32a.91.91,0,0,0,.55.18.93.93,0,0,0,.46-.12,1,1,0,0,0,.49-.91V128l.45-.22a1.37,1.37,0,0,0,.2-.13l.07,0,1.14-.73a4,4,0,0,1,1.18-.59.94.94,0,0,0,.7-.88,1.05,1.05,0,0,0,0,.19,1,1,0,0,1,0,1.05.35.35,0,0,0-.05.08L31,129.13a3.39,3.39,0,0,0-.68,2,3.61,3.61,0,0,0,.47,1.82,3.8,3.8,0,0,0,.87,1l.05,0,0,0a5.34,5.34,0,0,0,.53.37l.29.15.14.07a5.82,5.82,0,0,0,1,.35,2.59,2.59,0,0,0,.86,1.4l.33.29.49.42,1,.88.09.07a.9.9,0,0,0,.63.24h.09a.94.94,0,0,0,.75-.52l.06-.13v0a.83.83,0,0,0,0-.15l.2-.94a.87.87,0,0,0-.35-.93,1,1,0,0,1,.15-.25l1.7-1.95a1,1,0,0,0,.08-.11h0l.31-.36.64-.72.45-.52a.93.93,0,0,1,1-.23,1,1,0,0,0,.88-.17.88.88,0,0,0,.29-.51c.11.21.2.39.31.63l.07.12a.94.94,0,0,0,.51.47.6.6,0,0,1,.18.09.59.59,0,0,1,.27.41.29.29,0,0,1-.05.26l-2.11,2.92a5.86,5.86,0,0,1-.64.77c-.11.14-1.1,1.35-2.22.51a.92.92,0,0,0-.93-.12.91.91,0,0,0-.57.75l-.11.82,0,.14a1,1,0,0,0,0,.46,1,1,0,0,0,.11.24.84.84,0,0,0,.33.29l0,0,.11.08a5.92,5.92,0,0,0,3.05.86,6,6,0,0,0,1.41-.17c1.12-.14,1.69-.22,2.84-.32A1,1,0,0,0,46.77,139.47Zm-9.58-10.68.27-.35,0-.05.21-.25a.2.2,0,0,1,.06-.07l.1-.1a.87.87,0,0,1,.22-.17,1.38,1.38,0,0,1,.25-.14l.2,0h0c-.21.24-.85,1-2.34,2.79a3.16,3.16,0,0,1-.28.32l-.22.27-.17.18a2.48,2.48,0,0,1-.26.19,1.28,1.28,0,0,1-.29.13Zm-2.35,2.9,0-.05,0-.06,0,0,.25.87h0Zm-3.06-10.86.15-.39a.88.88,0,0,0,.05-.15,1.13,1.13,0,0,1,.27-.46l.42-.29,0,0a.7.7,0,0,1,.09.48.34.34,0,0,1-.14.25l-.07,0-.75.51Zm-4.41,2.43a.35.35,0,0,0,.09-.07l.69-.49v0l-.06.16,0,.13v0a.87.87,0,0,1-.29.48l-.33.22-.16.12A.5.5,0,0,1,27.37,123.26ZM33,124.65a.22.22,0,0,0,0-.08,7,7,0,0,1,.28-.77l1.3.32-.9.08A.94.94,0,0,0,33,124.65Zm10,14.71Z" style="fill: #fff"/>
      <path d="M54.42,141.59l.27-.42c.42-.7,1.21-2,2-3.34l.42-.68c.87.19,1.49.33,2.51.59a1,1,0,0,0,1-.34.93.93,0,0,0,.08-1l-.55-1a1,1,0,0,0-.64-.48,1,1,0,0,1-.62-.35s0-.2.14-.44l.05-.1s0,0,0-.05a3.18,3.18,0,0,0,.33-2,3.76,3.76,0,0,0-.84-1.81,4.48,4.48,0,0,0-1.12-.95,4.35,4.35,0,0,0-1.25-.49c-.84-.17-1.31-.25-2.07-.39l-.28-.05a.94.94,0,0,0-1,1.45c.25.38.38.58.62,1a.94.94,0,0,0,.63.43.57.57,0,0,1,.16.07c.33.19.5.54.36.77l-.21.37-1.11-.2a4.86,4.86,0,0,0-.55-.1l-.08,0h0l-.77-.13-.14,0a.87.87,0,0,0-.85.48,1.08,1.08,0,0,0,0,1.06l.11.16.14.23c.07.11.1.17.17.27l.1.16a.93.93,0,0,0,.66.48,1.06,1.06,0,0,1,.63.31.83.83,0,0,1-.16.49L51,138.24l-1.12,1.92a6.14,6.14,0,0,1-.61.88c-.29.26-1.07.21-2.29-.6a.74.74,0,0,0-.16-.11.91.91,0,0,0-1-.08,1,1,0,0,0-.49,1,.34.34,0,0,0,0,.1c.09.92.14,1.4.21,2.3a.91.91,0,0,0,0,.17.93.93,0,0,0,.51.69,6.13,6.13,0,0,0,4.24.48c1.37-.3,2.08-.45,3.49-.72a.93.93,0,0,0,.69-.57.94.94,0,0,0-.09-.89,1,1,0,0,1-.06-1Z" style="fill: #fff"/>
      <path d="M97.59,150l-.61-.77a.74.74,0,0,0-.93-.32.81.81,0,0,1-.09-.28l-.4-2.55,0-.15c0-.23-.06-.37-.09-.57l0-.23s0-.22-.1-.62c0-.19-.07-.4-.11-.68a.91.91,0,0,1,.47-.91,1,1,0,0,0,0-1.59c-.78-.52-1.16-.77-1.94-1.27l-.16-.1a3.88,3.88,0,0,0-3-.63h0a4.06,4.06,0,0,0-.84.22l-.37.15a8.11,8.11,0,0,0-1,.53l0,0a5.3,5.3,0,0,0-1.59,1.54c-.53.72-.91,1.24-1.3,1.8a3.5,3.5,0,0,0-.41-1.23A3.66,3.66,0,0,0,83.68,141a4,4,0,0,0-1.38-.47,4.13,4.13,0,0,0-1.31,0l-.51.1-.8.17-.34.07-.07,0-.11,0h0a3.78,3.78,0,0,0-1-.71,3.86,3.86,0,0,0-1.37-.4,4,4,0,0,0-1.33.07l-.33.09-.63.17H74.4l-.43.11-.15,0h0l-.09,0a4.25,4.25,0,0,0-1-.64,4.12,4.12,0,0,0-1.38-.32,3.69,3.69,0,0,0-1.3.13c-.9.26-1.34.4-2.21.67a1,1,0,0,0-.6.57l-.67-1c0-.07-.08-.12-.12-.18a3.63,3.63,0,0,0-1.11-1.2,3.76,3.76,0,0,0-1.32-.59,3.23,3.23,0,0,0-.83-.14l-.23,0h-.26a8,8,0,0,0-1.09.11h0a5.11,5.11,0,0,0-2.12.76c-1.3.74-1.94,1.11-3.19,1.89a.93.93,0,0,0-.45.77,1,1,0,0,0,.4.8,1,1,0,0,1,.44.95s0,0,0,0l-.11.54c-.18.88-.3,1.47-.52,2.5a3.56,3.56,0,0,0,1.52,3.56,3.38,3.38,0,0,0,1.09.49l.22.05a5.23,5.23,0,0,0,.54.09h.1a1.74,1.74,0,0,0,.32,0H60a6.51,6.51,0,0,0,1.06-.13,2.73,2.73,0,0,0,1.5.92l1,.28c.39.11.68.18,1.15.33l.11,0a.75.75,0,0,0,.26,0,.93.93,0,0,0,.84-.52,1,1,0,0,0,.09-.58h0c0-.05,0-.09,0-.13l0-.14-.22-.85a.93.93,0,0,0-.72-.68.69.69,0,0,1,0-.3l.66-2.5,0-.15c.06-.24.1-.38.16-.59l.4-1.45a.93.93,0,0,1,.8-.65.93.93,0,0,0,.81-1l.64.4a1,1,0,0,0,.7.12l.24,0a.73.73,0,0,1,.51.24.27.27,0,0,1,.08.2v.16c0,.28-.08,1.26-.23,3.7a1.64,1.64,0,0,1,0,.23.71.71,0,0,0,0,.25l0,.4a1.72,1.72,0,0,1-1.58,1.75l-.11,0h-.27a.93.93,0,0,0-.75.33,1,1,0,0,0-.09,1.11l.17.27.36.59h0a.93.93,0,0,0,1,.54A6.34,6.34,0,0,0,72,151.29c.08.15.15.28.23.41l.22.41a1,1,0,0,0,.45.48.82.82,0,0,0,.48.1,6.21,6.21,0,0,0,3.63-1l.49,1a.93.93,0,0,0,.52.53.73.73,0,0,0,.29.07l.48,0a6.41,6.41,0,0,0,3.67-1.15c1.17-.8,1.76-1.21,3-2a1,1,0,0,0,.44-.79,1,1,0,0,0-.42-.79,1,1,0,0,1-.46-.95.28.28,0,0,0,0-.09v0l.09-.53c0-.19.08-.44.12-.71l0,0a1,1,0,0,1,.79.68.29.29,0,0,1,0,.09l.65,3a3.48,3.48,0,0,0,1.11,1.81,3.54,3.54,0,0,0,1.72.82,3.9,3.9,0,0,0,.58.05,4.52,4.52,0,0,0,.8-.08,4.07,4.07,0,0,0,.53-.14l.15-.05-.23-.92h0l.44.84.2-.09a5,5,0,0,0,.87-.51l0,0a2.36,2.36,0,0,0,1.57.24,4.11,4.11,0,0,0,.47-.07l.84-.13,1.13-.17H97a.94.94,0,0,0,.84-.94,1,1,0,0,0-.1-.42A1.32,1.32,0,0,0,97.59,150Zm-36.43-4.72a1.77,1.77,0,0,1-.08.31l0,.15s0,.14,0,.16l-.11.2a1.54,1.54,0,0,1-.23.29c.35-1.47.53-2.28.88-3.82,0,0,0,0,0,0l0-.14c0-.08,0-.16.06-.27a.25.25,0,0,1,0-.07,1.34,1.34,0,0,0,.05-.14h0c0-.06.06-.13.12-.23a1.28,1.28,0,0,1,.22-.27l.11-.1h0c-.08.3-.32,1.27-.87,3.54C61.25,144.93,61.22,145,61.16,145.23Zm29.16-.55,0-.07-.1-.58c0-.1,0-.21,0-.28s.06-.27.06-.28l.1-.21v0c.06.32.22,1.29.63,3.54v.05a2.54,2.54,0,0,1,.06.38l.07.39a.78.78,0,0,1,0,.14l0,.08,0,.31a1.33,1.33,0,0,1-.09.34C90.78,147,90.62,146.21,90.32,144.68ZM74.61,146.2v-.08c0-.11,0-.31.06-.58l.2-2.45s0-.09,0-.13a.78.78,0,0,1,.48.6l-.18,1.66c-.06.57-.12,1.11-.18,1.78A1,1,0,0,1,74.61,146.2Zm5.12.58a.81.81,0,0,0,0-.22c0-.11,0-.29.07-.56l.3-2.34s0-.08,0-.12h.09a.77.77,0,0,1,.6.45l0,.12c0,.18-.16,1.08-.53,3.6l0,0A.93.93,0,0,1,79.73,146.78Zm-.43-5.89Z" style="fill: #fff"/>
      <path d="M144,109a.92.92,0,0,0-1,.09c-.36.29-.54.43-.9.7a1,1,0,0,0-.37.63.62.62,0,0,1-.06.18h0a.68.68,0,0,1-.66.45h0s-.72-.36-3.37-1.6a3.18,3.18,0,0,1-.32-.16l-.39-.19a1.92,1.92,0,0,1-.7-2.58.93.93,0,0,0-.07-1,.94.94,0,0,0-1-.37l-1.24.25a.92.92,0,0,0-.72.36,1.2,1.2,0,0,0-.15.24,6.59,6.59,0,0,0-.31,3.77l-1,.15a1,1,0,0,0-.3,0,.93.93,0,0,0-.54.51,6.54,6.54,0,0,0-.37,4.32c.23.93.39,1.56.55,2.28a.93.93,0,0,0-.75-.21l-.43.09-.79.14-1.17.2a3.67,3.67,0,0,0-2.45,1.37l0,0a3.94,3.94,0,0,0-.65,1l-1.51-1.25a3.5,3.5,0,0,0-4.84.45,3.45,3.45,0,0,0-.63,1l-.15.42c-.17.48-.31.84-.52,1.38a2.87,2.87,0,0,0-.61-.15,1.36,1.36,0,0,0-.29,0H116a2.93,2.93,0,0,0-1.84.83,2.86,2.86,0,0,0-.85,2A2.35,2.35,0,0,0,114,126a2.4,2.4,0,0,0,1.83.67H116l.39,0v.06s0,0,0,0h0a.84.84,0,0,0-.14.32.91.91,0,0,0,0,.41,1.31,1.31,0,0,0,.46.84,1.1,1.1,0,0,0,.47.16l-.26.53a3.2,3.2,0,0,0-.57-.21,3.94,3.94,0,0,0-1.78.08,3.59,3.59,0,0,0-1.23.63,4,4,0,0,0-.85.92l-.26.42,0,.06c-.1.15-.16.24-.3.47a3,3,0,0,0-.79,0,.91.91,0,0,0-.73.41L109,133.6a2.44,2.44,0,0,0-.23.32l-.08.11a0,0,0,0,0,0,0,1.1,1.1,0,0,1-.14-.09l-.09,0h0a3.74,3.74,0,0,0-1.88-.27,4.06,4.06,0,0,0-2.44,1.17l-.48.49-.4.41-.06.07a4.21,4.21,0,0,0-.82-.17,1.05,1.05,0,0,0-.84.34l-.72.77c-.34.36-.52.56-.82.9l-.17.19c0,.06-.1.11-.09.11h0a1.54,1.54,0,0,0-.2.22.94.94,0,0,0-.13,1.13,1,1,0,0,0,1,.44.5.5,0,0,1,.61.19l0,0c0,.09.17.32.7,1.27a3.81,3.81,0,0,1,.49,1.23.94.94,0,0,0,.93.79l.21,0,.52.13a4.13,4.13,0,0,1,.8.38l0,0-.51,1.4a1.16,1.16,0,0,0,.17.95h0l0,.06.06.08h0l0,.05a.86.86,0,0,0,.07.1,3.34,3.34,0,0,0,1.27,1l.08,0h0a3.79,3.79,0,0,0,1.37.26,2.82,2.82,0,0,0,.41,0,3.53,3.53,0,0,0,1.28-.39,3.29,3.29,0,0,0,1-.74l.14-.14.28-.31.37-.4a3.49,3.49,0,0,0,.74.19.94.94,0,0,0,.84-.29l.36-.38L114,144a.94.94,0,0,0,.2-1,.93.93,0,0,0-.84-.59l-.13,0a3.73,3.73,0,0,0-.25-.68l-.13-.27-.48-1a3.71,3.71,0,0,1-.41-1.26,1,1,0,0,0-.85-.83l-.27-.05a3.52,3.52,0,0,1-.49-.16,5,5,0,0,1-.72-.37l.57-1.41a1.11,1.11,0,0,0-.06-.8l.06,0,.1.13a.75.75,0,0,0,.07.12l3.92,5.63c.06.08.16.2.27.32l.07.07h0a2.89,2.89,0,0,0,1.33.77,1,1,0,0,0,.26.06,3.13,3.13,0,0,0,.75.08,3.75,3.75,0,0,0,1-.15,3.9,3.9,0,0,0,1.31-.64,3.6,3.6,0,0,0,.91-.92c.18-.24.26-.35.4-.57l.4-.59a3.87,3.87,0,0,0,.9,0,1,1,0,0,0,.68-.42l.13-.21c.17-.26.29-.43.47-.72l.48-.76.22-.35.17-.27.09-.15.09-.15.54.16a.84.84,0,0,0,.38.08,1,1,0,0,0,.64-.24.43.43,0,0,0,.13-.14.38.38,0,0,0,.09-.09,5.69,5.69,0,0,0,1.45-4.21c0-1.16.09-1.75.18-2.91a.94.94,0,0,0-.36-.81,1,1,0,0,0-.88-.16.91.91,0,0,1-.94-.19l0-.05L124,126.74l-.1-.11a.22.22,0,0,0-.07-.07,1,1,0,0,0,.11-1,.93.93,0,0,0-.88-.56l-1,0H122l-.92,0h-.12a3.85,3.85,0,0,0-1.31.3,3.3,3.3,0,0,0-.41.23c0-.29,0-.59,0-.93a4,4,0,0,0-.54-1.68l.64-.2a.93.93,0,0,0,.54-.43,2.26,2.26,0,0,1,.13-.2.52.52,0,0,1,.69-.08h0l.11.08c1.69,1.48,2.7,2.35,4.22,3.66l.76.66a2.9,2.9,0,0,0,.34.31l.61.54s.18.17.47.41l.93.81.92.8a3.2,3.2,0,0,0,2.09.76h.29a4,4,0,0,0,2.7-1.45l.06-.08c.08-.1.21-.27.36-.5l.06-.1c0-.08.1-.17.16-.29l.07-.12a6.69,6.69,0,0,0,.41-1.07,1.24,1.24,0,0,0,0-.16,5.61,5.61,0,0,0-1.84-6.1l-1.11-.84-.26-.2a3.67,3.67,0,0,1-.32-.25.77.77,0,0,1-.29-.54.9.9,0,0,0,1.4.41,1,1,0,0,1,1-.13l.17.08,2.54,1.41a3.13,3.13,0,0,0,1.52.39,3.61,3.61,0,0,0,1-.14,4.05,4.05,0,0,0,2.36-2,4.83,4.83,0,0,0,.42-1.3c.06-.4.09-.61.15-1l.09-.71a4,4,0,0,0,1.78-1.87,4.18,4.18,0,0,0,.39-1.29l.23-2.33A.92.92,0,0,0,144,109Zm-5.44,6.85s-.68-.35-3.11-1.65a.93.93,0,0,1,.83-.16l.1,0s.23.13.59.3,1.1.55,1.87.94l.3.15.1,0a.75.75,0,0,1-.4.33.38.38,0,0,1-.24,0Zm-7.88,8.25.24.21a1.58,1.58,0,0,0,.15.12l.2.15a1.54,1.54,0,0,1,.53.91h0c-.16-.15-.63-.54-1.65-1.38l-1.08-.88-.64-.55a1.6,1.6,0,0,1-.51-.79ZM115.3,133.8c0,.25-.09.47-.13.68l-.65-.91-.08-.12-.28-.39a.1.1,0,0,1,0-.05.55.55,0,0,1,.7.18Zm2.1,3.69.18,0,.07,0a1,1,0,0,0,.24,0,.89.89,0,0,1,.46.3l.32.42a.67.67,0,0,1-.58.09Zm5.66-2a.49.49,0,0,1-.59,0l-.07-.07-.45-.56-.46-.56a4.28,4.28,0,0,1-.68-1.13.94.94,0,0,0-1-.63,1,1,0,0,1-.29,0,3.54,3.54,0,0,1-.48,0,3.66,3.66,0,0,1-.82-.24l-.06,0a.28.28,0,0,0,0-.09l.23-1.41a1,1,0,0,0,0-.35l.6-.17a1,1,0,0,0,.54-.42.91.91,0,0,1,.14-.18.64.64,0,0,1,.44-.2.32.32,0,0,1,.25.09l0,.06c.16.16.8.81,2.47,2.54a7.17,7.17,0,0,1,.64.75c.2.22,1.11,1.36.11,2.29a1,1,0,0,0-.17.27A1.05,1.05,0,0,0,123.06,135.48Zm-16.94,3.14-.14-.08a.93.93,0,0,1-.43-.35l-.26-.5a.69.69,0,0,1,.49,0,.34.34,0,0,1,.21.15l0,.06s.13.24.43.86l0,.07Zm1.23,4.16.09,0-.32.16v0Zm.26-.05.06-.15.12.06Zm.38,0,.11.05.05,0a.91.91,0,0,1,.44.33c0,.07.09.2.19.4l.08.16a.51.51,0,0,1-.59-.21.75.75,0,0,0-.07-.12c-.06-.12-.18-.34-.37-.73Z" style="fill: #fff"/>
    </g>
    <g>
      <path d="M95.74,61.79,96,62h0a3.19,3.19,0,0,1,2.63.09h0a1.69,1.69,0,0,1,.65.75,4.65,4.65,0,0,1,.46,1.95v10.4c0,.42,0,.81,0,1.18v1c0,.22,0,.45,0,.68s0,.34-.07.51a7,7,0,0,1-.23,1,8.27,8.27,0,0,1-.68,1.63c-.1.18-.2.36-.31.54a9.29,9.29,0,0,1-1.06,1.37l-.19.2a8.37,8.37,0,0,1-1.61,1.29,8.11,8.11,0,0,1-3,1.18l-.43.06,2.07,2.8v0h0a16,16,0,0,0,8.6-5.39h0l.74-.88,5.86-6.88a4.09,4.09,0,0,1-2.9-4V63.21a6.28,6.28,0,0,0-.38-2.16l1.29-.74h0c.05,0,2.21-1.32,3.77-.4a1.69,1.69,0,0,1,.65.75,4.81,4.81,0,0,1,.46,2l0,10.4c0,.42,0,.81,0,1.18h0v1c0,.22,0,.45,0,.68s0,.34-.07.51a8.08,8.08,0,0,1-.23,1,8.72,8.72,0,0,1-.68,1.64c-.1.18-.2.36-.31.53A10.11,10.11,0,0,1,110,81l-.19.19a9.55,9.55,0,0,1-1.61,1.3,8.25,8.25,0,0,1-3,1.17,2.9,2.9,0,0,1-.41.06l2.06,2.81v0h0a15.9,15.9,0,0,0,8.59-5.39h0l6.6-7.77a4.07,4.07,0,0,1-2.89-4V61a5.68,5.68,0,0,0-1.29-3.71,5.24,5.24,0,0,0-2.84-1.73,6.17,6.17,0,0,0-2.54,0,7.42,7.42,0,0,0-2.3.81l-5.09,2.94,0,0a5.21,5.21,0,0,0-2.64-1.5,6.34,6.34,0,0,0-2.54-.05,7.57,7.57,0,0,0-2.31.81l-3.42,2,1.08.88Z" style="fill: #ab0008"/>
      <path d="M58.8,55.24l0,0,.1.08h0a5.71,5.71,0,0,1,1,.81,2.37,2.37,0,0,1,.65,1h0a2.93,2.93,0,0,1,.19,1.05A3.82,3.82,0,0,1,59.41,61a2.75,2.75,0,0,1-.26.22,3.71,3.71,0,0,1-.68.43l-.17.13a.5.5,0,0,0-.2.23.56.56,0,0,0-.11.4c.13.82,3.42,1.2,7.5-5.17,0,0,3.45-5.38.44-9.09l-.24-.28h0l-.19-.18-.1-.09a4,4,0,0,0-3.32-.81,5.78,5.78,0,0,0-4.64,5.46,3.85,3.85,0,0,0,1.36,3Z" style="fill: #ab0008"/>
      <path d="M57.22,69.15h0l.06,0c.46-.26,2.29-1.16,3.65-.35h0a1.48,1.48,0,0,1,.51.52s0,0,0,0l.06.09a4.94,4.94,0,0,1,.52,2.38.37.37,0,0,1,0,.11v11.7A10.33,10.33,0,0,1,62,84.76a4.35,4.35,0,0,1-.06.52,8.75,8.75,0,0,1-.22,1.09,7.23,7.23,0,0,1-.47,1.31c-.08.19-.17.36-.26.53a8,8,0,0,1-1.2,1.64l-.24.25a8.85,8.85,0,0,1-1.76,1.3,10,10,0,0,1-3.32,1.16l2.06,2.81v0h0a16,16,0,0,0,8.6-5.4h0l6.6-7.78a4.08,4.08,0,0,1-2.9-4V69.86a5.73,5.73,0,0,0-1.28-3.71,5.21,5.21,0,0,0-2.85-1.72,6.16,6.16,0,0,0-2.54-.06,7.51,7.51,0,0,0-2.3.81l-4.66,2.69,1.94,1.31Z" style="fill: #ab0008"/>
      <path d="M86.05,89.05l0,0h0l.47-.31s.05,0,.06,0a4.84,4.84,0,0,0,.46-.33l.07,0,.45-.35s0,0,0-.05c.16-.12.31-.25.46-.38l0,0c.15-.13.3-.28.45-.42h0l.45-.45h0l7.46-8.72a4.05,4.05,0,0,1-2.86-4l0,.12V65.49c0-.16,0-.33,0-.48a.38.38,0,0,1,0-.1,3.78,3.78,0,0,0-.06-.47.15.15,0,0,0,0-.06L93.46,64a.43.43,0,0,0,0-.05c0-.15-.09-.29-.13-.44l0-.06a4.8,4.8,0,0,0-.38-.83l0,0a2.26,2.26,0,0,0-.25-.38,3.37,3.37,0,0,0-.28-.38,4.12,4.12,0,0,0-.28-.31h0l-.28-.27,0,0a5.13,5.13,0,0,0-.65-.47l0,0a4.89,4.89,0,0,0-.72-.37h0L90,60.17h0l-.41-.11h0a6.14,6.14,0,0,0-2.11-.11h0L87,60H87l-.18,0h0a4.57,4.57,0,0,0-.62.12h0c-.2.05-.45.12-.73.22l-.22.08-.46.18-.35.16A4.54,4.54,0,0,0,84,61l-.07,0-.4.22-.12.06-.28.16-.12.07-.14.08-.55.34,0,0h0l-.51.34,0,0-.48.35,0,0-.27.21-.21.17,0,0,0,0-.43.37h0a.39.39,0,0,0-.1.08l-.32.3-.4-.34-.24-.16A5.43,5.43,0,0,0,76,62.52a6.23,6.23,0,0,0-.74,0l-.39.06a7,7,0,0,0-1.11.29L69.2,65.05l1.71,1.4c1.44-.5,3.77-.68,3.77,3.28v15.8a3.93,3.93,0,0,0,0,.49v.1l.06.46a.13.13,0,0,1,0,.06l.09.42s0,0,0,0,.08.3.13.44,0,0,0,.06a8,8,0,0,0,.38.84s0,0,0,0a4.54,4.54,0,0,0,.54.76,2.7,2.7,0,0,0,.28.31h0a3.83,3.83,0,0,0,.29.28h0a4.36,4.36,0,0,0,.65.48h0a5.56,5.56,0,0,0,.73.37h0l.38.14h0l.41.11a6.33,6.33,0,0,0,2.5.06h0l.19,0h0l.29,0h0l.08,0,.1,0h.06l.15,0,.08,0a.64.64,0,0,0,.17,0,.45.45,0,0,0,.11,0l.17,0h0l.11,0h0l.29-.11h0l.32-.12h0l.3-.14.46-.21.13-.06.36-.19.17-.09.38-.22.17-.1C85.67,89.29,85.86,89.18,86.05,89.05Zm-.78-4.6h0a11.3,11.3,0,0,1-.82,1h0l-.19.2h0l-.39.37-.06,0c-.13.11-.26.23-.4.33h0l-.18-.08a2.88,2.88,0,0,1-.72-.47h0l-.26-.27,0,0a2,2,0,0,1-.24-.33,3.4,3.4,0,0,1-.27-.54c0-.09-.06-.18-.08-.27a.06.06,0,0,0,0,0,2,2,0,0,1,0-.24.43.43,0,0,1,0-.11,1.52,1.52,0,0,1,0-.21c0-.1,0-.2,0-.3s0,0,0,0v0l0-12.14c0-.22,0-.45,0-.67s0-.34.07-.52a4,4,0,0,1,.09-.48.43.43,0,0,0,0,0c0-.16.08-.32.13-.48a3,3,0,0,1,.13-.39.13.13,0,0,1,0-.08,1.75,1.75,0,0,1,.12-.32l0-.08.15-.33a.14.14,0,0,0,0-.06l.2-.37a5.64,5.64,0,0,1,.31-.53,9.37,9.37,0,0,1,1.06-1.38l.19-.2.39-.37.05,0a4.62,4.62,0,0,1,.41-.34l.18.08a2.79,2.79,0,0,1,.71.46l0,0c.09.08.17.17.26.26l0,0a2,2,0,0,1,.24.33h0a2,2,0,0,1,.14.25s0,0,0,0l.12.28a1.6,1.6,0,0,1,.08.26s0,0,0,0a1.84,1.84,0,0,1,.05.25.52.52,0,0,0,0,.11l0,.2c0,.11,0,.22,0,.33v0l0,12.14v.34l0,.31v0h0a4.43,4.43,0,0,1-.06.51c0,.16-.06.32-.1.47v.06a4.21,4.21,0,0,1-.12.48h0v0c0,.12-.08.25-.12.37l0,.1c0,.1-.07.2-.11.3a1,1,0,0,0,0,.1c-.05.09-.09.2-.14.3l0,.08c-.06.12-.12.24-.19.36h0c-.1.19-.2.36-.31.54Z" style="fill: #ab0008"/>
      <path d="M124.07,61v4.34a8.06,8.06,0,0,0,.36,2.49,5.36,5.36,0,0,0,.79,1.62l.17.22.12.15L127.15,72h0l4.71-5.55,3.15,4.4h0a4.51,4.51,0,0,1,.95,2.81v3.49l-1,.56h0a6.3,6.3,0,0,1-1.36.55,3.11,3.11,0,0,1-2.2-.1l-.16-.07a2.14,2.14,0,0,1-.9-1.38.24.24,0,0,0,0-.08l-.06-.25,0-.11c0-.11,0-.21,0-.33s0,0,0-.06q0-.42-.06-.93v-3.8l-6.51,7.67a5.37,5.37,0,0,0,1,1.87l.1.12a5.24,5.24,0,0,0,2.74,1.61,6.34,6.34,0,0,0,2.54.06,7.49,7.49,0,0,0,2.31-.82l4.44-2.56a4.39,4.39,0,0,0,.51.71.44.44,0,0,0,.09.11A5,5,0,0,0,138.81,81l6.7-3.88A3,3,0,0,1,142.78,74s0,0,0,0l0-4.86v-.74a8.57,8.57,0,0,0-.36-2.51,5.63,5.63,0,0,0-.8-1.61l-1.94-2.54h0L135,67.28l-3.39-4.75a4.61,4.61,0,0,1-.7-2.47V58.93a6.16,6.16,0,0,0-.37-2.14l1.35-.79a6.72,6.72,0,0,1,1.37-.55,3.16,3.16,0,0,1,2.2.1l.16.07a2.14,2.14,0,0,1,.9,1.38.24.24,0,0,0,0,.08l.06.26,0,.11c0,.1,0,.21,0,.33a.11.11,0,0,0,0,0,8.7,8.7,0,0,1,0,.93v3.8l5.36-6.31,0,0,1.11-1.3a5.33,5.33,0,0,0-1-1.88l-.1-.12a5.3,5.3,0,0,0-2.74-1.61,6.34,6.34,0,0,0-2.54-.06,7.86,7.86,0,0,0-2.31.82l-.87.5h0L129.39,55a5.6,5.6,0,0,0-5.19-1.58,7.86,7.86,0,0,0-2.31.82l-3.42,2,1.84,1.52C121.75,57.24,124.05,57.06,124.07,61Z" style="fill: #ab0008"/>
      <path d="M24.39,99.22l.66-.3a38,38,0,0,1,4.37-1.64c1-.28,2.28-.58,3.71-.84a7.82,7.82,0,0,0,.77-.14,43.48,43.48,0,0,1,16.1.26l7.48-13.35-2.89-3.93C49.52,92.65,39.06,91.51,39.06,91.51h0a24.54,24.54,0,0,1-4.87-.42,12.27,12.27,0,0,0,2.25-6.7V60.76a6.55,6.55,0,0,1,5.24-5.85,5.69,5.69,0,0,1,.82-.08h0a5.22,5.22,0,0,1,1.09.11l.14,0a4.34,4.34,0,0,1,2.73,2.2c.05.11.07.17.07.17l.84-1,1.43-1.68h0L50.21,53l.76-.89-2.14-.47-1.52-.34-.07,0-1.11-.25L44,50.58l0,0a9.43,9.43,0,0,0-4.11-.12A12.63,12.63,0,0,0,29.57,62.31v23a10.31,10.31,0,0,1-5.23,9.09,11,11,0,0,0,2.87-6.67V62.21a2.26,2.26,0,0,1,0-.26,14.69,14.69,0,0,1,3.09-7.78L27.19,56,16,62.41l1.9.84A2.94,2.94,0,0,1,18.8,63a2.46,2.46,0,0,1,3,2.47V90.75a13.88,13.88,0,0,1-.27,3c-.28,1-1.27,2.71-4.71,3.46-1,.18-1.71.26-2.08.3l-.26,0,2.94,4,.07,0a36.38,36.38,0,0,0,6.88-2.22Z" style="fill: #ab0008"/>
      <path d="M65.65,140a2.84,2.84,0,0,0-.84-.89,2.88,2.88,0,0,0-1-.44h0l-.09,0a3,3,0,0,0-.56-.1h-.44a5.69,5.69,0,0,0-.94.09h0a4.32,4.32,0,0,0-1.79.65c-1.29.73-1.92,1.1-3.17,1.87a1.9,1.9,0,0,1,.82,1.91v0c-.25,1.21-.37,1.82-.63,3a2.54,2.54,0,0,0,.21,1.55,2.45,2.45,0,0,0,.9,1.06,2.77,2.77,0,0,0,.91.4h.08a2.84,2.84,0,0,0,.47.08H60a5.81,5.81,0,0,0,.92-.1h0a.61.61,0,0,1,.13,0,3.37,3.37,0,0,0,.48-.12A1.67,1.67,0,0,0,62.7,150l.37.1.42.11,1.54.43.1,0h0l0-.09c-.09-.38-.14-.57-.24-.94l-.16-.06c-.28-.12-.77-.46-.52-1.39s.41-1.5.67-2.5h0s0-.09,0-.13c.08-.31.13-.46.22-.77l.16-.61c0-.19.11-.43.18-.68A1.87,1.87,0,0,1,67,142.13c-.49-.78-.75-1.17-1.25-1.94Zm-2.56,1.41s-.2.77-.89,3.6a3.56,3.56,0,0,1-.12.42c0,.15,0,.23-.09.38a1.09,1.09,0,0,1-.07.24l-.06.18c0,.11-.12.22-.18.33a2.38,2.38,0,0,1-.4.49l-.15.15a2.85,2.85,0,0,1-.52.33l-.08,0a2.5,2.5,0,0,1-.38.15l-.06-.05a1.54,1.54,0,0,1-.37-.61.7.7,0,0,1,0-.25,1.42,1.42,0,0,1,0-.46s0,0,0,0c.37-1.6.56-2.41.93-4h0c0-.16.06-.23.09-.39a1.68,1.68,0,0,1,.06-.24l.07-.18c0-.11.12-.22.18-.33a2,2,0,0,1,.4-.49,1,1,0,0,1,.16-.14,2.73,2.73,0,0,1,.54-.34l.08,0a2.74,2.74,0,0,1,.4-.15l.07.07a1.36,1.36,0,0,1,.39.61,1.83,1.83,0,0,1,.06.25c0,.14,0,.34,0,.47Z" style="fill: #ab0008"/>
      <path d="M32,125a6.09,6.09,0,0,1,.11-.64,6.29,6.29,0,0,1,.4-1.06L31.27,123l-1.16-.28h0c.1-.24.16-.37.24-.57L35,123.25l.07-.06h0l.07,0h0l.18-.15a2.27,2.27,0,0,0,.64-1s0,0,0-.06a2.73,2.73,0,0,0,0-1.42,3.22,3.22,0,0,0-1.13-1.73l-.54-.4h0l-.49-.35a2.4,2.4,0,0,0-.26-.18s0,0,0,0l0,0-.28-.19a2.3,2.3,0,0,0,.12-.34s0,0,0-.06a3.09,3.09,0,0,0,.06-.8l-.91-.63L31.4,115l-.25-.17-.23-.16a1.44,1.44,0,0,1-.37,1.73s0,0,0,0,0,0-1.22.89a4.93,4.93,0,0,1-1.43.81,1.91,1.91,0,0,1,0,.41,4.31,4.31,0,0,1-.07.65,4.64,4.64,0,0,1-.35,1.08l1.25.27,1.13.25c-.1.29-.15.45-.26.73l-4.63-1-.11.08,0,0h0l-.12.11s0,0,0,0h0a2.29,2.29,0,0,0-.56,1,.14.14,0,0,1,0,.06,2.53,2.53,0,0,0,0,1.31,2.5,2.5,0,0,0,.43.92,2.43,2.43,0,0,0,.64.64l.51.36h0l.45.32.25.16,0,0h0l.26.19a3.24,3.24,0,0,0-.13.33s0,0,0,.06a2.31,2.31,0,0,0-.12.75l.83.59,1,.74a1.6,1.6,0,0,1,.22-1,4.82,4.82,0,0,0,.77-.35h0c.12-.09,0,0,1.27-.82a4.81,4.81,0,0,1,1.48-.73A2.67,2.67,0,0,1,32,125Zm-1.35-3.75c0-.12.05-.16.08-.26.14-.37.21-.57.35-.95h0a1.93,1.93,0,0,1,.66-1l.74-.53a1.56,1.56,0,0,0,.28-.23h0l.16.12.18.12h0a1.83,1.83,0,0,1,.32.36A1.51,1.51,0,0,1,33.2,121h0s-.2.15-.83.57l-.12.09c-.18.11-.28.19-.43.3l-.07,0-1.27-.28C30.55,121.49,30.58,121.39,30.65,121.22Zm-1.68,2s0,0,0,.06a0,0,0,0,0,0,0,1.87,1.87,0,0,1-.73,1.07c-.1.05-.31.21-.75.51a2.26,2.26,0,0,0-.29.23s0,0,0,0L27,125l-.16-.11h0a2.35,2.35,0,0,1-.3-.33,1.46,1.46,0,0,1,.28-2s0,0,0,0l.81-.57.13-.08.38-.27,1.3.32C29.27,122.39,29.16,122.68,29,123.21Z" style="fill: #ab0008"/>
      <path d="M47.43,135.19a.89.89,0,0,1,1.22-.34c0-.28-.09-.43-.14-.72a2.51,2.51,0,0,0,0-.27v0a0,0,0,0,0,0,0c-.05-.25-.07-.38-.12-.65a3.4,3.4,0,0,1-.07-.34s0,0,0,0a2.71,2.71,0,0,0-.39-.93,2.84,2.84,0,0,0-.74-.77,2.93,2.93,0,0,0-.85-.42c-.84-.24-1.26-.36-2.11-.58l.49,1a1.64,1.64,0,0,1,.39.21,1.44,1.44,0,0,1,.45,2h0l-2.1,2.91a6.22,6.22,0,0,1-.66.8s-1.64,2.11-3.54.68c0,.34-.06.5-.11.84,0,.07,0,.11,0,.16a0,0,0,0,0,0,0l.07,0a.1.1,0,0,0,0,0l0,0a5,5,0,0,0,3.8.57c1.16-.15,1.74-.22,2.92-.33a1.86,1.86,0,0,1,.1-2s0,0,0,0l.06-.05Z" style="fill: #ab0008"/>
      <path d="M46.72,129.27h-.11a2.68,2.68,0,0,1-.27-.07h-.06a.12.12,0,0,0-.1,0,.13.13,0,0,0-.1.08c-.12.25.67,1.18,3,.59,0,0,2-.47,1.85-2.24a.68.68,0,0,0,0-.14.31.31,0,0,0,0-.1s0,0,0,0a1.87,1.87,0,0,0-.75-1.11,1.64,1.64,0,0,0-2.3.22,1.38,1.38,0,0,0-.19,1.15h0l0,0s0,0,0,0a2,2,0,0,1,.1.45,1,1,0,0,1,0,.43,1.22,1.22,0,0,1-.14.33A1,1,0,0,1,46.72,129.27Z" style="fill: #ab0008"/>
      <path d="M59.34,135.8s-2.13-.42-1.1-2.19c0,0,0,0,0-.08l0,0a2.31,2.31,0,0,0,.23-1.44,2.85,2.85,0,0,0-.64-1.36A3.45,3.45,0,0,0,57,130a3.13,3.13,0,0,0-1-.37c-.93-.19-1.39-.27-2.32-.44l.63,1a1.63,1.63,0,0,1,.46.18,1.55,1.55,0,0,1,.72,2.05h0s-.21.37-.56,1l-1.37-.26-.42-.07a5.3,5.3,0,0,0-.55-.1h0l-.72-.12-.16,0,.1.15.22.35,0,0,.12.2c.07.09.09.14.15.22h0s2.2.35,1.12,2.21c-1,1.65-2.06,3.52-2.76,4.7a6.45,6.45,0,0,1-.8,1.13c-.4.34-1.41.82-3.52-.6a.09.09,0,0,0-.06,0l-.06-.05s0,0,0,.07a.11.11,0,0,0,0,.05c.09,1,.14,1.46.21,2.43v0a5.23,5.23,0,0,0,3.61.4c1.39-.31,2.1-.45,3.52-.73a1.9,1.9,0,0,1-.09-2.05l0,0s0,0,0-.07.13-.19.34-.53c.55-.92,1.74-2.85,2.81-4.59,1.28.27,1.93.41,3.2.73Z" style="fill: #ab0008"/>
      <path d="M84.05,147.43s0,0,0,0a.2.2,0,0,1,0-.07s0-.24.1-.63c.1-.55.25-1.41.42-2.41a2.32,2.32,0,0,0-.3-1.55,2.72,2.72,0,0,0-1.06-1,3.06,3.06,0,0,0-1-.36,3,3,0,0,0-1,0c-.52.11-.78.15-1.29.27l-.35.07s-.05,0-.09,0l-.09,0-.43.1h0l-.09,0-.09,0a2.72,2.72,0,0,0-1.06-.92,3.06,3.06,0,0,0-1-.31,3.27,3.27,0,0,0-1,.06l-1,.27h0l-.34.09-.11,0-.1,0-.44.12-.18,0h0a2.87,2.87,0,0,0-1.05-.82,3.16,3.16,0,0,0-1.07-.25,2.84,2.84,0,0,0-1,.1l-2.19.66,1,.6a2.42,2.42,0,0,1,.47,0,1.48,1.48,0,0,1,1.49,1.49s0,0,0,0,0,.78-.23,3.7a3.12,3.12,0,0,1,0,.44h0c0,.16,0,.24,0,.39a.76.76,0,0,1,0,.15,2.66,2.66,0,0,1-2.37,2.61.73.73,0,0,1-.23,0H68a.43.43,0,0,1-.15,0l.58,1a0,0,0,0,0,0,0h0a5.34,5.34,0,0,0,3.42-1.26c1.11-.91,1.67-1.36,2.82-2.26a1.91,1.91,0,0,1-1-1.79v0s0-.23.06-.62c0-.56.12-1.44.2-2.45a2.09,2.09,0,0,0-.1-.83l.16-.05h0l.28-.08s.06,0,.11,0a1.85,1.85,0,0,1,.47,0,1.68,1.68,0,0,1,1.44,1.55v0c-.18,1.66-.27,2.47-.44,4.14h0c0,.16,0,.24,0,.39s0,.17,0,.25a1.8,1.8,0,0,1-.05.19,1.48,1.48,0,0,1-.13.35,2.48,2.48,0,0,1-.32.54l-.14.16a2.21,2.21,0,0,1-.46.4l-.08.06a3.18,3.18,0,0,1-.67.32,2.82,2.82,0,0,1-1.17.14H72.6c.29.5.43.75.71,1.25h0a5.35,5.35,0,0,0,3.49-1.12h0c1.15-.87,1.74-1.29,2.92-2.13a1.87,1.87,0,0,1-.92-1.84.05.05,0,0,0,0,0,.22.22,0,0,1,0-.08s0-.24.07-.63l.31-2.43a2.53,2.53,0,0,0,0-.78l.13,0h0l.26-.06.34-.07a1.48,1.48,0,0,1,.47,0c.87.12,1.55.94,1.38,1.61h0s-.12.79-.54,3.68a4.16,4.16,0,0,1-.08.43,2.63,2.63,0,0,1-.06.39,1.44,1.44,0,0,1,0,.24c0,.07,0,.13,0,.19a3.68,3.68,0,0,1-.15.35,3.34,3.34,0,0,1-.34.52l-.15.16a3.48,3.48,0,0,1-.48.38l-.09,0a2.73,2.73,0,0,1-.68.29,3.09,3.09,0,0,1-1.18.1l-.16,0c.26.52.39.77.64,1.29h0a5.45,5.45,0,0,0,3.55-1c1.17-.81,1.78-1.22,3-2A1.93,1.93,0,0,1,84.05,147.43Z" style="fill: #ab0008"/>
      <path d="M96.85,150.54c-.25-.31-.36-.47-.61-.77a.46.46,0,0,1-.17,0c-.31,0-.89-.1-1-1.05s-.23-1.53-.4-2.55c0,0,0,0,0,0a.53.53,0,0,0,0-.13c-.06-.32-.07-.49-.12-.81,0,0,0-.23-.1-.62l-.11-.7a1.87,1.87,0,0,1,.9-1.87l-1.92-1.26-.2-.12a2.87,2.87,0,0,0-2.21-.48h0l-.08,0a2.17,2.17,0,0,0-.56.14l-.09,0-.32.13A6.66,6.66,0,0,0,89,141s0,0,0,0a4.33,4.33,0,0,0-1.38,1.32c-.88,1.19-1.31,1.79-2.14,3a1.89,1.89,0,0,1,1.53,1.4s0,0,0,0c.26,1.21.4,1.81.66,3a2.5,2.5,0,0,0,.81,1.33,2.56,2.56,0,0,0,1.25.6,3,3,0,0,0,1,0h.08a3.24,3.24,0,0,0,.47-.13h0l.23-.09.11-.05a5.58,5.58,0,0,0,.79-.47h0a.44.44,0,0,1,.11-.09,4.08,4.08,0,0,0,.39-.31,1.58,1.58,0,0,0,1.51.48l.38-.05.43-.08c.63-.09.94-.15,1.58-.23l.11,0h0A.23.23,0,0,1,96.85,150.54Zm-4.76-2.25a2.41,2.41,0,0,1-.16.6l-.09.2a2.71,2.71,0,0,1-.33.52l-.06.07a2.65,2.65,0,0,1-.29.29l-.08,0a1.44,1.44,0,0,1-.58-.4.66.66,0,0,1-.14-.2,1.21,1.21,0,0,1-.17-.43l0,0c-.31-1.63-.47-2.45-.79-4.08h0c0-.15,0-.22-.07-.38a1.09,1.09,0,0,1,0-.25,1.21,1.21,0,0,1,0-.19c0-.12,0-.25,0-.38a2.32,2.32,0,0,1,.17-.61c0-.06.06-.14.09-.19a3.15,3.15,0,0,1,.35-.52l.06-.08c.1-.1.2-.2.31-.29l.08,0a1.45,1.45,0,0,1,.62.4.75.75,0,0,1,.15.2c.07.13.11.32.16.44h0s.13.78.65,3.66a3.49,3.49,0,0,1,.07.43c0,.15,0,.23.07.38a1.13,1.13,0,0,1,0,.25,1.37,1.37,0,0,1,0,.19Z" style="fill: #ab0008"/>
      <path d="M39.12,132.64c.21-.25.32-.37.54-.61,0,0,.15-.18.42-.47s.28-.34.46-.54a1.85,1.85,0,0,1,2-.5c-.1-.92-.15-1.37-.27-2.29,0-.09,0-.14,0-.23a2.71,2.71,0,0,0-.36-1.16,2.6,2.6,0,0,0-.69-.83h0s0,0-.07,0a1.91,1.91,0,0,0-.46-.34l-.08,0-.3-.16a7.28,7.28,0,0,0-.89-.34h0a4.17,4.17,0,0,0-1.88-.21c-1.48.1-2.22.15-3.68.29a1.87,1.87,0,0,1-.09,2.08s0,0,0,0c-.76,1-1.14,1.47-1.89,2.44a2.48,2.48,0,0,0-.5,1.47,2.62,2.62,0,0,0,.34,1.34,2.92,2.92,0,0,0,.66.75h0s0,0,0,0a2.75,2.75,0,0,0,.39.28l0,0a.91.91,0,0,0,.22.11l.11.06a4.66,4.66,0,0,0,.86.31h0a.42.42,0,0,1,.13,0,3.1,3.1,0,0,0,.5.09,1.64,1.64,0,0,0,.59,1.48l.29.26.33.28c.48.41.72.62,1.2,1.06a.16.16,0,0,1,.08.06h0a.19.19,0,0,1,0-.08c.08-.4.12-.58.2-1a1.14,1.14,0,0,1-.12-.12c-.21-.23-.49-.75.13-1.48s1-1.16,1.69-1.95h0A.43.43,0,0,0,39.12,132.64ZM37,131l-.29.33-.25.29a1,1,0,0,1-.17.19l-.13.13-.31.22a2,2,0,0,1-.57.26l-.21.07a2.47,2.47,0,0,1-.6.08h-.1a2.71,2.71,0,0,1-.4,0,.25.25,0,0,1,0-.07,1.58,1.58,0,0,1-.08-.71.67.67,0,0,1,.07-.24,1.36,1.36,0,0,1,.22-.41v0c1-1.27,1.57-1.92,2.62-3.22h0l.24-.3.17-.2.14-.12a2,2,0,0,1,.3-.23,2,2,0,0,1,.58-.27.91.91,0,0,1,.21,0,3.29,3.29,0,0,1,.63-.08h.09l.42,0a.39.39,0,0,0,0,.09,1.48,1.48,0,0,1,.08.72,1,1,0,0,1-.06.25,3.15,3.15,0,0,1-.23.41h0S38.81,128.74,37,131Z" style="fill: #ab0008"/>
      <path d="M142.49,111a1.53,1.53,0,0,1-2,.9h0s-.72-.36-3.32-1.57a2.84,2.84,0,0,1-.39-.2l-.35-.16a2.83,2.83,0,0,1-1.2-3.75s.05-.1.07-.14l-1.4.27h0a5.61,5.61,0,0,0-.14,3.72h0c.05.15.07.24.12.39.08.3.12.45.21.72.27.94.4,1.42.65,2.38a1.9,1.9,0,0,1,2-.31s0,0,0,0l.57.28c.5.24,1.26.64,2.16,1.09a2,2,0,0,0,.81.22c0,.18,0,.28-.06.47a.45.45,0,0,0,0,.12,2.42,2.42,0,0,1-.18.46,1.51,1.51,0,0,1-2,.79h0s-.7-.36-3.25-1.72l-.38-.21-.34-.18a2.84,2.84,0,0,1-1-3.79l.08-.15-1.43.22h0a5.58,5.58,0,0,0-.31,3.71c.35,1.41.51,2.11.83,3.52a1.9,1.9,0,0,1,2-.19l0,0s0,0,.06,0l.55.31,2.12,1.17a2.66,2.66,0,0,0,3.54-1.33,3.61,3.61,0,0,0,.32-1c.07-.44.1-.65.16-1.09s.11-.73.17-1.24a3,3,0,0,0,1.8-1.63,3.21,3.21,0,0,0,.29-1c.1-.93.14-1.39.23-2.33-.37.31-.55.45-.92.73A1.49,1.49,0,0,1,142.49,111Z" style="fill: #ab0008"/>
      <path d="M132.87,121l-.65-.49-.49-.38c-.15-.12-.35-.25-.56-.42a1.85,1.85,0,0,1-.64-1.94c-.5.09-.75.15-1.24.23l-1.2.2a2.8,2.8,0,0,0-1.87,1.05l0,0a3.48,3.48,0,0,0-.49.83,7.44,7.44,0,0,0-.31.83s0,0,0,0-.05.22-.08.32c-1-.78-1.89-1.57-2.56-2.11a2.53,2.53,0,0,0-3.52.34,2.45,2.45,0,0,0-.46.75c-.28.77-.42,1.17-.73,1.94l1-.31a2,2,0,0,1,.25-.35,1.43,1.43,0,0,1,2-.17h0c2,1.79,3.08,2.68,5.13,4.45a2.16,2.16,0,0,0,.31.29l.6.54.47.4c.41.37,1.09.94,1.84,1.59a2.65,2.65,0,0,0,3.73-.58l.05-.06h0a4.51,4.51,0,0,0,.32-.44l0,0h0a.82.82,0,0,0,.13-.23.75.75,0,0,1,.07-.12,6,6,0,0,0,.36-.94s0,0,0,0A4.69,4.69,0,0,0,132.87,121Zm-.15,5.38a1.43,1.43,0,0,1-1.05.09,1.2,1.2,0,0,1-.41-.23h0s-.38-.33-1.73-1.43l-1.1-.91-.33-.29-.29-.24a2.67,2.67,0,0,1-.87-2.51,1.44,1.44,0,0,1,1-.05,1.09,1.09,0,0,1,.41.22h0l2.86,2.29c.13.09.23.19.34.28h0l.3.24A2.58,2.58,0,0,1,132.72,126.39Z" style="fill: #ab0008"/>
      <path d="M121.73,136s0,0,0,0l-1-1.19a5,5,0,0,1-.83-1.41,1.51,1.51,0,0,1-.42,0,4.43,4.43,0,0,1-.64,0,4.21,4.21,0,0,1-1.09-.32c-.08.5-.14.77-.23,1.27-.15.82-.23,1.24-.4,2.07l.74.22h.1a1.83,1.83,0,0,1,1.12.66c.07.09.22.3.55.72a1.6,1.6,0,0,0,.25.27l0,0-.12.16a1.86,1.86,0,0,0-.11.19h0a2.13,2.13,0,0,1-.34.33,1.6,1.6,0,0,1-1.86.1c-.5-.69-.76-1-1.27-1.72.48-2.19.69-3.28,1-5.44.1-.57.14-.85.23-1.41l-.23-.23a2.32,2.32,0,0,0-1.07-.57h0a2.86,2.86,0,0,0-1.33.05,2.82,2.82,0,0,0-.91.47,2.67,2.67,0,0,0-.63.67l-.33.52h0l-.3.47-.16.25,0,0,0,0-.17.26a3.4,3.4,0,0,0-.34-.12h-.06a2.11,2.11,0,0,0-.75-.08c-.23.33-.34.51-.56.84l-.71,1a1.77,1.77,0,0,0-.17.24l-.15.21a1.48,1.48,0,0,1,1.41.22l.27.4h0c1.42,2,2.15,3.07,3.57,5.1.15.22.22.34.37.55a1.54,1.54,0,0,0,.17.19s0,0,0,0h0a2.33,2.33,0,0,0,1,.56h.07a2.68,2.68,0,0,0,1.4,0,3.05,3.05,0,0,0,1-.49,2.77,2.77,0,0,0,.7-.71c.17-.23.24-.34.39-.56l.34-.5.18-.27,0,0s0,0,0,0l.19-.29a2.3,2.3,0,0,0,.35.1H121a2.61,2.61,0,0,0,.79,0c.25-.38.37-.56.6-.93s.44-.69.72-1.14c.07-.1.1-.17.17-.27l.15-.23A1.42,1.42,0,0,1,121.73,136Zm-8-2,0-.07c0-.07-.13-.18-.28-.38a3.85,3.85,0,0,0-.26-.35,2.09,2.09,0,0,0-.24-.28l0,0a.86.86,0,0,0,.1-.16l.12-.17h0a1.23,1.23,0,0,1,.33-.31,1.46,1.46,0,0,1,2,.21h0s.15.21.6.79l.09.14c.15.18-.06,0,.09.18-.24,1.27-.36,1.89-.63,3.17C114.77,135.59,114.61,135.28,113.71,134.07Z" style="fill: #ab0008"/>
      <path d="M124.8,128.94s0,0,0,0,0,0,0-.06c-.62-.66-.94-1-1.56-1.66a.9.9,0,0,1-.12-1.27l-.74,0h-1l-.35,0h0a2.88,2.88,0,0,0-1.87.82,3.15,3.15,0,0,0-.56.77c-.38.78-.57,1.19-1,2l1.07-.31a1.78,1.78,0,0,1,.27-.36,1.43,1.43,0,0,1,2-.09h0l2.5,2.58a7.23,7.23,0,0,1,.68.79s1.79,2,0,3.61l.82.25.16.05h0l.05-.06,0,0,0-.05a4.88,4.88,0,0,0,1.21-3.64c.06-1.17.1-1.76.19-2.93A1.87,1.87,0,0,1,124.8,128.94Z" style="fill: #ab0008"/>
      <path d="M117.12,127.29s0,0,0,.07a.1.1,0,0,0,0,.09.14.14,0,0,0,.06.12c.22.15,1.28-.46,1.11-2.82,0,0-.12-2-1.89-2.21l-.15,0h-.15a2,2,0,0,0-1.22.56,1.63,1.63,0,0,0-.19,2.3,1.47,1.47,0,0,0,1.11.4h.06a1.91,1.91,0,0,1,.47,0,1.23,1.23,0,0,1,.42.07,1,1,0,0,1,.54,1.12.52.52,0,0,0,0,.11A2,2,0,0,1,117.12,127.29Z" style="fill: #ab0008"/>
      <path d="M112.16,142.18h0c-.08-.13,0,.06-.65-1.37a5,5,0,0,1-.5-1.56l-.4-.07a5,5,0,0,1-.62-.2,5.16,5.16,0,0,1-1-.54c-.2.47-.29.71-.48,1.19s-.27.66-.43,1.1h0l-.55-.31,1.79-4.46,0-.08h0a.59.59,0,0,1,0-.08h0l-.13-.2a2.3,2.3,0,0,0-.94-.78.05.05,0,0,0,0,0,2.75,2.75,0,0,0-1.4-.2,3.61,3.61,0,0,0-1.06.3,3.22,3.22,0,0,0-.81.58l-.47.48h0l-.41.43-.22.23,0,0,0,0-.23.25a1.44,1.44,0,0,0-.33-.16s0,0-.06,0a3.31,3.31,0,0,0-.77-.17l-.76.82c-.37.38-.55.59-.91,1l-.2.23-.18.2a1.46,1.46,0,0,1,1.66.61v0c.07.13,0,0,.73,1.33a4.63,4.63,0,0,1,.6,1.53,2.73,2.73,0,0,1,.41,0,5.79,5.79,0,0,1,.63.17,4.75,4.75,0,0,1,1,.49c.18-.48.26-.72.45-1.2s.23-.65.4-1.09c.28.14.42.22.68.37l-1.64,4.45.07.11,0,0h0a.73.73,0,0,0,.1.13l0,0h0a2.43,2.43,0,0,0,.92.69l.06,0a2.77,2.77,0,0,0,1.31.17,2.65,2.65,0,0,0,1-.29,2.38,2.38,0,0,0,.73-.55c.17-.18.26-.27.42-.46h0l.38-.4a2.19,2.19,0,0,1,.2-.22l0,0,0,0,.22-.24a1.92,1.92,0,0,0,.31.18l.06,0a2.85,2.85,0,0,0,.72.21l.7-.73c.34-.36.52-.53.86-.88a1.54,1.54,0,0,1-.91-.36A4.18,4.18,0,0,0,112.16,142.18Zm-5.47-2.2-.23-.12c-.35-.19-.53-.28-.9-.46h0a2,2,0,0,1-.88-.8c0-.11-.17-.34-.42-.81a1.61,1.61,0,0,0-.19-.31l0,0,.14-.15.14-.16h0a1.77,1.77,0,0,1,.39-.26,1.5,1.5,0,0,1,2.06.53h0s.12.22.45.9c0,0,0,.08.07.13s.14.3.23.47l0,.06-.46,1.23C107,140.12,106.87,140.08,106.69,140Zm3.35,4-.13.14-.13.14s0,0,0,0a1.15,1.15,0,0,1-.37.25,1.45,1.45,0,0,1-2-.56h0s-.12-.22-.45-.89c0,0,0-.09-.08-.14s-.13-.26-.21-.4l.51-1.25c.48.24.75.39,1.25.67h.07a1.9,1.9,0,0,1,1,.87c0,.11.17.34.4.82a2.07,2.07,0,0,0,.19.32Z" style="fill: #ab0008"/>
    </g>
  </g>
</svg>
