<svg xmlns="http://www.w3.org/2000/svg" xmlns:xlink="http://www.w3.org/1999/xlink" viewBox="0 0 160 160">
  <defs>
    <clipPath id="clip-path">
      <rect x="41.7" y="125.78" width="18.85" height="4.81" style="fill: none"/>
    </clipPath>
    <clipPath id="clip-path-2">
      <rect x="93.03" y="119.97" width="25.28" height="6.96" style="fill: none"/>
    </clipPath>
    <clipPath id="clip-path-3">
      <rect x="64.1" y="49.76" width="31.6" height="10.48" style="fill: none"/>
    </clipPath>
    <clipPath id="clip-path-4">
      <path d="M93.42,35.9c-3.56,1.11-10,1.47-20.14,2.22-2.67.19-4.61.33-6.51.56a24.33,24.33,0,0,0-7.44,1.91c-3.24,1.55-4.83,3.62-5.3,5.56a7.36,7.36,0,0,0,.34,4.27,16.83,16.83,0,0,1,.94,4.11c.23,1.76.08,3.87.27,5.7h1a9.41,9.41,0,0,1,5.06-4.76C65.5,53.66,70.9,53.56,77,53.13c7.56-.52,14.9-.81,19.4-2.13,6.51-1.9,9-5.52,9-5.52s-4.57-7.6-1.58-16.23A25.32,25.32,0,0,1,93.42,35.9" style="fill: none"/>
    </clipPath>
    <clipPath id="clip-path-5">
      <path d="M93.42,35.9c-3.56,1.11-10,1.47-20.14,2.22-2.67.19-4.61.33-6.51.56a24.33,24.33,0,0,0-7.44,1.91c-3.24,1.55-4.83,3.62-5.3,5.56a7.36,7.36,0,0,0,.34,4.27,16.83,16.83,0,0,1,.94,4.11c.23,1.76.08,3.87.27,5.7h1a9.45,9.45,0,0,1,5.06-4.76C65.5,53.66,70.9,53.56,77,53.13c7.56-.52,14.9-.81,19.4-2.13,6.51-1.9,9-5.52,9-5.52s-4.57-7.6-1.58-16.23A25.32,25.32,0,0,1,93.42,35.9" style="fill: none"/>
    </clipPath>
    <clipPath id="clip-path-6">
      <path d="M107.48,104.83a149.74,149.74,0,0,0-17.79,2C79.42,108.51,68,110.67,54,112.13a37.42,37.42,0,0,1-13.54-.74c-4.17-1-6-2.6-6.11-3.6-.36.56-.41,2.15-.17,4.84a19.46,19.46,0,0,1,0,3.23c-.15,1.27-.73,3-.47,4.52.4,2.1,1.76,3.61,4,4.87a20.5,20.5,0,0,0,6.43,2A53.45,53.45,0,0,0,58.85,127c8.38-1.17,16.51-2.39,23.91-3.64,8.53-1.42,17.56-3.13,25.58-3.63a39.19,39.19,0,0,1,11.7,1.06c4.27,1.14,6,3,6.08,4.08a3.61,3.61,0,0,0,.09-1.4c0-1-.29-2.7-.38-3.52a14.47,14.47,0,0,1,.07-3.77c.26-2,.57-2.67.26-4-.54-2.27-2.83-4.29-6.07-5.61a27.49,27.49,0,0,0-10.74-1.76l-1.87,0" style="fill: none"/>
    </clipPath>
    <clipPath id="clip-path-7">
      <rect x="6.65" y="6.92" width="146.71" height="139.51" style="fill: none"/>
    </clipPath>
    <clipPath id="clip-path-8">
      <polygon points="153.35 60.23 97.32 60.23 80 6.92 62.69 60.23 6.64 60.23 51.86 93.22 34.67 146.43 80 113.5 125.33 146.43 108.09 93.19 153.35 60.23" style="fill: none"/>
    </clipPath>
  </defs>
  <g style="isolation: isolate">
    <g id="ロゴ">
      <g id="ベイスターズ">
        <path d="M126.69,148.3,92.63,123.55c-2.35.34-4.68.7-6.94,1l-2.92.44c-8,1.21-14,2-20.35,2.89l-1.3.18L33.31,148.29,39.9,127.9a18.34,18.34,0,0,1-3.81-1.79c-2.62-1.66-3.83-3.46-4-6a11.77,11.77,0,0,1,.38-3.2,12.24,12.24,0,0,0,.34-2.4,28.28,28.28,0,0,0-.15-3.51,22,22,0,0,1-.11-2.52,4.15,4.15,0,0,1,.4-1.67c.5-1.2,2-2.66,6.27-2.89.34,0,.72,0,1.11,0a43.49,43.49,0,0,1,7.11.72l.94-2.94H41L39.8,100.5l.05-.15c-.05,0-.09,0-.14,0a19.09,19.09,0,0,1-7.4,1.29H24.07l-1.17-1.16L23,98c.25-4.55.41-12,.45-15.89-.11-.12-.21-.24-.33-.36a9.21,9.21,0,0,1-3-6.77,11.73,11.73,0,0,1,.51-3.66L4.46,59.51H40.82l1-6.64,2.05,2.05.71,4.59H54c0-.58,0-1.12,0-1.55,0-.27,0-.55,0-.78s0-.28,0-.41V56.4c0-.49,0-.93,0-1.32L54,55A11.24,11.24,0,0,0,53,51.34L52.89,51a8.17,8.17,0,0,1-.53-5.23,9.52,9.52,0,0,1,4.79-5.86,21.57,21.57,0,0,1,8.3-2.56c1.1-.15,2.25-.26,4-.4L80,4.61,90,35.33c.77-.13,1.44-.26,2-.42a20,20,0,0,0,7.39-3.59,45.84,45.84,0,0,0,7.68-7.8c-2.32,5.79-2.86,9.57-2.62,12.7a20.06,20.06,0,0,0,3.37,9.48l.35.5-.42.42c-2.47,2.47-5.45,5-12,6.53l2.07,6.36h57.69l-19.4,14.15a11.23,11.23,0,0,1,2.38,2.8l.08.11c.08.16.17.31.25.48a14.55,14.55,0,0,1,.69,1.52l.14.43-4.85,4.72,1.77,1.89a10.64,10.64,0,0,1,3.2,7.13,9,9,0,0,1-2.5,6.48,8.72,8.72,0,0,1-6.12,2.68,10.44,10.44,0,0,1-2.26-.22h-10l-.49-.49v.49h-6.8l.58,1.82a26.23,26.23,0,0,1,8.37,1.72c5.64,2.18,6.89,5.35,7.18,6.63a6.3,6.3,0,0,1,0,2.74c0,.19-.08.38-.11.58a18.13,18.13,0,0,0-.37,2.12,14.46,14.46,0,0,0,0,3c.06.63.16,1.32.25,1.94s.14,1,.17,1.32a4.73,4.73,0,0,1-2.45,5.12l-.08.07-.08,0-.47.27h0a11.67,11.67,0,0,1-3.8,1.09Zm-3.88-60c.23.49.45,1,.7,1.49l2.06-2c-.14-.17-.26-.3-.36-.4-.34-.4-.65-.79-.95-1.18l-.15.29a8.72,8.72,0,0,1-1.3,1.81M61.55,57.77c.27.37.54.74.83,1.12L63,57c-.19.09-.37.17-.53.26a9,9,0,0,0-.91.53" style="fill: #c6deeb"/>
        <path d="M129.46,152.1l-37.21-27-6.34,1-2.92.44c-8,1.21-14,2-20.39,2.89l-.92.13-31.12,22.6,7.53-23.32a19,19,0,0,1-2.77-1.43c-3-1.91-4.46-4.1-4.7-7.11a12.34,12.34,0,0,1,.41-3.61,12.83,12.83,0,0,0,.32-2.13c0-1.28-.08-2.38-.15-3.35a20.79,20.79,0,0,1-.12-2.7,5.53,5.53,0,0,1,.55-2.26c.63-1.5,2.48-3.44,7.49-3.7l.58,0-.36-.37a21.88,21.88,0,0,1-7,1H23.46l-2-2,.15-3.16c.23-4.38.38-11.41.43-15.26A10.58,10.58,0,0,1,18.65,75,13.2,13.2,0,0,1,19,71.9L0,58.06H39.58l1.3-8.24,4.4,4.41.6,3.83h6.68V58c0-.23,0-.51,0-.74v-.78c0-.48,0-.89,0-1.24a10.67,10.67,0,0,0-.86-3.29l-.13-.32A9.64,9.64,0,0,1,51,45.42a10.89,10.89,0,0,1,5.45-6.73A22.66,22.66,0,0,1,65.24,36c1-.14,1.9-.24,3.17-.34L80-.1,91,33.67c.25-.05.48-.11.7-.17a18.63,18.63,0,0,0,6.88-3.34,44.39,44.39,0,0,0,7.39-7.52l6.48-8.5-4,9.92c-2,5-2.78,8.72-2.51,12.05a18.32,18.32,0,0,0,3.11,8.76l1,1.51-1.31,1.28a23.19,23.19,0,0,1-11.16,6.51l1.26,3.89H160L138.37,73.82a13.68,13.68,0,0,1,1.39,1.89l.18.3.2.38a12.51,12.51,0,0,1,.79,1.79l.41,1.22-4.48,4.36.43.47.36.38a12.14,12.14,0,0,1,3.59,8.1,10.44,10.44,0,0,1-2.91,7.52,10.09,10.09,0,0,1-7.13,3.12h0a12.25,12.25,0,0,1-2.42-.21H118.9c.71.21,1.43.45,2.17.72,6.27,2.42,7.74,6.17,8.08,7.66a7.8,7.8,0,0,1,0,3.35c0,.15-.06.32-.09.49l-.07.27c-.12.62-.25,1.25-.3,1.8a12.22,12.22,0,0,0,0,2.69c.06.49.13,1,.2,1.54l.06.37c.07.54.13,1,.17,1.38a6.11,6.11,0,0,1-3,6.41l-.31.2h0l0,0h0l-.87.46a12.06,12.06,0,0,1-2.24.77ZM93,122l30.94,22.47-5.07-15.61,1.77-.21a10.17,10.17,0,0,0,3.33-1l.53-.32a3.27,3.27,0,0,0,1.75-3.72c0-.35-.09-.78-.16-1.27l0-.37c-.08-.53-.15-1.09-.21-1.61a15.16,15.16,0,0,1,0-3.28,20.18,20.18,0,0,1,.36-2.11l.14-.72a4.85,4.85,0,0,0,0-2.18c-.24-1-1.33-3.66-6.3-5.57a24.82,24.82,0,0,0-7.93-1.63l-1-.06-1.48-4.66H117V97.67l2.54,2.56,9.73,0a8.12,8.12,0,0,0,1.85.18,7.18,7.18,0,0,0,5.17-2.23,7.51,7.51,0,0,0,2.09-5.44,9.2,9.2,0,0,0-2.81-6.17l-.35-.39c-.38-.39-.88-.94-1.4-1.49l-1-1L138,78.62c-.1-.23-.24-.54-.44-.91l-.23-.44a10.51,10.51,0,0,0-2.13-2.51l-1.39-1.2L151.08,61H96.77l-2.88-8.88,1.54-.36c5.86-1.36,8.65-3.54,10.88-5.71A21.82,21.82,0,0,1,103,36.35a21.78,21.78,0,0,1,.57-6.76,34.91,34.91,0,0,1-3.32,2.9,21.5,21.5,0,0,1-7.89,3.83c-.65.17-1.36.32-2.17.45L89,37,80,9.31,70.56,38.36l-1,.08c-1.71.11-2.84.23-3.94.39a20.06,20.06,0,0,0-7.77,2.36,8.14,8.14,0,0,0-4.12,5,6.76,6.76,0,0,0,.49,4.33l.11.27a13.54,13.54,0,0,1,1.06,4.07l0,.19c0,.44,0,.89,0,1.37v.37c0,.16,0,.32,0,.49s0,.44,0,.67c0,.45,0,1,0,1.52L55.55,61H43.39l-.66-4.23L42.07,61H8.92l13.41,9.78-.31,1A9.51,9.51,0,0,0,21.57,75a7.69,7.69,0,0,0,2.54,5.72l.81.88v.58c0,3.7-.2,11.31-.45,16L24.38,100l.28.28h7.65a18,18,0,0,0,6.84-1.17L39.3,99a1.58,1.58,0,0,1,.32-.09L42,98.53l-.51,1.57.12.13h8.78l-1.95,6-1.25-.22a41.94,41.94,0,0,0-6.86-.7c-.35,0-.69,0-1,0-2.76.15-4.54.86-5,2a2.68,2.68,0,0,0-.29,1.15,19.67,19.67,0,0,0,.11,2.34,30,30,0,0,1,.17,3.65,15.18,15.18,0,0,1-.37,2.61,11.39,11.39,0,0,0-.38,2.86c.17,2,1.14,3.47,3.36,4.87a16.16,16.16,0,0,0,3.5,1.64l1.36.46-5.66,17.51,24.48-17.78,1.65-.23c6.42-.86,12.36-1.68,20.35-2.89l2.92-.43c2.26-.35,4.59-.71,7-1Zm30.05-29.79-2-4.24.69-.73a7,7,0,0,0,1.08-1.5L124,83.39l1.43,1.91q.42.56.9,1.11l.35.39.91,1ZM62.91,62l-1.68-2.18c-.21-.27-.4-.53-.59-.8L59.47,57.4l1.28-.84c.34-.22.68-.42,1-.61l.42-.2,3.22-1.52Z" style="fill: #fff"/>
        <path d="M126.52,123.82c-.73-1.36-2.77-2-6.82-3.12l-.13,0a48.61,48.61,0,0,0-7.3-1.18l-1.33-.13s6.61,9.95,6.7,10c3.56.71,8.54-.79,9.21-3.73a4.66,4.66,0,0,0-.33-1.75" style="fill: #221815"/>
        <path d="M50.1,105.91a43.43,43.43,0,0,0-10.86-1.27c-5.78.3-6,2.94-5.77,3.87.41,1.56,2.67,2.76,6.67,3.77a10.44,10.44,0,0,0,2,.21c.77,0,1.55,0,2.32-.07s1.53-.1,2.28-.09c.36,0,.68,0,1,0l.27,0,.76-.62Z" style="fill: #221815"/>
        <path d="M72.21,70.83c-7.08-7.2-13.56-14-15.23-20.64l-.54-.2c-2.62,1.71-1.57,3.61-1.71,7.22-.08,2.2.36,12.48,8.18,13.2Z" style="fill: #221815"/>
        <polygon points="153.35 60.23 97.32 60.23 80 6.92 62.69 60.23 6.64 60.23 51.86 93.22 34.67 146.43 80 113.5 125.33 146.43 108.09 93.19 153.35 60.23" style="fill: #221815"/>
        <polygon points="53.9 92.55 11.98 61.97 38.4 61.97 41.76 63.36 43.66 61.97 63.95 61.97 80 12.56 96.05 61.97 147.99 61.97 106.05 92.53 122.04 141.88 80 111.35 37.96 141.88 53.9 92.55" style="fill: #eaf6fd"/>
        <path d="M67.75,87.54l3.18-9.77H36.72l13.49,9.77Zm24.7,0H110l13.46-9.77H89.28Zm2.32-23.83L80,18.2,65.22,63.71H17.37L30.85,73.5H72.33L80,49.86,87.68,73.5h41.47l13.47-9.79ZM93.64,91.82l6.45,19.87L80,97.11,59.9,111.69l6.47-19.87H62.83l-2.59,1.94-2.19-1.94h-2L41.29,137.3,80,109.19l38.71,28.11L103.93,91.82Z" style="fill: #00428e"/>
        <path d="M80,21.21,94.11,64.64h45.66l-10.92,7.93H88.35L80,46.86,71.65,72.57H31.14L20.22,64.64H65.89ZM120.63,78.7l-10.91,7.91H93.13L90.56,78.7h30.07m-51,0-2.57,7.91H50.5l-3-2.16L46,84.24l-1.53-2L39.58,78.7H69.65m33.6,14,13.69,42.14L84.13,111.05l0-.56-.88-.11L80,108,43.07,134.88,56.76,92.74h1l2.3,1.66L63,92.74h2.07l-7,21.39L80,98.25l21.86,15.88-7-21.39h8.35M80,18.2,65.22,63.71H17.37L30.85,73.5H48.57l.74.5.49-.5H72.33L80,49.86,87.68,73.5h41.47l13.47-9.79H94.78Zm43.48,59.57H89.28l3.17,9.77H108l1.09,1.2.46-1.2H110Zm-52.55,0H36.72l13.49,9.77H67.75Zm33,14H93.64l6.45,19.87L80,97.11,59.9,111.69l6.47-19.87H63.08l-3,2.07-2.52-2.07H56.08L41.29,137.3,80,109.19l38.71,28.11Z" style="fill: #0086cd"/>
        <polygon points="50.49 94.59 49.14 99.8 50.31 99.79 52.1 94.96 50.49 94.59" style="fill: #221815"/>
        <g style="mix-blend-mode: multiply">
          <g style="clip-path: url(#clip-path)">
            <path d="M41.7,129.45c1.94.8,6.83,1.75,13.53.62L60.55,126l-17.67-.22Z" style="fill: #d2d8dc"/>
          </g>
        </g>
        <g style="mix-blend-mode: multiply">
          <g style="clip-path: url(#clip-path-2)">
            <path d="M99.41,125.81c6.65-.71,16.58-.85,18.9,1.13l-2.72-7L93,121.05Z" style="fill: #d2d8dc"/>
          </g>
        </g>
        <g style="mix-blend-mode: multiply">
          <g style="clip-path: url(#clip-path-3)">
            <path d="M64.1,60.24c1.41-3.15,12.51-2.69,21.78-3,4.75-.14,7.42-.32,9.82-1.08l-2.11-6.43-26.85,1.6Z" style="fill: #d2d8dc"/>
          </g>
        </g>
        <path d="M103.78,36.28a23.4,23.4,0,0,1,1.51-9.64,30.73,30.73,0,0,1-5.45,5.25,21.12,21.12,0,0,1-7.64,3.72,55.33,55.33,0,0,1-8.81,1.16c-2.48.2-8.39.58-13.13.88-2.16.15-3.48.26-4.7.44a21.34,21.34,0,0,0-8.05,2.46A8.94,8.94,0,0,0,53.05,46a7.48,7.48,0,0,0,.51,4.8,13.66,13.66,0,0,1,1.13,4.13c.15,1.68-.07,3.49.12,5.5,0,.15,0,.31,0,.46.12.94,2.85,1.15,3.26.07a8.08,8.08,0,0,1,4-4.33,13.79,13.79,0,0,1,4.19-1.31c5.89-.85,12.88-1.12,20.82-1.67,12.81-.86,17-4.35,20.14-7.51a20.74,20.74,0,0,1-3.5-9.83" style="fill: #221815"/>
        <path d="M56.58,60.23a9.41,9.41,0,0,1,5.06-4.76C65.5,53.66,70.9,53.56,77,53.13,84.56,52.6,91.9,52.32,96.4,51c6.51-1.9,9-5.52,9-5.52s-4.57-7.6-1.59-16.23A25.21,25.21,0,0,1,93.42,35.9c-3.56,1.11-10,1.47-20.14,2.22-2.67.19-4.61.33-6.51.56a24.33,24.33,0,0,0-7.44,1.91c-3.24,1.55-4.83,3.62-5.3,5.56a7.36,7.36,0,0,0,.34,4.27,16.71,16.71,0,0,1,.94,4.11c.24,1.76.08,3.87.27,5.7Z" style="fill: #0097e0"/>
        <g style="clip-path: url(#clip-path-4)">
          <path d="M104.17,42.82A22,22,0,0,1,103,33.58a18.26,18.26,0,0,1-9.72,5.59,50,50,0,0,1-7.47,1.07c-4.19.38-8.44.62-12.94.94s-7.26.32-10.47,1.25c-5.24,1.54-8,4.64-8.26,7.83a21.59,21.59,0,0,1,1.21,4.27c.12.95-.1,2.63-.07,3.76,1-3,3.72-5,7-6.16s6.25-1.5,12.33-1.92c5-.34,12.26-.79,15.32-1.09a33.74,33.74,0,0,0,5.75-.94,18,18,0,0,0,8.57-5.36" style="fill: #00428e"/>
          <path d="M102.84,33.43a19.27,19.27,0,0,1-11.16,5.88c-1.69.31-3.6.53-5.93.74-3,.26-6,.46-9.13.67l-3.8.26-1,.07c-2.79.2-4.65.37-6.53.66-7.31,1.1-11.05,4.86-11.37,8.34l.32.28c.21-3.3,3.71-7.3,11.12-8.41,2.1-.32,4.16-.51,7.5-.74,4.5-.32,8.75-.57,12.94-.94,2.37-.22,4.24-.43,5.94-.74,5.13-.92,9-3.21,11.14-5.66l.23-.79v0Zm1.33,9.23a18.89,18.89,0,0,1-10.44,5.88,31.38,31.38,0,0,1-3.88.58c-3.06.3-10.28.75-15.32,1.09-3.77.25-6.51.51-8.72.87-6,1-9.77,4-10.58,6.85l.22.26c1.2-3.49,5.61-6.1,10.31-6.83,2.28-.34,5.35-.67,8.78-.9l3-.21c4.63-.3,9.86-.67,12.35-.91a35.94,35.94,0,0,0,4-.57,18.56,18.56,0,0,0,10.51-5.94Z" style="fill: #00b9ef"/>
        </g>
        <g style="clip-path: url(#clip-path-5)">
          <path d="M54.21,49.72c-.29-2,1-6.33,6.52-8.95-5.46,1.85-7,4.77-7.24,6.42a3,3,0,0,0,.72,2.53" style="fill: #002964"/>
          <path d="M60.92,42c-5.49,1.84-7,4.83-7.24,6.47a2.9,2.9,0,0,0,.71,2.5c-.29-2,1-6.35,6.53-9" style="fill: #002964"/>
          <path d="M61.09,43.15c-5.5,1.83-7,4.88-7.24,6.53a2.78,2.78,0,0,0,.74,2.46c-.29-2,.95-6.37,6.5-9" style="fill: #002964"/>
          <path d="M61.28,44.35c-5.52,1.81-7,4.92-7.25,6.58a2.69,2.69,0,0,0,.73,2.42c-.27-2,1-6.39,6.52-9" style="fill: #002964"/>
          <path d="M61.47,45.53c-5.56,1.82-7,5-7.26,6.64A2.6,2.6,0,0,0,55,54.56c-.29-2,1-6.4,6.52-9" style="fill: #002964"/>
          <path d="M61.65,46.72c-5.57,1.81-7,5-7.26,6.69a2.51,2.51,0,0,0,.75,2.35c-.3-2,1-6.42,6.51-9" style="fill: #002964"/>
          <path d="M61.83,47.9c-5.59,1.8-7,5.1-7.24,6.76A2.39,2.39,0,0,0,55.32,57c-.28-2,1-6.46,6.51-9.08" style="fill: #002964"/>
          <path d="M62,49.1c-5.62,1.79-7,5.15-7.26,6.8a2.32,2.32,0,0,0,.75,2.28c-.28-2,.94-6.47,6.51-9.08" style="fill: #002964"/>
          <path d="M62.2,50.29c-5.65,1.78-7,5.2-7.25,6.85a2.16,2.16,0,0,0,.75,2.24c-.29-2,.95-6.47,6.5-9.09" style="fill: #002964"/>
          <path d="M62.39,51.48c-5.67,1.76-7,5.25-7.26,6.91a2.11,2.11,0,0,0,.74,2.21c-.28-2,1-6.51,6.52-9.12" style="fill: #002964"/>
          <path d="M62.57,52.66c-5.68,1.77-7,5.31-7.26,7a2,2,0,0,0,.75,2.17c-.29-2,.95-6.53,6.51-9.14" style="fill: #002964"/>
          <path d="M56.25,63c-.3-2,1-6.55,6.51-9.16-5.72,1.76-7.06,5.37-7.27,7s.76,2.14.76,2.14" style="fill: #002964"/>
        </g>
        <path d="M88.92,40.73c-1.06.15-2,.22-2,.22l-1.05,3.66L85.63,41l-2.55.18.15,2.13-1.9-2-2.11.14.15,2.39a2.34,2.34,0,0,0-1.68-.66h-.2a2.53,2.53,0,0,0-1.86,1A3.54,3.54,0,0,0,74,42.29,4.27,4.27,0,0,0,71.75,42l-2,.18-.88.07.52,7.66,3-.23a4,4,0,0,0,.67-.08,3.39,3.39,0,0,0,2.4-1.67,3.22,3.22,0,0,0,.71.88,2.67,2.67,0,0,0,1.68.59,3,3,0,0,0,.41,0h.07a2.82,2.82,0,0,0,1.46-.8l0,.6L82.29,49l-.15-2.19,1.94,2.08,3.31-.24.47-1.72h.28l.66,1.62c1.8-.16,3.42-.43,3.42-.43ZM72.55,47a.58.58,0,0,1-.24.2l-.17-2.75.06,0a.69.69,0,0,1,.21.15,1,1,0,0,1,.21.36,1.92,1.92,0,0,1,.12.64A2.38,2.38,0,0,1,72.55,47" style="fill: #002f6e"/>
        <path d="M69.89,49.25l-.46-6.51.31,0s1.28-.13,2.05-.19a3.52,3.52,0,0,1,1.94.28,3.12,3.12,0,0,1,1.59,2.62,3.43,3.43,0,0,1-.15,1.41A2.79,2.79,0,0,1,74.61,48a2.65,2.65,0,0,1-1.75,1l-.59.07Zm1.63-5.4.27,4H72a4.12,4.12,0,0,0,.45-.08,1.18,1.18,0,0,0,.61-.48,2.76,2.76,0,0,0,.29-1.73,2.63,2.63,0,0,0-.16-.79,1.5,1.5,0,0,0-.33-.54.93.93,0,0,0-.41-.3,1.14,1.14,0,0,0-.55-.08l-.35,0m6.23,4.94a2.05,2.05,0,0,1-1.3-.47,2.5,2.5,0,0,1-.89-1.88,2.26,2.26,0,0,1,2-2.69h.16a2.05,2.05,0,0,1,2,2.11c0,.31,0,.69,0,.69l.07.87,0,.07a2.3,2.3,0,0,1-1.6,1.27h-.05l-.32,0m-.21-2.08a.43.43,0,0,1,0,.12c.07.22.25.59.63.55s.53-.32.76-.77h0Zm0-1.74-.07.15c0,.11,0,.24-.05.36v0h.28a3.18,3.18,0,0,0-.12-.47l0-.06m2.69,3.55L79.82,42l1.28-.08,2.8,3-.2-3.17,1.4-.1.43,6.28,1.85-6.42,1.17-.15,2.82,6.27s-.9.17-2.2.3l-.66-1.64-1.08.08-.49,1.72-2.63.18-2.86-3.07.23,3.25Zm7.61-3.84-.09.32L88,45Z" style="fill: #0086cd"/>
        <path d="M73.59,43.09a3.42,3.42,0,0,0-1.78-.23l-2,.17.41,5.87,2-.16a4.27,4.27,0,0,0,.56-.07,2.33,2.33,0,0,0,1.56-.9,2.93,2.93,0,0,0,.51-1A3.61,3.61,0,0,0,75,45.45a2.87,2.87,0,0,0-1.41-2.36m0,2.44a3.14,3.14,0,0,1-.34,1.92,1.48,1.48,0,0,1-.79.61,3.29,3.29,0,0,1-.51.1l-.51,0-.33-4.64.7,0a1.57,1.57,0,0,1,.68.1,1.47,1.47,0,0,1,.54.39,1.77,1.77,0,0,1,.39.64,3.06,3.06,0,0,1,.17.9m10.66.24L81,42.23l-.81.05.41,5.88.75,0-.27-3.85,3.39,3.63.75,0L84.79,42,84,42Zm4-4.09-.72.09-1.74,6,.8-.06L87.18,46l1.55-.12.65,1.65c.83-.07,1.52-.19,1.52-.19Zm-1,3.67.47-1.68.66,1.6Zm-9.8-1.27c-1.11.07-1.77,1-1.68,2.35a2.21,2.21,0,0,0,.77,1.64,1.72,1.72,0,0,0,1.37.38l0,0a1.89,1.89,0,0,0,1.35-1.08l0-.88-.13.29a1.53,1.53,0,0,1-1,1c-.63.05-.88-.54-1-.79a3.74,3.74,0,0,1-.09-.52l2.2-.16,0-.36c-.08-1.17-.77-1.88-1.77-1.81m.56,1.72-1,.07a2.64,2.64,0,0,1,0-.4,2,2,0,0,1,.06-.44,1,1,0,0,1,.13-.29.28.28,0,0,1,.22-.12c.1,0,.25,0,.36.29a4.58,4.58,0,0,1,.2.89" style="fill: #fff"/>
        <path d="M87.86,44.41l-.18.67.45,0Zm-10.28.44c-.11,0-.23.39-.22.76l.49,0c0-.42-.18-.73-.27-.73" style="fill: #002f6e"/>
        <path d="M44.12,127.24a20.7,20.7,0,0,1-6-1.8c-3-1.43-4.16-3.43-4.39-5a18.17,18.17,0,0,1,.34-4.75,16.64,16.64,0,0,0,.1-3.07c-.24-2.69-.23-4.16.06-5,.08,1,2.05,2.68,6.22,3.73a39.25,39.25,0,0,0,13.54.74c14-1.46,25.4-3.62,35.67-5.25a140.35,140.35,0,0,1,17.53-1.95c5.6-.18,9.72.44,13,1.72,3.1,1.21,5.41,3.25,5.94,5.52.32,1.38,0,2.08-.25,4a14.41,14.41,0,0,0-.07,3.76c.09.83.32,2.52.38,3.53a3.61,3.61,0,0,1-.09,1.4c-.11-1.1-1.81-2.94-6.08-4.08a39.16,39.16,0,0,0-11.7-1.06c-8,.5-17,2.21-25.58,3.63-7.4,1.25-15.53,2.48-23.91,3.64a55.1,55.1,0,0,1-14.73.2" style="fill: #0097e0"/>
        <path d="M127,123.61c-.07-.72-.27-2.09-.42-3.23a15.22,15.22,0,0,1,0-3.16c.09-.92.31-1.93.48-2.77a5.37,5.37,0,0,0,0-2.46c-.41-1.89-2.23-4.37-6.75-6.1-3.17-1.2-6.44-1.91-12.77-1.73-2.62.06-5,.32-8.58.68-6.36.65-34.38,5.36-45.67,6a52.29,52.29,0,0,1-7.25,0c-8.18-.87-9.88-3-9.48-3.91,0-.06-2.3-.52-2.3-.52a2.5,2.5,0,0,0-1,2.16c-.06,1.62.31,3.41.27,6,0,1.78-.85,3.81-.72,5.54.17,2.48,1.47,4,3.69,5.44A19.32,19.32,0,0,0,45,128.23a64,64,0,0,0,14.14-.58c7.55-1,14.24-1.9,23.56-3.32,9.15-1.38,20.9-3.33,28.54-3.13,10,.29,13.49,3.62,12.94,5.24a11,11,0,0,0,.16,1.33l.43.38a4.1,4.1,0,0,0,2.24-4.54" style="fill: #221815"/>
        <path d="M44.12,127.24a20.76,20.76,0,0,1-6.43-2c-2.22-1.26-3.58-2.76-4-4.87-.26-1.51.32-3.25.47-4.52a19.46,19.46,0,0,0,0-3.23c-.24-2.69-.19-4.28.17-4.84.07,1,1.94,2.55,6.11,3.6a37.42,37.42,0,0,0,13.54.74c14-1.46,25.4-3.62,35.67-5.25a149.74,149.74,0,0,1,17.79-2c5.59-.17,9.23.37,12.61,1.73s5.53,3.34,6.06,5.61c.32,1.38,0,2.08-.25,4a14.41,14.41,0,0,0-.07,3.76c.09.83.32,2.52.38,3.53a3.61,3.61,0,0,1-.09,1.4c-.11-1.1-1.81-2.94-6.08-4.08a39.16,39.16,0,0,0-11.7-1.06c-8,.5-17,2.21-25.58,3.63-7.4,1.25-15.53,2.48-23.91,3.64a53.88,53.88,0,0,1-14.73.2" style="fill: #0097e0"/>
        <g style="clip-path: url(#clip-path-6)">
          <path d="M126.15,116.29c.07-.61.1-1.05.15-1.46-.6-1.7-2.22-3.63-5.35-5.1-3.58-1.66-7.79-2.12-12.48-2a84.4,84.4,0,0,0-9.77,1c-12.23,1.79-26.55,4.19-40,6a63,63,0,0,1-13.2.58c-7.26-.57-11-2.92-11.47-4.92,0,.52.14,1.62.19,2.26a16.64,16.64,0,0,1-.1,3.07c-.05.44-.34,1.18-.44,1.81.46,3.38,4.23,6,9.83,6.91a47.63,47.63,0,0,0,11.53.16c2.16-.16,5.17-.63,7.43-1,15.16-2.11,32.74-5.34,44-6.63a43.19,43.19,0,0,1,9.64.06c5.52.73,9.2,3,10.21,4.94v-.38a16,16,0,0,1-.1-1.65,19.42,19.42,0,0,1,0-3.68" style="fill: #00428e"/>
          <path d="M45.48,115.29c.85.06,1.76.11,2.72.13a69.62,69.62,0,0,0,10.48-.71c13.47-1.85,27.79-4.25,40-6a84.4,84.4,0,0,1,9.77-1h1.89a26,26,0,0,1,10.62,2,9.3,9.3,0,0,1,5.2,5.23l.16-.29,0-.14c-.74-2.11-2.45-3.75-5.2-5a25.75,25.75,0,0,0-10.77-2c-.61,0-1.27,0-1.92,0a83.8,83.8,0,0,0-9.81,1c-5.11.75-10.52,1.59-16.23,2.48-7.84,1.21-16,2.47-23.78,3.54a67.74,67.74,0,0,1-10.45.72c-.93,0-1.84-.07-2.7-.13-7.06-.55-11-3-11.47-4.94l-.09.43c.43,1.88,4.28,4.18,11.54,4.75M116,117.06a41.46,41.46,0,0,0-4.21-.3,42.15,42.15,0,0,0-5.43.24c-11.21,1.29-28.79,4.52-43.94,6.63-2.27.32-5.28.79-7.44,1-2.37.17-4.5.3-6.62.27a36.49,36.49,0,0,1-4.91-.43c-5.6-.87-9.37-3.53-9.83-6.91l0,0-.25.27c.52,3.45,4.37,6,10,6.92a32.92,32.92,0,0,0,4.94.41,65.67,65.67,0,0,0,6.64-.26c1.77-.13,4.08-.47,6.12-.74.46-.08.9-.14,1.32-.2,6.69-.93,13.83-2.08,20.73-3.18,8.72-1.41,17-2.73,23.21-3.47a48.25,48.25,0,0,1,5.4-.22,40.55,40.55,0,0,1,4.13.3c5.93.8,9.14,3,10.16,4.83l0-.51c-1-1.76-4.57-3.89-10-4.56" style="fill: #00b9ef"/>
          <path d="M34.46,107.56c-.23.67.48,1.93,3.12,3.31a23,23,0,0,0,7.72,2.33c-5.72-.17-9.45-2-10.67-3-.64-.56-.74-.74-.79-1.4a1.43,1.43,0,0,1,.62-1.21" style="fill: #002964"/>
          <path d="M45.18,114.39c-5.56-.2-9.28-1.92-10.58-3.1a1.78,1.78,0,0,1-.81-1.5,1.42,1.42,0,0,1,.6-1.22c-.23.65.48,2,3,3.35a22.13,22.13,0,0,0,7.78,2.47" style="fill: #002964"/>
          <path d="M45.06,115.6c-5.41-.25-9.1-1.89-10.51-3.2a2,2,0,0,1-.83-1.6,1.57,1.57,0,0,1,.6-1.25c-.23.66.46,2,2.89,3.43a21.9,21.9,0,0,0,7.85,2.62" style="fill: #002964"/>
          <path d="M44.94,116.78c-5.26-.26-8.93-1.84-10.42-3.27a2.12,2.12,0,0,1-.85-1.71,1.61,1.61,0,0,1,.59-1.26c-.23.66.44,2,2.77,3.5a22,22,0,0,0,7.91,2.74" style="fill: #002964"/>
          <path d="M44.81,118c-5.11-.28-8.74-1.79-10.32-3.34a2.33,2.33,0,0,1-.88-1.81,1.72,1.72,0,0,1,.58-1.29c-.23.66.43,2.08,2.66,3.56a21,21,0,0,0,8,2.88" style="fill: #002964"/>
          <path d="M44.71,119.16c-5-.3-8.6-1.75-10.26-3.41a2.45,2.45,0,0,1-.9-1.91,1.79,1.79,0,0,1,.57-1.31c-.23.65.41,2.14,2.54,3.61a20.65,20.65,0,0,0,8.05,3" style="fill: #002964"/>
          <path d="M44.58,120.36c-4.81-.33-8.42-1.71-10.17-3.49a2.71,2.71,0,0,1-.92-2,2,2,0,0,1,.56-1.35c-.23.66.39,2.2,2.44,3.69a20.23,20.23,0,0,0,8.09,3.16" style="fill: #002964"/>
          <path d="M44.47,121.55c-4.68-.36-8.25-1.66-10.1-3.57a3,3,0,0,1-.94-2.11,2.08,2.08,0,0,1,.56-1.36c-.23.66.36,2.25,2.31,3.74,1.78,1.39,4.35,2.48,8.17,3.3" style="fill: #002964"/>
          <path d="M44.34,122.74c-4.51-.39-8.07-1.61-10-3.64a3.2,3.2,0,0,1-1-2.22,2.24,2.24,0,0,1,.57-1.38c-.25.67.33,2.3,2.18,3.81s4.43,2.57,8.23,3.43" style="fill: #002964"/>
          <path d="M44.22,123.94c-4.37-.42-7.91-1.57-9.92-3.72a3.41,3.41,0,0,1-1-2.32,2.38,2.38,0,0,1,.56-1.4c-.24.65.32,2.36,2.07,3.88s4.49,2.66,8.29,3.56" style="fill: #002964"/>
          <path d="M44.1,125.13c-4.22-.45-7.74-1.52-9.84-3.79a3.75,3.75,0,0,1-1-2.43,2.66,2.66,0,0,1,.57-1.43c-.25.66.27,2.43,2,3.93s4.54,2.79,8.35,3.72" style="fill: #002964"/>
          <path d="M33.73,118.47c-.24.66.25,2.49,1.83,4,1.81,1.73,4.62,2.88,8.42,3.85-4.07-.47-7.57-1.47-9.75-3.87a3.84,3.84,0,0,1-1-2.53,2.78,2.78,0,0,1,.55-1.45" style="fill: #002964"/>
          <path d="M125.92,125.41c.23-.66-.21-2.14-2.29-3.53a20.87,20.87,0,0,0-8.44-2.9c5.81.17,9.2,2,10.6,3.4a2.51,2.51,0,0,1,.93,1.72,1.66,1.66,0,0,1-.8,1.31" style="fill: #002964"/>
          <path d="M115.27,117.81c5.68.21,9.1,2.11,10.52,3.5a2.53,2.53,0,0,1,.93,1.77,1.63,1.63,0,0,1-.78,1.3c.24-.64-.2-2.09-2.22-3.5a20.28,20.28,0,0,0-8.45-3.07" style="fill: #002964"/>
          <path d="M115.34,116.66c5.57.24,9,2.14,10.43,3.57a2.62,2.62,0,0,1,1,1.83,1.74,1.74,0,0,1-.75,1.32c.24-.65-.21-2.08-2.14-3.5a20,20,0,0,0-8.49-3.22" style="fill: #002964"/>
          <path d="M115.42,115.5c5.46.27,8.92,2.19,10.34,3.66a2.76,2.76,0,0,1,1,1.87,1.8,1.8,0,0,1-.72,1.34c.22-.66-.19-2.06-2.07-3.51a19.71,19.71,0,0,0-8.51-3.36" style="fill: #002964"/>
          <path d="M115.5,114.34c5.32.31,8.81,2.25,10.26,3.76a2.73,2.73,0,0,1,1,1.91,1.9,1.9,0,0,1-.7,1.35c.23-.65-.18-2-2-3.51a19.54,19.54,0,0,0-8.53-3.51" style="fill: #002964"/>
          <path d="M115.59,113.18c5.19.34,8.72,2.29,10.16,3.85a2.83,2.83,0,0,1,1,2,2,2,0,0,1-.67,1.37c.23-.66-.17-2-1.92-3.51a19.06,19.06,0,0,0-8.54-3.67" style="fill: #002964"/>
          <path d="M115.67,112c5.07.37,8.62,2.33,10.07,3.92a3,3,0,0,1,1,2,2,2,0,0,1-.67,1.36c.24-.65-.16-2-1.84-3.48a18.76,18.76,0,0,0-8.56-3.82" style="fill: #002964"/>
          <path d="M115.73,110.86c5,.41,8.54,2.38,10,4a3.23,3.23,0,0,1,1,2.07,2.09,2.09,0,0,1-.65,1.37c.24-.65-.14-2-1.77-3.49a18.7,18.7,0,0,0-8.59-4" style="fill: #002964"/>
          <path d="M115.82,109.71c4.83.43,8.43,2.42,9.92,4.1a3.23,3.23,0,0,1,1,2.11,2.18,2.18,0,0,1-.62,1.4c.24-.66-.14-2-1.7-3.49a18.28,18.28,0,0,0-8.6-4.12" style="fill: #002964"/>
          <path d="M115.9,108.55c4.72.47,8.35,2.46,9.81,4.2a3.16,3.16,0,0,1,1,2.14,2.27,2.27,0,0,1-.59,1.41c.24-.64-.13-2-1.63-3.48a18.1,18.1,0,0,0-8.62-4.27" style="fill: #002964"/>
          <path d="M116,107.4c4.6.48,8.25,2.49,9.73,4.27a3.37,3.37,0,0,1,1,2.2,2.51,2.51,0,0,1-.56,1.42c.23-.66-.1-1.94-1.54-3.47A18,18,0,0,0,116,107.4" style="fill: #002964"/>
          <path d="M126.2,114.28c.23-.65-.09-1.93-1.48-3.46-1.67-1.88-5-3.74-8.67-4.58,4.48.53,8.16,2.54,9.66,4.35a3.5,3.5,0,0,1,1,2.27,2.6,2.6,0,0,1-.54,1.42" style="fill: #002964"/>
        </g>
        <path d="M101.5,109c-.92.12-2,.28-2,.28l-.77,3.81-1-3.52-2.16.34-.83,2.81-1.65-2.43-2.11.32,0,3.9-2-3.61-2,.29L86.41,115l-.55-3.54-3.17.48.35,2.26-.44.08L82.25,112l-3.17.49.22,1.43a2.24,2.24,0,0,0-.38-.31,4,4,0,0,0-3.06-.71,4.2,4.2,0,0,0-1.65.62l.2-.31-3.51.55-.66,1-.13-.85-3.17.48.23,1.38a4.26,4.26,0,0,0-5.48,0l.18-.55-2.81.43-.52,1.52-.93-1.29s-1.77.24-3.66.4l3.15,4.25.47,3.06c1.53-.18,3.18-.42,3.18-.42L60.27,120l.14-.44a3.83,3.83,0,0,0,4.55,3,4,4,0,0,0,3-1.9l.19,1.28,3.16-.49,0-.19.15.16,3.82-.57-.3-.34a4.61,4.61,0,0,0,2.15.18,4,4,0,0,0,2.76-1.61,3.13,3.13,0,0,0,.22-.36l.21,1.34,3.17-.49L83,116.84l.43-.07.44,2.75,1.7-.27,2.68-.41.34-1.76.26,0,.8,1.58,3.38-.53.76-.12-.05-1.15.71,1.06,1.55-.26.37-1.26.3,1.16s2.24-.36,4-.58l.33-1.78.28,0,.79,1.58,3.43-.44Zm-36.85,8.4a2.22,2.22,0,0,1,.48,1.13c.08.51.07,1.49-.53,1.59a.53.53,0,0,1-.52-.22,2.51,2.51,0,0,1-.48-1.13c-.13-.89.17-1.55.55-1.59.16,0,.31,0,.5.22m12.58-.75c.08.51.06,1.5-.53,1.59s-.92-.84-1-1.35c-.15-.87.16-1.53.54-1.59a.58.58,0,0,1,.49.23,2,2,0,0,1,.49,1.12M72.58,118l-.78-.86.66-1a4.29,4.29,0,0,0,0,1.29c0,.2.07.37.12.56" style="fill: #002f6e"/>
        <path d="M59.48,116.1l-.75,2.22-1.39-1.91s-1.23.18-2.32.28l2.62,3.53.43,2.66,2-.27-.42-2.69L61,115.86Zm4.37-.78a3.38,3.38,0,0,0-2.92,3.88,3.48,3.48,0,0,0,6.88-1.07,3.37,3.37,0,0,0-4-2.81m.83,5.39h0a1.12,1.12,0,0,1-1-.39,2.93,2.93,0,0,1-.62-1.45c-.18-1.16.25-2.13,1-2.24a1.11,1.11,0,0,1,1,.4,2.72,2.72,0,0,1,.65,1.42c.1.76,0,2.09-1,2.26M73.2,114l-2,.29-1.35,2-.28-1.75-2,.31,1,6.47,2-.32-.06-.4s-.07-.57-.16-1.2l1.23,1.45,2.46-.38-3-3.29Zm28-4.32-1.18.16-1.12,5.76-1.5-5.32-1.3.2L95,114.06l-2.12-3.13-1.25.2.05,5.68-2.88-5.26-1.17.18-1.3,6.55-1-6.21-2,.31.35,2.28-1.58.24-.34-2.27-2,.32,1,6.45,2-.3-.42-2.74,1.55-.25.44,2.75,1.94-.3,1.49-.24.32-1.75,1.09-.17L90,118l2.16-.33,1-.17-.09-2.67,1.62,2.43.81-.12.86-2.9.71,2.66,3-.47.34-1.76,1.08-.17.8,1.57,2.18-.28ZM76,113.47A3.33,3.33,0,0,0,73,117.32a3.24,3.24,0,0,0,4,2.8,3.27,3.27,0,0,0,2.91-3.87,3.31,3.31,0,0,0-1.32-2.2,3.39,3.39,0,0,0-2.63-.58m.83,5.37c-1,.15-1.53-1.08-1.65-1.84-.18-1.17.25-2.13,1-2.26a1.13,1.13,0,0,1,1,.42,2.59,2.59,0,0,1,.63,1.43c.12.75,0,2.07-1,2.25" style="fill: #0086cd"/>
        <path d="M87.91,112l-1.22,6.15.8-.12.33-1.76,1.54-.24.8,1.58,1.47-.22-3-5.51Zm0,3.59.32-1.71.78,1.54ZM58.82,119l-1.62-2.25-1.56.18L58,120.09l.37,2.43,1.39-.18-.38-2.45,1.21-3.64-.81.13ZM101,110l-.71.12-1.21,6.14.79-.12.33-1.75,1.55-.24.8,1.58,1.47-.2Zm-.67,3.7.33-1.71.76,1.53Zm-28.89.88-1.72,2.57-.37-2.24L68,115.1l.91,5.82,1.38-.21-.37-2.39,1.86,2.15,1.67-.25-2.75-3,1.87-2.81Zm-7.53,1.1a3,3,0,0,0-2.64,3.49,3.15,3.15,0,0,0,6.22-1,3,3,0,0,0-3.58-2.52m.84,5.37h0a1.41,1.41,0,0,1-1.32-.5,3.06,3.06,0,0,1-.7-1.61c-.21-1.35.35-2.47,1.28-2.62a1.51,1.51,0,0,1,1.3.5,3.17,3.17,0,0,1,.73,1.6c.18,1.18-.15,2.46-1.29,2.63M76,113.78a3,3,0,0,0-2.65,3.5,2.94,2.94,0,0,0,3.59,2.53,3.18,3.18,0,0,0,2.15-1.24,3.21,3.21,0,0,0-.7-4.27,3.19,3.19,0,0,0-2.39-.52m.83,5.37c-1.14.18-1.83-.93-2-2.1-.21-1.35.34-2.48,1.3-2.62a1.48,1.48,0,0,1,1.29.49,3,3,0,0,1,.72,1.62c.18,1.16-.14,2.44-1.29,2.61m19.51-8.43-1.22,4.09-2.39-3.52-.78.11.06,5.94.85-.14-.13-3.54,2.15,3.22.41,0L96.4,113l.93,3.5,1.41-.21-1.6-5.7Zm-12.28,4.2-2.21.35L81.5,113l-1.4.22.9,5.82,1.41-.23L82,116.09l2.2-.36.42,2.75,1.41-.22-.91-5.8-1.39.21Z" style="fill: #fff"/>
        <path d="M100.73,112.7l-.11.69.44-.08Zm-12.48,2.61.44-.08-.32-.61Z" style="fill: #002f6e"/>
        <polygon points="50.11 94.71 48.97 99.78 50.19 100.32 51.92 94.94 50.11 94.71" style="fill: #221815"/>
        <g style="mix-blend-mode: multiply">
          <g style="clip-path: url(#clip-path-7)">
            <g style="clip-path: url(#clip-path-8)">
              <path d="M134.29,88.52l-1.91-2-.26-.26L137,81.46a11.18,11.18,0,0,0-.62-1.38c-.07-.15-.16-.29-.24-.43a1.09,1.09,0,0,1-.06-.11,10.24,10.24,0,0,0-2.64-2.91h0c0-.05-.11-.08-.17-.13a5.49,5.49,0,0,0-.54-.35.85.85,0,0,1-.14-.09v0a7.36,7.36,0,0,0-3.63-.92h-.12a7.26,7.26,0,0,0-6.71,4.68,8.06,8.06,0,0,0-.61-.88,9.12,9.12,0,0,0-2.29-2.18v0a7.27,7.27,0,0,0-2.12-1,10.63,10.63,0,0,0-3.17-.36h-6l0,2.07c0,.05.13,4.79.13,10.88,0,.67,0,1.35,0,2-.16-.51-.33-1-.49-1.53C105.46,82.34,104,77.55,104,77.5l-.44-1.43-.65-.65H99.45L99,76.87s-.2.69-.56,1.87l0-.57.1-2.1-.65-.65H81L81,76a7.4,7.4,0,0,0-3.53-.85h-.12a7.39,7.39,0,0,0-2.77.59l-.31-.32H65.57l-.73,2.45-.54-1.8-.64-.65H54.93l1.18,2.8c1.77,4.12,4.36,10.48,4.6,11.67a37.83,37.83,0,0,1,.1,5.54l-2.16-6.58c-2.11-6.51-3.56-11.3-3.57-11.35l-.44-1.43L54,75.42H50.53l-.35,1.2-3.57-7,7.62-3.88L53.45,65,45.6,66.25l-1.19-7.59-.88-.86-1.25,7.93a8.89,8.89,0,0,0-5-1.36H25.5l.13,2.2s.09,1.56.15,3.12a12.28,12.28,0,0,0-3.11,8.06,8.23,8.23,0,0,0,2.73,6.08c.17.19.34.37.53.55,0,3.7-.2,11.2-.43,15.72l-.11,2.13.72.71h7.68a18.46,18.46,0,0,0,6.93-1.19,12.78,12.78,0,0,0,1.6-.83l-.47,1.37.65.65h7.57l1.85-5.57H53l1.32,4.92.65.65H69.33l-.1-2.11c-.07-1.35-.13-2.81-.17-4.16a12.93,12.93,0,0,0,1.16,2.07h0a11.75,11.75,0,0,0,3,3l.15.1a8.3,8.3,0,0,0,4.55,1.28h.17a7.71,7.71,0,0,0,5.45-2.36,8.21,8.21,0,0,0,1.91-3.37c0,1.66-.09,2.78-.1,2.8l-.07,2.08.64.65H99.79l1.5-5.57h.62l1.33,4.92.65.65H116.5l0-2,0-.71c.21.53.34.83.34.83l.5,1.27.65.65h9.49a8.94,8.94,0,0,0,1.94.2h.16a7.63,7.63,0,0,0,5.44-2.36A8.14,8.14,0,0,0,137.22,95a9.54,9.54,0,0,0-2.93-6.45m-97.19-16A4.76,4.76,0,0,1,36,75.28c0-1.12,0-2.32,0-3.43a4.76,4.76,0,0,1,.66.06.56.56,0,0,1,.47.6M36,86a5.92,5.92,0,0,1,1.31,3.2,3.71,3.71,0,0,1-.9,2.76l-.38.32c0-2,0-4.48,0-6.28m58,6.65c0-1,0-1.93,0-2.86,0-2.62,0-4.72,0-6.22,1.1.11,2,.26,2,.26l.85.14c-.41,1.29-.88,2.69-1.36,4.2s-1,3-1.48,4.48M47.08,86.5a15.14,15.14,0,0,0-1.39-3.21,14.49,14.49,0,0,0-2.3-3.08,12,12,0,0,0,2.77-6.74.2.2,0,0,1,0-.07L50,77.24c-.34,1.1-1.42,4.62-2.91,9.26m75,2a7.29,7.29,0,0,0,.6-1.44,14.19,14.19,0,0,0,1.59,2.19c.16.18.44.49.81.87l-1.19,1.14-2,2c-.54-1.13-1-2.07-1.29-2.76a7.34,7.34,0,0,0,1.48-2M69,94.67a29.32,29.32,0,0,1,.11-4.12,47.2,47.2,0,0,1,1.64-4.47,12.58,12.58,0,0,0,2.09,3.22l.79.87-1.17,1.14-3,3Zm16.63-5.48c0,1.31,0,2.72-.08,4.09a10.34,10.34,0,0,0-2.73-4.76c-.33-.37-1.09-1.19-1.92-2a1.48,1.48,0,0,0-.24-.26l1.13-1.11,1-1,1.45-.24,1.39-.2c0,1.44,0,3.27,0,5.52" style="fill: #d2d8dc"/>
            </g>
          </g>
        </g>
        <polygon points="45.53 66.61 53.41 62.61 52.59 61.8 44.48 63.09 43.26 55.26 42.36 54.37 40.96 63.16 31.14 61.6 31.65 62.11 39.91 66.31 35.49 74.97 36 75.47 43.03 68.44 49.54 74.97 50.06 75.47 45.53 66.61" style="fill: #221815"/>
        <path d="M136,86.09c-.34-.4-1.12-1.23-2-2.12-.08-.09-.18-.18-.25-.27l5-4.9a11.22,11.22,0,0,0-.64-1.43l-.24-.44a.54.54,0,0,1-.06-.11,10.93,10.93,0,0,0-2.72-3h0a1.33,1.33,0,0,0-.19-.14,5.21,5.21,0,0,0-.55-.36l-.16-.1h0a7.6,7.6,0,0,0-3.74-.93h-.12a7.37,7.37,0,0,0-5.28,2.25,7.85,7.85,0,0,0-1.65,2.58,7.28,7.28,0,0,0-.62-.91,10.18,10.18,0,0,0-2.37-2.27h0a7.68,7.68,0,0,0-2.2-1,11.33,11.33,0,0,0-3.28-.37h-6.2l.07,2.13c0,.06.13,4.94.13,11.23V88c-.18-.52-.35-1.06-.53-1.58-2.18-6.7-3.67-11.67-3.69-11.72l-.45-1.47-.66-.67h-3.58l-.44,1.48s-.22.72-.6,1.94l0-.58.11-2.17-.66-.67H81l0,.59a7.8,7.8,0,0,0-3.65-.87h-.12a7.81,7.81,0,0,0-2.86.59l-.32-.31h-9l-.76,2.53-.55-1.86-.67-.67h-9l1.23,2.88c1.81,4.26,4.5,10.82,4.75,12.06a42.56,42.56,0,0,1,.09,5.71c-.67-2-1.48-4.46-2.22-6.79-2.21-6.7-3.69-11.67-3.7-11.72l-.45-1.47-.66-.67H49.57l-.44,1.48S47.88,78.21,46,84a16.6,16.6,0,0,0-1.44-3.31,16.4,16.4,0,0,0-2.37-3.16,12.39,12.39,0,0,0,2.85-7A8.31,8.31,0,0,0,43,64.28a4.41,4.41,0,0,0-.49-.47,1.71,1.71,0,0,0-.18-.2,8.46,8.46,0,0,0-6.46-2.46H23.74l.14,2.28S24,65,24,66.63A12.75,12.75,0,0,0,20.82,75a8.49,8.49,0,0,0,2.81,6.28l.55.56c0,3.82-.21,11.55-.44,16.24l-.12,2.19.76.73h7.93a18.74,18.74,0,0,0,7.14-1.23,11.11,11.11,0,0,0,1.64-.85l-.48,1.41.67.67h8.64l1.55-5.75h.64l1.37,5.08.67.67H69l-.11-2.17c-.07-1.41-.13-2.89-.16-4.3a13.45,13.45,0,0,0,1.19,2.14h0A12.35,12.35,0,0,0,73,99.75l.16.11a8.6,8.6,0,0,0,4.7,1.33H78a8,8,0,0,0,7.59-5.93c0,1.71-.09,2.87-.09,2.89l-.08,2.15.66.67h14.31L102,95.22h.63L104,100.3l.65.67h13V98.14c.21.54.33.85.34.86l.52,1.3.66.67H129a9.47,9.47,0,0,0,2,.22h.17a8,8,0,0,0,5.62-2.45,8.36,8.36,0,0,0,2.3-6,9.77,9.77,0,0,0-3-6.65M34.54,68.88a4.14,4.14,0,0,1,.69.07.59.59,0,0,1,.49.6,4.89,4.89,0,0,1-1.2,2.87c0-1.16,0-2.39,0-3.54M35,89.67a4.23,4.23,0,0,1-.4.34c0-2.06,0-4.62,0-6.49a6.17,6.17,0,0,1,1.36,3.3A3.77,3.77,0,0,1,35,89.67M72.24,89,69.09,92l-.41.4a29.83,29.83,0,0,1,.11-4.26c.13-.59.81-2.41,1.67-4.61a12.92,12.92,0,0,0,2.17,3.32c.17.2.47.51.84.91Zm13.59-2.19c0,1.35,0,2.81-.08,4.23a10.53,10.53,0,0,0-2.81-4.92c-.35-.4-1.14-1.23-2-2.12a3.44,3.44,0,0,1-.27-.27l1.18-1.15,1-1,1.5-.24s.61-.1,1.44-.21c0,1.49,0,3.39,0,5.7m10.13-1c-.51,1.56-1,3.15-1.54,4.64,0-1,0-2,0-2.94,0-2.73,0-4.89,0-6.45,1.14.13,2.08.27,2.1.28l.88.15L96,85.76M125.36,89l-2.08,2c-.55-1.17-1-2.13-1.32-2.85a8.22,8.22,0,0,0,1.53-2,7.55,7.55,0,0,0,.62-1.49,14.55,14.55,0,0,0,1.64,2.25l.81.91Z" style="fill: #221815"/>
        <path d="M134.77,86c-.34-.38-1.16-1.26-2-2.1-.27-.3-.55-.6-.82-.86l5.23-5.07c-1.45-3.45-4-4.83-6.7-4.83h-.1a6.64,6.64,0,0,0-4.71,2,7.28,7.28,0,0,0-2,5.3,9.16,9.16,0,0,0,2.65,5.93c.22.26.69.77,1.23,1.36.92,1,2.06,2.25,2.58,2.87a3.17,3.17,0,0,1,.84,1.72,1,1,0,0,1-.2.65.71.71,0,0,1-.49.17c-1.21,0-2-1.88-2.32-3-.26-.91-.51-2.12-.51-2.12l-1.57,1.53-3.14,3c-.23-.5-.48-1-.69-1.48-.83-1.71-1.43-3-1.81-3.85a7,7,0,0,0,1.81-2.19,9.05,9.05,0,0,0,1-4.63,7.51,7.51,0,0,0-1.5-4.32,6.58,6.58,0,0,0-3.53-2.38,10.44,10.44,0,0,0-3.06-.34h-5.35l0,1.3s.14,5,.14,11.25c0,2.54-.06,5.11-.11,7,0,0,0,.07,0,.11s0,.15,0,.23h0a2.91,2.91,0,0,1,0,.3v.27s0,0,0,.07v.15c-.74-2.25-1.73-5.22-2.65-8-2.2-6.73-3.69-11.68-3.7-11.74l-.27-.9h-2.37l-.26.9c0,.06-1.5,5-3.7,11.74-1.4,4.29-2.94,8.91-3.59,10.86-.07-2.15-.22-6.53-.25-10.09,0-3.28,0-5.73,0-7.33,1.52.1,3,.35,3,.35l1.38.23.09-1.39.19-3.94.06-1.33H81.88L82,74.71v.08a6.68,6.68,0,0,0-4.55-1.68h-.1a6.62,6.62,0,0,0-4.71,2,6.75,6.75,0,0,0-1.11,1.51l.63-1.49.74-1.75H65.71l-.26.9-1.34,4.44-1.34-4.44-.26-.9H55.36l.75,1.75c1.76,4.16,4.52,10.84,4.8,12.21a88.14,88.14,0,0,1-.08,10.83l0,.77-.38-1.1c0-.06-2.07-6.22-3.9-11.82-2.2-6.73-3.69-11.68-3.71-11.74l-.27-.9H50.19l-.27.9c0,.06-1.5,5-3.69,11.74-.42,1.28-.86,2.59-1.28,3.86a13.37,13.37,0,0,0,.22-2.36,14.27,14.27,0,0,0-2-7.1,14.74,14.74,0,0,0-2.78-3.51,12,12,0,0,0,3.15-7.07,7.44,7.44,0,0,0-1.84-5.67A7.89,7.89,0,0,0,35.86,62H24.61l.08,1.42s.12,1.81.18,3.53a12.13,12.13,0,0,0-3.24,8A7.72,7.72,0,0,0,25,81.29c0,3.61-.19,11.89-.45,16.78l-.07,1.41h7.16a18,18,0,0,0,6.83-1.16,10.58,10.58,0,0,0,4.77-4c.22-.35.43-.72.63-1.1-.91,2.69-1.55,4.63-1.55,4.67l-.56,1.64h6.86l.25-.91,1.31-4.83h2.38l1.31,4.83.24.91H67.46l-.08-1.31c-.17-3.62-.33-9.5-.06-10.83.22-1.1,2-5.56,3.63-9.43a7.91,7.91,0,0,0-.34,2.5,9.11,9.11,0,0,0,2.65,5.93c.23.26.68.77,1.23,1.37.92,1,2.06,2.24,2.57,2.86a3,3,0,0,1,.84,1.72.92.92,0,0,1-.19.65.69.69,0,0,1-.49.17c-1.25,0-2.07-2.09-2.31-3S74.39,88,74.39,88l-1.58,1.55-3.14,3-.62.59.35.8c1.61,3.73,4.3,5.7,7.8,5.7h.16a7.2,7.2,0,0,0,5-2.2,7.52,7.52,0,0,0,2.06-5.41A9.09,9.09,0,0,0,81.66,86c-.33-.38-1.16-1.26-2-2.1l-.8-.86,1.75-1.72,1.56-1.52,0,.27,1.39-.23s1.49-.25,3-.35c0,1.6,0,4.05,0,7.33-.06,4.88-.3,11.33-.3,11.4l0,1.29H99.13l.25-.91,1.31-4.83h2.38l1.31,4.83.25.91h11.55V98.22l0-2.45V92.29c.1.25.21.49.3.75,1.32,3.14,2.33,5.63,2.33,5.66l.31.78h7.2l-.67-1.31a7.65,7.65,0,0,0,4.72,1.53h.15a7.16,7.16,0,0,0,5.05-2.2,7.53,7.53,0,0,0,2.07-5.41A9.18,9.18,0,0,0,134.77,86M33.06,67.45a6.81,6.81,0,0,1,.78,0c.79,0,2.61.19,2.7,2,.06,1.59-1,3.79-3.53,5.54,0-1.74,0-5,.05-7.48m2.49,22.78a3.91,3.91,0,0,1-2.45,1.19c0-2.42-.05-7.36-.05-9.74l.63-.2.2.16s2.74,2.29,2.84,5.15a4.56,4.56,0,0,1-1.17,3.44m43.2-7.38-.62-.66A1.22,1.22,0,0,0,78,82c-.64-.72-1-1.24-1-1.89a.72.72,0,0,1,.64-.72h0c.67,0,.88.76,1,1.47a17.42,17.42,0,0,1,.11,2m37.37-.33c0-.74,0-1.73,0-2.83.37.14.59.62.59,1.3a1.8,1.8,0,0,1-.6,1.53m15.73.33s-.5-.53-.61-.66a1.22,1.22,0,0,0-.15-.17c-.64-.72-1.05-1.24-1-1.89a.74.74,0,0,1,.64-.72h0c.66,0,.88.76,1,1.47a19.15,19.15,0,0,1,.1,2" style="fill: #c6deeb"/>
        <path d="M134.58,86.13c-.33-.38-1.16-1.25-2-2.09s-1.35-1.42-1.57-1.7l-.16-.15c-.68-.77-1.13-1.33-1.07-2.08a1,1,0,0,1,.9-1h0c.71,0,1,.72,1.16,1.34a14.57,14.57,0,0,1,.17,2l4.81-4.67a6.78,6.78,0,0,0-6.39-4.53h-.1a6.4,6.4,0,0,0-4.53,1.92A7.06,7.06,0,0,0,124,80.41a8.89,8.89,0,0,0,2.59,5.77c.21.25.68.76,1.21,1.34.93,1,2.08,2.27,2.6,2.89a3.29,3.29,0,0,1,.89,1.86,1.1,1.1,0,0,1-.26.83.87.87,0,0,1-.67.26c-1.38,0-2.24-2-2.56-3.14-.27-.93-.43-1.7-.43-1.7l-1.25,1.22L123,92.79l-.23.21c-.3-.6-.59-1.21-.88-1.79-.87-1.84-1.51-3.24-1.86-4a7.05,7.05,0,0,0,1.9-2.22,9,9,0,0,0,1-4.51,7.43,7.43,0,0,0-1.45-4.17A6.25,6.25,0,0,0,118,74a10.14,10.14,0,0,0-3-.34h-5.1l0,1s.14,5,.14,11.26c0,4.16-.16,8.46-.2,9.53-.78-2.32-2-5.95-3.09-9.37-2.19-6.72-3.69-11.69-3.7-11.73l-.22-.72h-2l-.21.72s-1.51,5-3.7,11.73c-1.83,5.61-3.9,11.76-3.91,11.83l-.13.34v-.07c0-.06-.24-6.51-.29-11.39,0-3.51,0-6,0-7.61,1.61.1,3.28.37,3.32.37l1.1.19.05-1.12.19-3.94.06-1H82.14l.06,1,0,.73a6.49,6.49,0,0,0-4.84-2.07h-.1a6.47,6.47,0,0,0-4.55,1.92,7.23,7.23,0,0,0-1.91,5.13,9,9,0,0,0,2.6,5.77l1.21,1.34c.94,1,2.09,2.27,2.59,2.89a3.25,3.25,0,0,1,.9,1.86,1.06,1.06,0,0,1-.27.83.83.83,0,0,1-.66.26c-1.55,0-2.37-2.47-2.56-3.14s-.41-1.71-.41-1.71L73,89.74l-3.14,3.05-.51.48.27.63c1.57,3.63,4.2,5.55,7.59,5.55h.16a6.88,6.88,0,0,0,4.86-2.13,7.15,7.15,0,0,0,2-5.22,8.73,8.73,0,0,0-2.74-6c-.33-.38-1.16-1.25-2-2.09s-1.34-1.42-1.58-1.7l-.15-.15c-.68-.77-1.13-1.33-1.07-2.08a1,1,0,0,1,.9-1h0c.72,0,1.06.78,1.17,1.45a10.72,10.72,0,0,1,.15,2l1.49-1.45,2-1.91v.54l1.11-.19s1.7-.27,3.32-.37c.05,1.59.05,4.1,0,7.61,0,4.88-.28,11.33-.28,11.39l0,1H98.94l.21-.76,1.34-5h2.77l1.35,5,.21.76h11.11v-1l0-2.45V91c.24.57.5,1.21.78,1.9C118,96.08,119,98.58,119,98.6l.24.64h6.62l-.74-1.46s-.15-.27-.36-.69a7.4,7.4,0,0,0,5.56,2.36h.15a6.94,6.94,0,0,0,4.87-2.13,7.2,7.2,0,0,0,2-5.22,8.74,8.74,0,0,0-2.75-6m-18.45-3.35-.27.08c0-.82,0-2,0-3.49l.34.09c.47.17.77.73.77,1.53a1.82,1.82,0,0,1-.86,1.79M56.28,86.09c-2.2-6.72-3.69-11.69-3.71-11.73l-.21-.72h-2l-.21.72s-1.51,5-3.69,11.73c-1.84,5.61-3.91,11.76-3.92,11.83l-.44,1.32h6.32l.2-.76,1.36-5h2.76l1.35,5,.21.76h6.32l-.44-1.32c0-.07-2.09-6.22-3.91-11.83m10.79,1.2c.34-1.55,3.59-9.38,4.83-12.26l.58-1.39H65.89l-.21.72L64.11,79.6l-1.57-5.24-.21-.72H55.75L56.34,75c1.23,2.88,4.49,10.71,4.81,12.26.29,1.36.11,7.26-.06,10.89L61,99.24H67.2l-.06-1.06c-.18-3.63-.34-9.54-.07-10.89m-22.18.23a14.06,14.06,0,0,0-1.93-7A13.58,13.58,0,0,0,40,76.93a11.76,11.76,0,0,0,3.28-7.1,7.11,7.11,0,0,0-1.78-5.46,7.53,7.53,0,0,0-5.66-2.12H24.91L25,63.37s.11,1.9.17,3.65c-2.22,2.64-3.28,5.23-3.22,7.93a7.35,7.35,0,0,0,3.36,6.19c0,3.52-.19,12-.45,17l-.06,1.11h6.86a17.74,17.74,0,0,0,6.72-1.15A10.31,10.31,0,0,0,43,94.13a12.31,12.31,0,0,0,1.88-6.61m-20-12.7a4.8,4.8,0,0,1,.42-2.23c0,1.17,0,2.41,0,3.56a2.75,2.75,0,0,1-.46-1.33m7.94-7.62a6.6,6.6,0,0,1,1.06-.09c.67,0,2.88.17,3,2.27.09,1.76-1.19,4.22-4.09,6.08,0-1.56,0-5.46.06-8.26m3,23.22a4.44,4.44,0,0,1-2.94,1.32c0-2.35,0-7.89,0-10.27a8.47,8.47,0,0,0,1-.32l.31.27s2.85,2.37,3,5.36a4.81,4.81,0,0,1-1.24,3.64" style="fill: #96c5e3"/>
        <path d="M134.33,86.35c-.33-.38-1.15-1.24-1.94-2.09s-1.35-1.42-1.58-1.69c-.06,0-.1-.11-.16-.17a3.17,3.17,0,0,1-1.14-2.31,1.33,1.33,0,0,1,1.2-1.27h.06c.79,0,1.3.69,1.45,1.59a11,11,0,0,1,.15,1.42l4.15-4a6.42,6.42,0,0,0-6-4.11h-.1a6.09,6.09,0,0,0-4.3,1.83,6.76,6.76,0,0,0-1.82,4.89A8.59,8.59,0,0,0,126.8,86c.22.25.69.76,1.23,1.34.92,1,2.08,2.27,2.6,2.9a3.61,3.61,0,0,1,1,2.06,1.36,1.36,0,0,1-.35,1.06,1.18,1.18,0,0,1-.91.37c-1.74,0-2.61-2.48-2.89-3.39-.18-.63-.27-1.14-.27-1.14l-.84.81-3.15,3-.32.32.18.42a9.73,9.73,0,0,0,2.7,3.78,7,7,0,0,0,4.58,1.58h.15a6.55,6.55,0,0,0,4.62-2,6.88,6.88,0,0,0,1.91-5,8.51,8.51,0,0,0-2.67-5.76m-42,.45c0-3.78,0-6.39,0-8a33.36,33.36,0,0,1,3.69.39l.74.13,0-.76.2-3.93,0-.72H82.51l0,.72.08,1.75a6.12,6.12,0,0,0-5.2-2.74h-.1A6.09,6.09,0,0,0,73,75.52a6.81,6.81,0,0,0-1.83,4.89A8.62,8.62,0,0,0,73.7,86c.22.26.68.76,1.22,1.34.92,1,2.08,2.27,2.59,2.9a3.72,3.72,0,0,1,1,2.06,1.4,1.4,0,0,1-.36,1.06,1.2,1.2,0,0,1-.91.37c-1.89,0-2.76-2.94-2.89-3.39a9.93,9.93,0,0,1-.26-1.15l-4,3.87-.34.32.18.42a9.55,9.55,0,0,0,2.71,3.78,7.05,7.05,0,0,0,4.57,1.58h.15a6.55,6.55,0,0,0,4.63-2,6.83,6.83,0,0,0,1.9-5c0-2.79-1.51-4.43-2.66-5.76-.32-.38-1.15-1.24-2-2.09s-1.35-1.42-1.58-1.69a1.15,1.15,0,0,1-.14-.17,3.14,3.14,0,0,1-1.15-2.31,1.34,1.34,0,0,1,1.2-1.27h.06c.93,0,1.35.94,1.48,1.71a8.54,8.54,0,0,1,.11,1.3l1-1,2.48-2.43v.16l0,.76.74-.13a33.36,33.36,0,0,1,3.69-.39c.06,1.56.07,4.17,0,8,0,4.89-.28,11.35-.28,11.41l0,.7h5.72l0-.7c0-.06-.25-6.52-.29-11.41m29.25,4.55c-1-2-1.67-3.55-2-4.29a6.56,6.56,0,0,0,2-2.26,8.67,8.67,0,0,0,.92-4.36,7.13,7.13,0,0,0-1.37-4,6.08,6.08,0,0,0-3.25-2.18A9.86,9.86,0,0,0,115,74l-4.06,0h-.7l0,.69c0,.06.13,5,.13,11.28,0,4.8-.21,9.76-.21,9.81l0,1.55c-.61-1.79-2.21-6.62-3.67-11.09-2.2-6.73-3.69-11.7-3.71-11.75l-.14-.49h-1.49l-.14.49s-1.5,5-3.7,11.75C95.46,91.81,93.39,98,93.37,98l-.3.89H98.7l.13-.49,1.41-5.26h3.29L105,98.42l.12.49h10.52v-.69l0-2.45,0-6.36c.36.84.87,2,1.46,3.4,1.31,3.14,2.29,5.65,2.3,5.67l.17.43h5.85l-.49-1s-1.88-3.7-3.26-6.58m-20.09-3.06.41-1.57.41,1.57Zm14.77-5.2a2.24,2.24,0,0,1-.71.15c0-.84,0-2.39,0-4.22a2.47,2.47,0,0,1,.77.12,1.79,1.79,0,0,1,1,1.85,2.11,2.11,0,0,1-1.06,2.1M66.75,87.22c.31-1.52,3.3-8.72,4.83-12.32L72,74H66.15l-.14.49-1.9,6.3-1.89-6.3L62.09,74H56.25l.4.94c1.52,3.6,4.51,10.8,4.83,12.32s.05,8.44-.06,11l-.05.7h5.48l0-.7c-.16-3.16-.38-9.49-.07-11M56,86.2c-2.19-6.73-3.67-11.7-3.7-11.75L52.11,74h-1.5l-.13.49s-1.51,5-3.7,11.75C44.94,91.81,42.88,98,42.87,98l-.3.89h5.61l.13-.49,1.42-5.26H53l1.41,5.26.14.49h5.61l-.3-.89c0-.06-2.08-6.21-3.92-11.82m-5,2.09.43-1.57.4,1.57Zm-6.41-.77a14.11,14.11,0,0,0-5-10.47L39.51,77a0,0,0,0,0,0,0A11.57,11.57,0,0,0,43,69.81a6.72,6.72,0,0,0-1.68-5.2,7.21,7.21,0,0,0-5.41-2H25.28l0,.74s.12,2,.17,3.8c-2.22,2.6-3.28,5.17-3.23,7.8a7.07,7.07,0,0,0,3.36,6c0,3.41-.18,12.1-.44,17.18l0,.73h6.48a17.41,17.41,0,0,0,6.58-1.11,9.81,9.81,0,0,0,4.48-3.81,11.79,11.79,0,0,0,1.84-6.41m-20-12.67a5.74,5.74,0,0,1,1.12-3.6c0,1.81,0,4,0,5.82a3.24,3.24,0,0,1-1.16-2.22m7.93-7.94a8,8,0,0,1,1.42-.15c1.55,0,3.25.68,3.33,2.6s-1.4,4.76-4.81,6.73c0-.59,0-5.82.06-9.18M36,90.67a4.89,4.89,0,0,1-3.55,1.44c0-2.14,0-8.59,0-10.9a13.13,13.13,0,0,0,1.38-.46l.48.39c.12.1,3,2.49,3.07,5.63A5.29,5.29,0,0,1,36,90.67" style="fill: #eaf6fd"/>
        <path d="M66.09,87.08C66.5,85.1,71,74.64,71,74.64H66.64l-2.52,8.44-2.53-8.44H57.26s4.46,10.46,4.87,12.44,0,10.49,0,11.15h4c0-.66-.44-9.24,0-11.15M51.62,74.64h-.49s-1.49,5-3.73,11.77c-1.84,5.67-3.9,11.82-3.9,11.82h4.16l1.56-5.74h4.3l1.56,5.74h4.16s-2.06-6.15-3.92-11.82c-2.22-6.82-3.7-11.77-3.7-11.77M50.1,89l1.28-4.87L52.64,89Zm41.62-10.8a32.71,32.71,0,0,1,4.44.42l.19-3.94H83.21l.19,3.94a32.27,32.27,0,0,1,4.43-.42c.1,1.62.1,4.85.07,8.65,0,5-.29,11.42-.29,11.42h4.32s-.24-6.47-.29-11.42c0-3.8,0-7,.08-8.65m42.1,8.63c-.6-.68-3-3.19-3.52-3.78a4,4,0,0,1-1.45-3,2,2,0,0,1,1.82-1.87,2.24,2.24,0,0,1,2.22,2.23l2.8-2.72A5.62,5.62,0,0,0,125,80.39a8.21,8.21,0,0,0,2.34,5.13c.59.68,3,3.23,3.84,4.26a4.34,4.34,0,0,1,1.13,2.44,1.94,1.94,0,0,1-1.94,2.15c-2.58,0-3.54-3.92-3.54-3.92l-3.14,3.06c1.23,2.84,3.3,5,6.8,4.93a6,6,0,0,0,5.88-6.31,7.84,7.84,0,0,0-2.51-5.34m-15.1,0c1.8-1,3.23-3.1,3.12-6.33a5.7,5.7,0,0,0-4.13-5.53,9.19,9.19,0,0,0-2.71-.29h-4.06c0,.61.14,5.39.14,11.29,0,4.87-.22,9.84-.22,9.84l-.09,2.46h4.15l0-2.45,0-8h.68s.85,1.91,2.06,4.79c1.33,3.19,2.33,5.68,2.33,5.68h4.3s-1.87-3.67-3.27-6.59-2.23-4.84-2.23-4.84m-2.24-3.09a3.19,3.19,0,0,1-1.08.2h-.55s0-2.44,0-5.57h.46a3.35,3.35,0,0,1,1.2.18A2.38,2.38,0,0,1,118,81a2.74,2.74,0,0,1-1.49,2.72m-14.34-9.07h-.51s-1.49,5-3.71,11.77C96.07,92.08,94,98.23,94,98.23h4.18l1.54-5.74H104l1.55,5.74h4.17s-2-6.15-3.91-11.82c-2.23-6.82-3.7-11.77-3.7-11.77M100.61,89l1.27-4.87L103.15,89ZM77.19,83a4.12,4.12,0,0,1-1.46-3,2,2,0,0,1,1.85-1.87,2.22,2.22,0,0,1,2.19,2.23l2.81-2.72a5.62,5.62,0,0,0-10.73,2.72,8.17,8.17,0,0,0,2.35,5.13c.59.68,3,3.23,3.83,4.26a4.13,4.13,0,0,1,1.12,2.44,1.93,1.93,0,0,1-1.93,2.15c-2.58,0-3.54-3.92-3.54-3.92l-3.14,3.06c1.23,2.84,3.31,5,6.8,4.93a6,6,0,0,0,5.88-6.31c0-2.51-1.32-4-2.5-5.34-.59-.68-3-3.19-3.53-3.78m-38-5.41a.07.07,0,0,1,0,0,16,16,0,0,1-4.41,3c.46.38,3.21,2.88,3.33,6.14a6,6,0,0,1-1.53,4.42,6.05,6.05,0,0,1-4.76,1.67s-.06-10.28-.06-12.18C37.41,79.37,42,74.4,42.24,69.77c.21-3.53-1.72-6.47-6.38-6.47H26s.13,2.19.19,4.1c-2.22,2.52-3.29,5-3.24,7.53a6.34,6.34,0,0,0,3.37,5.62c0,3.24-.19,12.37-.46,17.6h5.75A16.91,16.91,0,0,0,38,97.09a10.14,10.14,0,0,0,5.88-9.57,13.54,13.54,0,0,0-4.66-9.92m-12.82.63a3.77,3.77,0,0,1-2.57-3.32c-.21-2.37,1.52-5.07,3.82-6.73a5.85,5.85,0,0,0-1.31,2.27c.05,2.16.07,5.27.06,7.78m4.92-.73a5.46,5.46,0,0,1-2.21.78,11.65,11.65,0,0,0,2.6-2.15s.05-6.26.06-9.77c3.31-.92,6,.29,6.16,3s-2.05,6.16-6.61,8.17" style="fill: #00428e"/>
        <path d="M25.3,76.15a2.75,2.75,0,0,1-.46-1.33,4.8,4.8,0,0,1,.42-2.23c0,1.17,0,2.41,0,3.56" style="fill: #221815"/>
        <path d="M101.47,88.29h.82l-.41-1.57ZM51,88.29h.83l-.4-1.57Zm65.27-8.83-.34-.09c0,1.45,0,2.67,0,3.49l.27-.08A1.82,1.82,0,0,0,117,81c0-.8-.3-1.36-.77-1.53" style="fill: #221815"/>
        <path d="M91.72,78.16a32,32,0,0,1,4.44.43l.19-4H83.21l.19,4a31.54,31.54,0,0,1,4.43-.43c.1,1.62.1,4.85.07,8.65,0,5-.29,11.43-.29,11.43h4.32s-.24-6.48-.29-11.43c0-3.8,0-7,.08-8.65M88,97.85c.06-1.46.24-6.84.28-11,0-4.38,0-7.21-.08-8.67l0-.35h-.34a29,29,0,0,0-4.08.36L83.59,75H96l-.16,3.13a29,29,0,0,0-4.08-.36h-.35l0,.35c-.1,1.46-.12,4.29-.08,8.67,0,4.2.21,9.58.28,11Zm45.82-11.06c-.6-.68-3-3.19-3.52-3.78a4,4,0,0,1-1.45-3,2,2,0,0,1,1.82-1.87h.1a2.25,2.25,0,0,1,2.12,2.23l2.8-2.72a5.64,5.64,0,0,0-5.17-3.31h-.09a5.6,5.6,0,0,0-5.47,6,8.21,8.21,0,0,0,2.34,5.13c.59.68,3,3.23,3.84,4.26a4.34,4.34,0,0,1,1.13,2.44,1.94,1.94,0,0,1-1.94,2.15c-2.58,0-3.54-3.92-3.54-3.92l-3.14,3.06c1.2,2.79,3.26,4.94,6.67,4.94h.13a6,6,0,0,0,5.88-6.31,7.82,7.82,0,0,0-2.51-5.34m.52,9.58a5.46,5.46,0,0,1-3.89,1.7h-.13c-2.77,0-4.86-1.5-6.21-4.47l2.52-2.44c.39,1.16,1.48,3.57,3.7,3.57a2.21,2.21,0,0,0,1.66-.68,2.39,2.39,0,0,0,.64-1.86,4.47,4.47,0,0,0-1.2-2.65c-.54-.66-1.7-1.93-2.64-3-.52-.58-1-1.07-1.21-1.32a7.71,7.71,0,0,1-2.25-4.89,5.8,5.8,0,0,1,1.54-4.14,5,5,0,0,1,3.57-1.5h.08a5.24,5.24,0,0,1,4.72,2.84l-2.13,2.07a2.45,2.45,0,0,0-2.34-1.87h-.11a2.35,2.35,0,0,0-2.19,2.2,4.13,4.13,0,0,0,1.4,3.11l.14.16c.25.28.93,1,1.62,1.72L133.55,87A7.54,7.54,0,0,1,136,92.13a5.86,5.86,0,0,1-1.62,4.24M102.24,84l-.36-1.39L101.51,84l-1.27,4.86-.13.48h3.53l-.11-.48Zm-1.63,5,1.27-4.87L103.15,89ZM77.19,83a4.12,4.12,0,0,1-1.46-3,2,2,0,0,1,1.85-1.87h.08a2.24,2.24,0,0,1,2.11,2.23l2.81-2.72a5.64,5.64,0,0,0-5.17-3.31h-.09a5.61,5.61,0,0,0-5.47,6,8.17,8.17,0,0,0,2.35,5.13c.59.68,3,3.23,3.83,4.26a4.13,4.13,0,0,1,1.12,2.44,1.93,1.93,0,0,1-1.93,2.15c-2.58,0-3.54-3.92-3.54-3.92l-3.14,3.06c1.21,2.79,3.25,4.94,6.66,4.94h.14a6,6,0,0,0,5.88-6.31,7.81,7.81,0,0,0-2.5-5.34c-.59-.68-3-3.19-3.53-3.78m4,13.36a5.47,5.47,0,0,1-3.89,1.7H77.2c-2.77,0-4.86-1.5-6.21-4.47l2.51-2.44c.42,1.16,1.51,3.57,3.72,3.57a2.26,2.26,0,0,0,1.67-.68,2.55,2.55,0,0,0,.64-1.86,4.68,4.68,0,0,0-1.21-2.65c-.54-.66-1.7-1.92-2.63-2.94-.54-.58-1-1.08-1.21-1.33a7.66,7.66,0,0,1-2.25-4.89,5.75,5.75,0,0,1,1.53-4.14,5,5,0,0,1,3.56-1.5h.09a5.21,5.21,0,0,1,4.71,2.84L80,79.65a2.43,2.43,0,0,0-2.33-1.87h-.11A2.35,2.35,0,0,0,75.36,80a4.11,4.11,0,0,0,1.41,3.11c0,.06.1.11.14.16.25.28.9,1,1.61,1.72s1.61,1.71,1.9,2.06a7.46,7.46,0,0,1,2.42,5.09,5.85,5.85,0,0,1-1.61,4.24M51.72,84l-.34-1.39L51,84l-1.27,4.86-.13.48h3.53L53,88.85ZM50.1,89l1.28-4.87L52.64,89Zm1.52-14.32h-.49s-1.49,5-3.73,11.77c-1.84,5.67-3.9,11.83-3.9,11.83h4.16l1.56-5.75h4.3l1.56,5.75h4.16s-2.06-6.16-3.92-11.83c-2.22-6.82-3.7-11.77-3.7-11.77m3.74,23.21L53.88,92.4l-.08-.29H48.93l-.07.29-1.48,5.45H44c.54-1.56,2.23-6.64,3.76-11.33,1.86-5.7,3.21-10.15,3.61-11.41.37,1.26,1.73,5.71,3.59,11.41,1.53,4.69,3.22,9.77,3.74,11.33ZM66.09,87.08C66.5,85.1,71,74.64,71,74.64H66.64l-2.52,8.44-2.53-8.44H57.26s4.46,10.46,4.87,12.44,0,10.49,0,11.16h4c0-.67-.44-9.25,0-11.16M62.48,97.85c.08-1.79.39-9,0-10.84s-3.75-9.84-4.67-12H61.3l2.45,8.16.37,1.21.34-1.21L66.92,75H70.4c-.92,2.15-4.31,10.22-4.67,12s-.07,9,0,10.84Zm39.66-23.21h-.51s-1.49,5-3.71,11.77C96.07,92.08,94,98.24,94,98.24h4.18l1.54-5.75H104l1.55,5.75h4.17s-2-6.16-3.91-11.83c-2.23-6.82-3.7-11.77-3.7-11.77m3.73,23.21-1.49-5.45-.07-.29H99.43l-.07.29-1.47,5.45H94.53c.53-1.56,2.21-6.64,3.75-11.33,1.86-5.7,3.22-10.15,3.6-11.41.39,1.26,1.73,5.71,3.6,11.41,1.53,4.69,3.23,9.77,3.73,11.33ZM39.17,77.6a.07.07,0,0,1,0,0,16,16,0,0,1-4.41,3c.46.38,3.21,2.88,3.33,6.14a6,6,0,0,1-1.53,4.42,5.85,5.85,0,0,1-4.42,1.67h-.34s-.06-10.28-.06-12.18C37.41,79.37,42,74.4,42.24,69.77c.21-3.53-1.72-6.47-6.38-6.47H26s.13,2.19.19,4.1c-2.22,2.52-3.29,5-3.24,7.53a6.34,6.34,0,0,0,3.37,5.62c0,3.24-.19,12.37-.46,17.6h5.75A16.91,16.91,0,0,0,38,97.09a10.14,10.14,0,0,0,5.88-9.57,13.54,13.54,0,0,0-4.66-9.92m-12.82.63v0a3.71,3.71,0,0,1-2.57-3.29c-.21-2.37,1.52-5.07,3.82-6.73a5.85,5.85,0,0,0-1.31,2.27c.05,2.16.07,5.27.06,7.78M37.79,96.67a16.22,16.22,0,0,1-6.15,1H26.36c.26-5.36.42-14.17.44-17.14v-.27l-.24-.13a5.87,5.87,0,0,1-3-4.3,4,4,0,0,0,3.29,2.91s0-5.93-.05-8.25a8.85,8.85,0,0,1,2.88-3.94,15.09,15.09,0,0,0-2.29,1.23A10.65,10.65,0,0,0,24,71.73a13.35,13.35,0,0,1,2.56-4l.11-.14v-.18c0-1.35-.11-2.88-.15-3.63h9.35a6,6,0,0,1,4.57,1.65,5.68,5.68,0,0,1,1.36,4.34,10.44,10.44,0,0,1-3.1,6.42,14.31,14.31,0,0,1-7.08,4.06l-.35.09v.34c0,1.87.06,12.09.06,12.18v.43l.43,0h.36a6.24,6.24,0,0,0,4.75-1.82,6.38,6.38,0,0,0,1.65-4.74,9.69,9.69,0,0,0-3-6,16.48,16.48,0,0,0,3.66-2.5,12.11,12.11,0,0,1,2.46,3.1,12.51,12.51,0,0,1,1.73,6.21,10.71,10.71,0,0,1-1.64,5.79,8.92,8.92,0,0,1-4,3.36m.53-27.36c-.1-2.25-1.85-3.7-4.48-3.7a8,8,0,0,0-2.23.32l-.33.1v.33c0,3.15-.05,8.63-.06,9.62A7.82,7.82,0,0,1,28,78.79a9.7,9.7,0,0,0,3.4-.94c4.93-2.17,7-5.84,6.89-8.54M29.91,78a6,6,0,0,0,1.75-1.77s.05-6.36.06-9.87a8.3,8.3,0,0,1,2.12-.31c2.28,0,3.93,1.21,4,3.28.11,2.64-2.08,6.1-6.63,8.12-.55.23-.74.35-1.34.55m88.81,8.8c1.8-1,3.23-3.11,3.12-6.33a5.69,5.69,0,0,0-4.13-5.53,9.19,9.19,0,0,0-2.71-.29h-4.06c0,.61.14,5.39.14,11.29,0,4.87-.22,9.84-.22,9.84l-.09,2.47h4.15l0-2.46,0-8h.68s.85,1.91,2.06,4.79c1.33,3.19,2.33,5.69,2.33,5.69h4.3s-1.87-3.68-3.27-6.6-2.23-4.84-2.23-4.84m1.46,11c-.29-.69-1.15-2.84-2.25-5.44-1.19-2.87-2.05-4.79-2.06-4.81l-.1-.22h-1.29v.38l0,8,0,2.07h-3.38l.09-2.07s.21-5,.21-9.85c0-5.3-.11-9.63-.14-10.91H115a9.31,9.31,0,0,1,2.61.27h0a5.34,5.34,0,0,1,3.84,5.19c.1,2.73-1,4.9-2.92,6l-.3.17.14.3s.8,1.85,2.24,4.86c1.07,2.23,2.42,4.91,3,6Zm-3.51-19.69a4,4,0,0,0-1.32-.19h-.83v.35c0,3.11,0,5.56,0,5.59v.37h.93a4.34,4.34,0,0,0,1.2-.22A3.11,3.11,0,0,0,118.36,81a2.77,2.77,0,0,0-1.69-2.83m-.19,5.56a3.76,3.76,0,0,1-1.08.2h-.55s0-2.45,0-5.58h.46a3.35,3.35,0,0,1,1.2.18A2.38,2.38,0,0,1,118,81a2.77,2.77,0,0,1-1.49,2.73" style="fill: #0086cd"/>
        <polygon points="42.51 57.35 43.54 63.88 50.07 62.84 44.18 65.84 47.18 71.72 42.51 67.04 37.85 71.72 40.85 65.84 34.97 62.84 41.5 63.88 42.51 57.35" style="fill: #f39700"/>
        <polygon points="41.6 65.59 38.4 63.96 41.95 64.52 42.51 60.97 43.08 64.52 46.63 63.95 43.42 65.59 45.06 68.8 42.52 66.25 39.96 68.8 41.6 65.59" style="fill: #ffe200"/>
      </g>
    </g>
  </g>
</svg>
