<?xml version="1.0" encoding="UTF-8"?>
<svg id="_ロゴ" data-name="ロゴ" xmlns="http://www.w3.org/2000/svg" viewBox="0 0 160 160">
  <path d="m151.71,121.93s-13.45,7.36-17.52,9.68c-5.13,2.92-11.15,4.99-15.51,4.99-1.85,0-3.38-.34-4.64-.9-9.78,5.9-21.24,9.3-33.47,9.3-12.23,0-23.69-3.4-33.47-9.3-1.25.56-2.79.9-4.64.9-4.36,0-10.38-2.07-15.51-4.99-4.07-2.32-17.52-9.68-17.52-9.68l14.21-10.58c-2.72-4.93-4.83-10.25-6.2-15.85-.38.1-.76.2-1.15.32-1.93.56-4.13,1.2-6.51.66-3.44-.77-6.19-3.22-7.36-6.56-1.13-3.22-.58-6.66,1.46-9.23,3.14-3.93,7.1-4.09,9.12-3.85.08-.57.18-1.12.31-1.66-.92-.59-2.79-1.67-4.88-2.22l-3.7-.98,3.65-1.15s2.74-.87,4.95-2.11c-.19-1.45-.3-3.54-.11-5.55-2.71-.66-7.2-3.12-7.2-8.46,0-2.7,1.69-5.11,4.53-6.44,3.61-1.7,7.92-1.25,11.2,1.09.65-.41,1.34-.74,2.06-1.01C34.96,28.46,56.22,15,80.57,15c30.07,0,55.43,20.52,62.82,48.29.82-.63,1.52-1.42,2.01-2.41l.79-1.6,1.08,1.42c.19.25.82.89,1.48,1.12,2.41-1.89,4.31-1.43,5.26-.96,1.73.86,2.78,2.98,2.61,5.27-.16,2.21-1.36,4.09-3.3,5.3,2.28,1.76,3.59,4.15,3.66,4.28l.29.55-.31.54c-.28.49.03,1.06.05,1.08l.4.7-.53.61c-.69.76.2,2.2.21,2.21l1.06,1.65-1.95.07c-6.67.21-9.19,6.99-9.3,7.28l-.76,2.11-1.27-1.97c-.06.04-.12.07-.17.1-1.22,7.4-3.7,14.38-7.2,20.71l14.21,10.58Z" style="fill: #fff; stroke-width: 0px;"/>
  <g>
    <g>
      <g>
        <path d="m80.57,143.26c-34.88,0-63.25-28.38-63.25-63.26s28.37-63.25,63.25-63.25,63.25,28.38,63.25,63.25-28.37,63.26-63.25,63.26Z" style="fill: #fff; stroke-width: 0px;"/>
        <path d="m80.57,139.46c-32.79,0-59.46-26.68-59.46-59.46s26.67-59.46,59.46-59.46,59.46,26.67,59.46,59.46-26.67,59.46-59.46,59.46Zm0-101.2c-23.01,0-41.73,18.72-41.73,41.74,0,5.75,1.17,11.24,3.28,16.23.46,1.08,3.25,2.8,3.79,3.83.58,1.09-.13,2.96.01,3.18,7.5,11.15,20.23,18.49,34.65,18.49,23.01,0,41.73-18.72,41.73-41.74s-18.72-41.74-41.73-41.74Z" style="fill: #000020; stroke-width: 0px;"/>
        <g>
          <path d="m55.96,53.73l-.66-.52h0c-1.11,1.02-1.45,2.26-1.59,3.25-.84.35-1.45.52-2.28,1.48l.44.61c.41-.78,1.36-1.33,2.35-1.62.14-1.41,1.16-2.4,1.75-3.19Z" style="fill: #b0a974; stroke-width: 0px;"/>
          <path d="m56.93,54.49c-.95,1.18-1.5,2.41-1.65,3.39-.84.35-1.85.43-2.68,1.39l.58.68c.63-.69,1.85-1.48,2.76-1.37.14-1.41,1.12-2.62,1.7-3.42l-.72-.68h0Z" style="fill: #b0a974; stroke-width: 0px;"/>
          <path d="m70.93,104.33l-.05.03c-.36.18-.72.34-1.03.49-.3.14-.55.27-.71.36l.29.45c-1.7-.45-3.63-1.15-4.44-1.65l.36,1.06c1.38.65,3.07,1.17,4.38,1.36l-.16-.55.04.06c.06-.05.13-.09.23-.12.29-.09.62-.24,1.03-.41.14-.06.29-.12.44-.19.52-.23,1.07-.49,1.57-.77.04-.02.06-.11.09-.13l-.3-.92c-.32.26-1.02.62-1.73.97Z" style="fill: #b0a974; stroke-width: 0px;"/>
          <path d="m86.84,49.13c.67-1.59.23-2.75.23-2.75.43-.08,1.81-.87,2.26-1.14-.4-.15-.8-.3-1.21-.44-.57.41-1.57.92-1.95,1.03,0,0,.28,1.08-.48,2.81.39.16.77.31,1.16.48Z" style="fill: #b0a974; stroke-width: 0px;"/>
          <path d="m89.52,50.35c.33.16.67.33,1,.5.62-1.83-.02-2.88-.14-2.97.75,0,2.14-.81,2.6-1.09-.36-.17-.72-.33-1.08-.49-.62.4-2.15,1-2.53,1.11.04.08.75,1.36.16,2.95Z" style="fill: #b0a974; stroke-width: 0px;"/>
          <path d="m82.01,47.29c.37.12.74.25,1.11.38.98-1.1,1.05-1.8.94-2.41.4-.07,1.25-.87,1.62-1.23-.37-.11-.75-.21-1.13-.31-.39.51-1.04,1.12-1.43,1.22.09.75-.22,1.48-1.11,2.35Z" style="fill: #b0a974; stroke-width: 0px;"/>
          <path d="m80.96,44.26c.37-.07,1.14-.69,1.53-1.03-.41-.09-.81-.17-1.22-.25-.4.53-.89.88-1.3,1,0,0,.02.55-.44,1.02-.37.38-.85.75-1.33,1.17.45.12.91.25,1.36.38,1.08-.67,1.39-2.27,1.39-2.27Z" style="fill: #b0a974; stroke-width: 0px;"/>
          <path d="m92.95,52.14c.37.21.74.42,1.11.63.6-1.82.13-2.94.13-2.94.43-.08,2.16-.77,2.73-1-.37-.21-.74-.42-1.12-.63-1.1.54-2.25.93-2.68,1.05.46.53.55,1.47-.17,2.89Z" style="fill: #b0a974; stroke-width: 0px;"/>
          <path d="m96.94,54.57c.32.21.64.43.96.64.59-1.89-.13-3.25-.13-3.25.89-.12,2.21-.71,2.65-.91-.35-.24-.71-.48-1.07-.72-.68.34-2.06.95-2.48,1.07.28.95.43,1.93.08,3.17Z" style="fill: #b0a974; stroke-width: 0px;"/>
          <path d="m108.57,64.39c.32.35.65.7.96,1.05.8-1.69.33-3.58.33-3.58.44-.02,1.13-.29,1.54-.47-.22-.28-.45-.56-.68-.84-.44.23-1.12.44-1.66.5,0,0,.2,1.88-.5,3.33Z" style="fill: #b0a974; stroke-width: 0px;"/>
          <path d="m46.33,42.27c.15.2.2.37.13.52.11-.03.22,0,.34.08.05.03.1.08.15.13l.33.39s.07.08.11.13c.32.38.73.5,1.2.36.2-.06.4-.17.62-.33.29-.25.51-.55.63-.91.02-.1.05-.2.06-.3.02-.07.07-.16.16-.27-.16-.01-.32-.11-.47-.29l-.48-.56c-.13-.11-.18-.31-.17-.61-.13.02-.24.07-.32.14-.08.07-.12.15-.13.25-.12.02-.22.07-.31.14-.05.04-.09.09-.12.13-.05.1-.09.16-.11.18-.04.03-.12.07-.24.11.14.11.24.18.29.21.02.09.05.15.1.21.06.07.13.11.21.11,0-.07.03-.12.06-.15.06-.05.16,0,.29.17.14.18.22.31.24.41.02.12-.03.23-.15.33l-.02.02c-.15.13-.28.17-.4.14-.09-.02-.2-.11-.33-.26l-.31-.37c-.15-.2-.2-.37-.14-.51-.11.02-.22,0-.34-.09-.05-.03-.1-.08-.15-.13l-.32-.37c-.13-.15-.19-.27-.21-.37-.01-.13.06-.25.2-.38l.02-.02c.08-.07.18-.1.29-.1.11,0,.21.06.29.16.1.12.16.28.18.48.08,0,.18-.03.29-.13.15-.13.21-.27.18-.41.11-.01.19-.05.26-.11.08-.07.12-.15.12-.26-.15,0-.29-.1-.43-.3-.16-.15-.31-.26-.48-.31-.39-.15-.79-.05-1.18.29-.05.04-.1.09-.15.13-.19.19-.32.38-.41.57-.2.47-.11.92.26,1.35l.33.39Z" style="fill: #b0a974; stroke-width: 0px;"/>
          <path d="m50.69,38.71c.04.06.06.12.09.18.04.14.04.26-.02.35.16-.03.32.06.47.26l.3.45c.32.48.75.67,1.27.59.22-.04.45-.13.69-.27.21-.17.38-.36.49-.55.26-.46.24-.92-.06-1.39l-.3-.44c-.04-.06-.06-.12-.09-.18-.04-.14-.04-.26.02-.35-.16.02-.32-.06-.47-.26l-.29-.43c-.31-.46-.73-.65-1.26-.57-.22.03-.45.12-.7.26-.22.18-.38.36-.5.55-.27.46-.25.92.07,1.38l.29.43Zm.62-1.68c.11-.07.23-.09.36-.07.13.03.25.12.35.26l.27.4c.04.06.06.12.09.18.05.14.04.26-.02.36.16-.03.32.06.47.26l.27.4c.1.15.14.29.11.42-.02.13-.09.24-.2.31-.1.07-.22.09-.35.07-.13-.03-.25-.11-.35-.26l-.27-.4c-.04-.06-.06-.12-.09-.18-.05-.14-.04-.26.02-.35-.16.03-.32-.06-.47-.26l-.27-.4c-.1-.14-.13-.28-.11-.42.02-.13.09-.24.19-.31Z" style="fill: #b0a974; stroke-width: 0px;"/>
          <path d="m58.25,32.8c.24.53.26,1.16.07,1.88.05.07.11.17.16.28.29.63.29,1.32.01,2.07.2.02.37,0,.51-.07.12-.05.2-.13.24-.24.21,0,.37-.04.5-.1.12-.05.18-.12.18-.21-.17-.15-.3-.32-.39-.51-.11-.23-.13-.45-.07-.66.06-.21.19-.36.39-.45.2-.09.39-.09.59,0,.2.09.35.25.46.49.09.19.13.4.13.63.07.05.16.06.27,0,.13-.06.26-.16.4-.31.11.04.22.03.34-.03.14-.06.27-.18.39-.34-.75-.29-1.27-.74-1.56-1.37-.05-.12-.09-.22-.11-.31-.68-.33-1.13-.76-1.37-1.29-.08-.19-.12-.34-.1-.47-.14-.05-.27-.04-.4.01-.12.05-.21.16-.26.31-.15-.06-.29-.06-.41,0-.12.05-.21.15-.26.29.11.07.2.19.29.38Zm.99.67c.26.18.44.4.56.65-.1,0-.19.01-.24.04-.06.03-.12.08-.19.16-.11-.25-.16-.53-.13-.85Z" style="fill: #b0a974; stroke-width: 0px;"/>
          <path d="m63.5,31.38c.14.44.17.8.08,1.07.22.16.4.46.55.9.14.42.18.82.13,1.2.14.06.27.07.4.03.13-.04.23-.14.32-.28.25.05.47.05.68-.02.1-.03.21-.08.32-.15.09-.06.18-.12.28-.18.07-.04.14-.07.22-.1.18-.06.32-.06.43,0-.05-.21-.13-.33-.25-.36,0-.1-.01-.21-.04-.31-.07-.2-.2-.35-.4-.43-.02.15-.08.29-.19.42-.11.13-.22.22-.35.26-.25.08-.43-.02-.53-.31-.17-.48-.2-.85-.11-1.13-.22-.16-.4-.45-.54-.89-.14-.42-.18-.82-.13-1.2-.14-.06-.27-.07-.4-.03-.13.04-.24.14-.32.28-.16-.07-.3-.09-.42-.04-.13.04-.23.13-.31.26l.16.19c.19.23.33.51.44.83Z" style="fill: #b0a974; stroke-width: 0px;"/>
          <path d="m68.35,29.94c.1.45.09.81-.03,1.07.2.18.36.49.45.95.09.43.1.83.01,1.21.13.08.26.1.4.07.13-.03.25-.11.34-.25.24.08.47.09.68.05.1-.02.22-.06.34-.12.1-.05.2-.11.29-.16.07-.03.14-.05.23-.07.18-.04.32-.03.43.04-.03-.21-.1-.34-.22-.39.01-.1,0-.21-.01-.31-.05-.21-.16-.37-.36-.47-.03.15-.11.28-.23.4-.12.12-.24.19-.37.22-.26.06-.42-.06-.5-.36-.12-.49-.12-.87,0-1.14-.2-.18-.35-.49-.45-.94-.09-.43-.1-.83-.02-1.21-.13-.08-.27-.1-.4-.07-.13.03-.25.11-.34.25-.15-.09-.29-.11-.42-.09-.13.03-.25.11-.33.23l.14.21c.16.25.28.54.35.87Z" style="fill: #b0a974; stroke-width: 0px;"/>
          <path d="m75.11,28.52c0,.13.06.24.15.32.35-.21.65-.33.89-.34.14,0,.25.02.32.07.05.51-.01.88-.17,1.13.18.2.28.54.31,1.01.03.45-.02.85-.16,1.21.12.09.25.14.39.13.14,0,.27-.08.38-.2.13.11.27.16.4.15.14,0,.26-.07.37-.18-.18-.34-.29-.73-.32-1.18-.03-.47.03-.82.17-1.04-.19-.23-.3-.61-.32-1.13.07-.05.16-.07.28-.08.24-.02.55.06.93.22.08-.09.11-.2.1-.33,0-.14-.06-.28-.15-.43.07-.08.11-.19.1-.32,0-.12-.05-.23-.14-.33-.24.14-.53.21-.85.24-.29.02-.58-.02-.88-.12-.28.14-.57.22-.86.24-.32.02-.61-.02-.87-.12-.07.11-.1.23-.1.35,0,.13.05.23.14.3-.07.16-.1.31-.09.44Z" style="fill: #b0a974; stroke-width: 0px;"/>
          <path d="m81.29,29.99l-.02.54c-.03.57.2.99.67,1.23.2.1.43.16.71.19.28-.01.52-.06.72-.14.49-.21.75-.59.78-1.15l.02-.54c0-.07.02-.13.04-.19.05-.14.12-.23.23-.27-.15-.08-.22-.24-.22-.49l.02-.51c.03-.55-.2-.96-.67-1.21-.2-.1-.43-.17-.71-.21-.28.01-.52.06-.73.14-.49.21-.75.59-.77,1.15l-.02.51c0,.07-.02.13-.04.19-.05.14-.12.23-.23.27.15.08.22.24.22.49Zm.99.05c0-.07.02-.14.04-.19.05-.14.12-.23.23-.27-.15-.08-.22-.24-.22-.49l.02-.48c0-.17.06-.31.16-.4.1-.09.21-.14.34-.13.13,0,.24.06.33.16.09.1.13.24.12.41l-.02.48c0,.07-.02.14-.04.19-.05.14-.12.23-.23.27.15.08.22.24.22.49l-.02.48c0,.18-.06.31-.16.4-.1.09-.21.13-.34.13-.13,0-.23-.06-.32-.16-.09-.1-.13-.24-.12-.42l.02-.48Z" style="fill: #b0a974; stroke-width: 0px;"/>
          <path d="m86.77,30.39l-.08.51c0,.05-.02.11-.03.16-.08.49.09.88.51,1.15.18.11.39.19.65.25.38.06.75.03,1.1-.11.09-.05.18-.09.27-.14.06-.03.17-.05.31-.05-.1-.13-.12-.31-.09-.55l.11-.73c0-.17.12-.34.35-.53-.1-.08-.21-.13-.32-.15-.1-.02-.2,0-.28.06-.09-.07-.19-.12-.31-.14-.07-.01-.13-.01-.18,0-.11.03-.18.04-.21.03-.05,0-.13-.04-.24-.11,0,.18.02.3.03.36-.05.07-.08.14-.09.21-.01.09,0,.17.05.23.06-.04.11-.06.15-.05.08.01.1.12.06.33-.04.22-.09.37-.15.45-.07.09-.19.13-.35.1h-.03c-.19-.03-.31-.11-.37-.22-.04-.09-.05-.23-.02-.42l.08-.48c.05-.24.15-.39.3-.44-.09-.07-.14-.17-.16-.31,0-.06,0-.13,0-.2l.07-.48c.03-.19.08-.32.15-.4.09-.09.23-.12.42-.09h.03c.11.02.2.08.26.16.07.09.09.2.07.33-.02.15-.11.3-.25.45.05.07.14.11.28.13.19.03.34-.01.43-.14.08.07.17.12.26.13.1.02.19-.01.28-.08-.09-.11-.11-.28-.05-.52.01-.22-.01-.41-.07-.57-.15-.39-.48-.63-.99-.71-.06,0-.13-.02-.19-.02-.26-.02-.5,0-.7.06-.48.16-.77.51-.86,1.07l-.08.51c-.05.24-.15.39-.31.44.09.06.14.17.16.31,0,.06,0,.13,0,.2Z" style="fill: #b0a974; stroke-width: 0px;"/>
          <path d="m91.87,33.21c.14.04.29.02.46-.06.18.18.36.29.56.34.1.03.21.04.34.04.11,0,.21,0,.32,0,.11,0,.21.02.31.05.16.04.28.1.36.18.07-.2.08-.32,0-.38.06-.08.11-.17.13-.28.05-.2.02-.38-.11-.54-.07.1-.19.17-.36.21-.17.04-.34.04-.49,0-.31-.08-.42-.27-.34-.57l.09-.33c.04-.16.12-.27.24-.33.11-.05.24-.06.38-.03.23.06.41.21.55.45.04-.05.06-.1.08-.17.03-.13.02-.25-.05-.37.12-.07.2-.17.23-.29.02-.06.02-.13.01-.19-.24.14-.47.17-.7.11-.14-.04-.25-.11-.32-.22-.07-.11-.09-.24-.04-.4l.09-.33c.08-.3.27-.4.58-.32.16.04.3.12.43.25.13.12.2.24.21.36.19-.08.31-.21.37-.42.03-.1.03-.2.02-.31.09-.01.15-.12.18-.33-.11.03-.25.02-.4-.02-.1-.03-.2-.07-.29-.12-.09-.05-.18-.1-.28-.16-.11-.06-.22-.11-.31-.13-.19-.05-.41-.04-.65.02-.1-.15-.23-.24-.37-.28-.14-.04-.27-.02-.41.05.07.37.04.77-.07,1.2-.12.45-.28.75-.5.92.1.25.09.6-.03,1.04-.11.43-.29.78-.54,1.07.08.13.19.21.33.25Z" style="fill: #b0a974; stroke-width: 0px;"/>
          <path d="m97.24,34.7c.07.14.17.23.3.28.13.05.27.04.43-.02.07.16.17.26.3.31.13.05.26.05.41,0-.02-.39.05-.79.21-1.2.17-.44.37-.73.6-.87-.08-.29-.01-.68.19-1.16.08-.01.18,0,.29.04.22.09.47.29.75.59.11-.05.19-.14.23-.26.05-.13.06-.28.04-.45.1-.04.18-.13.22-.25.04-.11.05-.24.01-.36-.28.02-.57-.03-.87-.15-.27-.11-.52-.27-.75-.48-.31,0-.6-.04-.88-.15-.3-.12-.55-.28-.74-.48-.11.07-.19.16-.23.28-.05.12-.05.23,0,.34-.13.11-.22.23-.27.36-.05.12-.05.24,0,.35.41-.04.73-.02.95.07.14.05.22.12.26.2-.17.48-.38.8-.63.95.07.26.02.61-.15,1.05-.16.42-.38.76-.66,1.03Z" style="fill: #b0a974; stroke-width: 0px;"/>
          <path d="m101.69,36.76c.12.06.26.07.42.03.06.16.15.27.27.34.12.06.25.07.4.04-.05-.17,0-.42.13-.75.04-.09.15-.31.34-.66.11-.21.25-.3.42-.28.07.02.12.04.16.06.05.02.09.06.14.1.12.13.12.3.01.51-.19.35-.31.57-.36.65-.19.3-.38.47-.55.53.05.14.13.25.26.31.12.06.26.07.42.03.06.16.15.27.26.33.12.06.26.08.41.04.02-.38.13-.77.34-1.16.22-.41.45-.67.69-.79-.04-.27.05-.61.26-1.02.21-.39.46-.71.77-.94-.05-.14-.14-.25-.26-.31-.12-.06-.26-.07-.42-.03-.05-.16-.14-.27-.26-.33-.12-.07-.26-.08-.4-.04.05.17,0,.42-.13.75-.04.09-.15.31-.34.66-.11.2-.25.3-.43.27-.06-.01-.12-.03-.16-.06-.04-.02-.09-.05-.14-.1-.11-.13-.12-.3,0-.5.19-.35.3-.57.36-.65.19-.3.38-.47.55-.53-.05-.14-.14-.25-.26-.31-.12-.06-.27-.08-.43-.03-.05-.16-.14-.27-.26-.33-.12-.06-.25-.07-.4-.04-.02.38-.13.77-.34,1.16-.22.41-.45.68-.69.79.04.27-.05.61-.26,1.02-.21.39-.46.71-.77.94.05.14.14.25.26.31Z" style="fill: #b0a974; stroke-width: 0px;"/>
          <path d="m106.38,39.38c.12.08.27.11.45.1.11.23.25.39.41.51.08.05.18.1.31.15.1.03.2.06.3.1.1.04.19.09.28.15.13.09.23.19.28.29.13-.16.18-.28.13-.35.09-.06.16-.13.22-.22.12-.17.14-.36.07-.55-.1.07-.23.1-.41.09-.18-.02-.33-.07-.47-.16-.26-.18-.31-.39-.14-.65l.19-.28c.09-.13.2-.21.34-.24.12-.02.25.02.37.1.2.13.32.33.37.6.05-.03.09-.08.13-.13.07-.11.1-.23.07-.37.14-.03.24-.09.31-.2.04-.05.06-.11.07-.17-.27.05-.5.01-.7-.12-.12-.08-.2-.18-.23-.31-.03-.13,0-.26.09-.39l.19-.28c.17-.26.39-.29.65-.12.13.09.24.21.32.37.08.16.11.29.08.41.21,0,.37-.1.48-.27.06-.09.1-.18.12-.28.09.01.18-.07.28-.26-.12-.01-.24-.06-.37-.15-.09-.06-.17-.13-.24-.2-.07-.08-.14-.16-.21-.24-.09-.1-.17-.17-.25-.23-.17-.11-.38-.18-.63-.19-.05-.17-.14-.3-.26-.38-.12-.08-.25-.11-.4-.09-.06.38-.21.75-.46,1.11-.26.38-.51.62-.77.71.01.27-.11.6-.37.98-.25.37-.53.65-.86.84.04.15.12.26.23.34Z" style="fill: #b0a974; stroke-width: 0px;"/>
          <path d="m110.16,41.77c.02.15.09.27.19.36.11.09.26.14.44.14.03.17.1.31.21.4.11.09.24.14.38.13-.03-.34.16-.74.55-1.2.16-.19.31-.3.46-.33.13-.03.24,0,.34.08.1.08.15.19.17.32.02.14-.01.25-.09.34-.06.07-.13.11-.23.14-.02.3-.09.52-.2.65-.09.11-.24.19-.44.24.06.38.21.68.47.89.17.14.37.25.61.31-.02-.21.02-.44.11-.67.06-.15.15-.31.27-.49.09-.14.14-.21.13-.22-.08-.15-.06-.29.06-.43.04-.05.06-.1.07-.16.03-.14,0-.29-.07-.45.28.08.5.04.66-.12.05-.05.1-.1.15-.13.12-.08.24-.11.34-.08-.06-.15-.02-.32.14-.52.16-.19.18-.45.07-.76-.11-.3-.31-.57-.6-.81-.25-.21-.52-.36-.81-.43-.03-.18-.1-.31-.21-.41-.11-.09-.24-.13-.39-.13-.1.36-.29.71-.57,1.04-.3.35-.57.56-.83.62-.02.26-.17.57-.47.92-.28.33-.59.58-.94.74Zm2.93-1.54c.13-.16.28-.25.43-.27.13-.02.24.02.34.11.08.07.13.15.15.25.02.1,0,.18-.06.25-.06.07-.16.12-.3.14,0,.14-.02.24-.08.32-.06.07-.14.11-.24.1-.1,0-.19-.04-.27-.11-.1-.09-.16-.19-.16-.32,0-.15.06-.3.19-.46Z" style="fill: #b0a974; stroke-width: 0px;"/>
          <path d="m136.07,111.63c3.78-6.6,6.4-13.94,7.62-21.73.64-.29,1.13-.68,1.46-1.01l.72,1.11s3.1-8.33,10.88-7.89c0,0-5.01-2.65-.26-3.76,0,0-4.19-1.15-.47-2.13,0,0-1.89-3.49-5.01-4.95,8.01-2.6,4.15-13.63-1.93-8.27-1.5-.09-2.69-1.9-2.69-1.9-.63,1.8-2.06,3.04-3.7,3.88-6.77-28.01-32.04-48.89-62.11-48.89-24.09,0-45.11,13.41-56,33.15-1,.33-1.95.81-2.8,1.45-5.77-4.79-14.58-1.67-14.58,3.99,0,6.21,6.72,7.46,6.72,7.46l-.16-2.02c.31.18.69.35,1.12.47-.83,2.63-.65,6.65-.28,8.66-2.44,1.53-6.67,2.6-6.67,2.6,3,.38,6.71,2.82,6.71,2.82-.32,1.11-.52,2.24-.6,3.45,0,0-5.35-1.63-9.24,3.24-3.89,4.87-1.18,12.57,5.27,14.01,2.95.66,5.65-.73,8.19-1.22,1.41,6.21,3.73,12.08,6.8,17.47l-13.6,10.15s12.58,6.89,16.06,8.86c5.05,2.86,10.7,4.83,14.93,4.83,1.93,0,3.47-.41,4.66-1.06,9.73,6,21.19,9.47,33.44,9.47,12.25,0,23.71-3.47,33.44-9.47,1.2.65,2.74,1.06,4.66,1.06,4.23,0,9.88-1.98,14.93-4.83,3.49-1.97,16.06-8.86,16.06-8.86l-13.6-10.15Zm-3.7-32.89l5.84-4.09c.74.76,1.56,1.44,2.46,2.01.02.39.04.78.05,1.17-.79.33-1.49.79-2.09,1.35-3.26.09-6.27-.44-6.27-.44Zm4.64,2.67c-.51,1.03-.79,2.15-.82,3.24l-2.89.19c.93-1.25,2.32-2.56,3.7-3.42Zm-56.43-61.6c28.46,0,52.37,19.86,58.61,46.44-.07.02-.13.03-.2.05-4.51-4.19-9.34-4.56-9.34-4.56-.62,2.69-3.69,4.02-6.42,4.68-1.82-1.46-3.39-2.46-5.29-3.26-6.44-14.23-20.77-24.15-37.37-24.15s-29.8,9.16-36.58,22.5c-.65-.61-1.19-1.39-1.28-2.12-.71-5.87-7.26-10.35-13.54-10.69,10.58-17.31,29.66-28.89,51.4-28.89Zm-7.66,25.18c.37-.45,1.11-1.2,1.95-1.84.87-.13,1.76-.23,2.65-.3-.23.15-.47.27-.71.33-.14.59-.76,1.3-2.01,2.18.43.09.85.18,1.28.28,1.36-.86,1.63-1.75,1.8-2.18.37-.06.92-.46,1.23-.71.49-.02.97-.04,1.47-.04,14.1,0,26.4,7.87,32.74,19.44-.78,2.58-3.93,3.81-6.62,4.39v-3.79c-.01-.1,0-.19,0-.28.14.13.27.26.41.4.31-.87.35-1.74.32-2.4.56-.68,1.23-.88,1.23-.88-.12-.14-.24-.27-.36-.4.37-.12.72-.26.95-.36-.26-.29-.53-.58-.8-.87-.24.18-.55.34-.89.45-.72-.72-1.45-1.35-2.15-1.89l1.21-.41c-.28-.26-.56-.53-.84-.78-.3.21-.78.41-1.22.57-1.06-.74-2.02-1.27-2.77-1.64.53-.24,1.29-.68,1.69-.91-.31-.25-.61-.49-.93-.73-.61.42-1.64.91-2.19,1.03-.13-.05-.2-.07-.2-.07,0,0-1.45,4.5-4.4,5.5,0,0,2.07.79,2.07,3.3v3.42c-1.77-1.43-4.61-3.09-8.92-3.97-.3,1.31-1.19,2.3-2.34,3.03l-4.4-.33c3.86-3.78,2.16-9.12-.52-13.1,0,0-.85,3.17-1.68,4.26-3-2.43-7.17-1.25-8.36,2.87-1.19-4.12-5.36-5.3-8.36-2.87l-1.68-4.26c-1.09,1.61-1.99,3.43-2.45,5.26l-.41-.48h0c-.96,1.08-1.16,2.11-1.62,3.66l.11.12c-.84.34-2.13.16-2.95,1.11l.5.9c.63-.7,2.32-1.22,3.22-1.11l-.17-.22c.11-1.06.62-2.15,1.11-2.96-.19,1.18-.17,2.35.12,3.46-.1.24-.19.47-.27.7l.19.27c-1.1.22-1.97.19-2.7.62-.45-.21-.94-.44-1.16-.54-.51,1.1-.98,2.85-1.89,3.59-2-1.59-3.61-2.44-5.55-3.34,1.33-2.48,2.93-4.81,4.76-6.92.12-.07.23-.13.34-.18,0-.09.03-.17.04-.26,5.25-5.85,12.3-10.04,20.29-11.67-.55.46-.99.94-1.37,1.33.4.06.8.13,1.19.2Zm38.69,41.24l-6.23.4,1.64-2.85c1.15.87,2.66,1.76,4.58,2.45Zm-8.47.54l-6.33.41c.5-.87,1.21-2.09,1.95-3.38.74,1.15,2.07,2.19,4.38,2.97Zm-21.55-7.46c-.26.12-1.49.66-1.89.84l.76-5.18c1.46.77,1.08,2.16,1.13,4.34Zm-1-5.2l.67-4.59c.14.36.27.83.31,1.28.11,2-.05,2.79-.98,3.31Zm10.37,13.07c.27-.47.81-1.4,1.08-1.87.84.73,2.79,1.5,4.39,1.88l-17.93,1.15,1.18-8.07c1.05,2.25,3.52,5.54,11.28,6.91Zm-22.6,15.18c-.52-.23-1.26-.55-2.02-.88,1.71-.53,3.43-1.02,5.14-1.48-.35.22-1.02.54-1.67.89-.02.01-.04.02-.06.03-.37.2-.73.4-1.02.6-.29.2-.51.4-.59.58l.21.26Zm-23.73-32.3c.12.21.19.42.18.64v1.97c-.01.69-.53,1.16-1.06,1.45.22-1.38.52-2.74.88-4.06Zm.19,9.24s-.13.06-.25.11c-.26-.31-.43-.61-.44-.88-.09-1.36-.35-2.6-.76-3.7,1.89.76,1.36,2.08,1.45,4.48Zm-.85,4.53c.07-.39.31-.76.63-1.1,2.4,2.47,5.02,3.63,9.59,4.46.3-.52.78-1.35,1.08-1.87,1.33,1,3.02,1.55,4.71,1.96.64-1.1,1.4-2.43,2.18-3.77.68.16,1.41.38,1.95.57l.48,3.25c-.93-.36-2.35-.85-3.68-.99l.22,1.13c.67-.02,2.58.59,3.63,1.01l.11.74-18.06,1.16c-1.07-.66-3.03-2.05-3.03-3.29,0-1.14.06-2.39.21-3.26Zm15.33-21.2l.07.1c.02-.13.06-.25.09-.37.36.77.88,1.5,1.58,2.17l-1.45.11c-.73-.51-1.44-.95-2.1-1.28.71-.28,1.52-.43,2.03-.37l-.23-.35Zm2.36,7.14c.06-.03.18-.08.32-.14l.66,4.49c-1.41-.81-.9-2.13-.98-4.34Zm0,6.71c0-.72.56-1.19,1.11-1.49l.55,3.77h-1.71l.05-2.28Zm1.98,4.46l.3,2.03c-.39-.12-.81-.26-1.24-.39.32-.55.64-1.11.95-1.64Zm6.19,7.96l1.78-16.06,1.76,15.84-3.54.23Zm-4.86,13.03c1.21.46,3.04,1.09,3.87,1.35,0-.01-.12-.32-.18-.54l.02.03c.03-.09.07-.16.16-.21.25-.13.56-.31.99-.54.13-.07.28-.14.43-.22.46-.23,1-.49,1.59-.78.02-.01,0-.15.03-.16l-.24-.9c2.52-.67,5-1.26,7.32-1.81,8.01-1.9,23.43-4.35,36.95-6.25-4.98,14.74-18.94,25.39-35.34,25.39-10.2,0-19.45-4.12-26.19-10.78,3.13-1.85,6.79-3.34,10.59-4.6Zm51.21-16c.29-.42.74-.9,1.41-1.38-.05.44-.11.87-.17,1.3l-1.24.08Zm5.29-3.05c.19-.05.39-.1.6-.14.87.85,2.04,1.78,3.53,2.59l-4.41.28c.12-.9.22-1.81.28-2.73Zm-89.93-18.05c.08,1.13-.22,2.1-.85,2.74-.83.83-2.45,1.38-4.03,1.38-.95,0-.95-.39-.95-.7v-9c-.24-2.27,3.29-2.53,4.51-1.18.76.77,1.03,1.88,1.1,2.51.11,1.02-2.37,2.08-2.37,2.08,1.93.96,2.55,1.78,2.59,2.16Zm-5.84,11c0-.54.47-1.03.98-1.03,3.63,0,4.95,1.1,5.05,4.32.05,1.05-2.46,2.04-2.46,2.04,1.93.96,2.53,1.59,2.51,2-.18,2.29-2.35,4.25-4.08,4.25-1.34,0-2.01-.79-2.01-2.36,0-.98.01-8.32.01-9.22Zm54.88,64.37c-28.09,0-51.77-19.43-58.38-45.5,1.44.85,2.7,2.12,3.54,3.45,1.01,1.61,1.75,4.36,1.75,4.36,0,0,.49-2.31,2.46-5.02,1.18-1.62,3.23-3.24,4.09-3.76,3.26,1.15,7.17,2.98,10.46,5.71,1.74,3.21,3.89,6.17,6.39,8.8.07.18.13.36.19.54.06-.05.13-.1.19-.14,7.45,7.62,17.83,12.36,29.31,12.36,18.67,0,34.46-12.54,39.39-29.65,7.7-1.04,14.4-1.85,18.21-2.19.49.37,1.07.67,1.75.88-4.79,28.43-29.58,50.16-59.36,50.16Z" style="fill: #b0a974; stroke-width: 0px;"/>
        </g>
      </g>
      <path d="m154.56,78.36s-3.59-.98-.43-2.65c-2.57-3.22-6.57-4.17-7.58-4.43-.64-.17-.89-.21-.89-1.7,3.38,1.53,8.56-.29,8.4-4.24-.11-2.3-2.46-3.11-4.15-1.04.32-.11,1.26-.37,1.54.24.45,1.17-4.23-.24-4.82-1.43-1.51,3.82-7.14,4.46-8.25,4.39-2.57-2.14-4.81-3.17-7.85-3.94-.7,2.25-4.95,4.24-8.12,4.16-2.68-2.29-4.97-3.37-8.11-4.16-.71,2.29-5.09,4.3-8.27,4.15,1.02,1.05,1.46.53,1.59,2.92,0,0-.04,2.69-.04,2.69,0,.4-.68.84-1.23,1.06-.53-.19-1.15-.56-1.15-1.05l-.04-12.62c0-.84,1.47-1.26,1.47-1.26-1.72-1.86-5.7-3.83-5.7-3.83-.94,2.8-3.14,3.64-3.14,3.64,0,0,1.56,1.1,1.56,2.78l-.04,11.3c0,.5-.63.87-1.17,1.06-.55-.19-1.21-.58-1.21-1.07l-.04-3.95c0-.28.08-.75,1.47-1.26-3.8-3.61-8.57-4.56-8.57-4.56-1.82,4.07-8.27,4.15-8.27,4.15,0,0,1.5.65,1.54,2.73s.02,2.84.02,2.84c0,.7-1.37,1.23-1.81,1.24,0,0,1.8.23,1.8,1.2l.04,3.96c-.18.98-.81.87-1.33,1.19,0,0,1.83,3.26,8.4,4.58l1.54-2.66s.96,1.82,4.29,2.69l3.01-5.21c-1.02.05-2.16.08-2.12-1.38,0,0,.04-3.14.04-3.14,0-.59.66-.91,1.18-1.08.52.17,1.19.5,1.19,1.08.44,3.72-1.84,7.68,4.96,9.72l2.38-4.13c1.77,2.12,4.56,3.46,8.07,4.11.7-2.21,4.97-4.24,8.11-4.12l-.87-.87c-.73-.27-.56-3.78-.53-4.72,0-.58.67-.91,1.18-1.08.52.17,1.18.5,1.18,1.08l.04,3.92c-.18.98-.81.87-1.33,1.19,1.74,2.4,4.68,3.89,8.44,4.59,1.58-3.98,6.78-5.44,6.78-5.44-7.73,1.25-8.04-1.29-8.04-1.29l7.92-5.55v-3.82c.18-1.01.91-.91,1.47-1.26.35.36.69.87.71,1.55.05,1.46.31,2.36-1.27,3.03,1.66,2.35,5.1,3.97,7.63,4.49.41.08.6.2.7.33,0,0-.28.38-1.55.82,0,0,1.77.41,1.72,1.29-3.56-2.52-9.61.56-9.35,5.11-.2,3.9,5.61,6.01,7.02,1.64-5.58,2.48-2.3-5.32,1.1.68,0,0,2.63-6.01,8.61-5.65-3.41-2.47.16-3.06.16-3.06Zm-63.47,1.8c-1.9-.33-2.17-1.08-2.17-1.79v-10.63c1.32.45,2.17,1.79,2.17,2.97v9.45Zm16.07.32l.11-.19c-1.24.09-2.17-.06-2.12-1.43,0,0,.04-3.08.04-3.08,0-.58.67-.91,1.18-1.08.52.17,1.18.5,1.18,1.08l.04,3.92c-.08.42-.24.64-.44.78Zm8.42-.32c-1.9-.33-2.17-1.08-2.17-1.79v-9.45c1.9.33,2.17,1.08,2.17,1.79v9.45Zm8.22-6.82c0,.39-.65.81-1.19,1.04-.54-.23-1.19-.64-1.19-1.04l-.04-3.95c.17-.95.84-.92,1.38-1.2.66.5.96.52,1.07,2.46,0,0-.04,2.69-.04,2.69Zm8.01,1.62l-2.17,1.52v-7.58c1.67.16,2.17.21,2.17,1.81v4.24Zm-89.35,8.63c.15-.91,1.18-1.94,2.78-2.42,1.76,2.22,4.57,3.62,8.18,4.3.07-.13,1.42-2.46,1.54-2.66.89,1.41,2.68,2.28,4.29,2.69.5-.87,2.53-4.38,3.01-5.21-1.29.06-2.07,0-2.17-1.35l.05-3.2c0-.94,1.78-1.2,1.78-1.2-.44-.02-1.79-.5-1.79-1.24v-3.91c0-.6.65-.89.67-.9l.81-.36c-1.82-1.58-3.94-3.08-5.71-3.84-.55,1.54-1.42,2.75-2.77,3.43-1.78-1.5-3.58-2.7-5.21-3.42-.64,1.74-1.65,2.91-3.14,3.64,2,1.57,1.51,3.19,1.55,5.37,0,.73-1.34,1.22-1.79,1.24,0,0,1.78.26,1.78,1.2l.04,3.96c0,.59-.64.89-.67.9l-.66.29s0,0,0,.01c-.79-.38-2.38-1.25-2.42-2.07-.18-3.72-1.74-6.38-4.42-7.59,1.13-.87,2.8-2.74,3.07-6.36.12-1.61,2.85-2.27,2.85-2.27,0,0-2.79-1.06-2.84-2.16-.17-8.46-13.73-13.63-19.53-7.69-.92-.97-3.22-2.97-6.5-2.97-3.42-.07-6.62,2.36-6.53,5.44.17,3.57,2.63,4.27,3.52,4.74,0-.63-.44-2.04.78-2.14.23,0,.39.13.72.41.6.65,2.16,1.31,3.25.93-.61,1.5-1.08,3.6-1.14,5.1-.11,2.57.26,4.73.4,5.42-.3.4-.66,1.46-4.17,2.17,2.73.43,4.34,2.39,4.34,2.39-1.05,3.39-1.07,4.95-.58,9.11-.72-.29-1.44-.1-2.63.23-1.85.51-2.36-.36-2.11-1.23.15-1.21,2.65-1.89,3.94-2.37-4.94-1.98-10.44,1.28-10.46,6.73,0,4.04,3.29,7.33,7.33,7.33,2.68.04,5.43-1.51,7.98-1.56,3.01,0,6.67,3.27,7.64,6.54,3.14-6.57,9.4-9.24,16.59-9.35-2.57-1.29-1.81-4.12-1.62-6.08Zm10.71-15.27c.69.61,1.16,1.54,1.15,2.39v9.44c-1.9-.34-2.17-1.08-2.17-1.78l-.02-8.98c.13-.86.67-.85,1.04-1.07Zm-21.87-11.31c1.26,1.27,1.57,3.14,1.56,3.94-.02.36-.82,1.37-2.52,1.67,0,0,2.43.59,2.7,1.85.19,1.69-.27,3.17-1.27,4.18-1.44,1.61-7.48,3.37-7.59-.39,0,0,0-9,0-9-.23-3.66,4.94-4.59,7.13-2.25Zm-3.59,31.94c-2.18,0-3.54-1.49-3.54-3.89,0-1.46,0-3.46,0-5.3.14-2.81-.85-6.14,2.51-6.49,4.61,0,6.58,1.87,6.58,6.25,0,.44-.9,1.29-2.6,1.59,0,0,2.6.57,2.66,1.74,0,3.37-3.07,6.09-5.62,6.09Zm49.17,1.04s2.4-18.16,2.7-20.26c.29-2.1,2.23-3.02,3.7-3.78-2.28-.13-2.73-.14-5.98-.51,0,0,0,0,0,0h0c-1.83-.23-2.57-.99-2.57-2.61,0-.28.13-.47.18-.49.35,0,.56.19.96.59.57.56,1.35,1.33,3.07,1.33,2.43,0,3.94-2.05,3.94-5.34.07-1.08-.68-3.35-1.02-4.6-.23.95-.72,3.58-1.29,4.05-3.93-4.6-7.85-2.15-7.99,3.61.03,1.51.09,3.19-.97,3.57-1.05-.38-.99-2.05-.97-3.57-.14-5.77-4.06-8.2-7.99-3.61-.57-.48-1.06-3.1-1.29-4.05-.35,1.25-1.09,3.51-1.02,4.6,0,3.29,1.51,5.34,3.94,5.34,1.72,0,2.5-.77,3.07-1.33.4-.4.61-.59.98-.59.04.02.16.2.17.49,0,1.62-.75,2.38-2.57,2.6-3.25.37-3.7.38-5.98.51,1.47.76,3.41,1.68,3.7,3.78,1.08,7.67,2.78,20.93,2.78,20.93l-30.94,1.99s11.25,2.69,16.16,13.66c0,0,5.92-5.03,27.47-9.61,15.67-3.33,52.27-8.38,57.95-8.88l-1.15-1.62-59.04,3.79Zm-8.58.55s2.11-20.58,2.18-21.41c.08-.9.65-1.39,1.13-1.72.48.33,1.04.83,1.13,1.72.49,4.82,2.14,20.99,2.14,20.99l-6.57.42Z" style="fill: #fff; stroke-width: 0px;"/>
      <path d="m46.86,73.3v-2.59c.01-.92-.42-1.94-1.19-2.68,1.23-.73,1.94-1.69,2.51-3,1.23.58,2.93,1.73,4.4,2.95,0,0-1,.43-1,1.41l.02,8.98c0,1.56,1.29,2.19,3.29,2.42,0-.09-.02-.17-.02-.26v-9.81c0-.92-.44-1.94-1.21-2.68,1.23-.73,1.97-1.69,2.51-3,1.23.58,2.93,1.73,4.4,2.95,0,0-1,.43-1,1.41v3.92c.01.7.6,1.21,1.33,1.23-.71.03-1.3.48-1.33,1.17v3.15c0,1.18.59,1.98,1.72,1.98l-2.32,4.02c-.81-.23-1.24-.45-2.01-.9-.95-.55-1.66-1.32-1.95-2.36l-1.88,3.26c-3.15-.65-5.69-1.89-7.24-3.76,0,0,1-.42,1-1.41l-.04-3.99c-.06-.64-.62-1.14-1.33-1.17.73-.03,1.32-.56,1.34-1.23Zm36.07-5.11c2.91-.16,6.42-2.25,7.18-3.97,2.93.82,4.57,1.54,7.24,3.76,0,0-1,.43-1,1.41l.04,3.92c.02.67.6,1.21,1.34,1.23-.71.03-1.28.53-1.33,1.17l-.04,3.21c.02,1.14.6,1.92,1.71,1.92l-2.32,4.02c-.81-.23-1.24-.45-2.01-.9-.95-.55-1.66-1.32-1.95-2.36l-1.88,3.26c-3.15-.65-5.69-1.89-7.24-3.76,0,0,1-.42,1-1.41l-.04-3.99c-.06-.64-.62-1.14-1.33-1.17.73-.03,1.32-.56,1.34-1.23l.04-2.65c.04-1.8-.74-2.46-.74-2.46Zm5.44,10.18c0,1.56,1.25,2.2,3.27,2.42v-10.08c0-1.56-1.25-3.43-3.27-3.65v11.31Zm10.15-3.83c.71.03,1.28.53,1.33,1.17,0,0,.04,4.6.04,4.82,0,1.6.83,2.7,2.09,3.43.78.45,1.2.67,2.01.9l2.32-4.02c-1.13,0-1.72-.8-1.72-1.98l.04-3.15c.06-.64.62-1.14,1.33-1.17-.73-.03-1.32-.56-1.34-1.23l-.04-12.59c0-.98,1-1.41,1-1.41-1.46-1.22-3.17-2.37-4.4-2.95-.54,1.24-1.28,2.28-2.51,3,.77.73,1.21,1.76,1.21,2.68l-.04,11.26c-.02.67-.6,1.21-1.34,1.23Zm9.59-1.23l.04-2.65c.04-1.8-.74-2.46-.74-2.46,2.91-.16,6.42-2.25,7.18-3.97,2.93.82,4.57,1.54,7.24,3.76,0,0-1,.43-1,1.41l.04,3.92c.02.67.6,1.21,1.34,1.23-.71.03-1.28.53-1.33,1.17l-.04,2.72c-.04,1.56.53,2.26.73,2.46-2.92.16-6.42,2.25-7.18,3.97-3.15-.65-5.69-1.89-7.24-3.76,0,0,1-.42,1-1.41l-.04-3.99c-.06-.64-.62-1.14-1.33-1.17.73-.03,1.32-.56,1.34-1.23Zm4.74,5.06c0,1.56,1.25,2.2,3.27,2.42v-10.08c0-1.56-1.25-2.2-3.27-2.42v10.08Zm17.97-14.15c2.93.82,4.58,1.54,7.24,3.76,0,0-1,.43-1,1.41v3.53s-7.97,5.58-7.97,5.58c.09,1.48,1.7,2.2,3.26,2.29.98.06,2.18-.06,2.97-.15-2.16.76-4.16,2.97-4.7,4.21-3.15-.65-5.69-1.89-7.24-3.76,0,0,1-.42,1-1.41l-.04-3.99c-.06-.64-.62-1.14-1.33-1.17.73-.03,1.32-.56,1.34-1.23l.04-2.65c.04-1.8-.74-2.46-.74-2.46,2.91-.16,6.42-2.25,7.18-3.97Zm-1.74,4.07v9.24l3.27-2.29v-4.53c0-2.34-1.25-2.2-3.27-2.42Zm24.54,10.07c-.73-.03-1.32-.56-1.34-1.23,0-.98,1-1.56,1-1.56-1.54-1.87-4.6-3.28-6.86-3.75-1.3-.27-1.33-1-1.33-2.1v-1.01c1.02.58,2.21.85,3.51.85,2.83,0,4.88-1.88,4.88-4.22,0-1.02-.64-1.69-1.62-1.69-.24,0-.48.1-.68.27.03,0,.07-.02.1-.02.44,0,.74.28.74.77s-.63.82-1.14.82c-1.5,0-3.01-.55-4.08-1.47-.75,1.72-4.26,3.8-7.18,3.97.72.94.75,1.73.75,3.16s-.99,1.77-.99,1.77c1.54,1.87,4.6,3.28,6.86,3.75.74.15,1.07.46,1.21.9-.2.45-.67.78-1.24.8.71.03,1.28.53,1.33,1.17l.03,1.43c-.35-.5-1.41-1.66-3.72-1.66-3.17,0-5.66,2.5-5.66,5.45,0,2.06,1.46,3.51,3.39,3.51,1.62,0,2.32-1.13,2.32-1.13,0,0-.53.28-1.37.28-.75,0-1.37-.77-1.37-1.52,0-.98.75-1.7,1.79-1.7,1.61,0,2.79,1.82,2.79,1.82,1.66-2.89,4.09-4.8,7.29-5.04,0,0-1.87-2.17.58-2.61Zm-110.81,10.93c-6.59,0-12.31,3.11-15.26,8.46-1.24-3.02-4.88-5.82-7.71-5.82-2.47,0-5.22,1.56-7.98,1.56-3.74,0-6.78-3.03-6.78-6.78s3.03-6.78,6.78-6.78c.53,0,1.05.07,1.55.18-2.57.39-3.52,2.58-2.69,3.5.77.85,1.86.82,3.13.3.98-.4,2.3-.08,2.72.64-.37-1.8-.51-3.04-.51-5.14s.32-3.67.92-5.25c-1.34-2.22-3.82-2.29-3.82-2.29,0,0,2.34.07,3.62-2.1,0,0-.56-2.48-.43-5.51.09-2.3,1.14-5.72,1.95-6.36-.88.58-1.81.95-2.77.72-1.62-.39-1.72-1.75-3.09-1.27-.98.34-.87,1.7-.87,1.7,0,0-2.35-1.08-2.35-3.84,0-2.61,2.2-4.45,4.97-4.83,4.62-.62,7.53,3.2,7.53,3.2,0,0,1.85-2.84,6.99-2.84,6.07,0,11.78,4.53,11.98,9.71.07,1.81,2.38,2.14,2.38,2.14,0,0-2.25.38-2.38,2.23-.37,5.15-3.77,6.52-3.77,6.52,3.1.88,4.93,3.49,5.12,7.5.1,2.1,2.4,2.24,2.4,2.24,0,0-2.22.5-2.54,2.39-.2,1.14-.25,2.55-.24,3.63.01.78.32,1.73,1.14,2.17Zm-19.2-21.03c.11,4.38,6.74,2.73,8.53.78,1.83-1.8,2.38-6.25-.6-6.43,0,0,1.84-.33,1.85-1.65.02-1.64-1.03-5.77-5.39-5.77-2.54,0-4.39,1.46-4.39,4.08s0,7.24,0,9Zm10.25,14.59c0-1.27-1.99-1.75-1.99-1.75,0,0,1.93-.23,1.93-1.58,0-4.99-2.49-6.8-7.13-6.8-1.6,0-3.06,1.36-3.06,3.11,0,1.97-.01,6.52-.01,9.22s1.58,4.44,4.09,4.44c2.9,0,6.17-3.06,6.17-6.64Zm101.8,3.94l.41.58c-16.27,2.01-25.56,3.3-46.63,6.8-29.17,4.84-37.55,11.24-37.55,11.24,0,0-3.34-8.22-13.51-12.37l28.65-1.84c-.86-6.44-2.79-21.19-2.9-22.12-.2-1.71-2.49-2.75-2.49-2.75,0,0,2.77-.13,4.35-.35,1.94-.24,3.05-1.12,3.06-3.15,0-.54-.3-1.03-.72-1.03-1.43,0-1.44,1.91-4.04,1.91-2.09,0-3.39-1.74-3.39-4.79,0-.74.19-1.62.42-2.4,0,0,.55,2.41,1.32,2.41.88,0,1.62-2.41,4.17-2.41s3.3,3.5,3.3,5.45c0,1.76-.18,3.58,1.51,4.16,1.69-.57,1.52-2.39,1.51-4.16,0-1.95.85-5.45,3.3-5.45s3.29,2.41,4.17,2.41c.77,0,1.32-2.41,1.32-2.41.22.78.42,1.65.42,2.4,0,3.06-1.3,4.79-3.39,4.79-2.6,0-2.62-1.91-4.04-1.91-.41,0-.71.5-.72,1.03,0,2.03,1.11,2.91,3.06,3.15h0c1.58.22,4.35.35,4.35.35,0,0-2.28,1.04-2.49,2.75-.11.93-2.82,21.53-2.82,21.53l59.4-3.81Zm-60.23,3.87s-2.08-20.68-2.15-21.58c-.12-1.37-1.14-1.99-1.68-2.33-.53.35-1.56.96-1.68,2.33-.08.92-2.2,22.08-2.2,22.08l7.71-.49Z" style="fill: #000020; stroke-width: 0px;"/>
    </g>
    <path d="m143.68,121.34s-8.83,4.81-11.74,6.51c-4.32,2.53-9.5,4.44-13.21,4.38-1.12-.02-2.12-.17-2.91-.54-1.13-.53-1.79-1.5-2.02-2.58s-.7-4.09-.7-4.09c-10.1,2.37-21.6,3.73-32.52,3.73s-22.43-1.36-32.52-3.72c-.16.97-.47,3.02-.7,4.09s-.9,2.05-2.02,2.58c-.8.37-1.79.52-2.91.54-3.71.06-8.89-1.85-13.21-4.38-2.91-1.7-11.74-6.51-11.74-6.51l10.51-7.88,1.59-10.3,2.56.97c1.01.38,2.11.86,3.29,1.44.63-1.27,1.08-2.19,1.19-2.43,1.28-2.71,3.99-3.52,8.06-2.37,6.01,1.68,21.54,5.58,35.9,5.58s29.89-3.91,35.9-5.58c4.07-1.14,6.78-.34,8.06,2.37.11.24.57,1.16,1.2,2.43,1.18-.58,2.28-1.06,3.29-1.44l2.56-.97,1.59,10.3,10.51,7.88Z" style="fill: #000020; stroke-width: 0px;"/>
    <path d="m139.56,121s-5.72,3.14-8.75,4.95c-6.71,4.02-14.4,5.3-14.88,2.48-1.18-6.94,16.57-3.74,13.84-9.42,0,0-.86-1.46-3.28-.47-11.11,4.55-28.56,7.99-45.92,7.99-17.36,0-34.8-3.44-45.92-7.99-2.42-.99-3.28.47-3.28.47-2.72,5.68,15.02,2.49,13.84,9.42-.48,2.82-8.16,1.54-14.88-2.48-3.03-1.81-8.75-4.95-8.75-4.95l8.45-6.36,1.31-8.44c1.41.53,3.08,1.31,5.06,2.36,1.13-2.28,2.04-4.12,2.21-4.49.73-1.55,2.24-2.08,5.46-1.18,10.1,2.82,24.03,5.66,36.5,5.66s26.4-2.84,36.5-5.66c3.22-.9,4.73-.36,5.46,1.18.17.36,1.08,2.2,2.21,4.49,1.98-1.06,3.65-1.83,5.06-2.36l1.31,8.44,8.45,6.36Z" style="fill: #b0a974; stroke-width: 0px;"/>
    <g>
      <path d="m43.61,114.53c-.27.04-.58.03-.92-.04-.33-.12-.6-.27-.81-.45-.49-.44-.64-1.01-.43-1.69l.19-.64c.08-.3.03-.52-.12-.66.13-.02.25-.11.36-.26.04-.06.08-.14.11-.22l.18-.62c.2-.67.63-1.05,1.29-1.16.27-.04.58-.03.93.05.33.13.59.29.8.47.49.45.64,1.01.44,1.67l-.18.62c-.07.3-.03.52.12.66-.14.02-.25.11-.36.26-.04.06-.08.14-.11.22l-.19.64c-.21.66-.64,1.05-1.29,1.15Zm.35-2.14c.08-.3.03-.52-.12-.66.14-.02.26-.11.36-.26.04-.07.08-.14.11-.22l.17-.58c.06-.21.05-.39-.02-.54s-.19-.25-.35-.3c-.15-.04-.3-.03-.45.06-.15.09-.25.23-.32.44l-.17.58c-.08.3-.04.52.12.66-.14.02-.26.11-.36.26-.04.06-.08.14-.11.22l-.17.58c-.06.21-.06.39.02.54.08.15.19.25.34.29.16.05.31.03.46-.05.15-.08.25-.23.32-.44l.17-.58Z" style="fill: #000020; stroke-width: 0px;"/>
      <path d="m50.8,116.62c-.41-.1-.75-.34-1.03-.73.2-.17.32-.34.36-.52.05-.21,0-.49-.15-.84.1-.08.16-.18.18-.28.03-.15,0-.29-.1-.43s-.22-.23-.38-.26c-.16-.04-.3,0-.43.1-.15.12-.26.33-.33.63-.18.74-.15,1.29.06,1.65-.16.09-.33.11-.5.07-.18-.04-.33-.15-.46-.33-.2.1-.39.13-.57.09-.17-.04-.31-.14-.42-.29.29-.37.5-.82.63-1.35.13-.56.13-.99,0-1.29.25-.22.45-.61.58-1.16.13-.53.14-1.03.05-1.48.16-.09.33-.12.5-.08.18.04.33.15.47.33.36-.08.75-.07,1.15.02.46.11.83.3,1.12.57.3.29.41.58.35.89s-.02.53.14.66c-.13.03-.24.12-.33.28-.04.07-.07.14-.09.23-.09.27-.31.44-.67.51.18.13.29.29.34.46.02.08.02.15,0,.22-.06.22,0,.39.17.51,0,0,0,.11-.02.32-.03.27-.04.5-.02.7.03.31.12.58.26.81-.31.06-.59.06-.86,0Zm-.19-4.63c.03-.11,0-.21-.08-.31s-.18-.16-.31-.2c-.16-.04-.31-.01-.44.08-.16.11-.27.29-.33.54-.06.25-.04.46.05.63.08.14.2.23.36.27.13.03.25.02.36-.03.11-.05.18-.14.21-.25.03-.12,0-.25-.09-.4.15-.1.23-.2.26-.32Z" style="fill: #000020; stroke-width: 0px;"/>
      <path d="m54.87,117.25c-.18.11-.35.15-.52.12-.16-.03-.3-.12-.42-.28.28-.39.47-.85.58-1.4.11-.57.09-1.01-.06-1.31.25-.23.43-.63.54-1.2.1-.55.1-1.05-.02-1.51.16-.1.33-.13.49-.1.17.03.32.13.44.3.18-.11.36-.15.53-.12.16.03.3.12.42.28-.28.39-.47.86-.58,1.4-.11.57-.09,1.01.06,1.31-.25.23-.43.63-.54,1.2-.1.55-.1,1.05.02,1.51-.16.1-.33.13-.49.1-.17-.03-.32-.13-.45-.3Z" style="fill: #000020; stroke-width: 0px;"/>
      <path d="m61.97,113.36c.02-.12,0-.28-.05-.47.09-.13.21-.19.35-.17s.29.11.45.27c.13-.12.27-.16.41-.14.16.02.31.12.45.29-.12.05-.25.16-.39.35-.17.23-.28.47-.32.72-.01.07-.01.13-.01.2-.33.17-.57.33-.73.51-.1.11-.22.31-.36.58.01.42.16.81.45,1.17.12.15.26.29.41.43-.03.13-.06.25-.07.35-.03.21-.02.39.04.56.06.15.18.35.37.61-.13.1-.3.13-.52.1-.19-.03-.36-.11-.52-.26-.25.08-.43.12-.55.1-.13-.02-.3-.1-.51-.24.16-.2.25-.39.28-.58.03-.17,0-.37-.08-.6-.02-.07-.13-.31-.31-.72-.29.34-.46.54-.51.6-.14.19-.22.38-.25.55-.03.18,0,.39.09.63-.13.1-.28.14-.44.11-.16-.02-.32-.11-.49-.25-.14.1-.3.13-.46.11-.17-.03-.33-.11-.48-.24.18-.07.35-.21.52-.41.17-.2.27-.41.3-.63.02-.11.01-.22-.02-.32.56-.23,1-.67,1.33-1.3-.08-.38-.24-.72-.48-1.01-.1-.12-.2-.23-.33-.32.02-.11.04-.2.05-.28.04-.27.03-.48-.02-.64-.03-.09-.13-.26-.31-.49.18-.13.36-.18.55-.15.16.02.3.11.42.26.17-.09.34-.13.5-.11.17.02.3.11.41.27-.11.17-.17.31-.18.44-.03.23.08.6.35,1.11.41-.41.63-.73.67-.96Z" style="fill: #000020; stroke-width: 0px;"/>
      <path d="m72.61,117.89c-.12.05-.21.16-.28.34-.03.07-.04.15-.06.25v.1c-.09.33-.3.59-.64.76-.34.17-.73.25-1.17.21-.41-.03-.79-.15-1.14-.35-.18.13-.36.19-.54.17-.18-.01-.34-.09-.46-.22.23-.41.36-.89.4-1.44.04-.57-.02-1-.2-1.28.22-.26.35-.67.39-1.24.04-.55-.02-1.04-.19-1.48.15-.12.31-.17.49-.16.18.01.35.1.51.25.35-.14.73-.19,1.14-.16.47.03.88.17,1.21.4.34.23.5.5.48.82-.02.31.06.52.23.62-.12.05-.21.17-.28.34-.02.07-.04.15-.05.24-.04.28-.24.48-.59.61.21.12.36.25.45.4.03.06.05.12.05.19,0,.32.07.52.24.62Zm-2.47.5c.1.15.24.23.41.24.14.01.26-.03.37-.11.11-.08.17-.19.18-.32.01-.14-.04-.29-.15-.45.13-.14.2-.28.21-.41s-.03-.25-.13-.35c-.1-.1-.21-.15-.35-.16-.17-.01-.32.04-.44.17-.14.15-.23.38-.25.68-.02.3.03.54.15.71Zm1.15-3.25c0-.12-.03-.22-.13-.3s-.21-.13-.34-.14c-.16-.01-.3.04-.43.15-.14.13-.22.32-.24.58-.02.27.03.47.15.62.1.13.24.19.4.21.13.01.25-.02.36-.09.11-.07.16-.16.17-.28,0-.12-.04-.25-.15-.39.13-.11.19-.23.2-.35Z" style="fill: #000020; stroke-width: 0px;"/>
      <path d="m77.7,119.66c-.25.12-.56.19-.91.21-.35-.03-.65-.11-.9-.23-.6-.3-.9-.81-.88-1.54l.02-.67c0-.31-.1-.52-.29-.61.13-.06.22-.18.27-.35.02-.07.04-.16.04-.25l.02-.64c0-.61-.12-1.09-.35-1.46.18-.13.37-.2.56-.19.17,0,.32.07.45.2.16-.12.33-.18.5-.18.16,0,.31.07.45.19-.23.41-.35.91-.36,1.5l-.02.61c0,.32.1.52.29.62-.13.06-.22.17-.28.35-.03.07-.04.16-.04.25v.61c-.02.22.04.4.16.53.11.12.25.18.41.18.16,0,.3-.05.42-.16.13-.13.19-.3.2-.52l.02-.61c0-.32-.1-.52-.29-.61.13-.06.22-.18.28-.36.02-.07.04-.16.04-.25v-.61c.03-.59-.07-1.09-.27-1.51.14-.12.29-.17.46-.17.17,0,.33.07.48.2.11-.13.24-.19.4-.18.17,0,.34.08.51.22-.14.24-.25.55-.31.93-.03.16-.05.33-.06.51l-.02.64c0,.31.11.52.29.62-.13.06-.22.17-.27.35-.03.07-.04.16-.05.25l-.02.67c-.03.7-.35,1.19-.96,1.47Z" style="fill: #000020; stroke-width: 0px;"/>
      <path d="m82.28,119.69c-.15.15-.31.22-.48.23-.17,0-.33-.06-.47-.18.19-.44.28-.93.27-1.48-.01-.58-.13-1-.33-1.26.19-.28.29-.7.27-1.29-.01-.55-.13-1.04-.34-1.47.14-.13.3-.2.48-.2.18,0,.36.06.54.2.27-.16.53-.25.78-.26.12,0,.26.02.42.06.13.03.26.06.39.09.13.03.26.04.39.03.21,0,.37-.04.5-.12.03.26,0,.41-.11.46.05.12.08.25.08.38,0,.26-.09.47-.29.63-.06-.14-.18-.27-.38-.37-.2-.11-.4-.16-.59-.15-.4.01-.59.21-.58.6v.43c.01.2.08.36.2.46.12.11.28.16.46.15.3,0,.57-.13.8-.38.03.07.05.15.05.24,0,.16-.05.3-.17.43.13.12.19.26.19.42,0,.08-.01.16-.04.23-.27-.25-.55-.38-.85-.37-.4,0-.6.24-.59.68.01.49.02.8.04.92.05.44.16.73.32.89-.14.13-.29.2-.46.2-.17,0-.34-.06-.49-.2Z" style="fill: #000020; stroke-width: 0px;"/>
      <path d="m88.09,119.46c-.15.15-.3.24-.47.25-.17.01-.33-.04-.48-.16.17-.45.24-.94.2-1.49-.04-.58-.17-.99-.39-1.25.18-.28.25-.72.21-1.3-.04-.55-.17-1.04-.4-1.45.13-.14.29-.21.47-.22.18-.01.36.05.55.18.26-.18.52-.27.77-.29.12,0,.26,0,.42.04.13.03.26.05.39.07.13.02.26.03.39.02.21-.01.37-.06.49-.14.04.26.01.41-.09.46.06.12.09.25.1.38.02.26-.07.47-.26.64-.06-.14-.2-.26-.4-.35-.2-.1-.4-.14-.6-.12-.4.03-.58.24-.56.62l.03.43c.01.2.09.35.21.45.13.1.28.14.46.13.3-.02.56-.16.79-.42.03.07.05.15.06.23.01.16-.04.3-.16.44.13.11.2.25.21.41,0,.08,0,.16-.03.23-.28-.24-.57-.35-.87-.33-.4.03-.59.26-.56.7.03.49.06.8.08.92.07.43.19.72.35.87-.13.14-.28.21-.45.22-.17.01-.34-.05-.5-.18Z" style="fill: #000020; stroke-width: 0px;"/>
      <path d="m95.42,119.03c-.16.02-.26-.02-.32-.11.09-.28.13-.54.1-.8-.03-.32-.15-.57-.35-.76-.2-.19-.43-.27-.7-.24-.27.03-.49.16-.64.38s-.21.5-.17.81c.03.26.11.51.26.76-.03.1-.13.16-.29.18-.17.02-.38,0-.62-.08-.09.11-.22.17-.38.19-.2.02-.41-.02-.64-.12.63-.79.89-1.61.8-2.47-.02-.16-.04-.29-.08-.4.51-.79.73-1.54.65-2.26-.03-.26-.09-.44-.19-.57.12-.14.27-.22.43-.24.17-.02.33.04.49.16.13-.16.27-.25.43-.26.17-.02.33.03.48.14-.07.14-.1.34-.07.59.08.72.45,1.41,1.12,2.07-.01.12,0,.25,0,.41.09.86.53,1.6,1.31,2.23-.21.15-.41.23-.6.25-.16.02-.3-.02-.41-.1-.23.12-.43.19-.6.21Zm-1.48-3.72c-.16.36-.22.71-.18,1.05.11-.07.21-.1.28-.11.08,0,.18,0,.3.05-.04-.34-.17-.67-.41-.99Z" style="fill: #000020; stroke-width: 0px;"/>
      <path d="m102.67,117.96c-.13-.09-.31-.12-.54-.08-.1.02-.2.04-.29.08-.13.05-.25.11-.38.17-.15.06-.3.11-.43.13-.26.04-.54,0-.84-.11-.13.17-.28.26-.45.29-.17.03-.33-.01-.49-.12.13-.46.15-.96.07-1.51-.09-.57-.26-.98-.5-1.21.16-.32.2-.76.11-1.33-.07-.42-.19-.79-.38-1.11l-.16-.27c.12-.15.26-.24.43-.26.16-.03.34.02.52.14.13-.16.28-.26.45-.29.17-.03.33.01.49.12-.13.46-.15.96-.07,1.51.09.57.26.97.5,1.21-.17.33-.19.8-.08,1.42.07.37.27.53.59.48.16-.03.33-.11.48-.25.16-.14.26-.3.31-.49.23.14.37.35.41.61.02.13.02.26,0,.39.15.07.23.23.24.5Z" style="fill: #000020; stroke-width: 0px;"/>
      <path d="m107.49,116.85c-.22.17-.5.3-.83.4-.35.05-.65.05-.92-.01-.64-.16-1.04-.58-1.18-1.29l-.14-.66c-.08-.3-.21-.48-.42-.53.11-.08.17-.21.19-.4,0-.08,0-.16-.01-.25l-.13-.63c-.14-.68.06-1.22.59-1.63.22-.17.5-.3.84-.4.35-.04.66-.03.93.04.65.16,1.04.59,1.18,1.27l.13.63c.08.3.21.48.42.53-.11.08-.17.22-.19.4,0,.08,0,.16.01.25l.13.66c.13.68-.07,1.22-.6,1.63Zm-.7-2.05c-.08-.3-.21-.48-.42-.53.11-.08.18-.22.19-.4,0-.08,0-.16-.01-.25l-.12-.59c-.04-.21-.14-.37-.28-.46-.14-.1-.29-.13-.45-.1-.15.03-.28.12-.37.26-.09.14-.12.32-.07.54l.12.59c.08.3.22.48.42.53-.11.08-.18.22-.19.4,0,.08,0,.16.01.25l.12.59c.04.22.14.37.28.47.14.1.29.13.44.1.16-.03.28-.12.38-.26.09-.14.12-.32.07-.54l-.12-.59Z" style="fill: #000020; stroke-width: 0px;"/>
      <path d="m112.53,113.17c-.18.05-.31.13-.4.26-.09.14-.11.31-.06.51l.1.41c.1.37.33.51.72.41.2-.05.38-.15.54-.3.16-.15.25-.3.26-.45.24.1.39.27.45.53.03.13.04.26.02.38.11.02.18.16.22.42-.14-.03-.31-.03-.5.02-.13.03-.25.08-.37.14-.12.06-.23.13-.35.19-.14.08-.27.13-.39.16-.24.06-.52.05-.82-.04-.13.18-.29.29-.46.34-.17.04-.34.02-.51-.07.09-.46.07-.97-.07-1.5-.14-.56-.34-.94-.61-1.16.13-.31.12-.75-.02-1.31-.14-.53-.35-.98-.66-1.35.11-.16.25-.26.42-.3.18-.05.37-.02.57.08.22-.22.46-.36.7-.42.12-.03.26-.05.42-.05.13,0,.27,0,.4,0s.26-.02.39-.05c.19-.05.35-.12.45-.22.09.25.09.4,0,.47.08.1.13.22.17.35.06.25.01.48-.15.68-.08-.13-.23-.22-.45-.27-.21-.05-.42-.06-.61,0-.38.1-.53.33-.43.7l.1.41c.05.2.15.33.29.41s.3.09.48.05c.29-.07.52-.26.69-.55.05.06.08.13.1.21.04.16.02.31-.07.46.15.09.24.21.28.37.02.08.03.16.01.23-.29-.17-.58-.22-.87-.15Z" style="fill: #000020; stroke-width: 0px;"/>
      <path d="m118.34,109.86c-.42-.42-.81-.57-1.19-.46-.18.06-.31.16-.4.32s-.1.32-.05.48c.05.15.15.28.31.39.2.08.39.1.58.04.11-.03.2-.09.28-.16.08.13.25.25.5.35.11.04.23.07.36.1.63.13,1.03.48,1.22,1.08.14.44.1.86-.12,1.27-.25.45-.66.76-1.24.94-.29.09-.61.14-.97.15-.07,0-.19-.01-.36-.04-.13-.02-.24-.02-.32,0-.13.04-.25.14-.38.3-.03-.05-.05-.1-.06-.15-.09-.28-.05-.5.11-.69-.09-.06-.15-.16-.19-.29-.05-.17-.06-.37-.03-.59.27.26.58.42.93.49.3.06.6.05.88-.03.23-.07.41-.18.53-.33.12-.15.16-.3.11-.47-.05-.17-.19-.32-.42-.46-.2-.09-.42-.09-.66-.02-.12.04-.23.09-.32.16-.13-.33-.33-.49-.61-.5-.6-.13-.98-.47-1.15-1.01-.13-.42-.1-.85.11-1.27.22-.44.55-.74,1.01-.88.27-.08.56-.1.87-.05.07.02.14.04.21.05.07.01.14.01.22-.02.08-.02.18-.07.32-.13.02.04.04.08.05.12.05.17.03.36-.06.57.08.25.06.49-.05.73Z" style="fill: #000020; stroke-width: 0px;"/>
    </g>
  </g>
</svg>