<svg id="ロゴ" xmlns="http://www.w3.org/2000/svg" viewBox="0 0 160 160">
  <g>
    <rect x="16" y="10" width="128" height="140" style="fill: #fff"/>
    <g>
      <path d="M61.5,127.89l-1.43.07a2.08,2.08,0,0,1-1.64-.51,1.9,1.9,0,0,1-.44-.91,4.27,4.27,0,0,1-.1-.93,7.43,7.43,0,0,1,.06-.91s.41-3.07.9-6.73c1.7-.21,3.42-.4,5.13-.57l2.15,5.9a6.86,6.86,0,0,1,.48,2.14v.15a2.06,2.06,0,0,1-.19,1,2.1,2.1,0,0,1-1.19.79,1,1,0,0,0-.28.11l-.44.23.24,2.37.74-.07c2.92-.28,5.9-.48,8.85-.6l.79,0-.26-2.6-.69,0a1.68,1.68,0,0,1-1.39-.41A9.07,9.07,0,0,1,71,122.93L61.39,96.51l-.59.08-.69.09-.13.46a4.74,4.74,0,0,1-1.65,2.33l-.43.28.35,1.54L54.8,124.8a12.46,12.46,0,0,1-.4,1.68l-.16.48a12.72,12.72,0,0,1-.94-2.84l-3.93-16.58a13,13,0,0,1-.4-2.63v-.07a2.94,2.94,0,0,1,.22-1.23c.24-.51.68-.7,1.45-1l.52-.21.55-.25-.47-2.37-.71.11c-3.7.57-7.27,1.23-10.63,2l-.76.16.69,2.53.69-.15a3.87,3.87,0,0,1,1.89,0,2.36,2.36,0,0,1,1.12.73,7.06,7.06,0,0,1,1.25,3s.68,2.86,1.47,6.21c-3.32.65-6.63,1.4-9.89,2.25l-1.52-6.42a6.41,6.41,0,0,1-.19-3,2.19,2.19,0,0,1,.69-1.07,4.06,4.06,0,0,1,1.72-.82l.75-.2-.75-2.49-.68.16c-3.46.81-6.82,1.7-10.27,2.72l-.86.26.86,2.31.55,0,.57,0c.79-.07,1.26-.1,1.68.23a3,3,0,0,1,.75,1,12.57,12.57,0,0,1,.81,2.44s4,17,4,17a12.56,12.56,0,0,1,.4,2.72,2.87,2.87,0,0,1-.13.95c-.17.53-.52.78-1.24,1.27-.27.19-.58.4-.9.66l-.37.29.56,2.38.77-.25c3.35-1.1,6.77-2.08,10.19-2.92l.72-.17L43.87,131l-.72.19a4.49,4.49,0,0,1-1.54.18,2.35,2.35,0,0,1-1.29-.62,3.36,3.36,0,0,1-.72-1.2,16.25,16.25,0,0,1-.75-2.45s-.76-3.23-1.63-6.87c3.26-.85,6.58-1.61,9.9-2.26.85,3.59,1.6,6.79,1.6,6.79a17.93,17.93,0,0,1,.45,2.52,3.2,3.2,0,0,1-.1,1.38,2.35,2.35,0,0,1-.91,1.15,4.55,4.55,0,0,1-1.5.55l-.73.16.61,2.56.71-.16c2.09-.46,4.22-.89,6.35-1.26l.13,0,4.69-.75,2.61-.35.72-.09Zm-1.23-20.64c.53,1.44,1.4,3.84,2.32,6.35q-1.61.16-3.21.36C59.74,111.28,60.07,108.75,60.27,107.25Z" style="fill: #c8c9ca"/>
      <path d="M130.91,114.29l1.9.63L135,107.2l-.54-.8v0a8.63,8.63,0,0,0-1.49-1.69,6.87,6.87,0,0,0-2.66-1.26h0a6.7,6.7,0,0,0-5.89,1.49h0a11.19,11.19,0,0,0-3.79,6.59,10.22,10.22,0,0,0-.13,3.64,8.8,8.8,0,0,0,1.24,3.33h0c.65,1.06,1.39,2.08,2.11,3.06.42.57.86,1.16,1.26,1.76a8,8,0,0,1,1.06,2.66,6.75,6.75,0,0,1,.12,1.27,6.46,6.46,0,0,1-.14,1.38,8.29,8.29,0,0,1-.66,2,5,5,0,0,1-1,1.33h0a2.94,2.94,0,0,1-1.11.66,2.46,2.46,0,0,1-1.21,0h0a3.6,3.6,0,0,1-2.44-2.06h0a8.09,8.09,0,0,1-.85-2.39,16.39,16.39,0,0,1-.3-3.31V123l-2.3.27-.66,6.22a13.71,13.71,0,0,1-1.12-1.71,27.36,27.36,0,0,1-1.81-3.95h0l-4-10,5.94-6.39a11.36,11.36,0,0,1,3.34-2.54,4.43,4.43,0,0,1,2.29-.43l.62,0,.67-2.45-1-.22c-2.57-.55-5.08-1-7.67-1.48l-.7-.11-.15.69-.4,1.85.75.14a.84.84,0,0,1,.67.51,1.49,1.49,0,0,1-.1,1,6.92,6.92,0,0,1-1.36,2h0L105.69,113l1.12-6.47a6.66,6.66,0,0,1,1.11-3.15,2.83,2.83,0,0,1,2.23-.81h.58l.12-.58v0l0-.12.08-.38.26-1.32-.76-.12c-3.23-.51-6.51-.94-9.77-1.28h0l-.8-.08h0l-.75-.07c-2.55-.25-5.13-.45-7.67-.6l-.87,0-.15,2.4.52.2.42.14a2.48,2.48,0,0,1,1.47.9,2.56,2.56,0,0,1,.29,1.32,9.53,9.53,0,0,1-.32,2.18s-2.14,8.59-3.16,12.72c-.84-4.27-2.66-13.66-2.66-13.66a9.91,9.91,0,0,1-.22-1.87A2.17,2.17,0,0,1,87,101c.21-.31.62-.39,1.26-.51q.36-.06.72-.15l.53-.14.12-2.41-.9,0h0c-2.83-.13-5.71-.19-8.54-.19H79.11v.74l0,1.73.59.12a3.47,3.47,0,0,1,1.35.52,2,2,0,0,1,.68.72,3.88,3.88,0,0,1,.08,2.79h0v0c-.14.48-2.23,8.24-3.45,12.74-.79-4.2-2.54-13.66-2.54-13.66a4.61,4.61,0,0,1-.1-.93,3.36,3.36,0,0,1,.07-.67,1.61,1.61,0,0,1,.43-.78,3.11,3.11,0,0,1,1.5-.67l.45-.12.51-.18,0-2.41-.74,0c-2.76,0-5.46.11-8.25.27h0l-1,0,.19,2.32.61.28c.66.29.88.41,1.08.73a9.79,9.79,0,0,1,.8,2.92L76,129.34h.64l1,0h.57l5.21-20,3.9,20.17.58,0,.95,0,.61,0,5.88-22.77a12.26,12.26,0,0,1,2.15-5,2,2,0,0,1,1.42-.7l.69-.09.5.18.56.19c.79.24,1.25.41,1.53.89a2.78,2.78,0,0,1,.31,1.27,11.52,11.52,0,0,1-.22,2.61l-2.9,16.72a14.29,14.29,0,0,1-.63,2.58,3.65,3.65,0,0,1-.66,1.2c-.39.42-.86.5-1.71.6l-1,.14-.5.1-.42,2.42.79.08c3.48.34,7,.8,10.41,1.38l.73.12.45-2.59-.74-.12a4.29,4.29,0,0,1-2.26-1.67h0a2.29,2.29,0,0,1-.27-1.29,16.21,16.21,0,0,1,.31-2.5l1-5.53,3.81,9.7h0a8.49,8.49,0,0,0,1.94,3,10.93,10.93,0,0,0,2.41,1.83,12.42,12.42,0,0,0,3,1.19l1.11.28a10.49,10.49,0,0,0,1,.7h0a8.37,8.37,0,0,0,3,1.32h0a7.56,7.56,0,0,0,5.87-1.06h0a8.26,8.26,0,0,0,2.63-2.6,12,12,0,0,0,1.49-3.85,15.21,15.21,0,0,0,.34-3c0-.34,0-.68,0-1a8.37,8.37,0,0,0-1.3-3.87h0l-1.82-2.74c-.56-.86-1.09-1.67-1.65-2.5a7.9,7.9,0,0,1-1.14-2.59,5.64,5.64,0,0,1-.14-1.28,5.56,5.56,0,0,1,.13-1.22,5.86,5.86,0,0,1,1.34-2.81h0a2.8,2.8,0,0,1,1.11-.78,2.08,2.08,0,0,1,1.19-.05,2,2,0,0,1,1.11.71,3.54,3.54,0,0,1,.66,1.59,17.49,17.49,0,0,1,.16,2.81c0,.49,0,1,0,1.63Z" style="fill: #c8c9ca"/>
      <path d="M43,75.36Z" style="fill: #c8c9ca"/>
      <path d="M37.6,83.71a5.94,5.94,0,0,0,.52,1,5.84,5.84,0,0,0,.72.92,5.7,5.7,0,0,0,.89.8h0l.85.52.83.5.83.5.82.5a6.43,6.43,0,0,1,.75.61,5.35,5.35,0,0,1,.58.68,4.28,4.28,0,0,1,.41.76,4.44,4.44,0,0,1,.25.83,6.53,6.53,0,0,1,.1.72c0,.13,0,.25,0,.38a2.72,2.72,0,0,1,0,.28,3.56,3.56,0,0,1-.08.57,2.78,2.78,0,0,1-.17.51,2.1,2.1,0,0,1-.24.42,2.16,2.16,0,0,1-.29.31,1.59,1.59,0,0,1-.35.22,1.87,1.87,0,0,1-.42.13,2.19,2.19,0,0,1-.51,0,1.91,1.91,0,0,1-.52-.1,2.45,2.45,0,0,1-.54-.22,4.15,4.15,0,0,1-.56-.37,5.12,5.12,0,0,1-.59-.56,6,6,0,0,1-.57-.72,8.4,8.4,0,0,1-.54-.89c-.17-.33-.34-.68-.5-1.06l-.07-.16-.07-.16-.06-.16L38.85,90l-.53.24-.14.06-.13.06-.48.22.49,1.59.76,2.45L39.25,96l.28.16.13.07.13.08.14.08h0l.37.17.4.14.41.12.44.1.58.09a5.54,5.54,0,0,0,.56,0,4.87,4.87,0,0,0,.54,0,4.43,4.43,0,0,0,.51-.06,5.3,5.3,0,0,0,1-.3,4.39,4.39,0,0,0,.88-.47,5.2,5.2,0,0,0,.77-.65,6.12,6.12,0,0,0,.67-.82,5.86,5.86,0,0,0,.58-1.11A6,6,0,0,0,48,92.43a7.55,7.55,0,0,0,.08-1.09v-.21a8.72,8.72,0,0,0-.16-1.39,9.27,9.27,0,0,0-.35-1.26A6.79,6.79,0,0,0,47,87.33a6.09,6.09,0,0,0-.74-1,7.09,7.09,0,0,0-.93-.88h0l-.89-.55-.87-.53-.86-.53-.86-.53a6,6,0,0,1-.77-.6,4.5,4.5,0,0,1-.59-.67,3.83,3.83,0,0,1-.42-.73,3.53,3.53,0,0,1-.24-.8,3.78,3.78,0,0,1-.08-.56c0-.11,0-.22,0-.32s0-.14,0-.2a4,4,0,0,1,.06-.5,2.32,2.32,0,0,1,.13-.45h0a2.35,2.35,0,0,1,.21-.45,2.22,2.22,0,0,1,.28-.33,1.56,1.56,0,0,1,.34-.23,1.8,1.8,0,0,1,.43-.13,1.25,1.25,0,0,1,.47,0,1.39,1.39,0,0,1,.43.12,1.59,1.59,0,0,1,.41.3,2.84,2.84,0,0,1,.42.47,3.32,3.32,0,0,1,.23.4c.09.16.19.36.29.57l.32.73c.12.27.24.57.37.89l0,.1,0,.09,0,.1.16.42.57-.09.11,0,.51-.09-.19-1.52-.29-2.24-.18-1.33L44.64,76l-.17-.1-.08,0h0l-.42-.2-.35-.15-.3-.11a.86.86,0,0,0-.25-.07l-.42-.07a3.49,3.49,0,0,0-.46,0,4.19,4.19,0,0,0-.5,0l-.54.08a5.18,5.18,0,0,0-1,.29,5,5,0,0,0-.86.51,4.33,4.33,0,0,0-.74.69,6.43,6.43,0,0,0-.62.87h0a6.27,6.27,0,0,0-.49,1.09A5.54,5.54,0,0,0,37.17,80a6.29,6.29,0,0,0-.06,1.24,8.67,8.67,0,0,0,.16,1.31A7,7,0,0,0,37.6,83.71Z" style="fill: #c8c9ca"/>
      <path d="M48.94,90.16a7.17,7.17,0,0,0,.46,1.28A7,7,0,0,0,50,92.58a6.66,6.66,0,0,0,.84,1h0a6.49,6.49,0,0,0,1,.74,4.73,4.73,0,0,0,1,.5,5.1,5.1,0,0,0,1.11.24,5,5,0,0,0,1.16,0,4.68,4.68,0,0,0,1.12-.26,4.22,4.22,0,0,0,1-.51,4.64,4.64,0,0,0,.85-.76,5.65,5.65,0,0,0,.7-1,7.14,7.14,0,0,0,.53-1.16,8.06,8.06,0,0,0,.45-2.64,10.48,10.48,0,0,0-.07-1.46q-.09-.72-.24-1.38a7.93,7.93,0,0,0-.39-1.25,7.45,7.45,0,0,0-.54-1.14,6.84,6.84,0,0,0-.69-1h0a5.57,5.57,0,0,0-.92-.9,4.63,4.63,0,0,0-1-.61,4.14,4.14,0,0,0-1.16-.31,4.74,4.74,0,0,0-1.25,0,4.65,4.65,0,0,0-1.26.31,4.21,4.21,0,0,0-1.09.62,5,5,0,0,0-.92.91,6.63,6.63,0,0,0-.73,1.19A7.44,7.44,0,0,0,49,84.87a7.33,7.33,0,0,0-.29,1.23,7.83,7.83,0,0,0-.11,1.29v.15c0,.38,0,.78.06,1.18A10.79,10.79,0,0,0,48.94,90.16Zm2.65-4.85a6.86,6.86,0,0,1,.14-.79h0a5.23,5.23,0,0,1,.3-.92,2.82,2.82,0,0,1,.41-.64,2,2,0,0,1,.49-.39,1.79,1.79,0,0,1,.62-.18,1.11,1.11,0,0,1,.48,0,1.5,1.5,0,0,1,.5.23,3.29,3.29,0,0,1,.53.48,4.92,4.92,0,0,1,.53.73,7.26,7.26,0,0,1,.44.83,8.18,8.18,0,0,1,.35.91,9.73,9.73,0,0,1,.26,1,8.84,8.84,0,0,1,.18,1.07,10.1,10.1,0,0,1,.07,1.07c0,.1,0,.2,0,.3s0,.48,0,.71a9.3,9.3,0,0,1-.11.94,7.9,7.9,0,0,1-.22.87,5.58,5.58,0,0,1-.31.8,3,3,0,0,1-.38.54,1.61,1.61,0,0,1-.42.33,1.16,1.16,0,0,1-.48.14,1.29,1.29,0,0,1-.48,0,1.46,1.46,0,0,1-.49-.23,2.61,2.61,0,0,1-.52-.45,5.31,5.31,0,0,1-.53-.7,8.26,8.26,0,0,1-.48-.87,7.75,7.75,0,0,1-.39-.94c-.11-.33-.2-.67-.28-1a9,9,0,0,1-.18-1.08c0-.33-.06-.67-.08-1s0-.62,0-.91A8.09,8.09,0,0,1,51.59,85.31Z" style="fill: #c8c9ca"/>
      <path d="M68.06,80.32c-.13.21-.22.38-.29.51a1,1,0,0,0-.13.43v0a2.43,2.43,0,0,0,0,.3.87.87,0,0,0,.14.29.58.58,0,0,0,.27.22h0a.66.66,0,0,0,.34.06h.26l.26,0H69c0,.52.07,1.52.07,1.52l.07,2,.08,2,.07,1.95,0,.59v.27c0,.24,0,.46,0,.66s0,.39.09.55a4.09,4.09,0,0,0,.13.48,1.77,1.77,0,0,0,.19.39h0a1.6,1.6,0,0,0,.28.35,1.7,1.7,0,0,0,.38.26,1.92,1.92,0,0,0,.44.17,2.51,2.51,0,0,0,.49.08H72l.35-.06.28-.06.19-.06.06,0,.55-.18.56-.18.56-.17.86-.28-.05-1.41H73.5l-.17,0-.19,0-.21-.07-.21-.09a.42.42,0,0,1-.14-.09.5.5,0,0,1-.12-.13,1.4,1.4,0,0,1-.12-.18,1.45,1.45,0,0,1-.1-.25l-.09-.32c0-.12-.05-.24-.07-.37s0-.26,0-.4,0-.29,0-.45l-.07-1.75s-.17-4.34-.19-4.83h.38l.8,0,.81,0,1.23,0,0-.87-.07-1.73-1.22,0-.81,0-.81,0-.39,0V79l-.06-1.34,0-1.1-.42,0h-.31l-.32,0-.3.45-.26.39-.34.52-.43.64c-.25.36-.46.68-.64,1Z" style="fill: #c8c9ca"/>
      <polygon points="97.3 93.46 97.3 93.46 97.3 93.46 97.3 93.46" style="fill: #c8c9ca"/>
      <path d="M89.55,91.27a3.74,3.74,0,0,0,.12.48,3.24,3.24,0,0,0,.33.7,2.18,2.18,0,0,0,1.12.9,2.57,2.57,0,0,0,.75.16,2.29,2.29,0,0,0,.37,0,2.53,2.53,0,0,0,.38-.07,2.79,2.79,0,0,0,.37-.14,2.69,2.69,0,0,0,.38-.19c.12-.07.24-.14.35-.22l.32-.23,0,0,.06.16a1.14,1.14,0,0,0,.1.19,1.64,1.64,0,0,0,.14.22,1.12,1.12,0,0,0,.18.2h0l0,0,0,0h0l0,0,0,0h0l0,0a1.18,1.18,0,0,0,.19.11,1.45,1.45,0,0,0,.22.09,1.05,1.05,0,0,0,.24.06l.25,0h.45l.15,0h.17l.19,0,.2-.06h0l.11,0,.06,0h0l.27-.15h.06l.1,0h0l.11-.06.12-.07.12-.08h0l.08-.06.09-.06L98,93l.25-.17.09-1.18-.51-.05-.21,0h-.21l-.09,0-.07,0,0,0h0l0,0h0a.74.74,0,0,1-.31-.23.68.68,0,0,1-.14-.25.93.93,0,0,1,0-.13v-.19a1.21,1.21,0,0,1,0-.2v-.1c0-.12,0-.25,0-.39s0-.31,0-.49,0-.37.05-.57l.1-1.28.32-3.82c0-.26,0-.5,0-.74v-.15a6.69,6.69,0,0,0-.06-.81,4.89,4.89,0,0,0-.17-.73,4.24,4.24,0,0,0-.28-.65,3.07,3.07,0,0,0-.36-.53,2.2,2.2,0,0,0-.45-.42,2.31,2.31,0,0,0-.54-.28,2.21,2.21,0,0,0-.59-.12,2.24,2.24,0,0,0-.72.06,3.33,3.33,0,0,0-.74.27,6.57,6.57,0,0,0-.76.47c-.25.19-.52.41-.79.66s-.5.49-.71.73a6.16,6.16,0,0,0-.54.68,3.42,3.42,0,0,0-.35.64,2,2,0,0,0-.17.64.69.69,0,0,0,.08.38.7.7,0,0,0,.26.28,1.34,1.34,0,0,0,.32.13l.35.05h.46l.13,0h.1l.11,0h0l.12,0h0l0,0h.09l.33-.11,0-.53,0-.51,0-.25c0-.12,0-.24,0-.34a.83.83,0,0,1,.06-.25.54.54,0,0,1,.07-.17l.06-.09a.1.1,0,0,1,.06,0l.11,0a.58.58,0,0,1,.19,0h.25a1.06,1.06,0,0,1,.37.09.88.88,0,0,1,.29.18,1.25,1.25,0,0,1,.25.3,1.94,1.94,0,0,1,.2.46h0V83a.23.23,0,0,1,0,0c0,.06,0,.12,0,.19s0,.21,0,.31,0,.26,0,.39V84c0,.13,0,.25,0,.38l0,.53,0,.3v.26a.1.1,0,0,0,0,0l-.81.42-1,.52-1,.54-1,.54h0l-.25.16a1.92,1.92,0,0,0-.22.18h0l-.19.21-.15.25a1.69,1.69,0,0,0-.11.27,2.8,2.8,0,0,0-.09.31,3,3,0,0,0-.06.34c0,.12,0,.24,0,.37s0,.39,0,.57h0c0,.19,0,.37,0,.54A4.17,4.17,0,0,0,89.55,91.27Zm7.69.23h0Zm-5-2V89.3a1.86,1.86,0,0,1,.06-.34,1.6,1.6,0,0,1,.13-.3,1.5,1.5,0,0,1,.19-.25,1.43,1.43,0,0,1,.26-.22l.1-.06.23-.12.15-.08.18-.1.09,0L94,87.6l.25-.12.08,0s-.09,1.09-.09,1.09l-.16,1.85a.52.52,0,0,1,0,.11,1.39,1.39,0,0,1-.06.13l-.1.14a1.17,1.17,0,0,1-.16.15.65.65,0,0,1-.16.13l-.16.08a.8.8,0,0,1-.15,0h-.16l-.2,0a.52.52,0,0,1-.16-.06l-.13-.1-.12-.14h0a1.59,1.59,0,0,1-.13-.22,2,2,0,0,1-.08-.29,1.78,1.78,0,0,1,0-.35v-.12C92.25,89.73,92.25,89.63,92.26,89.53Z" style="fill: #c8c9ca"/>
      <path d="M94.68,93.51l0,0h0Z" style="fill: #c8c9ca"/>
      <path d="M101.42,94.25l1.2.13,1.61.18.1-.8,0-.19,0-.19,0-.42-.65-.08h-.22a.79.79,0,0,1-.27-.1.65.65,0,0,1-.32-.42.63.63,0,0,1,0-.19v-.09h0v0h0v0h0s.26-2.1.26-2.1l.25-2.11.25-2.1s.17-1.4.23-1.91l0,0,.18-.12.18-.12.18-.12.11-.07.13-.07.12-.06.11,0,.17,0,.17,0h.18l.18,0a1.93,1.93,0,0,1,.5.12,1.28,1.28,0,0,1,.39.24,1.26,1.26,0,0,1,.29.35,1.83,1.83,0,0,1,.22.49,2.34,2.34,0,0,1,.09.38c0,.13,0,.27,0,.41v.47c0,.16,0,.33,0,.5L107,87l-.27,2.2-.27,2.19-.12,1a.77.77,0,0,1-.1.29.79.79,0,0,1-.19.22.94.94,0,0,1-.26.14,1.08,1.08,0,0,1-.31,0h-.22l-.49-.06-.08.62,0,.19,0,.19-.08.6,1.62.21,1.19.16,1.19.17,1.62.24.07-.63,0-.19,0-.19.07-.6-.5-.07-.1,0h-.19a1,1,0,0,1-.27-.11.61.61,0,0,1-.2-.19.85.85,0,0,1-.13-.25.69.69,0,0,1,0-.2s0-.06,0-.09,0-.07,0-.3l.67-5.5.13-1.07a9.62,9.62,0,0,0,.09-1c0-.25,0-.5,0-.73V84c0-.29,0-.55,0-.79a4.07,4.07,0,0,0-.14-.68h0a2.81,2.81,0,0,0-.31-.75,2.35,2.35,0,0,0-.48-.6,2.44,2.44,0,0,0-.63-.41,2.64,2.64,0,0,0-.77-.2,3.16,3.16,0,0,0-.61,0,3.61,3.61,0,0,0-.65.08,5,5,0,0,0-.69.22,4.82,4.82,0,0,0-.74.39l-.39.24-.29.19c0-.19.06-.37.09-.53l.06-.36.08-.37-.22-.17L104,80.1l-.11-.08-.32-.23-.23.1-.63.31-.64.3-.64.3-.85.4,0,.35,0,.13v.11l-.06.41.25.14h0s.05,0,.09.07a1,1,0,0,1,.19.22l.09.2a1.55,1.55,0,0,1,.07.23,1.94,1.94,0,0,1,0,.2h0a.53.53,0,0,1,0,.14v.32a1.93,1.93,0,0,1,0,.24c0,.09,0,.18,0,.26s-.23,1.85-.23,1.85l-.22,1.86-.22,1.85s-.21,1.75-.22,1.86h0v.06a1.18,1.18,0,0,1-.1.3,1.07,1.07,0,0,1-.2.23.72.72,0,0,1-.27.15.82.82,0,0,1-.31,0h-.17l-.46,0-.07.6,0,.19,0,.18L98.6,94l1.63.15Z" style="fill: #c8c9ca"/>
      <path d="M113.39,95.88l1.2.2,1.62.28.11-.6,0-.19,0-.19.11-.61-.47-.08H116a1.12,1.12,0,0,1-.31-.1,1.37,1.37,0,0,1-.24-.18.94.94,0,0,1-.18-.25,1.17,1.17,0,0,1-.1-.26v-.17c0-.08,0-.17,0-.27a1.5,1.5,0,0,1,0-.29,2.51,2.51,0,0,1,0-.27s.17-.94.17-.94l.17-1s0-.1,0-.13l.1.34h0q.22.65.45,1.23c.18.47.36.92.54,1.33s.42.91.63,1.3.48.83.71,1.17v0l0,0,.07.08h0l.09.11.1.1.12.11h0l.22.16.2.11L119,97l0,0,.06,0h0l.5.1.51.1.51.11.52.11h.09l.41,0,.06-.38,0-.07,0-.21,0-.11,0-.2,0-.11.06-.33-.3-.13,0,0a1.59,1.59,0,0,1-.3-.3,4.71,4.71,0,0,1-.53-.76A12.9,12.9,0,0,1,120,93.5l-.1-.22-.11-.24-.1-.24-.11-.25-.13-.31-.12-.31-.12-.3-.1-.28h0l-.36-.94-.36-.93-.35-.93s-.16-.4-.26-.68l.21-.23.39-.42h0l.26-.29.24-.25.23-.23.21-.19h0c.12-.11.24-.22.36-.31l.35-.27.34-.2a2.29,2.29,0,0,1,.31-.16h0l.22-.09.23-.07.22-.06a1.81,1.81,0,0,1,.23,0l.07,0H122l.23,0h.46l.33,0,.09-.5,0-.18,0-.18,0-.17.07-.41-1.64-.34-1.23-.24-1.24-.23-1.65-.3-.11.6-.16.88.35.17.06,0,.1,0,.07.05a.18.18,0,0,1,.07,0s0,0,0,0,0,0,0,0h0v0a0,0,0,0,1,0,0v0a.29.29,0,0,1,0,.09.77.77,0,0,1-.06.21,1.94,1.94,0,0,1-.14.3l-.2.34c-.08.12-.17.23-.26.34s-.48.51-.48.51l-.45.49.36-2,.53-3s1-5.25,1-5.66h0l0-.25,0-.17,0-.17.1-.55-.21-.22-.07-.07-.06-.06-.25-.27-.26.1-.7.26-.7.26-.71.26-.92.35-.07.41,0,.08-.06.36.23.16h0l0,0h0s0,0,0,0l.06.07,0,.07h0a.13.13,0,0,1,0,.07h0a2,2,0,0,1,.07.26,1.88,1.88,0,0,1,0,.33,1.51,1.51,0,0,1,0,.3v.09a3.29,3.29,0,0,1,0,.44c0,.15-.17,1-.43,2.44l-.86,4.69L113,90l-.38,2,0,.13h0l-.06.32-.09.43-.09.41h0a.5.5,0,0,1-.09.23.63.63,0,0,1-.17.19.61.61,0,0,1-.23.11.45.45,0,0,1-.23,0l-.16,0h-.08l-.5-.08-.14.79,0,.18,0,.19-.08.43,1.64.26Zm2.53-.36h0Zm0-.84H116l-.14,0Zm-.72-18.78h0Z" style="fill: #c8c9ca"/>
      <path d="M59.77,83l.85-.08.42,0,.42,0c0,.09,0,.21,0,.21l.05.64,0,.65s0,.07,0,.18h0l.13,1.75.1,1.29s.2,2.51.21,2.58,0,.43,0,.43,0,.26,0,.38,0,.2,0,.3v.18a1,1,0,0,1-.09.33,1,1,0,0,1-.2.3,1,1,0,0,1-.29.21,1.08,1.08,0,0,1-.36.11h-.08l-.44,0,.05.63v.19l0,.18,0,.62,2.31-.21,4-.31L66.9,92l-.5,0h-.08l-.15,0h-.06a1,1,0,0,1-.43-.06,1.11,1.11,0,0,1-.37-.2,1.18,1.18,0,0,1-.27-.32,1,1,0,0,1-.15-.4h0v0h0s0-.37,0-.37h0s0-.06,0-.09,0-.18,0-.27l0-.3s-.19-2.45-.19-2.45L64.34,85h0l0-.7s-.12-1.52-.13-1.66l.22,0,.65,0,.65,0,1.08-.06-.07-.88-.07-.9-.06-.87-1.07.07-.66,0-.65,0L64,80c0-.08,0-.45,0-.45l0-.29c0-.43-.06-.84-.07-1.22s0-.74,0-1.08v0c0-.32,0-.62,0-.9s0-.54.07-.78a6.08,6.08,0,0,1,.16-.77,2.73,2.73,0,0,1,.2-.5.84.84,0,0,1,.2-.24.41.41,0,0,1,.17-.07.68.68,0,0,1,.2,0,.65.65,0,0,1,.22.08,1.65,1.65,0,0,1,.25.15,2.18,2.18,0,0,1,.28.25h0l.28.3.28.32.28.35.28.39.13.19h.24l.32,0a1.41,1.41,0,0,0,.31-.1,1.28,1.28,0,0,0,.28-.16,1.25,1.25,0,0,0,.23-.23,1.34,1.34,0,0,0,.18-.28,3,3,0,0,0,.11-.32,2,2,0,0,0,0-.35.61.61,0,0,0,0-.14c0-.07,0-.15,0-.23a3.8,3.8,0,0,0-.11-.62,2.29,2.29,0,0,0-.24-.55,2,2,0,0,0-.36-.46,2.15,2.15,0,0,0-.48-.36h0a2.87,2.87,0,0,0-.4-.18,3,3,0,0,0-.43-.12,3.4,3.4,0,0,0-.46-.06,3.84,3.84,0,0,0-.48,0,3.92,3.92,0,0,0-1.09.23,3.61,3.61,0,0,0-1,.55,4.64,4.64,0,0,0-.81.84A6,6,0,0,0,62,74.25a7.9,7.9,0,0,0-.48,1.2,8.84,8.84,0,0,0-.3,1.28,10.26,10.26,0,0,0-.13,1.37c0,.14,0,.28,0,.42,0,.34,0,.68,0,1v.54l-.25.26-.37.4-.38.4-.5.54,0,.36Z" style="fill: #c8c9ca"/>
      <path d="M98.54,139.05a1.82,1.82,0,0,1-.1-.35v0s-1-4.82-1-4.82l-.61,0-.06.09h0l-.08.12a.84.84,0,0,1-.27.18l-.32.09v.43c-.07.17-1.57,3.49-1.59,3.52a3.29,3.29,0,0,1-.23.33s0,0-.19.06a3,3,0,0,1-1-1h0l-.93-1.37.92-.91a3.64,3.64,0,0,1,.49-.38,1,1,0,0,1,.41-.14l.44,0,.08-1-2.54-.22-2.54-.2,0,.42-.05.61.39,0a.94.94,0,0,1,.27.09.68.68,0,0,1,0,.24.92.92,0,0,1,0,.16s-.23,2.77-.23,2.78a.93.93,0,0,1-.1.44l-.21,0-.52,0,0,.36,0,.62,3.1.26.06-.66a2.4,2.4,0,0,0,.42.35,3.26,3.26,0,0,0,1.12.42h.05l.33,0h.17l2.08.23.11-1-.58-.06-.13,0a.38.38,0,0,1,.05-.16s.21-.5.35-.81l.72.08c.06.32.16.8.16.8v0a1.49,1.49,0,0,1,0,.17v0l-.18,0-.33.06-.1.94,2.71.3.12-1-.51-.06A.24.24,0,0,1,98.54,139.05Zm-6.82-.6-.1,0a.73.73,0,0,1-.28-.1s0,0,0,0a1.12,1.12,0,0,1,0-.34s0-.06,0-.16l.44.68Zm.31-3.68-.54.58c0-.23,0-.39,0-.39a.33.33,0,0,1,.06-.2.37.37,0,0,1,.26-.09h.26Z" style="fill: #c8c9ca"/>
      <path d="M89,136.11a3.17,3.17,0,0,0-.55-1.81,2.48,2.48,0,0,0-2-1.1,2.67,2.67,0,0,0-2.25.87,3.16,3.16,0,0,0-.77,2,3,3,0,0,0,.81,2.38h0a2.61,2.61,0,0,0,1.8.8,2.67,2.67,0,0,0,2-.63h0a3.1,3.1,0,0,0,1-2.32A1.09,1.09,0,0,0,89,136.11Zm-1.69.31a2.48,2.48,0,0,1-.39,1.31.73.73,0,0,1-.68.38c-.12,0-.46,0-.79-.6a2.55,2.55,0,0,1-.35-1.51,2.66,2.66,0,0,1,.34-1.23.82.82,0,0,1,.79-.47c.21,0,.52.09.8.61a2.8,2.8,0,0,1,.28,1.3Z" style="fill: #c8c9ca"/>
      <path d="M83.53,133.78v-.61H80.74v1h.43c.28,0,.35,0,.44.12a1.41,1.41,0,0,1,.08.43v2.15a.94.94,0,0,1-.24.73.79.79,0,0,1-.52.17,1.35,1.35,0,0,1-.72-.22.76.76,0,0,1-.36-.68v-2.32a.62.62,0,0,1,.08-.32s.11-.06.24-.06h.53v-1H77.59v1l.34.07.11,0c.09,0,.22,0,.26.09a1.25,1.25,0,0,1,0,.46v2.14a2.35,2.35,0,0,0,.36,1.42,1.7,1.7,0,0,0,.76.57,3.24,3.24,0,0,0,1.2.2,2.19,2.19,0,0,0,1.62-.59,2.25,2.25,0,0,0,.59-1.6v-2.06a1.51,1.51,0,0,1,.11-.59l.15,0,.4-.09Z" style="fill: #c8c9ca"/>
      <path d="M64.48,137.57a.53.53,0,0,1,.12.28l.05.42,1-.11s-.25-2.21-.25-2.24l.19,0-.06-2.05-.47.06h0L64,134l-1.53.17-1.21.14.12,1,.57-.07a.29.29,0,0,1,.17.07s0,0,.06.26l.35,3v.25l0,.06a1.48,1.48,0,0,1-.29.11l-.39.07,0,.4.07.61,3.16-.36-.12-1.05-.39.06a1.43,1.43,0,0,1-.47-.08s0,0-.07-.23c0,0-.06-.5-.1-.89l.18,0A2.82,2.82,0,0,1,64.48,137.57Zm-.71-1.19c-.05-.39-.09-.79-.13-1.19l.36,0c.34,0,.39,0,.45.07a.49.49,0,0,1,.08.26s0,.06,0,.09l-.21,0s0,.39,0,.41v0a.52.52,0,0,1,0,.21.38.38,0,0,1-.08.08.47.47,0,0,1-.15,0Z" style="fill: #c8c9ca"/>
      <path d="M71.78,133.37l-.43,0-2.35.18.08,1,.43,0c.28,0,.35,0,.44.09a1.19,1.19,0,0,1,.12.42s.16,2.15.16,2.15v.14a.84.84,0,0,1-.17.58.72.72,0,0,1-.52.23,1.27,1.27,0,0,1-.88-.26.76.76,0,0,1-.26-.55s-.16-2.12-.18-2.31v0a.6.6,0,0,1,0-.3.35.35,0,0,1,.24-.08l.52,0-.07-1-3.1.23.07,1,.35,0h.1a.41.41,0,0,1,.27.07,1.42,1.42,0,0,1,.08.45l.16,2.14a2.3,2.3,0,0,0,.46,1.39,1.68,1.68,0,0,0,.8.51,3.32,3.32,0,0,0,1.22.1,2.22,2.22,0,0,0,1.57-.7,2.2,2.2,0,0,0,.48-1.42c0-.07,0-.15,0-.22l-.16-2.06V135a1.65,1.65,0,0,1,.06-.46l.15-.05.39-.12,0-.34Z" style="fill: #c8c9ca"/>
      <path d="M77.54,138a2.93,2.93,0,0,1-1.2-.87h0l-1.08-1.26.81-1a4.56,4.56,0,0,1,.44-.44,1.08,1.08,0,0,1,.39-.18l.44,0,0-1h-.43l-2.12.08h0l-2.49.09,0,1,.36.05a1.29,1.29,0,0,1,.31.07s.06.07.07.39l.1,2.79v0a1.17,1.17,0,0,1,0,.4.9.9,0,0,1-.22.05l-.5.1,0,.36,0,.62,3.11-.1,0-.66a1.94,1.94,0,0,0,.46.29,3.19,3.19,0,0,0,1.54.3l.43,0,0-.93Zm-3.06-3.37a.45.45,0,0,1,0-.21.41.41,0,0,1,.24-.12H75l-.06.09-.47.63C74.48,134.78,74.48,134.63,74.48,134.63Zm.6,3.44H75a1.63,1.63,0,0,1-.29-.08s0,0-.06,0a.84.84,0,0,1-.06-.34v-.15l.51.62Z" style="fill: #c8c9ca"/>
      <path d="M78.14,93.14l1.75,0h1.75l1.75,0a7.51,7.51,0,0,0,1.08-.08,5.35,5.35,0,0,0,1-.27,5,5,0,0,0,.89-.46,5.42,5.42,0,0,0,.79-.66,4.82,4.82,0,0,0,.63-.8,5.16,5.16,0,0,0,.47-.94,6.32,6.32,0,0,0,.27-1,8.33,8.33,0,0,0,.1-1.14v-.07a7.94,7.94,0,0,0-.08-1.11,6.08,6.08,0,0,0-.24-1.08,5.57,5.57,0,0,0-.42-1,4.94,4.94,0,0,0-.6-.84h0a5.56,5.56,0,0,0-.63-.65,6.9,6.9,0,0,0-.7-.54,5.57,5.57,0,0,0-.71-.4,6,6,0,0,0,.69-.48,5.22,5.22,0,0,0,.91-.91,4.28,4.28,0,0,0,.48-.82,3,3,0,0,0,.2-.57c0-.1,0-.21.07-.31a1.86,1.86,0,0,0,.06-.34c0-.11,0-.23,0-.35s0-.23,0-.36v-.07a8.69,8.69,0,0,0-.06-1,6,6,0,0,0-.19-1A5.62,5.62,0,0,0,87.1,75a4.32,4.32,0,0,0-.49-.74h0a4.26,4.26,0,0,0-.53-.51,4.67,4.67,0,0,0-.61-.42,5.83,5.83,0,0,0-.72-.32,4.94,4.94,0,0,0-.8-.22h0a4.12,4.12,0,0,0-.45-.08L83,72.63l-.64,0H77.93l-1.62,0v1.65l.38,0h.58a2,2,0,0,1,.35,0,1.28,1.28,0,0,1,.27.11.76.76,0,0,1,.21.19,1,1,0,0,1,.2.28h0a2,2,0,0,1,.09.2,1.49,1.49,0,0,1,.07.25,2.21,2.21,0,0,1,.07.3c0,.11,0,.23,0,.35l0,.4c0,.13,0,.27,0,.41s0,.27,0,.42a2.91,2.91,0,0,1,0,.3v.12c0,.05,0,.25,0,1.66l0,3.52,0,2.27v1.36c0,1,0,1.76,0,2v.91s0,.18,0,.2c0,.19,0,.37,0,.52s0,.23-.06.32a1.66,1.66,0,0,1,0,.16v0h0v0h0l0,0a.57.57,0,0,1-.11.16A1.67,1.67,0,0,1,78,91a1.81,1.81,0,0,1-.41.23,3.41,3.41,0,0,1-.5.19,3.45,3.45,0,0,1-.4.11,1.18,1.18,0,0,1-.25,0h-.07l-.39,0v1.16h0s0,.44,0,.44ZM81.55,80l0-2s0-3,0-3.56a3.18,3.18,0,0,1,.55.07,2.79,2.79,0,0,1,.58.18,3.13,3.13,0,0,1,1,.76,3,3,0,0,1,.39.55,3.17,3.17,0,0,1,.28.62,4.92,4.92,0,0,1,.17.71,6,6,0,0,1,0,.75v0a6.45,6.45,0,0,1-.08.93,4.44,4.44,0,0,1-.21.78,3,3,0,0,1-.35.61,2.37,2.37,0,0,1-.46.49,3.23,3.23,0,0,1-.44.27,2.55,2.55,0,0,1-.48.2,4.88,4.88,0,0,1-.55.12,3.89,3.89,0,0,1-.49,0C81.54,81,81.55,80,81.55,80Zm0,5.73V84.39s0-.59,0-1H82a2.35,2.35,0,0,1,.64.09,2.67,2.67,0,0,1,.59.23,3.15,3.15,0,0,1,.57.41,4.39,4.39,0,0,1,.55.58,4.73,4.73,0,0,1,.45.71,5.13,5.13,0,0,1,.33.76,4.75,4.75,0,0,1,.19.83,6.11,6.11,0,0,1,.06.86v.05a6.7,6.7,0,0,1-.05.79,5,5,0,0,1-.16.69,3.49,3.49,0,0,1-.25.59,3.54,3.54,0,0,1-.35.51,2.44,2.44,0,0,1-.37.35,1.86,1.86,0,0,1-.8.39,2.22,2.22,0,0,1-.45,0,2.14,2.14,0,0,1-.45,0,1.24,1.24,0,0,1-.33-.15,1,1,0,0,1-.26-.24,1.54,1.54,0,0,1-.2-.36h0a1.34,1.34,0,0,1-.1-.32,2.61,2.61,0,0,1-.08-.42c0-.16,0-.34,0-.53s0-.24,0-.38S81.51,85.74,81.51,85.74Z" style="fill: #c8c9ca"/>
    </g>
    <g>
      <path d="M79.89,92.7H83.4a6.45,6.45,0,0,0,1-.07,3.74,3.74,0,0,0,.9-.25,4.23,4.23,0,0,0,.82-.42,4.94,4.94,0,0,0,.71-.59,4.43,4.43,0,0,0,1-1.59,6,6,0,0,0,.25-1,6.21,6.21,0,0,0,.09-1.08,6.62,6.62,0,0,0-.07-1.11,5.5,5.5,0,0,0-.23-1,5.41,5.41,0,0,0-.38-.89A5.15,5.15,0,0,0,87,84a5.78,5.78,0,0,0-.6-.61,5.2,5.2,0,0,0-.65-.51,8.13,8.13,0,0,0-.71-.4q-.36-.16-.75-.3h0s0,0,0,0h0a7.28,7.28,0,0,0,1.36-.82,5,5,0,0,0,.83-.84,4,4,0,0,0,.44-.73,2.48,2.48,0,0,0,.16-.5c0-.1.06-.2.08-.3a2.87,2.87,0,0,0,0-.31,3.11,3.11,0,0,0,0-.32c0-.1,0-.22,0-.33a8.91,8.91,0,0,0-.06-1.06A6.51,6.51,0,0,0,87,76a4.75,4.75,0,0,0-.31-.8,3.79,3.79,0,0,0-.44-.66,3.92,3.92,0,0,0-.46-.45,3.62,3.62,0,0,0-.56-.37,3.5,3.5,0,0,0-.65-.3,7.39,7.39,0,0,0-.75-.21l-.42-.07-.52,0-.63,0-.74,0H79.14l-1.2,0-1.2,0v.77h.52a2.31,2.31,0,0,1,.46,0,1.18,1.18,0,0,1,.38.16,1.35,1.35,0,0,1,.32.26,2.12,2.12,0,0,1,.26.38c0,.08.07.16.11.25l.09.29c0,.11,0,.22.07.34s0,.25,0,.38l0,.41c0,.14,0,.28,0,.42s0,.28,0,.43v.44s0,.69,0,1.65,0,2.23,0,3.52,0,2.6,0,3.64,0,1.78,0,2v.09a.81.81,0,0,0,0,.17v.47a1,1,0,0,0,0,.17v.15a.22.22,0,0,1,0,.06c0,.22,0,.41,0,.56a2.45,2.45,0,0,1-.07.37,1,1,0,0,1-.06.2l0,.06,0,.09a1.45,1.45,0,0,1-.15.23,2.82,2.82,0,0,1-.3.3,2.12,2.12,0,0,1-.5.28,4.32,4.32,0,0,1-.55.21l-.43.12-.28,0h-.1v.77h0l1.75,0ZM81.13,80V76l0-2h.33a3.4,3.4,0,0,1,.73.08,3.28,3.28,0,0,1,.67.22,2.39,2.39,0,0,1,.59.36,3.6,3.6,0,0,1,.54.5,3.86,3.86,0,0,1,.44.62,4,4,0,0,1,.31.7,4.56,4.56,0,0,1,.19.77,5,5,0,0,1,0,.87,6.23,6.23,0,0,1-.08,1,5,5,0,0,1-.24.85,3.71,3.71,0,0,1-.39.71,2.71,2.71,0,0,1-.55.57,3.84,3.84,0,0,1-.5.32,3.43,3.43,0,0,1-.56.22,3.88,3.88,0,0,1-.61.14,4.8,4.8,0,0,1-.67,0h-.31Zm-.07,8.5v-.07h0l0-1.35V83h.1l.08,0,.09,0,.09,0H82a3.06,3.06,0,0,1,.74.09,3.2,3.2,0,0,1,.7.28,3.44,3.44,0,0,1,.64.46,4.62,4.62,0,0,1,.6.64,4.83,4.83,0,0,1,.5.77,4.7,4.7,0,0,1,.35.83,4.53,4.53,0,0,1,.21.9,6.15,6.15,0,0,1,.07,1,7.56,7.56,0,0,1-.06.85,4.44,4.44,0,0,1-.18.76,4,4,0,0,1-.28.67,3.68,3.68,0,0,1-.39.58,4.12,4.12,0,0,1-.43.41,2.59,2.59,0,0,1-.47.29,1.91,1.91,0,0,1-.51.17,2.51,2.51,0,0,1-.55.06,2.36,2.36,0,0,1-.55-.07,1.33,1.33,0,0,1-.45-.21,1.26,1.26,0,0,1-.36-.33,1.72,1.72,0,0,1-.26-.46,3.56,3.56,0,0,1-.13-.39c0-.14-.06-.3-.08-.47a4.48,4.48,0,0,1,0-.56c0-.19,0-.41,0-.64Z" style="fill: #231815"/>
      <path d="M38,83.56a6.19,6.19,0,0,0,.49,1,5.6,5.6,0,0,0,.66.86,6.8,6.8,0,0,0,.85.75l.82.5.84.51.83.5.83.5a6.82,6.82,0,0,1,.81.66,6.36,6.36,0,0,1,.64.75,4.44,4.44,0,0,1,.45.83,5.46,5.46,0,0,1,.28.92,7.4,7.4,0,0,1,.1.77,4.24,4.24,0,0,1,0,.71,3.39,3.39,0,0,1-.1.65,3.7,3.7,0,0,1-.19.59,2.88,2.88,0,0,1-.29.49,2.25,2.25,0,0,1-.36.39,2,2,0,0,1-.44.27,2.12,2.12,0,0,1-.52.17,2.51,2.51,0,0,1-.61,0,2.25,2.25,0,0,1-.62-.11,2.73,2.73,0,0,1-.62-.26,5.09,5.09,0,0,1-.62-.41,4.58,4.58,0,0,1-.65-.61,6.94,6.94,0,0,1-.6-.76,8.34,8.34,0,0,1-.56-.94c-.18-.33-.35-.7-.52-1.09l-.07-.15-.07-.17-.07-.15-.06-.16-.14.06-.13.06-.14.06-.13.07L38.47,92l.38,1.22.38,1.23.38,1.22.13.08.13.08.13.07.13.08.35.15.37.13.39.11.41.1.55.09a4.73,4.73,0,0,0,.52,0,4,4,0,0,0,.49,0,3.55,3.55,0,0,0,.47-.06,4.37,4.37,0,0,0,.89-.27,4.33,4.33,0,0,0,1.52-1,5.85,5.85,0,0,0,.62-.76,6.25,6.25,0,0,0,.54-1,6,6,0,0,0,.31-1.12,6.17,6.17,0,0,0,.07-1.23,7.86,7.86,0,0,0-.15-1.32,7.55,7.55,0,0,0-.33-1.2,7,7,0,0,0-.52-1.07,5.81,5.81,0,0,0-.7-1,6.16,6.16,0,0,0-.87-.82l-.87-.53-.87-.54-.87-.53-.86-.53a6.29,6.29,0,0,1-.83-.65,4.87,4.87,0,0,1-.65-.73,4.67,4.67,0,0,1-.46-.81,4.48,4.48,0,0,1-.27-.88c0-.21-.07-.42-.09-.62a5.61,5.61,0,0,1,0-.58,4.87,4.87,0,0,1,.06-.55,4.44,4.44,0,0,1,.15-.52,2.25,2.25,0,0,1,.26-.54,2.3,2.3,0,0,1,.35-.41,1.71,1.71,0,0,1,.44-.3,2.54,2.54,0,0,1,.53-.17,1.75,1.75,0,0,1,.6,0,1.63,1.63,0,0,1,.56.16,2.43,2.43,0,0,1,.52.36,2.91,2.91,0,0,1,.48.55c.08.12.16.27.26.44s.19.37.29.59.22.47.33.75.24.57.37.89l0,.1,0,.1,0,.09,0,.11.11,0,.12,0L45,81l.11,0L45,79.81l-.15-1.12-.14-1.12-.15-1.11-.08,0-.09,0-.08,0-.08,0-.41-.19-.34-.15-.27-.1a.64.64,0,0,0-.2,0,2.32,2.32,0,0,0-.38-.06,2.82,2.82,0,0,0-.42,0l-.46,0-.5.08a5,5,0,0,0-.88.26,4.38,4.38,0,0,0-1.45,1.09,4.78,4.78,0,0,0-.57.8,5.41,5.41,0,0,0-.46,1,5.75,5.75,0,0,0-.25,1.09,6.47,6.47,0,0,0-.05,1.17,6.87,6.87,0,0,0,.15,1.25A6.12,6.12,0,0,0,38,83.56Z" style="fill: #231815"/>
      <path d="M49.35,90.05a7.63,7.63,0,0,0,.43,1.22,7.43,7.43,0,0,0,.61,1.07,5.74,5.74,0,0,0,.79.92,5.19,5.19,0,0,0,.89.69,4.9,4.9,0,0,0,1,.46,4.78,4.78,0,0,0,1,.22,5.48,5.48,0,0,0,1.07,0,4.22,4.22,0,0,0,1-.24,3.82,3.82,0,0,0,.9-.46,4.49,4.49,0,0,0,.77-.69,5.84,5.84,0,0,0,.66-.92,7.12,7.12,0,0,0,.49-1.09,6.6,6.6,0,0,0,.31-1.2,9,9,0,0,0,.12-1.3,11.47,11.47,0,0,0-.07-1.41c-.06-.47-.14-.91-.23-1.33a12.11,12.11,0,0,0-.37-1.2,8.14,8.14,0,0,0-.51-1.07,6.42,6.42,0,0,0-.66-.95,4.74,4.74,0,0,0-.85-.83,4.39,4.39,0,0,0-1-.56,3.89,3.89,0,0,0-1-.28,4.91,4.91,0,0,0-1.15,0,4.72,4.72,0,0,0-1.15.28,4,4,0,0,0-1,.56,4.51,4.51,0,0,0-.84.85,5.5,5.5,0,0,0-.69,1.11A7.59,7.59,0,0,0,49.41,85a8.06,8.06,0,0,0-.27,1.18A8.14,8.14,0,0,0,49,87.39a7.91,7.91,0,0,0,.07,1.28A9.66,9.66,0,0,0,49.35,90.05Zm1.82-4.79a7.17,7.17,0,0,1,.15-.83,5,5,0,0,1,.33-1,3,3,0,0,1,.47-.74,2.07,2.07,0,0,1,.62-.49A2.32,2.32,0,0,1,53.5,82a1.6,1.6,0,0,1,.65,0,2,2,0,0,1,.62.29,3.41,3.41,0,0,1,.61.55,6.75,6.75,0,0,1,.57.79,9.09,9.09,0,0,1,.47.87,10,10,0,0,1,.37,1,10.53,10.53,0,0,1,.27,1,9.88,9.88,0,0,1,.18,1.11c0,.38.07.75.08,1.11s0,.71,0,1.05-.07.66-.13,1a7,7,0,0,1-.22.93,5.3,5.3,0,0,1-.35.86,2.88,2.88,0,0,1-.44.64,1.89,1.89,0,0,1-.53.42,2,2,0,0,1-.63.19,1.72,1.72,0,0,1-.64,0,2.13,2.13,0,0,1-.62-.28,3.17,3.17,0,0,1-.59-.53,5.27,5.27,0,0,1-.58-.75c-.18-.3-.35-.6-.51-.92a9.74,9.74,0,0,1-.4-1c-.11-.34-.21-.69-.29-1.05a10.66,10.66,0,0,1-.19-1.13c0-.35-.07-.68-.08-1s0-.64,0-.95A8.66,8.66,0,0,1,51.17,85.26Z" style="fill: #231815"/>
      <path d="M68.1,81.48a.35.35,0,0,0,.06.14.28.28,0,0,0,.1.09l.14,0,.27,0h.52l.26,0,.08,2,.08,1.95.07,2,.08,2a.92.92,0,0,0,0,.16v.2c0,.07,0,.15,0,.24s0,.17,0,.27,0,.43,0,.62a3.79,3.79,0,0,0,.08.52,2.22,2.22,0,0,0,.11.41,1.19,1.19,0,0,0,.15.32,1.71,1.71,0,0,0,.21.26,2,2,0,0,0,.28.2,1.81,1.81,0,0,0,.35.13,2.58,2.58,0,0,0,.43.07H72l.31,0,.26-.06.16,0,.07,0,.55-.18.56-.17.56-.18L75,92v-.68H73.68l-.23,0-.21,0-.23,0-.23-.08L72.54,91a.74.74,0,0,1-.22-.14,1,1,0,0,1-.2-.2,1.2,1.2,0,0,1-.16-.25,2.85,2.85,0,0,1-.12-.31,3.1,3.1,0,0,1-.1-.36c0-.12,0-.26-.08-.39s0-.28,0-.44,0-.3,0-.46l-.07-1.75L71.44,85l-.06-1.75-.07-1.76.8,0,.81,0,.81,0,.8,0v-.44l0-.44,0-.44,0-.43-.8,0-.81,0-.81,0-.8,0,0-.68,0-.66,0-.68,0-.66h-.4l-.19.27c-.07.11-.15.25-.26.4s-.21.32-.34.51l-.42.64c-.25.36-.46.68-.64,1l-.45.72c-.12.2-.22.36-.28.48a.9.9,0,0,0-.08.24A.78.78,0,0,0,68.1,81.48Z" style="fill: #231815"/>
      <path d="M90,91.19a3.45,3.45,0,0,0,.12.43,2.08,2.08,0,0,0,.28.6,1.72,1.72,0,0,0,.4.45,1.58,1.58,0,0,0,.51.28,1.81,1.81,0,0,0,.63.13,1,1,0,0,0,.3,0,1,1,0,0,0,.3,0,2.19,2.19,0,0,0,.33-.12,2.62,2.62,0,0,0,.33-.17l.32-.2.31-.21.28-.23.27-.24a.45.45,0,0,0,0,.16l0,.16,0,.15c0,.05,0,.1,0,.16a1.21,1.21,0,0,0,0,.14,1.19,1.19,0,0,0,.08.16,1.4,1.4,0,0,0,.1.16l.14.15h0s0,0,0,0a0,0,0,0,1,0,0s0,0,0,0h0l.16.09.17.07.19.05.2,0h.3a.27.27,0,0,0,.09,0h.12l.15,0a.45.45,0,0,0,.16,0l.18,0,.1,0,.1,0,.1,0,.11,0h0a.53.53,0,0,1,.1-.06l.11-.06.11-.07.11-.08.09,0,.08-.06.08-.06.09-.06v-.43l0-.14h-.31l-.1,0h-.14l-.13,0-.1,0-.1,0h0a1.28,1.28,0,0,1-.46-.34,1.41,1.41,0,0,1-.22-.39,1.58,1.58,0,0,1-.06-.32v-.13h0v-.32c0-.12,0-.25,0-.4s0-.32,0-.5,0-.37,0-.58l.1-1.28.11-1.27.1-1.27.11-1.28c0-.3,0-.58,0-.85s0-.51-.06-.75a4,4,0,0,0-.16-.66,2.44,2.44,0,0,0-.24-.57,2.77,2.77,0,0,0-.32-.47,2,2,0,0,0-.37-.34,1.46,1.46,0,0,0-.43-.22,1.53,1.53,0,0,0-.49-.11,1.75,1.75,0,0,0-.59,0,3.17,3.17,0,0,0-.64.24,4.68,4.68,0,0,0-.7.44,7.65,7.65,0,0,0-.75.62,7.34,7.34,0,0,0-.68.7,5.08,5.08,0,0,0-.5.63,2.83,2.83,0,0,0-.32.58,1.48,1.48,0,0,0-.13.51.22.22,0,0,0,0,.14.32.32,0,0,0,.11.12.59.59,0,0,0,.2.07,1.11,1.11,0,0,0,.28,0h.6l.08,0,.08,0h0l0,0h.05l0,0,0-.25,0-.25,0-.25,0-.26a3.69,3.69,0,0,1,0-.37,2.05,2.05,0,0,1,.07-.31,1.86,1.86,0,0,1,.1-.25.83.83,0,0,1,.13-.18,1,1,0,0,1,.16-.12.72.72,0,0,1,.22-.08,1,1,0,0,1,.26,0,1.9,1.9,0,0,1,.81.11,1.36,1.36,0,0,1,.41.26,1.6,1.6,0,0,1,.33.4,2.54,2.54,0,0,1,.25.55s0,0,0,0,0,0,0,0,0,0,0,0a.43.43,0,0,1,0,0l0,.22c0,.1,0,.21,0,.34s0,.27,0,.42,0,.32,0,.49,0,.4,0,.53,0,.23,0,.3,0,.11,0,.14v0h0v.37l-1,.52-1,.53-1,.53-1,.54a1.37,1.37,0,0,0-.2.13.65.65,0,0,0-.18.15l-.14.16a2,2,0,0,0-.12.19l-.09.22A2,2,0,0,0,90,89a2.87,2.87,0,0,0,0,.31c0,.11,0,.23,0,.35a4.84,4.84,0,0,0,0,.53,4.07,4.07,0,0,0,0,.5A3.55,3.55,0,0,0,90,91.19Zm1.88-1.7v0a.09.09,0,0,1,0,0v-.13a2.74,2.74,0,0,1,.08-.43,2.3,2.3,0,0,1,.17-.39,2.7,2.7,0,0,1,.25-.34,2.42,2.42,0,0,1,.34-.28l.13-.07.23-.12.33-.18.42-.24.26-.12.25-.13.25-.13.25-.13-.07.93-.08.92-.08.93-.07.92a1.29,1.29,0,0,1-.05.21,1,1,0,0,1-.24.41,1.75,1.75,0,0,1-.19.2,1.7,1.7,0,0,1-.23.17,1,1,0,0,1-.23.11,1.05,1.05,0,0,1-.24.06.76.76,0,0,1-.26,0,1.26,1.26,0,0,1-.28,0,1,1,0,0,1-.24-.1l-.22-.16a1.24,1.24,0,0,1-.18-.21,1.54,1.54,0,0,1-.17-.31,1.89,1.89,0,0,1-.11-.36c0-.13,0-.27-.05-.42A4,4,0,0,1,91.84,89.49Z" style="fill: #231815"/>
      <path d="M101.47,93.83l1.2.13,1.19.13,0-.19,0-.19,0-.19,0-.19h-.11l-.12,0h-.23a1.4,1.4,0,0,1-.42-.15,1.29,1.29,0,0,1-.33-.28,1.18,1.18,0,0,1-.19-.39,1.12,1.12,0,0,1,0-.45v0s0,0,0,0v0h0l.26-2.1L103,87.7l.25-2.1.25-2.1.18-.13.18-.12.19-.12.18-.13.12-.07.15-.08.14-.08.15-.06.22-.06.22,0h.22a.93.93,0,0,1,.23,0,2,2,0,0,1,.61.15,1.9,1.9,0,0,1,.5.3,2.11,2.11,0,0,1,.39.45,3.29,3.29,0,0,1,.26.6c0,.13.07.28.1.42s0,.31.05.47a4.17,4.17,0,0,1,0,.5,5.48,5.48,0,0,1,0,.55s0,.39-.12,1-.17,1.4-.27,2.2-.19,1.6-.27,2.2-.12,1-.12,1a1.2,1.2,0,0,1-.15.45,1.22,1.22,0,0,1-.3.34,1.47,1.47,0,0,1-.41.22,1.22,1.22,0,0,1-.47,0h-.29l0,.19,0,.18,0,.2,0,.19,1.19.15,1.2.16,1.19.17,1.19.17,0-.19,0-.19,0-.19,0-.19h-.1l-.09,0h-.2a1.28,1.28,0,0,1-.42-.17,1.28,1.28,0,0,1-.52-.69,1.14,1.14,0,0,1,0-.45s0-.44.13-1.08.18-1.51.29-2.36.2-1.72.28-2.36.13-1.08.13-1.08c0-.34.07-.68.09-1a8.68,8.68,0,0,0,0-.87,5.74,5.74,0,0,0,0-.74,3.59,3.59,0,0,0-.12-.62,2.52,2.52,0,0,0-.26-.65,2.44,2.44,0,0,0-.4-.49,2,2,0,0,0-.52-.34,2.58,2.58,0,0,0-.65-.17,4.93,4.93,0,0,0-.55,0,3,3,0,0,0-.57.08,3.26,3.26,0,0,0-.61.19,5.75,5.75,0,0,0-.69.36c-.13.07-.25.15-.37.23l-.37.25-.36.25-.36.25c0-.35.09-.65.13-.9s.07-.46.1-.62.05-.28.07-.36a1.13,1.13,0,0,1,0-.12l-.11-.08-.12-.08-.11-.09-.12-.08-.63.3-.64.3-.64.3-.64.31v.12l0,.12v.12l0,.12,0,0,.12.09a1.06,1.06,0,0,1,.15.15l.15.21c0,.07.07.16.11.25a2.41,2.41,0,0,1,.08.25c0,.09,0,.17.06.24a1.54,1.54,0,0,1,0,.19.66.66,0,0,1,0,.15v.21c0,.08,0,.16,0,.25s0,.19,0,.28l-.22,1.86L101.17,88,101,89.85l-.22,1.85h0s0,0,0,0v0a1.33,1.33,0,0,1-.15.45,1.31,1.31,0,0,1-.3.36,1.25,1.25,0,0,1-.41.22,1.27,1.27,0,0,1-.48.06h-.22l0,.19,0,.19,0,.19,0,.19,1.2.11Z" style="fill: #231815"/>
      <path d="M113.46,95.46l1.21.2,1.2.21,0-.18,0-.19,0-.19,0-.19h-.12a1.5,1.5,0,0,1-.42-.15,1.48,1.48,0,0,1-.35-.25,1.36,1.36,0,0,1-.25-.34,1.49,1.49,0,0,1-.15-.4,1.93,1.93,0,0,1,0-.25c0-.1,0-.2,0-.3s0-.21,0-.31,0-.19,0-.28l.17-.95.17-.94.18-1,.17-1,.15.51.15.52.15.51.16.52c.12.37.27.79.43,1.21s.34.87.54,1.3.4.87.61,1.28a10.91,10.91,0,0,0,.69,1.13l.09.1.08.09.08.09.09.09.18.12.16.09.11,0,0,0,.51.1.51.1.5.11.51.11h.07l0-.07V96.8l0-.1v-.1l0-.11,0-.11a.35.35,0,0,1-.12-.08A2.17,2.17,0,0,1,121,96a7.05,7.05,0,0,1-.58-.82c-.22-.37-.48-.84-.77-1.45,0-.08-.07-.15-.1-.23a2.56,2.56,0,0,0-.11-.24l-.1-.24a2,2,0,0,1-.11-.26c0-.1-.09-.21-.13-.31l-.13-.31c0-.11-.08-.21-.11-.31s-.08-.19-.11-.29l-.36-.93-.35-.93-.36-.93-.35-.93.19-.22.19-.21.2-.2.2-.21.26-.3.25-.26.24-.23a2.13,2.13,0,0,1,.22-.21q.19-.18.39-.33a4.68,4.68,0,0,1,.37-.29l.37-.23.35-.17.26-.11.25-.08.26-.06.25,0h.22l.19,0,.23,0h.46l0-.18,0-.18,0-.17,0-.18-1.23-.25-1.23-.24-1.23-.24-1.24-.22,0,.19,0,.19,0,.18,0,.19.05,0,.06,0,.06,0,.06,0,.12.08.1.07.08.09.07.09,0,.1a.36.36,0,0,1,0,.11.53.53,0,0,1,0,.13.78.78,0,0,1,0,.14,1.43,1.43,0,0,1-.08.29c0,.11-.1.22-.16.35a3.21,3.21,0,0,1-.23.38c-.09.13-.19.25-.3.38l-.48.52-.47.52-.49.51-.48.53,0-.11,0-.11v-.11l0-.11h0l.54-2.95.53-3,.54-3,.54-3h0l0-.16,0-.18,0-.16,0-.17L118,75l-.06-.06-.06-.07-.07-.06-.7.26-.7.26-.69.26-.71.26V76l0,.08v.09l0,.08h0l0,0,0,0,0,0h0l0,0,0,0,.08.08a.39.39,0,0,1,.08.1.83.83,0,0,1,.08.12l.06.14c0,.08.05.19.08.3a3.79,3.79,0,0,1,.06.38,3.3,3.3,0,0,1,0,.45,2.91,2.91,0,0,1,0,.49c0,.17-.2,1.12-.44,2.44s-.54,3-.85,4.7-.6,3.33-.83,4.56-.37,2.06-.37,2.06l0,.13c0,.09,0,.2-.06.34s-.06.28-.1.43-.09.42-.09.42a1.26,1.26,0,0,1-.15.38,1.24,1.24,0,0,1-.27.29,1,1,0,0,1-.36.19,1.4,1.4,0,0,1-.41,0h-.08l-.09,0h-.17l0,.18,0,.19,0,.19,0,.19,1.21.18Z" style="fill: #231815"/>
      <path d="M60.13,82.2v.18l0,.18.42,0,.42,0,.43,0,.42,0,0,.64.05.64,0,.64,0,.64h0l.1,1.3.1,1.29.1,1.3.1,1.29c0,.15,0,.29,0,.43s0,.26,0,.38,0,.22,0,.31v.21a2,2,0,0,1-.13.5,1.69,1.69,0,0,1-.29.41,1.41,1.41,0,0,1-.4.29,1.39,1.39,0,0,1-.5.15h-.11v.21l0,.19v.19l0,.18L63,93.45l3.54-.28-.06-.77h-.38a1.6,1.6,0,0,1-.58-.08,1.42,1.42,0,0,1-.5-.27,1.57,1.57,0,0,1-.38-.43,1.47,1.47,0,0,1-.2-.54v0h0v0h0l0-.2a2,2,0,0,1,0-.24c0-.09,0-.18,0-.28s0-.21,0-.32l-.09-1.23-.1-1.23L64,86.28l-.09-1.23-.06-.7,0-.69-.05-.7-.06-.7.65,0,.65,0,.65,0,.65,0,0-.45,0-.45,0-.45,0-.45-.65,0-.65,0-.65,0-.65,0,0-.29,0-.29,0-.29,0-.29c0-.43-.06-.84-.08-1.23s0-.75,0-1.1,0-.65,0-1,0-.57.07-.81a6.33,6.33,0,0,1,.17-.83,3,3,0,0,1,.24-.61,1.5,1.5,0,0,1,.32-.37.8.8,0,0,1,.4-.14.82.82,0,0,1,.31,0,1,1,0,0,1,.32.11,1.66,1.66,0,0,1,.32.2,2.67,2.67,0,0,1,.32.28l.3.31.3.34.29.37.29.39a1,1,0,0,0,.25,0l.23-.08a1.18,1.18,0,0,0,.19-.11,1.21,1.21,0,0,0,.16-.16.62.62,0,0,0,.12-.19.85.85,0,0,0,.08-.24,1.1,1.1,0,0,0,0-.27c0-.1,0-.2,0-.32a3,3,0,0,0-.1-.54,2.25,2.25,0,0,0-.19-.45,1.52,1.52,0,0,0-.3-.37,1.65,1.65,0,0,0-.39-.29,3.49,3.49,0,0,0-.34-.15,2.24,2.24,0,0,0-.37-.1l-.4,0h-.44a3.35,3.35,0,0,0-1,.2,3,3,0,0,0-.85.48,3.88,3.88,0,0,0-.74.77,6.1,6.1,0,0,0-.63,1A7.94,7.94,0,0,0,62,75.57a8.46,8.46,0,0,0-.29,1.23,11.35,11.35,0,0,0-.13,1.32,11,11,0,0,0,0,1.4v.73l-.37.39-.37.4-.38.4-.37.4V82Z" style="fill: #231815"/>
      <path d="M97.05,101.42a2.58,2.58,0,0,1,1.79-.89l.24,0v-.11l.14-1.26-.14,0c-2.54-.24-5.12-.44-7.65-.59h-.27l-.08,1.37.1,0,.41.15a3,3,0,0,1,1.79,1.14,3.26,3.26,0,0,1,.37,1.64,9.54,9.54,0,0,1-.34,2.32l-3.81,15.36c-.23-1.17-3.18-16.32-3.18-16.32a10.11,10.11,0,0,1-.23-2c0-.1,0-.21,0-.31a2.34,2.34,0,0,1,.34-1.2,2.28,2.28,0,0,1,1.65-.76c.22,0,.44-.08.67-.14l.1,0L89,98.4h-.3c-2.82-.13-5.68-.19-8.51-.19h-.51v1.37l.12,0a3,3,0,0,1,2.82,3.19c0,.19,0,.36,0,.52a5.31,5.31,0,0,1-.25,1.12h0c-.17.58-3.38,12.44-4.14,15.28-.21-1.15-3-16.26-3-16.26a5.67,5.67,0,0,1-.11-1,3.35,3.35,0,0,1,.09-.81,2.13,2.13,0,0,1,.59-1.07,3.65,3.65,0,0,1,1.78-.83l.39-.1.1,0,0-1.37h-.14c-2.75,0-5.45.13-8.23.27l-.24,0h-.14l.11,1.36.29.13a2.55,2.55,0,0,1,1.35,1,10.46,10.46,0,0,1,.87,3.12l4.55,24.65h.12l1,0h.11l5.77-22.15c.23,1.17,4.31,22.31,4.31,22.31h.11l.95,0H89l5.76-22.29A12.65,12.65,0,0,1,97.05,101.42Z" style="fill: #231815"/>
      <path d="M74.47,128.79l-.14-1.41H74.2a3.32,3.32,0,0,1-.94-.08,1.91,1.91,0,0,1-.88-.48,9.51,9.51,0,0,1-2-3.69L61,97.17h-.11l-.3,0,0,.09a5.64,5.64,0,0,1-.43,1A4.73,4.73,0,0,1,58.66,100l-.08,0,.28,1.24s-3.46,23.63-3.46,23.63a13.94,13.94,0,0,1-1,3.26,1.42,1.42,0,0,1-.13-.12,8.23,8.23,0,0,1-1.55-3.77l-3.94-16.58a12.66,12.66,0,0,1-.4-2.76.28.28,0,0,1,0-.09,3.31,3.31,0,0,1,.28-1.48A2.83,2.83,0,0,1,50.41,102l.51-.2.11,0-.27-1.34-.13,0c-3.69.58-7.26,1.23-10.6,2l-.14,0,.37,1.36.13,0a4.49,4.49,0,0,1,2.19,0,2.87,2.87,0,0,1,1.4.91,7.46,7.46,0,0,1,1.38,3.21s.76,3.21,1.62,6.81c-3.72.72-7.43,1.57-11.07,2.53-.87-3.71-1.66-7-1.66-7a12,12,0,0,1-.3-1.72,4.43,4.43,0,0,1,.13-1.63,3.52,3.52,0,0,1,2.83-2.31l.14,0-.4-1.36-.13,0c-3.45.81-6.8,1.7-10.24,2.71L26,106l.48,1.29h.1l.56,0a2.72,2.72,0,0,1,2.1.36,3.22,3.22,0,0,1,.91,1.24,12.23,12.23,0,0,1,.86,2.56l4,17a7.88,7.88,0,0,1,.25,4A3.16,3.16,0,0,1,33.87,134c-.26.18-.56.38-.87.63l-.07.05.33,1.37.14,0c3.37-1.1,6.81-2.08,10.23-2.93l.14,0-.34-1.39-.14,0a4.81,4.81,0,0,1-1.75.19,2.89,2.89,0,0,1-1.61-.76,3.9,3.9,0,0,1-.89-1.42,16.41,16.41,0,0,1-.77-2.54l-1.77-7.45c3.64-1,7.35-1.81,11.07-2.53.9,3.82,1.74,7.36,1.74,7.36a19.09,19.09,0,0,1,.46,2.61,3.66,3.66,0,0,1-.15,1.66,2.9,2.9,0,0,1-1.14,1.42,5.07,5.07,0,0,1-1.68.64l-.15,0,.33,1.39.14,0c2-.44,4-.85,6.05-1.21l.73-.13,3.9-.62h0c1.05-.15,2.1-.3,3.16-.43l.14,0L61,128.52l-.86,0a2.6,2.6,0,0,1-2.11-.71,3.13,3.13,0,0,1-.7-2.24,7,7,0,0,1,.07-1s.44-3.35,1-7.33q3-.39,6-.67l2.37,6.47a7.69,7.69,0,0,1,.51,2.32c0,.06,0,.12,0,.17a2.16,2.16,0,0,1-1.81,2.34l-.18.07-.08,0,.14,1.37h.14c2.93-.28,5.92-.48,8.89-.6Zm-15.81-14c.56-4.21,1.14-8.52,1.34-10,.18.51,1.85,5.07,3.47,9.51C61.86,114.42,60.26,114.6,58.66,114.79Z" style="fill: #231815"/>
      <path d="M133.93,106.75h0a10.1,10.1,0,0,0-1.37-1.58A6.33,6.33,0,0,0,130.1,104h0a5.76,5.76,0,0,0-2.77,0,7.14,7.14,0,0,0-2.62,1.35h0a9.48,9.48,0,0,0-2.26,2.69,12.11,12.11,0,0,0-1.32,3.57,9.68,9.68,0,0,0-.13,3.42,8.63,8.63,0,0,0,1.16,3.11c.63,1,1.37,2,2.09,3,.42.58.86,1.18,1.28,1.78a9,9,0,0,1,1.15,2.88,8,8,0,0,1,.13,1.38,7.83,7.83,0,0,1-.16,1.51,8.78,8.78,0,0,1-.71,2.12,5.23,5.23,0,0,1-1.09,1.5,3.36,3.36,0,0,1-1.35.81,3.08,3.08,0,0,1-1.51,0h0a3.61,3.61,0,0,1-1.59-.76,5.36,5.36,0,0,1-1.26-1.6,8.5,8.5,0,0,1-.92-2.58,16.69,16.69,0,0,1-.31-3.42v-1.2l-1.15.14-.75,7.07c-.14-.13-.29-.28-.45-.46a13,13,0,0,1-1.62-2.29,28.44,28.44,0,0,1-1.88-4.1h0s-4.1-10.18-4.16-10.34l6.2-6.68a11.92,11.92,0,0,1,3.53-2.67,5.06,5.06,0,0,1,2.59-.48h.12l.37-1.35-.42-.1c-2.57-.54-5.07-1-7.65-1.46l-.14,0,0,.13-.27,1.24.15,0a1.73,1.73,0,0,1,.68.29,1.21,1.21,0,0,1,.45.62,2.06,2.06,0,0,1-.11,1.4,7.69,7.69,0,0,1-1.47,2.2L104.73,115l1.49-8.57a12.53,12.53,0,0,1,.51-2.09,4.17,4.17,0,0,1,.73-1.35,2.62,2.62,0,0,1,1.08-.74,5,5,0,0,1,1.59-.28.14.14,0,0,0,.14-.12v0l0-.12.08-.38.14-.7-.15,0c-3.21-.51-6.48-.94-9.73-1.29h0l-.27,0v.13l-.17,1.23.11,0,.54.18a2.91,2.91,0,0,1,1.87,1.17,3.4,3.4,0,0,1,.39,1.53,12.77,12.77,0,0,1-.22,2.76L100,123a15.17,15.17,0,0,1-.67,2.69,4,4,0,0,1-.78,1.4,3,3,0,0,1-2.08.78l-1,.14-.1,0-.23,1.37.15,0c3.49.34,7,.81,10.45,1.39l.14,0,.24-1.4-.14,0a3.17,3.17,0,0,1-1.27-.57,6.16,6.16,0,0,1-1.37-1.33,2.68,2.68,0,0,1-.39-1.66,18.35,18.35,0,0,1,.31-2.59s.65-3.72,1.33-7.65l4.6,11.7h0a8,8,0,0,0,1.79,2.76,10.09,10.09,0,0,0,2.29,1.72,11.6,11.6,0,0,0,2.8,1.14l1,.25,0-.14a11,11,0,0,0,1.25.94,7.72,7.72,0,0,0,2.81,1.23h0a6.93,6.93,0,0,0,2.79.08,7.45,7.45,0,0,0,2.65-1.06,7.65,7.65,0,0,0,2.44-2.43,11,11,0,0,0,1.41-3.64,14.05,14.05,0,0,0,.33-2.92c0-.33,0-.65-.05-1a7.82,7.82,0,0,0-1.2-3.6h0c-.63-.94-1.24-1.86-1.82-2.75s-1.1-1.67-1.65-2.5a8.66,8.66,0,0,1-1.23-2.78,6.85,6.85,0,0,1-.15-1.42,6.13,6.13,0,0,1,.14-1.35,6.44,6.44,0,0,1,1.49-3.09,3.38,3.38,0,0,1,1.35-1,2.72,2.72,0,0,1,1.53-.07,2.69,2.69,0,0,1,1.44.92,4.36,4.36,0,0,1,.79,1.86,19.14,19.14,0,0,1,.16,2.94c0,.49,0,1,0,1.63l0,.76.87.29,1.91-6.85Z" style="fill: #231815"/>
      <path d="M86.44,133.57a2.33,2.33,0,0,0-2,.75,2.84,2.84,0,0,0-.67,1.76,2.66,2.66,0,0,0,.7,2.1,2.29,2.29,0,0,0,1.56.69,2.33,2.33,0,0,0,1.7-.54,2.76,2.76,0,0,0,.87-2.05c0-.06,0-.12,0-.17a2.78,2.78,0,0,0-.49-1.6A2.13,2.13,0,0,0,86.44,133.57Zm.81,4.38a1.11,1.11,0,0,1-1,.53,1.09,1.09,0,0,1-.6-.21,1.89,1.89,0,0,1-.5-.57,3.08,3.08,0,0,1-.39-1.72,3,3,0,0,1,.39-1.4,1.42,1.42,0,0,1,.49-.51,1.23,1.23,0,0,1,.64-.14,1.14,1.14,0,0,1,.62.22,1.52,1.52,0,0,1,.48.59,3.24,3.24,0,0,1,.33,1.69A2.85,2.85,0,0,1,87.25,138Z" style="fill: #231815"/>
      <path d="M98.22,139.25a2,2,0,0,1-.14-.47v0l-.94-4.54H97v0a1.15,1.15,0,0,1-.48.33h0v.23l-1.63,3.61a4.65,4.65,0,0,1-.3.42.71.71,0,0,1-.49.17h0a3.26,3.26,0,0,1-1.26-1.15h0l-1.1-1.63,1.14-1.13a4.77,4.77,0,0,1,.54-.42,1.3,1.3,0,0,1,.63-.2h.09l0-.29-1.8-.15v.05l0,.24h.09a.21.21,0,0,1,.18.1.16.16,0,0,1,0,.12v.05a1,1,0,0,1-.27.42L91,136.38l.12-1.46c0-.28.12-.58.68-.62h.06l0-.29-2.17-.18v0l0,.24h0c.41.1.61.16.61.71a1,1,0,0,1,0,.17l-.23,2.8c0,.37-.1.58-.22.68a.64.64,0,0,1-.44.12h-.19v0l0,.25,2.36.19,0-.29-.13,0a1.31,1.31,0,0,1-.36-.15c-.17-.08-.28-.22-.28-.57,0,0,0-.11,0-.17s0-.59.11-1.24l1.18,1.83a1.67,1.67,0,0,0,.46.4,3.07,3.07,0,0,0,1.33.42H94l1.83.2,0-.3-.21,0a.53.53,0,0,1-.42-.21.49.49,0,0,1,0-.19.88.88,0,0,1,.08-.32l.46-1.06c.07,0,1.18.14,1.26.15s.21,1.06.21,1.06v0a1.42,1.42,0,0,1,0,.24.44.44,0,0,1-.12.32.82.82,0,0,1-.38.11h0l0,.29,2,.22,0-.3-.19,0A.57.57,0,0,1,98.22,139.25ZM96,136.91l.61-1.41c.06.27.29,1.39.32,1.51Z" style="fill: #231815"/>
      <path d="M81.11,133.54v.3h.06a.85.85,0,0,1,.7.23,1.12,1.12,0,0,1,.19.69v2.15c0,1.15-.79,1.27-1.13,1.27a1.69,1.69,0,0,1-.93-.28,1.14,1.14,0,0,1-.52-1v-2.33a1,1,0,0,1,.16-.54.66.66,0,0,1,.53-.2h.16v-.3H78v.29h.12a.71.71,0,0,1,.52.25,1.24,1.24,0,0,1,.11.67v2.14a2,2,0,0,0,.28,1.2,1.93,1.93,0,0,0,1.66.61,1.68,1.68,0,0,0,1.84-1.81v-2.06a2,2,0,0,1,.14-.75c.07-.18.26-.22.41-.25l.1,0v-.29h-2Z" style="fill: #231815"/>
      <path d="M64.75,135.92v.1a.75.75,0,0,1-.12.44.55.55,0,0,1-.48.25l-.72.08c0-.11-.21-1.82-.22-1.93l.75-.08a.86.86,0,0,1,.73.16.79.79,0,0,1,.2.47l0,.13v.06h.26l0-1.3h-.09l-1,.11-1.53.17-.83.1,0,.29.21,0a.65.65,0,0,1,.45.16.7.7,0,0,1,.18.5s.34,3,.35,3,0,.13,0,.18a.55.55,0,0,1-.12.39,1,1,0,0,1-.52.24h0v.05l0,.25,2.42-.28,0-.3h0a1.67,1.67,0,0,1-.71-.14.65.65,0,0,1-.22-.49s-.13-1.16-.14-1.27l.55-.06c.29,0,.53-.06.65.05a1,1,0,0,1,.27.53v.06l.25,0L65,135.89Zm-.2,3.32h0v0Z" style="fill: #231815"/>
      <path d="M71.43,133.76h-.05l-2,.15,0,.29h.06a.89.89,0,0,1,.71.18,1.17,1.17,0,0,1,.25.67l.16,2.15v.17a1.17,1.17,0,0,1-.26.82,1,1,0,0,1-.77.36,1.65,1.65,0,0,1-1.15-.35,1.09,1.09,0,0,1-.39-.81s-.17-2.24-.18-2.32v0a.85.85,0,0,1,.12-.51.62.62,0,0,1,.51-.24l.16,0,0-.29-2.35.18,0,.28h.13a.7.7,0,0,1,.53.22,1.26,1.26,0,0,1,.16.65l.16,2.14a2,2,0,0,0,.38,1.18,1.94,1.94,0,0,0,1.7.48,1.81,1.81,0,0,0,1.31-.58,1.84,1.84,0,0,0,.39-1.36l-.16-2.06a1.87,1.87,0,0,1,.09-.76.49.49,0,0,1,.39-.28l.1,0V134Z" style="fill: #231815"/>
      <path d="M77.44,138.35a3.2,3.2,0,0,1-1.39-1l-1.28-1.49,1-1.25a4.52,4.52,0,0,1,.48-.49,1.51,1.51,0,0,1,.61-.27h.08v-.29h-.05l-1.75.06v.3h.09a.28.28,0,0,1,.2.08.23.23,0,0,1,0,.15v0a1,1,0,0,1-.22.44l-1.11,1.49c0-.73-.05-1.46-.05-1.46,0-.28.05-.59.61-.7h.06v-.3H74.7l-2.12.08V134h0c.46.07.67.09.71.81l.09,2.81v.06c0,.7-.19.74-.56.81l-.18,0v.3l2.37-.08v-.3l-.13,0a1,1,0,0,1-.38-.1c-.2-.07-.34-.22-.35-.71,0,0,0-.58,0-1.24l1.39,1.68a1.59,1.59,0,0,0,.5.35,3.11,3.11,0,0,0,1.37.26h.06l0-.29Z" style="fill: #231815"/>
    </g>
    <g>
      <rect x="45.86" y="52.5" width="68.59" height="13.44" style="fill: #fbc600"/>
      <rect x="45.76" y="22.89" width="68.59" height="13.45" style="fill: #fbc600"/>
    </g>
    <g>
      <g>
        <path d="M104.44,48.91a6.83,6.83,0,0,1-1.51,1.25,6.74,6.74,0,0,1-1.43.75,3,3,0,0,1-1,.33s-.09,0-.09.1.07.2.08.32a5.41,5.41,0,0,1,.21,1.57c0,.33-.06.64,0,1a16,16,0,0,1-.51,2.4,2.47,2.47,0,0,1-.33.81s-.06.06-.1,0c-.06-.35,0-.7,0-1a.54.54,0,0,0-.12-.42l0,0a8.59,8.59,0,0,1-.85,2.5,11.85,11.85,0,0,1-1.54,2,8.24,8.24,0,0,1-.81.86c-.3.18-.38,0-.4-.06.09-.51.48-.93.33-1.5l0,0c-.18.31-.27.6-.47,1-.07.2-.17.26-.3.53s-.34.59-.54.87a4.3,4.3,0,0,1-.76.92,8.83,8.83,0,0,1-2.38,1.67c-.14.06-.16.06-.17,0s.21-.27.3-.39a3.24,3.24,0,0,0,.81-1.26v0c-.45.4-.81.9-1.26,1.27a6,6,0,0,1-.89.72,22.93,22.93,0,0,1-2.07,1.41c-.11,0-.21.12-.33.13v-.06a10.51,10.51,0,0,0,1.29-1.84,14.62,14.62,0,0,0,.71-1.56c.16,0,.21-.23.28-.36s.23-.55.33-.83a10.57,10.57,0,0,0,.76-2.43,14.6,14.6,0,0,0,.14-2.29c0-.28,0-.56-.06-.83l0,.05c-.15.82-.17,1.66-.32,2.47a20,20,0,0,1-.45,2.23c-.12.41-.22.82-.36,1.21h0c0-.36.12-.73.12-1.09s0-.47,0-.7h0a3.7,3.7,0,0,0-.3,1,15,15,0,0,1-1.71,4.11,4.46,4.46,0,0,1-1.65,1.57l-1.34.55a10.57,10.57,0,0,1-1.77.51,16.69,16.69,0,0,1-2.11.26,15.12,15.12,0,0,1-1.9,0,7.47,7.47,0,0,1-1.06-.12,6.43,6.43,0,0,1-1.36-1.21A17.44,17.44,0,0,1,76,65.63a.23.23,0,0,0-.1-.07h0a2.93,2.93,0,0,0,.5,1A8.51,8.51,0,0,0,78,68.25c0,.06.1.06.07.14s-.45,0-.67,0a21.72,21.72,0,0,1-2.56-.6A28,28,0,0,1,72,66.6c-.29-.14-.64-.12-.93-.23a.16.16,0,0,0-.12,0c0,.08.09.06.11.14a6.34,6.34,0,0,1-1-.39c-.47-.31-.9-.64-1.35-1a13.27,13.27,0,0,1-2.79-2.91,7,7,0,0,1-.72-.82c-.11-.08-.16-.2-.28-.23l0,0a2.14,2.14,0,0,1,.32,1.43c-.09.11-.2,0-.24,0a15.06,15.06,0,0,1-1.14-1.12,8.44,8.44,0,0,1-.64-.81A19,19,0,0,1,62,58.48c-.17-.42-.51-1.58-.62-1.7s0,0,0,.07c0,.19.07.34.1.57a4.82,4.82,0,0,1,0,1.56.65.65,0,0,1-.21.42c-.2.08-.32,0-.48-.21A11.83,11.83,0,0,1,60,58a7,7,0,0,1-.6-1.29c-.11-.39-.33-1.69-.53-2.23-.1.08,0,.26-.12.31s-.77.11-1.08.11a5.18,5.18,0,0,1-1.59-.3s0,0,0-.06A10.13,10.13,0,0,0,57.31,54c.29-.17.59-.39.94-.62a33.78,33.78,0,0,0,4-4,18.26,18.26,0,0,0,1.54-2.18,8,8,0,0,0,.52-.77c.28-.62.68-1.18,1-1.8.2-.24.26-.54.44-.79.23-.45.39-.93.63-1.38s.36-.9.56-1.35c.08-.26.36-.87.39-1,.17-.46.38-.9.55-1.36.18-.27.22-.58.38-.86.22-.47.54-.89.8-1.34.12-.16.25-.32.36-.5a.63.63,0,0,0,.17-.23,8.07,8.07,0,0,1,.59-.7c.41-.55.92-1,1.34-1.6a2.73,2.73,0,0,0,.48-.48c.25-.13.38-.41.58-.59a7.13,7.13,0,0,1,1-.78,6.22,6.22,0,0,1,.78-.52c.43-.33.93-.44,1.34-.77.26-.16.54-.27.8-.41a11.68,11.68,0,0,0,1-.74c.17-.07.27-.24.43-.36a3.85,3.85,0,0,0,.59-.7s0-.11,0-.11.13-.17.2-.27,0,0,0-.08c.18-.17.15-.44.3-.62.1-.36.29-.68.39-1.05s0-.5.11-.77c0,0,.06-.06.1,0a1.61,1.61,0,0,1,.3.4,3.82,3.82,0,0,1,0,1.84c0,.13-.15.22-.07.33.17-.11.23-.34.41-.49a2.22,2.22,0,0,1,.84-.56,2.71,2.71,0,0,1,1.8-.25.57.57,0,0,1,.24.32.34.34,0,0,1-.1.3c-.25.19-.59.19-.85.39a5.1,5.1,0,0,1-.5.19.13.13,0,0,0,0,.06c.32.17.77.05,1.11.18a9.71,9.71,0,0,1,1.61.81l.36.34c.12.19.27.37.38.56a.31.31,0,0,1-.07.26c-.23.05-.41-.16-.61-.23-.31-.27-.65-.47-1-.7-.06,0-.15-.11-.19,0,0,.52.17,1,.18,1.51a8.63,8.63,0,0,1-.11,1.14,2.71,2.71,0,0,1-.23.64c-.06,0,0-.06-.07-.1a6.56,6.56,0,0,0-.87-1.6,5.28,5.28,0,0,1-.47-.57s-.08,0-.12,0-.06.21-.06.32,0,.16,0,.25a2.9,2.9,0,0,1-.27,1.65c-.07,0,0,.15-.11.2a1.39,1.39,0,0,1-.64.73c-.07,0-.17.06-.23,0a2.57,2.57,0,0,1,0-.74c.08-.23,0-.46,0-.69s0-.28,0-.43-.09,0-.12,0a5.45,5.45,0,0,0-.31.58,2.59,2.59,0,0,1-1,.87.41.41,0,0,1-.22,0c-.15-.15-.1-.4-.1-.58s.11-.57.15-.86h0c-.25.14-.29.42-.42.63a1.92,1.92,0,0,0,0,1c.1.19.37.1.55.11a2.42,2.42,0,0,0,1-.51s.06,0,.06.08a5.34,5.34,0,0,0,.11.84c.11.19.34.15.52.17a1.31,1.31,0,0,0,.88-.57,3,3,0,0,0,.35-.66c.11-.28.2-.57.29-.84s0-.33,0-.49.15.12.2.2.19.29.25.44a8.15,8.15,0,0,1,.29.83,4.45,4.45,0,0,0,0,.5s.08,0,.12,0a4.37,4.37,0,0,0,1.12-2.35c0-.05,0-.11,0-.12.49.06.86.34,1.33.4a7.18,7.18,0,0,1,1.51.94h.06A23.66,23.66,0,0,1,89,34.11a2.63,2.63,0,0,0,.3.38c.17.27.37.55.53.81s.4.68.6,1,.31.53.4.84.19.45.35.65c.38.65.7,1.33,1.06,2a32,32,0,0,0,1.8,2.87,4.93,4.93,0,0,0,.58.8A13.22,13.22,0,0,0,97,45.8c.47.49,1,.88,1.52,1.35A8.58,8.58,0,0,0,101,48.56a8.72,8.72,0,0,0,1.6.39c.32,0,.64,0,1,0a4.93,4.93,0,0,0,.89-.19S104.45,48.86,104.44,48.91Z" style="fill: #fbc600"/>
        <path d="M86,31A11.23,11.23,0,0,1,88,32.56a13.83,13.83,0,0,0,1,1.13l1.76-.82s5.59-2.85,6.6-5.7l.27-.73c.21-.53.43-1.06.59-1.62a3.13,3.13,0,0,0,.12-1.36,1.87,1.87,0,0,0-.22-.64,3.45,3.45,0,0,0-.2-.32.27.27,0,0,1,0-.14.81.81,0,0,0-.07-.22,1.06,1.06,0,0,0-.15-.28,3.22,3.22,0,0,0-.24-.28,1.37,1.37,0,0,0-.17-.17,1.48,1.48,0,0,0-.27-.16L97,21.2a.05.05,0,0,1,0,0l-.08,0a1.17,1.17,0,0,0-.32-.09.55.55,0,0,1-.33-.11L96,20.83a2,2,0,0,0-.72-.23,2.56,2.56,0,0,0-.78,0,4.13,4.13,0,0,0-.83.24,6.9,6.9,0,0,0-.86.43,8.22,8.22,0,0,0-.87.58c-.3.21-.6.45-.88.69s-.58.51-.86.78-.55.54-.82.82-.53.55-.78.84l-.72.82-.63.76-.54.68-.42.55-.3.39-.15.21c-.39.51-1.57,1.95-1.57,1.95Z" style="fill: gray"/>
        <path d="M92,48.6c-.4.72-.91,1.39-1.36,2.11s-.72,1.31-1.06,2c-.43.88-1,1.7-1.41,2.6A17.9,17.9,0,0,0,87.1,57.2c-.09.18-.2.36-.28.54s-.19.41-.33.59-.08.22-.18.29c-.14.35-.34.67-.5,1-.33.59-.57,1.2-.9,1.8A19.35,19.35,0,0,1,84,63.16a1,1,0,0,1-.74.32c-.26,0-.4-.3-.63-.41-.26-.3-.7-.52-.93-.84a5.12,5.12,0,0,1-.48-.44c-.19-.27-.5-.42-.68-.68a9.73,9.73,0,0,1-1.38-1.2c-.54-.35-.95-.82-1.48-1.13-.76-.52-1.51-.91-2.24-1.49a7.53,7.53,0,0,1-.68-.51c-.16-.05-.27-.23-.43-.29a4.66,4.66,0,0,0-.59-.43c-.16-.22-.41-.28-.58-.48s-.33-.23-.49-.39a11.19,11.19,0,0,1-1.22-1c-.09-.22-.34-.33-.47-.52a2.35,2.35,0,0,1-.67-.8,2.74,2.74,0,0,1-.09-1,6.35,6.35,0,0,1,.42-1.41,3.08,3.08,0,0,1,.78-1,3.45,3.45,0,0,0,.75-.36c.14,0,.27.16.41.23s.38.25.57.34a4.41,4.41,0,0,0,.81.32,4.71,4.71,0,0,0,1.06.19c.05,0,.13,0,.19,0s.4-.38.51-.5a2.14,2.14,0,0,0,.87-1.44,2.75,2.75,0,0,0,.2-.5c.12-.24.17-.58.29-.82a3.06,3.06,0,0,0,.1-.51,7.43,7.43,0,0,0,.23-1.14c0-.42.14-.81.14-1.25s.18-.81.27-1.21c.07-.68.28-1.3.4-2,0-.27.31-.51.38-.76s.15-.28.19-.42c.21-.32.5-.61.73-.9s.6-.54,1-.54a2,2,0,0,1,.81-.08,2.44,2.44,0,0,1,1.22.56,7,7,0,0,1,1.27,1.57c.15.38.43.71.55,1.1a26.78,26.78,0,0,0,1.58,3c.68.88,1.33,1.75,2.48,1.85a2.31,2.31,0,0,0,.75-.06,2.48,2.48,0,0,0,1.18-.68,6.51,6.51,0,0,1,.38-.59c.2,0,.33.17.5.26a4.51,4.51,0,0,1,1.1,1.3c0,.11,0,.23.12.32A3.58,3.58,0,0,1,92,48.6Z" style="fill: #f08c00"/>
        <path d="M90.38,44.24c.39-.38.29-1,.2-1.51l0-.32c0-.43-.1-.87-.17-1.29l-.07-.5-.13-.44a5.18,5.18,0,0,0-.17-.56,4.61,4.61,0,0,0-.32-.8c-.1-.2-.2-.41-.28-.62,0,0-.11-.19-.11-.19a.61.61,0,0,1-.11-.23v0h0a7.5,7.5,0,0,0-.91-1.13h0a3.25,3.25,0,0,0-.81-.58L87.2,36a1.85,1.85,0,0,0-1.07-.09.53.53,0,0,0-.19,0,.47.47,0,0,1-.2,0h0a.17.17,0,0,0-.13.13l-.26.18a2.47,2.47,0,0,0-.41.33,6.43,6.43,0,0,0-.62,1.15,6.52,6.52,0,0,0-.38,2h0v0a.71.71,0,0,1,0,.2.86.86,0,0,0-.05.23.22.22,0,0,0,0,.08h0a7.28,7.28,0,0,0,.73,1.18h0a4,4,0,0,1,.28.56,6,6,0,0,0,.41.84l.07.09a2.74,2.74,0,0,1,.84,1.42v0c0,.18.25.45.65.87a2.69,2.69,0,0,1,.52.64h0v0l0,0a1.72,1.72,0,0,0,.84.34h0a2.57,2.57,0,0,0,.75-.11h0l.27-.12a1,1,0,0,0,.45-.25l0,0v-.13a2.23,2.23,0,0,1,0-.26A4.54,4.54,0,0,1,90.38,44.24Z" style="fill: #fff"/>
        <path d="M73.51,49.28l-.13-.12c-.06,0-.13-.09-.18-.14a1.15,1.15,0,0,1-.21-.23c0-.09-.07,0-.14-.06l-.21-.24c-.16-.33-.59-.42-.63-.8a14.84,14.84,0,0,1-.27-3.85c0-.49.25-1.08.29-1.57a12.28,12.28,0,0,1,.65-1.94c0-.11.13-.22.17-.36A13.22,13.22,0,0,1,74,38.34c.13-.1.23-.28.4-.35a2,2,0,0,1,1.69-.29,3.57,3.57,0,0,1,1.11.86,3.27,3.27,0,0,1,.6,1A7,7,0,0,1,78.06,41c-.1.34-.2,1-.36,1.63,0,0-1.29,5.83-1.31,5.88a6.12,6.12,0,0,1-1,1.18.69.69,0,0,1-.31.12,1.15,1.15,0,0,1-.58,0l-.25-.09A.52.52,0,0,1,74,49.6l-.19-.12-.12-.09-.14-.08Z" style="fill: #fff"/>
        <path d="M70.25,53.61a19.64,19.64,0,0,0,.87,4.77l.08,0L71.87,60,73.39,63s-.27-.52-.11-.33c.44.57,1.65,2.31,1.75,2.45a9.87,9.87,0,0,0,2.37,2.51c1.63,1.29,2,1.23,2,1.23l3.06-.18,1.64-.28L86,67.8l1.83-.89.41-.64,1-1.55.54-1.53.52-.63.14-.21.61-1.64a12.94,12.94,0,0,0,.84-2.37c.11-.81.44-3.2.44-3.2s.16-.17.32-1.47a15.58,15.58,0,0,0-.2-5.68l-.65.9-1.92,3.3-1.74,3-2.53,4.84-1.25,2.39s-.35,1-.83,1-.37.13-2.51-1.81-7.92-6-7.92-6Z" style="fill: #fff"/>
        <path d="M71.82,37.63c.05,0,.1-.16.16-.29a7.7,7.7,0,0,1,1.54-2.24,1.3,1.3,0,0,1,1-.4,3.69,3.69,0,0,1,1.58.36,4.83,4.83,0,0,1,.69.33s.09,0,.12,0a4.42,4.42,0,0,0-.4-.93A2,2,0,0,0,75,33.31a2.54,2.54,0,0,0-1.92,1.16,6.53,6.53,0,0,0-1.12,2.17,6.64,6.64,0,0,0-.16.87A.28.28,0,0,0,71.82,37.63Z" style="fill: #231815"/>
        <path d="M92.58,47.1a2.13,2.13,0,0,0-.49-1.3,4.13,4.13,0,0,0-1.2-1.09.52.52,0,0,0-.38-.08,1.5,1.5,0,0,1-.74.79c-.08-.06,0-.12,0-.17a7.29,7.29,0,0,1,1.33-1.76,2.83,2.83,0,0,1,.64-.5c.09-.09.23-.12.31-.22l-.31.11a3.62,3.62,0,0,0-.36.15c-.18.1-.26.17-.39.24s-.05-.08-.07-.13a13,13,0,0,0-.13-2c0-.27-.13-.56-.16-.84A10.14,10.14,0,0,0,90.24,39a7.09,7.09,0,0,0-.67-1.49,6.68,6.68,0,0,0-1-1.24,4.6,4.6,0,0,0-1.13-.79,2.11,2.11,0,0,0-1.38-.26,5.83,5.83,0,0,0-1.3.43c-.09.06,0,.25.11.34s.12.17,0,.23a5.2,5.2,0,0,0-1.38,3.09s0,.06-.06,0a5,5,0,0,0-1.39-1.21,2.71,2.71,0,0,0-1.8,0A3.72,3.72,0,0,0,78.35,40c-.08.15-.06.13-.15.13a5.65,5.65,0,0,0-.31-.9,3.49,3.49,0,0,0-.71-.92c-.17-.19-.44-.29-.57-.5s0-.5-.17-.66a2.33,2.33,0,0,0-1.8.28A6.15,6.15,0,0,0,72.56,40a8.69,8.69,0,0,0-.54,1.3,14.14,14.14,0,0,0-.41,1.45,7,7,0,0,0-.22,1.88,12,12,0,0,0,.19,2.7s0,.06-.07,0a2.62,2.62,0,0,0-.75-.28,3.14,3.14,0,0,0-.7-.09,5.26,5.26,0,0,0-.9,0l0,0v0l1,0a1.89,1.89,0,0,1,.66.17,5.36,5.36,0,0,1,1.91,1.41c.18.22.17.21.29.22a1.56,1.56,0,0,0-.26-.47c-.28-.36-.61-.41-.66-.8A13,13,0,0,1,72,43.8a7.75,7.75,0,0,1,.25-1.44,13.26,13.26,0,0,1,.7-1.91,6.71,6.71,0,0,1,1.6-2.17,1.71,1.71,0,0,1,1.54-.37,2.91,2.91,0,0,1,1,.71,2.83,2.83,0,0,1,.59.93A3.52,3.52,0,0,1,78,40.93c-.13.47-.24,1-.37,1.41l-.07,0a5,5,0,0,0-.34-.51,1.09,1.09,0,0,0-.9-.09,1.68,1.68,0,0,0-.83.64,5.17,5.17,0,0,0-.72,4,3.46,3.46,0,0,0,.66,1.38,1,1,0,0,0,.77.44.08.08,0,0,1,0,.12,2.41,2.41,0,0,1-.86,1.34,2,2,0,0,1-1.23.1,5,5,0,0,1-1.57-.6,3.88,3.88,0,0,1-.44-.33,2,2,0,0,0-1.32.81,3.43,3.43,0,0,0-.8,2,5.07,5.07,0,0,0,.1,1.28,24.35,24.35,0,0,0,.3,2.85c0,.09,0,.2.07.28a16.88,16.88,0,0,0,.69,2.58l.08.1s.06,0,.06,0c-.07-.25-.15-.5-.22-.75a19.74,19.74,0,0,1-.64-4s0-.06.09,0c.48.42,1,.81,1.5,1.17s1,.76,1.53,1.11c.92.65,1.78,1.33,2.73,1.91A21.09,21.09,0,0,1,78,59.31c.46.3,1.59,1.37,1.8,1.47.69.63,1.47,1.37,1.88,1.8a3.57,3.57,0,0,1,.43.34,1.85,1.85,0,0,0,1.08.67.82.82,0,0,0,.65-.07,1.67,1.67,0,0,0,.65-.83c.21-.37.48-.89.74-1.41.12-.27.48-1,.5-1.06.16-.35.41-.64.56-1s.32-.55.45-.83.42-.81.64-1.2a7.6,7.6,0,0,1,.6-1c.59-1.21,1.36-2.34,1.91-3.56a8,8,0,0,0,.56-1,8.52,8.52,0,0,0,.48-.83c.23-.3.4-.64.62-1s.52-.87.76-1.32c0-.06.06-.19.15-.17a7.33,7.33,0,0,1,.19,1.27,22.75,22.75,0,0,1-.08,4.37,2.16,2.16,0,0,0,0,.44h0a1.81,1.81,0,0,0,.18-.77,9.11,9.11,0,0,0,.11-1A15.73,15.73,0,0,0,92.65,48,3.69,3.69,0,0,1,92.58,47.1ZM84,39.71a6.1,6.1,0,0,1,.37-2A6.92,6.92,0,0,1,85,36.6a1.71,1.71,0,0,1,.53-.44,1.22,1.22,0,0,1,.34-.18.87.87,0,0,1,.35-.06,2,2,0,0,1,1.21.17,3.11,3.11,0,0,1,.79.57,8.1,8.1,0,0,1,.91,1.12c.08.2.17.28.23.43a9.14,9.14,0,0,1,.6,1.42c.12.32.18.67.29,1,.09.59.19,1.18.24,1.79s.22,1.25-.23,1.69a4.81,4.81,0,0,0-.73,1.23.71.71,0,0,0,0,.25c-.3.4-1,.4-1.26.4a1.25,1.25,0,0,1-.65-.25,3.33,3.33,0,0,0,.21-.72c0-.3,0-.62,0-.95,0-.5-.14-1-.17-1.53A3.94,3.94,0,0,0,87,40.78a1.49,1.49,0,0,0-1.52-.73c-.23,0-.38.27-.5.44a2.25,2.25,0,0,0-.31.69s0,0-.09,0c-.18-.33-.4-.65-.57-1A2.67,2.67,0,0,1,84,39.71Zm1.9,2.4c-.05.07-.08,0-.17,0-.25-.19-.63-.33-.7-.7a.72.72,0,0,1,.22-.58c.24.08.35.36.52.55A6,6,0,0,1,85.9,42.11Zm-10.24.94a1,1,0,0,1,.26-.48c.15-.06.18.14.24.22a2.85,2.85,0,0,1,.16,1.58.08.08,0,0,1-.11.05A2.77,2.77,0,0,1,75.66,43.05Zm16.1,5.44c-.39.72-.84,1.39-1.29,2.1s-.76,1.33-1.1,2c-.43.88-1,1.7-1.41,2.59-.41.61-.72,1.24-1.06,1.87-.08.19-.19.37-.28.55s-.19.41-.32.59-.09.22-.18.29c-.15.35-.33.7-.5,1.05-.32.59-.56,1.21-.89,1.8A17.68,17.68,0,0,1,83.81,63a.64.64,0,0,1-.59.22c-.25,0-.4-.31-.62-.41-.27-.31-.62-.55-.85-.86-.17-.15-1.7-1.55-2.67-2.37-.55-.35-.83-.69-1.32-1-.76-.52-1.55-1-2.27-1.53-.22-.17-2.08-1.49-2.25-1.69s-.32-.23-.48-.39a9.81,9.81,0,0,1-1.18-1,4.08,4.08,0,0,1-1.13-1.32,2.45,2.45,0,0,1,0-1,4.11,4.11,0,0,1,.32-1.11,3.16,3.16,0,0,1,.77-1,2.17,2.17,0,0,1,.61-.37c.09.06.23.19.37.27a8.85,8.85,0,0,0,1.38.67,3.31,3.31,0,0,0,1.13.18,1.49,1.49,0,0,0,.22,0,1,1,0,0,0,.36-.22,4.25,4.25,0,0,0,1.28-1.9,11.74,11.74,0,0,0,.78-2.94c.07-.44.23-1.75.33-2.45s.28-1.3.4-2a3.63,3.63,0,0,1,.49-1.16,6,6,0,0,1,.65-.87,1.93,1.93,0,0,1,1.71-.58,2.45,2.45,0,0,1,1.21.58,6.45,6.45,0,0,1,1.17,1.55c.15.38.42.71.54,1.1a27.8,27.8,0,0,0,1.56,2.95c.68.88,1.52,1.91,2.68,2a2.33,2.33,0,0,0,.75-.06,3.11,3.11,0,0,0,1.3-.8c.12-.15.09-.37.22-.51s.34.13.51.25a4,4,0,0,1,1,1.26,1.27,1.27,0,0,1,.12.32A2.82,2.82,0,0,1,91.76,48.49Z" style="fill: #231815"/>
        <path d="M83.11,43.39a1.52,1.52,0,0,0,.28.89.36.36,0,0,0,.31.07c.38-.22.26-.66.21-1a.86.86,0,0,0-.6-.67C83,42.79,83.12,43.15,83.11,43.39Z" style="fill: #231815"/>
        <path d="M92.23,42.72s0,0-.06,0h0Z" style="fill: #231815"/>
        <path d="M80.41,44.93a.27.27,0,0,0,.13-.13,1.1,1.1,0,0,0,.15-.69,2.89,2.89,0,0,0,0-.88l-.08-.14c-.16,0-.37-.15-.53,0a1.83,1.83,0,0,0-.17,1.55A.56.56,0,0,0,80.41,44.93Z" style="fill: #231815"/>
        <path d="M90,47.28a1.79,1.79,0,0,0-1.45-.06s-.09,0-.07.08l.45.07c.19.07.4.07.52.25a2.26,2.26,0,0,1-.11,1.16,9.35,9.35,0,0,1-2.69,2.88,16.38,16.38,0,0,0-1.39,1.22,8.12,8.12,0,0,0-1.43,1.44A9.45,9.45,0,0,0,83,55.44c-.09.11-.15.26-.29.29a7.26,7.26,0,0,0-2-1.52,6.42,6.42,0,0,0-1.7-.57c-.61-.12-1.23-.2-1.84-.29a17.58,17.58,0,0,1-2-.45,3.34,3.34,0,0,1-.86-.28c-.39-.2-.88-.45-.9-1l.06-.08.8-.62v-.05h0a9.34,9.34,0,0,0-1,.26l-.25.1a2.39,2.39,0,0,0-1.25,2.25.07.07,0,0,0,.09.05c.06,0,.06-.08.08-.11a3.26,3.26,0,0,1,.73-1.1,1.14,1.14,0,0,1,.38-.33,2.6,2.6,0,0,1,.27.38,2.36,2.36,0,0,0,1.17.87c.14,0,.28.14.42.19.3.18.62.33.92.53s.22.17.39.25.45.33.68.52c.55.5,1.08,1.06,1.61,1.57.62.67,1.25,1.33,1.85,2.08s1.22,1.37,1.84,2.05a2.32,2.32,0,0,0,.72.53c.06,0,.15,0,.21-.06A5.61,5.61,0,0,0,84,59.47c.28-.6.52-1.09.72-1.65s.46-1,.68-1.49c0-.06,0-.14.1-.2.27-.64.61-1.27.91-1.9a19.77,19.77,0,0,1,1.35-2.35c.13-.17.2-.28.29-.42a15,15,0,0,0,1.43-2,3.52,3.52,0,0,0,.35-1.54.09.09,0,0,1,.07-.09,3.38,3.38,0,0,1,.87.82c.06.11.19.19.25.3s.06,0,.08,0a1.28,1.28,0,0,0-.3-.88A2.33,2.33,0,0,0,90,47.28ZM83.85,58.55A17.93,17.93,0,0,1,83,60.39a.15.15,0,0,1-.19,0c-.14-.07-.22-.23-.35-.34s-.37-.44-.62-.66c-.34-.42-.69-.77-1-1.2l0-.09a4,4,0,0,1,1.58-.83,3.35,3.35,0,0,1,1.18-.13.78.78,0,0,1,.63.31A9,9,0,0,1,83.85,58.55Z" style="fill: #231815"/>
        <path d="M92.39,54.2A6.18,6.18,0,0,0,92,52.89a1.45,1.45,0,0,0,0,.36,9.48,9.48,0,0,1,0,2.38c0,.34-.06.69-.07,1s0,.41-.08.61c0,.38,0,.75,0,1.14,0,.11-.07.22,0,.31l0-.07a18.49,18.49,0,0,0,.48-2.87c.1-.17,0-.38.07-.57S92.43,54.51,92.39,54.2Z" style="fill: #231815"/>
        <path d="M71.58,58.5l-.1-.25s-.06-.1-.11-.07c0,.28.1.56.14.84A11,11,0,0,0,72,60.39a4.32,4.32,0,0,1,.21.48A15.39,15.39,0,0,0,73.29,63c0,.08.09.17.18.19-.37-.8-.73-1.6-1.11-2.38A19.44,19.44,0,0,1,71.58,58.5Z" style="fill: #231815"/>
        <path d="M74.58,64c-.12-.3-.3-.57-.4-.89a11.94,11.94,0,0,1-.64-1.41c0-.07-.08-.19-.17-.22a8.67,8.67,0,0,0,.71,2c.25.49.5,1,.79,1.46A8.19,8.19,0,0,0,76,66.46a0,0,0,0,0,.07,0s0,0,0,0a11,11,0,0,1-.72-1.06C75.07,64.93,74.84,64.46,74.58,64Z" style="fill: #231815"/>
        <path d="M105.4,48.1a3.74,3.74,0,0,1-1.13.26,6.53,6.53,0,0,1-2.9-.35l-.5-.17a5.2,5.2,0,0,1-1.27-.65,4.87,4.87,0,0,1-.76-.52,32,32,0,0,1-3.22-2.92,14.63,14.63,0,0,1-1.46-2,26.15,26.15,0,0,1-1.52-2.45c-.34-.54-.59-1.12-.93-1.68s-.47-.9-.69-1.37a16.81,16.81,0,0,0-.92-1.59c-.15-.29-.42-.56-.6-.85-.47-.48-.86-1-1.34-1.51A11.05,11.05,0,0,0,87,31.25,7.82,7.82,0,0,0,85,30.4c-.09,0-.2,0-.24-.11l.41.07a.52.52,0,0,0,.38-.71,3.22,3.22,0,0,0-1.27-1.47c-.3-.21-.66-.23-1-.42-.08-.06-.21,0-.23-.12a.23.23,0,0,1,.18-.09c.28-.25.75-.43.65-.89a1.06,1.06,0,0,0-.29-.31,2.93,2.93,0,0,0-1.83-.2,3.64,3.64,0,0,0-1.14.46.73.73,0,0,1-.07-.36,5,5,0,0,0-.14-.65,1.36,1.36,0,0,0-1-1l0,0-.15.56a7.27,7.27,0,0,1-.36,1.48,1.35,1.35,0,0,0-.18.36,3.91,3.91,0,0,1-1,1.48,6.16,6.16,0,0,1-1.67,1.11,3.6,3.6,0,0,1-.76.38l-.3.08c-.47.27-1,.59-1.43.91,0,.06-.1.07-.14.13a10.2,10.2,0,0,0-1,.79c-.2.28-.49.44-.67.69-.47.49-1,.93-1.37,1.45-.3.3-.52.71-.81,1,0,.09-.16.17-.19.25-.3.45-.64.82-.92,1.27-.1.19-.62,1.11-.75,1.39-.15.45-.41.86-.55,1.31-.14.25-.17.54-.32.79a40.83,40.83,0,0,1-2.37,5.12c-.44.7-.82,1.44-1.33,2.11-.27.41-.56.8-.85,1.19-.44.57-.94,1.12-1.44,1.69a15.5,15.5,0,0,1-2,2s-.78.68-1.07.89a10.44,10.44,0,0,1-1.18.73,5.13,5.13,0,0,1-1.69.55,2.54,2.54,0,0,0,1.66,1,3.75,3.75,0,0,0,2.2-.06c.11.08.07.16.09.33a5.74,5.74,0,0,0,.43,2.22,4.9,4.9,0,0,0,.46,1c.34.45.71,1.12,1.34,1.16a.69.69,0,0,0,.39,0c.12-.06.29-.16.39-.58a.75.75,0,0,1,0-.26c.07,0,.18.29.29.49a11.31,11.31,0,0,0,2.14,3.22,1.44,1.44,0,0,0,1,.49.85.85,0,0,0,.36-.06l.06,0a13.34,13.34,0,0,0,4.87,3.67c.27.08.6.23.84,0a4.92,4.92,0,0,1,.56.29,11.33,11.33,0,0,0,2.34,1,12.85,12.85,0,0,0,2,.52,30.66,30.66,0,0,0,3.27.33A21.06,21.06,0,0,0,82.65,69a6.2,6.2,0,0,0,1.13-.19,17.72,17.72,0,0,0,4.1-1.53c.28-.12.53-.29.82-.41.44-.28.65-.43,1-.71s1-.69,1.45-1a3.06,3.06,0,0,0,1.62-.55,6,6,0,0,0,.79-.52,6.12,6.12,0,0,0,1.9-2.11c.09-.07.21-.22.34-.15s.49.07.79-.19a4.2,4.2,0,0,1,.32-.29c.28-.38.74-.65,1-1.07a6.7,6.7,0,0,0,1.12-1.67l.29-.61h0c.13,0,.59,0,.75-.2l0,0a2,2,0,0,1,.17-.23,8.78,8.78,0,0,0,.58-2c.09-.55.19-1.11.25-1.67s.21-1.3.22-2c0-.14,0-.29.12-.38s3.24-1.34,4-3.35C105.46,48.08,105.43,48.1,105.4,48.1ZM86.85,31.66s0,0,0,0Zm14.48,19.58h0Zm3.11-2.33a6.83,6.83,0,0,1-1.51,1.25,6.74,6.74,0,0,1-1.43.75,3,3,0,0,1-1,.33s-.09,0-.09.1.07.2.08.32a5.41,5.41,0,0,1,.21,1.57c0,.33-.06.64,0,1a16,16,0,0,1-.51,2.4,2.47,2.47,0,0,1-.33.81s-.06.06-.1,0c-.06-.35,0-.7,0-1a.54.54,0,0,0-.12-.42l0,0a8.59,8.59,0,0,1-.85,2.5,11.85,11.85,0,0,1-1.54,2,8.24,8.24,0,0,1-.81.86c-.3.18-.38,0-.4-.06.09-.51.48-.93.33-1.5l0,0c-.18.31-.27.6-.47,1-.07.2-.17.26-.3.53s-.34.59-.54.87a4.3,4.3,0,0,1-.76.92,8.83,8.83,0,0,1-2.38,1.67c-.14.06-.16.06-.17,0s.21-.27.3-.39a3.24,3.24,0,0,0,.81-1.26v0c-.45.4-.81.9-1.26,1.27a6,6,0,0,1-.89.72,22.93,22.93,0,0,1-2.07,1.41c-.11,0-.21.12-.33.13v-.06a10.51,10.51,0,0,0,1.29-1.84,14.62,14.62,0,0,0,.71-1.56c.16,0,.21-.23.28-.36s.23-.55.33-.83a10.57,10.57,0,0,0,.76-2.43,14.6,14.6,0,0,0,.14-2.29c0-.28,0-.56-.06-.83l0,.05c-.15.82-.17,1.66-.32,2.47a20,20,0,0,1-.45,2.23c-.12.41-.22.82-.36,1.21h0c0-.36.12-.73.12-1.09s0-.47,0-.7h0a3.7,3.7,0,0,0-.3,1,15,15,0,0,1-1.71,4.11,4.46,4.46,0,0,1-1.65,1.57l-1.34.55a10.57,10.57,0,0,1-1.77.51,16.69,16.69,0,0,1-2.11.26,15.12,15.12,0,0,1-1.9,0,7.47,7.47,0,0,1-1.06-.12,6.43,6.43,0,0,1-1.36-1.21A17.44,17.44,0,0,1,76,65.63a.23.23,0,0,0-.1-.07h0a2.93,2.93,0,0,0,.5,1A8.51,8.51,0,0,0,78,68.25c0,.06.1.06.07.14s-.45,0-.67,0a21.72,21.72,0,0,1-2.56-.6A28,28,0,0,1,72,66.6c-.29-.14-.64-.12-.93-.23a.16.16,0,0,0-.12,0c0,.08.09.06.11.14a6.34,6.34,0,0,1-1-.39c-.47-.31-.9-.64-1.35-1a13.27,13.27,0,0,1-2.79-2.91,7,7,0,0,1-.72-.82c-.11-.08-.16-.2-.28-.23l0,0a2.14,2.14,0,0,1,.32,1.43c-.09.11-.2,0-.24,0a15.06,15.06,0,0,1-1.14-1.12,8.44,8.44,0,0,1-.64-.81A19,19,0,0,1,62,58.48c-.17-.42-.51-1.58-.62-1.7s0,0,0,.07c0,.19.07.34.1.57a4.82,4.82,0,0,1,0,1.56.65.65,0,0,1-.21.42c-.2.08-.32,0-.48-.21A11.83,11.83,0,0,1,60,58a7,7,0,0,1-.6-1.29c-.11-.39-.33-1.69-.53-2.23-.1.08,0,.26-.12.31s-.77.11-1.08.11a5.18,5.18,0,0,1-1.59-.3s0,0,0-.06A10.13,10.13,0,0,0,57.31,54c.29-.17.59-.39.94-.62a33.78,33.78,0,0,0,4-4,18.26,18.26,0,0,0,1.54-2.18,8,8,0,0,0,.52-.77c.28-.62.68-1.18,1-1.8.2-.24.26-.54.44-.79.23-.45.39-.93.63-1.38s.36-.9.56-1.35c.08-.26.36-.87.39-1,.17-.46.38-.9.55-1.36.18-.27.22-.58.38-.86.22-.47.54-.89.8-1.34.12-.16.25-.32.36-.5a.63.63,0,0,0,.17-.23,8.07,8.07,0,0,1,.59-.7c.41-.55.92-1,1.34-1.6a2.73,2.73,0,0,0,.48-.48c.25-.13.38-.41.58-.59a7.13,7.13,0,0,1,1-.78,6.22,6.22,0,0,1,.78-.52c.43-.33.93-.44,1.34-.77.26-.16.54-.27.8-.41a11.68,11.68,0,0,0,1-.74c.17-.07.27-.24.43-.36a3.85,3.85,0,0,0,.59-.7s0-.11,0-.11.13-.17.2-.27,0,0,0-.08c.18-.17.15-.44.3-.62.1-.36.29-.68.39-1.05s0-.5.11-.77c0,0,.06-.06.1,0a1.61,1.61,0,0,1,.3.4,3.82,3.82,0,0,1,0,1.84c0,.13-.15.22-.07.33.17-.11.23-.34.41-.49a2.22,2.22,0,0,1,.84-.56,2.71,2.71,0,0,1,1.8-.25.57.57,0,0,1,.24.32.34.34,0,0,1-.1.3c-.25.19-.59.19-.85.39a5.1,5.1,0,0,1-.5.19.13.13,0,0,0,0,.06c.32.17.77.05,1.11.18a9.71,9.71,0,0,1,1.61.81l.36.34c.12.19.27.37.38.56a.31.31,0,0,1-.07.26c-.23.05-.41-.16-.61-.23-.31-.27-.65-.47-1-.7-.06,0-.15-.11-.19,0,0,.52.17,1,.18,1.51a8.63,8.63,0,0,1-.11,1.14,2.71,2.71,0,0,1-.23.64c-.06,0,0-.06-.07-.1a6.56,6.56,0,0,0-.87-1.6,5.28,5.28,0,0,1-.47-.57s-.08,0-.12,0-.06.21-.06.32,0,.16,0,.25a2.9,2.9,0,0,1-.27,1.65c-.07,0,0,.15-.11.2a1.39,1.39,0,0,1-.64.73c-.07,0-.17.06-.23,0a2.57,2.57,0,0,1,0-.74c.08-.23,0-.46,0-.69s0-.28,0-.43-.09,0-.12,0a5.45,5.45,0,0,0-.31.58,2.59,2.59,0,0,1-1,.87.41.41,0,0,1-.22,0c-.15-.15-.1-.4-.1-.58s.11-.57.15-.86h0c-.25.14-.29.42-.42.63a1.92,1.92,0,0,0,0,1c.1.19.37.1.55.11a2.42,2.42,0,0,0,1-.51s.06,0,.06.08a5.34,5.34,0,0,0,.11.84c.11.19.34.15.52.17a1.31,1.31,0,0,0,.88-.57,3,3,0,0,0,.35-.66c.11-.28.2-.57.29-.84s0-.33,0-.49.15.12.2.2.19.29.25.44a8.15,8.15,0,0,1,.29.83,4.45,4.45,0,0,0,0,.5s.08,0,.12,0a4.37,4.37,0,0,0,1.12-2.35c0-.05,0-.11,0-.12.49.06.86.34,1.33.4a7.18,7.18,0,0,1,1.51.94h.06A23.66,23.66,0,0,1,89,34.11a2.63,2.63,0,0,0,.3.38c.17.27.37.55.53.81s.4.68.6,1,.31.53.4.84.19.45.35.65c.38.65.7,1.33,1.06,2a32,32,0,0,0,1.8,2.87,4.93,4.93,0,0,0,.58.8A13.22,13.22,0,0,0,97,45.8c.47.49,1,.88,1.52,1.35A8.58,8.58,0,0,0,101,48.56a8.72,8.72,0,0,0,1.6.39c.32,0,.64,0,1,0a4.93,4.93,0,0,0,.89-.19S104.45,48.86,104.44,48.91Z" style="fill: #231815"/>
        <path d="M83.78,35c.14,0,.17,0,.3-.23l.67-1.06a1.46,1.46,0,0,1,.5-.52,1.16,1.16,0,0,1,.87,0,6.56,6.56,0,0,1,2.17,1.77c.11-.1,0-.18-.05-.32a7.38,7.38,0,0,0-1.35-1.84,2.08,2.08,0,0,0-.82-.56,1.75,1.75,0,0,0-1.15,0c-.66.18-.85.92-1.07,1.46,0,.25-.11.42-.15.66a1.82,1.82,0,0,0,0,.61A.1.1,0,0,0,83.78,35Zm3.85-1a.09.09,0,0,1,0,0s0,0,0,0S87.61,33.91,87.63,34Z" style="fill: #231815"/>
        <path d="M87.63,34a.09.09,0,0,1,0,0s0,0,0,0S87.61,33.91,87.63,34Z" style="fill: #231815"/>
        <path d="M70.05,34.57s-1.26-3.68-1-4.67a9.47,9.47,0,0,1,1.59-2.47,3.23,3.23,0,0,1,.58-2.12,13.89,13.89,0,0,1,2.86-2,1,1,0,0,0,.31-.23v-.2l0-.22a.5.5,0,0,0,0-.21,1,1,0,0,1,0-.17,1.74,1.74,0,0,0,0-.22.23.23,0,0,1,0-.14.75.75,0,0,1,.07-.12,1.58,1.58,0,0,1,.12-.15.75.75,0,0,1,.24-.19l.33-.16a.67.67,0,0,1,.19-.05h.11a.53.53,0,0,0,.18-.05l.13,0a1,1,0,0,1,.25,0,1.08,1.08,0,0,1,.49.1,1.61,1.61,0,0,1,.5.4,3.25,3.25,0,0,1,.23.29l.12.17.11.19s3.76-1.1,6.52.62a5.17,5.17,0,0,1,2.44,4.69,29.3,29.3,0,0,1-3.74,4.39c-1.59,1.3-2.42,1.9-3.6,2a3.69,3.69,0,0,1-2.76-.65,9.58,9.58,0,0,1-1.19-.83L74.77,32,72,33.3l-2,1.53Z" style="fill: #fff"/>
        <path d="M70.05,34.57s-1.26-3.68-1-4.67a9.47,9.47,0,0,1,1.59-2.47,3.23,3.23,0,0,1,.58-2.12,13.89,13.89,0,0,1,2.86-2,1,1,0,0,0,.31-.23v-.2l0-.22a.5.5,0,0,0,0-.21,1,1,0,0,1,0-.17,1.74,1.74,0,0,0,0-.22.23.23,0,0,1,0-.14.75.75,0,0,1,.07-.12,1.58,1.58,0,0,1,.12-.15.75.75,0,0,1,.24-.19l.33-.16a.67.67,0,0,1,.19-.05h.11a.53.53,0,0,0,.18-.05l.13,0a1,1,0,0,1,.25,0,1.08,1.08,0,0,1,.49.1,1.61,1.61,0,0,1,.5.4,3.25,3.25,0,0,1,.23.29l.12.17.11.19s3.76-1.1,6.52.62a5.17,5.17,0,0,1,2.44,4.69,29.3,29.3,0,0,1-3.74,4.39c-1.59,1.3-2.42,1.9-3.6,2a3.69,3.69,0,0,1-2.76-.65,9.58,9.58,0,0,1-1.19-.83L74.77,32,72,33.3l-2,1.53Z" style="fill: #333"/>
        <path d="M73.15,32.56s2.47,2.61,4.59,3.07a6.79,6.79,0,0,0,4.05-.51,14.89,14.89,0,0,0,2.45-2A24,24,0,0,0,85.87,31L87,29.62l-1.52-.7A23.61,23.61,0,0,0,83.69,31a8.73,8.73,0,0,1-1.3,1.36,5.42,5.42,0,0,1-1.55,1.06h0l0,0-.08.06-.12.07-.14.08-.17.09-.2.09-.22.08L79.6,34l-.28.06-.3,0-.31,0-.34,0-.36,0c-.12,0-.25,0-.37-.09l-.4-.13a3.52,3.52,0,0,1-.4-.18c-.15-.07-.28-.15-.42-.23s-.29-.19-.43-.29l0,0L75.84,33a.3.3,0,0,1-.08-.08.15.15,0,0,0-.05-.06l-.1-.07,0,0,0,0s0-.05,0-.06a.08.08,0,0,0,0,0,.53.53,0,0,1-.06-.1.2.2,0,0,0-.07-.06.23.23,0,0,1-.07-.07l-.07-.11-.06-.08a.21.21,0,0,1,0-.06l0,0v0l0-.06,0,0,0,0,0,0,0-.06-.07,0c-.05,0-.09,0-.13,0a.05.05,0,0,0,0,0l-.17.07-.24.1-.28.12-.29.13-.25.1-.18.08Z" style="fill: gray"/>
        <path d="M98.14,22.24a3.36,3.36,0,0,0-.5-.64c-.06-.06-.11-.13-.18-.19a2.93,2.93,0,0,0-.74-.48,5.32,5.32,0,0,0-2.15-.39,4.26,4.26,0,0,0-.94.16,9.44,9.44,0,0,0-.89.32,10.54,10.54,0,0,0-1.81,1.1c-.23.17-.44.38-.66.58l-.44.4c-.1.12-.21.23-.32.35l-.21.27c-.32.35-.6.72-.9,1.08s-.64.78-1,1.18l-.32.4c-.08.11-.36.52-.49.53a.08.08,0,0,1-.06,0,.8.8,0,0,1-.07-.2c0-.15-.07-.31-.11-.47-.06-.32-.16-.62-.24-.94a5,5,0,0,0-.39-1.15,2.92,2.92,0,0,0-.24-.37,3.62,3.62,0,0,0-.92-.87l-.36-.2a5.42,5.42,0,0,0-.69-.32,9.64,9.64,0,0,0-2.11-.57c-.45-.06-.9-.13-1.37-.15a10.7,10.7,0,0,0-1.62.06l-.18,0a2.54,2.54,0,0,1-.59.05,1.7,1.7,0,0,1-.32-.34,1.86,1.86,0,0,0-1-.61,1.43,1.43,0,0,0-.29,0h-.26a3.47,3.47,0,0,0-.6.18,1.67,1.67,0,0,0-1,1.44c0,.14,0,.42,0,.45a10.54,10.54,0,0,0-1,.47c-.36.2-.73.39-1.08.61a5.56,5.56,0,0,0-.67.53,2.4,2.4,0,0,0-.6.75,1.63,1.63,0,0,0-.13.39,3.56,3.56,0,0,0-.15.75c0,.12,0,.24,0,.37a1,1,0,0,1,0,.3,1.15,1.15,0,0,1-.26.33l-.34.41c-.12.17-.23.34-.35.5a6.1,6.1,0,0,0-.55,1,3.37,3.37,0,0,0-.06,2c0,.13,0,.25.07.39a2.51,2.51,0,0,1,0,.27l.18.69.15.6c0,.15.09.3.14.45s0,.22.08.33.1.29.15.43a1.56,1.56,0,0,1,.1.37c0,.13-.21.34-.31.43a.52.52,0,0,0-.1.11c0,.08,0,.14.11.16s.78-.67.91-.79a8.17,8.17,0,0,1,.7-.62l.59-.42c.24-.16.47-.35.72-.5l.52-.33s.11-.09.18-.09.33.28.4.34l.32.26.47.38.62.47.32.26.75.54a5.48,5.48,0,0,0,3.45,1,5.8,5.8,0,0,0,2.16-.54,6.11,6.11,0,0,0,.75-.41,8,8,0,0,0,1.17-.86l.37-.39c.28-.28.55-.58.81-.87l.29-.32.25-.32.23-.27.29-.42.27-.34.34-.49.91-1.2.22-.28c.12-.17.81-1,1-1.29l.2-.23c.14-.16.66-.71.78-.83.32-.34.61-.71.93-1.05.18-.18.69-.65.76-.73a8.55,8.55,0,0,1,2.55-1.83,3.05,3.05,0,0,1,.66-.17,2,2,0,0,1,.94.07,1.3,1.3,0,0,1,.82.87,1.87,1.87,0,0,1,0,.42A3.24,3.24,0,0,1,96,25.88a12.15,12.15,0,0,1-1.06,1.94l-.43.59a1.19,1.19,0,0,0-.22.33s0,0,0,0c.24,0,.82-.75,1-.94s.33-.44.48-.67.51-.87.57-1a3.16,3.16,0,0,0,.4-1.65,2,2,0,0,0-.07-.5,1.75,1.75,0,0,0-1.7-1.24,2.93,2.93,0,0,0-.79,0,4.37,4.37,0,0,0-.51.12,4.73,4.73,0,0,0-1.12.57c-.39.26-.68.51-.77.57a11,11,0,0,0-1,.95c-.23.2-.82.8-.89.89l-.37.4-.34.37c-.11.1-.57.62-.7.78s-.93,1.09-1.12,1.36l-.73,1-.49.64-.18.22c-.24.35-.47.72-.73,1.06l-.55.72-.28.3-.19.22a3.19,3.19,0,0,0-.26.26L83.1,34a9.32,9.32,0,0,1-.95.73,5.74,5.74,0,0,1-2.39.83,4.73,4.73,0,0,1-1.2,0L78,35.46a6.77,6.77,0,0,1-.77-.22,4.81,4.81,0,0,1-.53-.2,7.32,7.32,0,0,1-1.21-.88l-.63-.5-.67-.51-.35-.29-.24-.23c0-.06.38-.24.45-.28a15.16,15.16,0,0,1,1.61-.67c.26-.1.53-.18.8-.27l.5-.16.61-.15c.41-.11.81-.21,1.23-.29.21,0,.43-.07.65-.09l.24,0c.37,0,.75-.09,1.14-.1h.74c.55,0,1.11,0,1.64,0,.14,0,.36,0,.47.06s-.06.11-.07.12-.25.27-.38.41a7.8,7.8,0,0,1-.57.58,11.87,11.87,0,0,1-1,.89,5.93,5.93,0,0,1-.63.45c-.22.14-.43.23-.66.35s-.27.12-.36.16a3,3,0,0,1-.5.19,3.17,3.17,0,0,1-1.33.12,3.76,3.76,0,0,1-2-.89c-.18-.15-.35-.31-.52-.47a2.83,2.83,0,0,0-.24-.25.15.15,0,0,0-.14,0h0a.33.33,0,0,0,.05.2A4.63,4.63,0,0,0,77.15,34c.14.06.48.16.63.21a4.53,4.53,0,0,0,3.94-1.15A13.9,13.9,0,0,0,83,32l.68-.65c.19-.19,1.36-1.48,1.59-1.79l1.15-1.46,1.13-1.38c.25-.3.52-.58.75-.89l.67-.8A13.44,13.44,0,0,1,89.86,24c.17-.17.33-.35.5-.51l.16-.15.2-.21c.22-.19.45-.35.67-.54a5.93,5.93,0,0,1,1-.65,7.5,7.5,0,0,1,1.36-.6,5.3,5.3,0,0,1,.83-.19c.21,0,.44-.07.66-.08a4.78,4.78,0,0,1,.66,0,2.41,2.41,0,0,1,2,1.33,2.7,2.7,0,0,1,.24.76c0,.13,0,.28.06.42a2,2,0,0,1,0,.25,3.08,3.08,0,0,1-.06.75,10.77,10.77,0,0,1-.31,1.33c-.06.19-.13.35-.19.53a6.19,6.19,0,0,1-.8,1.58,6.81,6.81,0,0,1-1.23,1.39c-.28.24-.94.79-1.43,1.13a33,33,0,0,1-2.89,1.89c-.42.27-1.75,1-2,1.14a.66.66,0,0,0-.26.14.13.13,0,0,0,0,.12,1.7,1.7,0,0,0,.3.3c.12,0,.24-.06.33-.11s1.71-1,1.81-1.06c.4-.25,1.56-1,1.72-1.12a19.31,19.31,0,0,0,2.93-2.31l.34-.34a8.83,8.83,0,0,0,1-1.43,9.1,9.1,0,0,0,.48-.93c.1-.23.18-.48.26-.72l.09-.31A4.8,4.8,0,0,0,98.14,22.24ZM74.65,21.9a1.15,1.15,0,0,1,.63-.58,4.11,4.11,0,0,1,.46-.15,1.28,1.28,0,0,1,1.26.59s.09.13.06.17-.5.16-.59.19a11,11,0,0,0-1.41.45c-.13,0-.59.28-.56.19a2.09,2.09,0,0,1,0-.25A1.53,1.53,0,0,1,74.65,21.9Zm11.42,5.79a1,1,0,0,1-.21.35l-.42.55-.24.28-.2.27-.57.7-.31.38c-.09.08-.54,0-.68,0l-.57-.06c-.28,0-.55,0-.83,0h-.41a.64.64,0,0,0-.2,0H81a.42.42,0,0,0-.16,0,.75.75,0,0,0-.26,0,.42.42,0,0,0-.16,0,.4.4,0,0,0-.19,0H80.1s-.09,0-.11,0a.32.32,0,0,0-.14,0h-.32s-.1,0-.13,0h-.2l-.1,0h-.16a.27.27,0,0,0-.13,0h-.22a1.37,1.37,0,0,0-.28.05l-.47.12-.73.19-.58.18L76,31l-.93.33-.49.18a9.74,9.74,0,0,0-1.13.54l-.94.58-.4.27-.41.28-.28.24a6.27,6.27,0,0,0-.48.42l-.2.22-.42.39s-.08-.06-.1-.1a3.68,3.68,0,0,1-.15-.57c-.07-.24-.15-.47-.2-.71a2.21,2.21,0,0,1-.05-.25,2.61,2.61,0,0,1-.06-.27c0-.12-.07-.24-.1-.36-.08-.35-.12-.69-.17-1.06a5.83,5.83,0,0,1-.1-.73,2.75,2.75,0,0,1,.09-.82,2.89,2.89,0,0,1,.27-.56,6.18,6.18,0,0,1,.43-.66,3.53,3.53,0,0,0,.21-.32.8.8,0,0,1,.15-.21s0,0,0,0h0s0,0,0,0,0,.29.05.44a4.4,4.4,0,0,0,.27,1,2.46,2.46,0,0,0,.19.4s.08.11.13.09a.08.08,0,0,0,0,0,1.75,1.75,0,0,0,0-.45c0-.3-.1-.62-.13-.93A8.08,8.08,0,0,1,71,26.87a4.14,4.14,0,0,1,.33-1.23,2.15,2.15,0,0,1,.44-.72,5.29,5.29,0,0,1,.77-.6c.15-.08,1-.58,1.33-.74s.45-.23.69-.33l.92-.35c.27-.09.54-.16.82-.24a17.78,17.78,0,0,1,2.21-.51,10.49,10.49,0,0,1,3,0,6.63,6.63,0,0,1,1.31.31,4.31,4.31,0,0,1,2.29,1.79c.07.14.15.27.21.41a11.46,11.46,0,0,1,.39,1.3c.09.33.17.66.25,1A1.5,1.5,0,0,1,86.07,27.69Z" style="fill: #231815"/>
      </g>
      <g>
        <path d="M83.08,28.7v-.05s0,0,0-.07v0a.19.19,0,0,1,0-.07v0a0,0,0,0,0,0,0v-.05a.13.13,0,0,1,0-.06.42.42,0,0,0,0-.12l0,0h-.08a0,0,0,0,0,0,0h-.24s0,0,0,0l0,0v0s0,0,0,0,0,0,0,0v0s0-.1,0-.16v-.16a.06.06,0,0,1,0,0v0a.13.13,0,0,1,0-.06s0,0,0,0v0s0,0,0,0v-.07s0-.07,0-.11h0s0-.06,0-.09v0s0,0,0-.06v-.11a.44.44,0,0,1,0-.1.29.29,0,0,1,0-.09l0-.06s0,0,0,0,0,0,0,0l0,0v0h0l0,0,0,0h0l0,0s0,0,0,0h0l0,0-.06,0,0,0h0l0,0,0,0h0l-.06,0h-.38l0,0s0,0,0,0l0,0a0,0,0,0,0,0,0s0,0,0,0h-.07l0,0,0,0s0,0,0,0h0l0,0-.06,0,0,0-.08,0-.07,0-.05,0-.07,0-.09,0-.06,0,0,0h-.13v0s0,0,0,0v0a0,0,0,0,1,0,0v-.1h0a.45.45,0,0,1,0-.11h0v0s0,0,0,0h0l0,0s0,0,0,0l0,.07v0l0,.08h0v0s0,0,0,0l0,0h.52l0,0s0,0,0,0v0a0,0,0,0,0,0,0,0,0,0,0,0,0,0v-.05l0-.17v-.1s0,0,0-.06v-.05l0,0v0s0,0,0,0v0a.11.11,0,0,1,0-.05v0s0-.08,0-.12v-.08a.22.22,0,0,0,0-.08v0s0-.05,0-.08v0s0,0,0,0v0s0,0,0-.06v-.09s0,0,0,0h0l0,0h-.61s0,0,0,0v.19h0s0,0,0,0h-.06l-.11,0-.07,0h-.1l-.08,0H78.75l0,0h-.08l0,0h-.07l0,0h-.06a0,0,0,0,1,0,0l0,0v0l-.06,0-.07.06,0,0a0,0,0,0,0,0,0h0v0l0,0h0v0l0,0h0v0h0v0l0,0v0h0a0,0,0,0,1,0,0L78,25s0,0,0,0,0,0,0,.05h0a0,0,0,0,1,0,0v.06h0a.06.06,0,0,0,0,0v.11h0v.05h0s0,0,0,0v0h0v0a0,0,0,0,0,0,0v0a0,0,0,0,1,0,0l0,.05a0,0,0,0,0,0,0,.14.14,0,0,0,0,.06s0,0,0,0v0l0,0s0,0,0,0l0,0h0v0h0s0,0,0,0l0,0h0l0,0h0l0,0,0,0,0,0h.11l0,0h0s0,0,0,0h0l0,0h0s0,0,0,0H79l.1,0h.05l0,0,.14,0h0l0,0h0l0,0s0,0,0,0,0,0,0,0,0,0,0,.06v.05a0,0,0,0,0,0,0v.08a0,0,0,0,0,0,0h0v0h0v.05s0,.06,0,.09v.06s0,0,0,0v0a.28.28,0,0,0,0,.09s0,.05,0,.08h0s0,0,0,0h0l0,0-.08,0,0,0h0l0,0,0,0h0l0,0,0,0,0-.06,0,0h0l0,0s0,0,0,0h0l0,0h0l0-.06s0,0,0,0,0,0,0,0l-.09-.11,0,0,0,0a0,0,0,0,0,0,0s0,0,0,0h-.21a0,0,0,0,0,0,0h-.27l-.07,0,0,0s0,0,0,.06v0a0,0,0,0,0,0,0v0h0v0h0s0,0,0,0V27s0,0,0,0v.08s0,0,0,0v0h0v0a.06.06,0,0,1,0,0s0,0,0,.05a.2.2,0,0,0,0,.07v0s0,.05,0,.07v0a.09.09,0,0,1,0,.05.28.28,0,0,1,0,.09s0,0,0,0v.06h0v.09s0,0,0,0v0h0s0,0,0,0V28a0,0,0,0,1,0,0h0v0s0,0,0,0v.07l0,0h0l0,0,0,0a0,0,0,0,0,0,0H79l0,0h0a.11.11,0,0,0,0-.08v-.08a0,0,0,0,1,0,0v0h0s0,0,0,0h0v0h0l.06,0h0l0,0h0a0,0,0,0,1,0,0h0l0,0h.35v.09a.13.13,0,0,1,0,.06v0s0,0,0,0,0,0,0,0h0l0,0,0,0,0,0a0,0,0,0,0,0,0h0v0h0l0,0h0a.06.06,0,0,0,0,0h0v0h0v0h0v0a0,0,0,0,1,0,0v0h0v0h0s0,0,0,0a.22.22,0,0,1,0,.08v.1a0,0,0,0,0,0,0,.28.28,0,0,0,0,.13h0v0s0,0,0,0h0a.1.1,0,0,0,.09,0H81l0,0s0,0,0,0h0l0,0a.09.09,0,0,1,0-.05v-.27a.5.5,0,0,0,0-.12v-.07a0,0,0,0,0,0,0s0,0,0,0,0,0,0,0a.23.23,0,0,0-.07-.1h-.19l0,0,0,0a0,0,0,0,0,0,0s0,0,0,0v0a.13.13,0,0,1,0-.06s0-.07,0-.08,0,0,.05,0,0,0,0,0h.12l.08,0a.05.05,0,0,0,0,0l0,0h0a0,0,0,0,1,0,0h0s0,0,0,0l.06,0,0,0s0,0,0,0,0,0,0,0h0s0,0,0,0,0,0,0,0,0,0,0,0h0l0,0,.06-.1,0,0,0,0v0s0,0,0,0h0s0,.13,0,.16a.06.06,0,0,0,0,0v.14h0v.07a0,0,0,0,1,0,0h0v0s0,0,0,0v.07h0a.08.08,0,0,0,0,0h0v.07a0,0,0,0,1,0,0,.08.08,0,0,1,0,0h0l0,0,0,0a.15.15,0,0,0-.06.05s0,0,0,0h0s0,0,0,0h0v.08h0v0s0,0,0,.05h0v0h0s0,0,0,0h0v0h0v0h0v.09h0v0s0,.05,0,.07l0,0s0,0,0,0l0,0h0l0,0s0,0,0,0h1.38s0,0,0,0l0,0s0,0,0,0h0s0,0,0,0,0,0,0,0v0A.24.24,0,0,0,83.08,28.7Zm-4.53-2.59h0Zm.07.66Zm.23.82Zm1.25-2.54,0,0H80s0,0,0,0h0s0,0,0,0h-.26a0,0,0,0,0,0,0h-.33a.16.16,0,0,0-.11.07s0,0,0,.05a0,0,0,0,1,0,0s0-.07,0-.1a0,0,0,0,1,0,0,0,0,0,0,1,0,0s0,0,0,0h0l0,0h0l.07,0,0,0H80s.1,0,.12.05Z" style="fill: #fbc600"/>
        <path d="M83.08,28.7v-.05s0,0,0-.07v0a.19.19,0,0,1,0-.07v0a0,0,0,0,0,0,0v-.05a.13.13,0,0,1,0-.06.42.42,0,0,0,0-.12l0,0h-.08a0,0,0,0,0,0,0h-.24s0,0,0,0l0,0v0s0,0,0,0,0,0,0,0v0s0-.1,0-.16v-.16a.06.06,0,0,1,0,0v0a.13.13,0,0,1,0-.06s0,0,0,0v0s0,0,0,0v-.07s0-.07,0-.11h0s0-.06,0-.09v0s0,0,0-.06v-.11a.44.44,0,0,1,0-.1.29.29,0,0,1,0-.09l0-.06s0,0,0,0,0,0,0,0l0,0v0h0l0,0,0,0h0l0,0s0,0,0,0h0l0,0-.06,0,0,0h0l0,0,0,0h0l-.06,0h-.38l0,0s0,0,0,0l0,0a0,0,0,0,0,0,0s0,0,0,0h-.07l0,0,0,0s0,0,0,0h0l0,0-.06,0,0,0-.08,0-.07,0-.05,0-.07,0-.09,0-.06,0,0,0h-.13v0s0,0,0,0v0a0,0,0,0,1,0,0v-.1h0a.45.45,0,0,1,0-.11h0v0s0,0,0,0h0l0,0s0,0,0,0l0,.07v0l0,.08h0v0s0,0,0,0l0,0h.52l0,0s0,0,0,0v0a0,0,0,0,0,0,0,0,0,0,0,0,0,0v-.05l0-.17v-.1s0,0,0-.06v-.05l0,0v0s0,0,0,0v0a.11.11,0,0,1,0-.05v0s0-.08,0-.12v-.08a.22.22,0,0,0,0-.08v0s0-.05,0-.08v0s0,0,0,0v0s0,0,0-.06v-.09s0,0,0,0h0l0,0h-.61s0,0,0,0v.19h0s0,0,0,0h-.06l-.11,0-.07,0h-.1l-.08,0H78.75l0,0h-.08l0,0h-.07l0,0h-.06a0,0,0,0,1,0,0l0,0v0l-.06,0-.07.06,0,0a0,0,0,0,0,0,0h0v0l0,0h0v0l0,0h0v0h0v0l0,0v0h0a0,0,0,0,1,0,0L78,25s0,0,0,0,0,0,0,.05h0a0,0,0,0,1,0,0v.06h0a.06.06,0,0,0,0,0v.11h0v.05h0s0,0,0,0v0h0v0a0,0,0,0,0,0,0v0a0,0,0,0,1,0,0l0,.05a0,0,0,0,0,0,0,.14.14,0,0,0,0,.06s0,0,0,0v0l0,0s0,0,0,0l0,0h0v0h0s0,0,0,0l0,0h0l0,0h0l0,0,0,0,0,0h.11l0,0h0s0,0,0,0h0l0,0h0s0,0,0,0H79l.1,0h.05l0,0,.14,0h0l0,0h0l0,0s0,0,0,0,0,0,0,0,0,0,0,.06v.05a0,0,0,0,0,0,0v.08a0,0,0,0,0,0,0h0v0h0v.05s0,.06,0,.09v.06s0,0,0,0v0a.28.28,0,0,0,0,.09s0,.05,0,.08h0s0,0,0,0h0l0,0-.08,0,0,0h0l0,0,0,0h0l0,0,0,0,0-.06,0,0h0l0,0s0,0,0,0h0l0,0h0l0-.06s0,0,0,0,0,0,0,0l-.09-.11,0,0,0,0a0,0,0,0,0,0,0s0,0,0,0h-.21a0,0,0,0,0,0,0h-.27l-.07,0,0,0s0,0,0,.06v0a0,0,0,0,0,0,0v0h0v0h0s0,0,0,0V27s0,0,0,0v.08s0,0,0,0v0h0v0a.06.06,0,0,1,0,0s0,0,0,.05a.2.2,0,0,0,0,.07v0s0,.05,0,.07v0a.09.09,0,0,1,0,.05.28.28,0,0,1,0,.09s0,0,0,0v.06h0v.09s0,0,0,0v0h0s0,0,0,0V28a0,0,0,0,1,0,0h0v0s0,0,0,0v.07l0,0h0l0,0,0,0a0,0,0,0,0,0,0H79l0,0h0a.11.11,0,0,0,0-.08v-.08a0,0,0,0,1,0,0v0h0s0,0,0,0h0v0h0l.06,0h0l0,0h0a0,0,0,0,1,0,0h0l0,0h.35v.09a.13.13,0,0,1,0,.06v0s0,0,0,0,0,0,0,0h0l0,0,0,0,0,0a0,0,0,0,0,0,0h0v0h0l0,0h0a.06.06,0,0,0,0,0h0v0h0v0h0v0a0,0,0,0,1,0,0v0h0v0h0s0,0,0,0a.22.22,0,0,1,0,.08v.1a0,0,0,0,0,0,0,.28.28,0,0,0,0,.13h0v0s0,0,0,0h0a.1.1,0,0,0,.09,0H81l0,0s0,0,0,0h0l0,0a.09.09,0,0,1,0-.05v-.27a.5.5,0,0,0,0-.12v-.07a0,0,0,0,0,0,0s0,0,0,0,0,0,0,0a.23.23,0,0,0-.07-.1h-.19l0,0,0,0a0,0,0,0,0,0,0s0,0,0,0v0a.13.13,0,0,1,0-.06s0-.07,0-.08,0,0,.05,0,0,0,0,0h.12l.08,0a.05.05,0,0,0,0,0l0,0h0a0,0,0,0,1,0,0h0s0,0,0,0l.06,0,0,0s0,0,0,0,0,0,0,0h0s0,0,0,0,0,0,0,0,0,0,0,0h0l0,0,.06-.1,0,0,0,0v0s0,0,0,0h0s0,.13,0,.16a.06.06,0,0,0,0,0v.14h0v.07a0,0,0,0,1,0,0h0v0s0,0,0,0v.07h0a.08.08,0,0,0,0,0h0v.07a0,0,0,0,1,0,0,.08.08,0,0,1,0,0h0l0,0,0,0a.15.15,0,0,0-.06.05s0,0,0,0h0s0,0,0,0h0v.08h0v0s0,0,0,.05h0v0h0s0,0,0,0h0v0h0v0h0v.09h0v0s0,.05,0,.07l0,0s0,0,0,0l0,0h0l0,0s0,0,0,0h1.38s0,0,0,0l0,0s0,0,0,0h0s0,0,0,0,0,0,0,0v0A.24.24,0,0,0,83.08,28.7Zm-4.53-2.59h0Zm.07.66Zm.23.82Zm.83.35h-.32l-.07,0h0l0,0-.06,0,0,0h0l-.1-.06L79,27.65l0,0,0,0h-.06s0,.07,0,.09v.16a.44.44,0,0,1,0,.1s0,0,0,0,0,0,0,0h0s0,0,0,0,0,0,0,0h-.17l-.06,0,0,0s0,0,0,0a.15.15,0,0,1,0-.07s0-.05,0-.08v-.05h0v0h0a.07.07,0,0,0,0-.05v0a.09.09,0,0,0,0-.05v0h0v0h0v0s0-.05,0-.08v-.05s0,0,0,0v-.11s0,0,0,0,0-.05,0-.07v0s0,0,0,0v-.06h0a.13.13,0,0,1,0-.06v0s0,0,0,0,0,0,.08,0h.19a.13.13,0,0,1,0,.06l0,.05,0,0v0s0,0,0,0,0,0,0,0h0a0,0,0,0,0,0,0l.05.07h0l0,0v0l0,0v0h0s0,0,0,0,0,0,0,0l0,0,.22.13h0l.06,0h0l.07,0a.58.58,0,0,1,.14,0h0s0,.07,0,.09v.15a.11.11,0,0,1,0,.05v0a0,0,0,0,0,0,0S79.69,27.94,79.68,27.94Zm1,.64h.14a1.2,1.2,0,0,1,0,.2v.05a.24.24,0,0,1,0,.09l0,0h-.37s0,0,0,0h-.07s0,0,0,0h-.42a.09.09,0,0,1-.07,0v0h0v0a.36.36,0,0,1,0-.1s0-.05,0-.08a.17.17,0,0,1,0-.07s0,0,.06,0h0s.12-.06.14-.12a.15.15,0,0,0,0-.07.76.76,0,0,0,0-.15v-.08s0-.08,0-.12A.45.45,0,0,1,80,28a.2.2,0,0,1,0-.07h0c0-.06,0-.11,0-.17s0-.06,0-.09l0-.2v0h0v0h0a.2.2,0,0,1,0-.07.13.13,0,0,0,0-.06v-.05a.41.41,0,0,1,0-.11v-.06s0,0,0,0a.13.13,0,0,0,0-.06v0a.28.28,0,0,0,0-.09v-.06s0,0,0,0v-.1s0,0,0-.05h.35l.08,0h0s0,0,0,.06a0,0,0,0,0,0,0s0,0,0,.06v0h0a0,0,0,0,0,0,0h0l0,0,0,0s0,0,0,0a0,0,0,0,1,0,0,0,0,0,0,1,0,0h0s0,0,0,0h0a0,0,0,0,0,0,0h0v0s0,.05,0,.07v0s0,0,0,0,0,0,0,0l0,0h0v0s0,0,0,0l0,0h0s0,0,0,0l0,.05a.31.31,0,0,0,0,.13v.16s0,.06,0,.1v0a.17.17,0,0,1,0,.07v0a.22.22,0,0,0,0,.08v0h0v0h0a0,0,0,0,1,0,0v.06h0v0s0,0,0,.06v.05a0,0,0,0,0,0,0,.09.09,0,0,0,0,.05v0s0,0,0,0h0a0,0,0,0,0,0,0s0,0,0,0l0,0,0,0,0,0,0,0h0Zm.71-1.68a.05.05,0,0,0,0,.06,0,0,0,0,0,0,0s0,0,0,.05v0h0v0s0,0,0,0,0,0,0,0h0v0l0,0s0,0,0,0,0,0,0,0a.08.08,0,0,1,0,0,0,0,0,0,0,0,0h0v0s0,0,0,0v0l-.06.08v0l0,0,0,0-.09.09,0,0,0,0h0l0,0,0,0h0l-.07,0-.07,0h-.12V27.8a0,0,0,0,0,0,0,.34.34,0,0,0,0-.1v-.18l0-.06h0a0,0,0,0,1,0,0s0,0,0,0a0,0,0,0,0,0,0l0-.05h0v0a74169374746.64,74169374746.64,0,0,0,0-.06v0a.07.07,0,0,0,0-.05s0,0,0,0V27a.17.17,0,0,0,0-.07v-.11a0,0,0,0,0,0,0s0,0,0,0a0,0,0,0,0,0,0l0,0h0a.35.35,0,0,1,0-.08l0,0,0,0,0,0,0,0,0,0s0,0,0,0l-.11,0-.06,0h-.11l-.07,0h-.2l-.06,0h-.08l-.11,0h-.17l-.1,0h-.12L79,26.15l-.06,0h-.15l-.07,0,0,0h0l0,0s0,0-.06,0l0,0,0,0,0,0s0,0,0,0l-.09-.09v0l0,0v0l0-.05s0,0,0,0v0h0v0s0,0,0,0h0s0,0,0,0v0s0,0,0,0v0s0,0,0,0,0-.06,0-.09a.34.34,0,0,1,0-.1v0s0,0,0,0v0s0,0,0,0h0a.25.25,0,0,1,0-.07v0s0,0,0,0,0,0,0,0l0,0a.21.21,0,0,1,0-.06l0,0h0l.06-.05.06,0,0,0,0,0,0,0h0l0,0,0,0,0,0,.07,0,.08,0h.09l.09,0h1l.06,0h.14l0,0h0a0,0,0,0,0,0,0h.07v-.26h.2s.11,0,.14,0,0,0,0,0v0s0,.06,0,.08v0a.45.45,0,0,1,0,.11v.13a.34.34,0,0,1,0,.1.06.06,0,0,0,0,0V25s0,0,0,.07v0s0,0,0,0v0a.13.13,0,0,0,0,.06v.05a.44.44,0,0,1,0,.1s0,0,0,0h-.26l-.05,0s0,0,0,0,0,0,0-.06,0,0,0,0l0,0h0s0,0,0,0,0,0,0-.05l0,0s0,0,0,0v0s0,0,0,0v0a0,0,0,0,1,0,0h0l0-.05,0,0h0l0,0h0l-.06,0a0,0,0,0,1,0,0h-.06l0,0h-.9l0,0,0,0h-.08l-.06,0h0l0,0,0,0h0l0,0h0v0l0,0s0,0,0,0h0a.14.14,0,0,0,0,.06.14.14,0,0,0,0,.07v.11h0v.05s0,0,0,.05v0l0,0,0,0,0,0h0l.06.05.15.07h.19l.11,0h.05l0,0h.32l.06,0h.26l.1,0h0l.1,0h0s0,0,0,0h.06a0,0,0,0,1,0,0h.1l0,0,.07,0,.13.05h0l0,0,.08,0a0,0,0,0,1,0,0h0l.07.06,0,.06a.42.42,0,0,1,0,.1s0,0,0,0v0s0,0,0,0,0,0,0,.06,0,0,0,0v0a.17.17,0,0,0,0,.07v.05S81.35,26.86,81.35,26.9Zm-2-1.47a.13.13,0,0,1,0-.06,0,0,0,0,1,0,0,.07.07,0,0,1,.06,0h.8v0s0,0,0,0a.59.59,0,0,1,0,.14v0a.07.07,0,0,1,0,0s0,0,0,0v0h0v0H80.1l-.13,0h-.09a0,0,0,0,1,0,0H79.8l-.11,0-.11,0h-.06l-.08,0s-.13,0-.13,0Zm0-.27a.16.16,0,0,0-.11.07s0,0,0,.05a0,0,0,0,1,0,0s0-.07,0-.1a0,0,0,0,1,0,0,0,0,0,0,1,0,0s0,0,0,0h0l0,0h0l.07,0,0,0H80s.1,0,.12.05v0l0,0H80s0,0,0,0h0s0,0,0,0h-.26a0,0,0,0,0,0,0h-.33Zm3.52,3.47v0a.1.1,0,0,1,0,.07h0l0,0h-.31a0,0,0,0,0,0,0H81.7l0,0,0,0,0-.13V28.6h0v0a0,0,0,0,1,0,0,.12.12,0,0,1,0-.05h.06s0,0,0,0h0a.16.16,0,0,0,0-.1.13.13,0,0,0,0-.06s0-.08,0-.12v0a.17.17,0,0,1,0-.07v-.24h0a.09.09,0,0,0,0,0s0-.05,0-.08a.09.09,0,0,1,0-.05.06.06,0,0,1,0,0,.09.09,0,0,1,0-.05.17.17,0,0,1,0-.07.25.25,0,0,1,0-.07s0-.07,0-.1a.06.06,0,0,0,0,0,.08.08,0,0,1,0,0,0,0,0,0,1,0,0s0,0,0,0l0,0s0,0,0,0h0a.14.14,0,0,1,0-.07V27h0a0,0,0,0,1,0,0v0a0,0,0,0,0,0,0v0a0,0,0,0,0,0,0v-.13a.08.08,0,0,1,0,0v0s0,0,0-.05,0,0,0,0a0,0,0,0,1,0,0h.26l0,0h0l0,0a.05.05,0,0,1,0,0h0l.05.08,0,0a0,0,0,0,0,0,0v0s0,0,0,.05v0h0v.05s0,0,0,0v0s0,.06,0,.09v.06h0v.06s0,0,0,.07,0,0,0,.08v0h0a.38.38,0,0,0,0,.1v.07s0,.07,0,.1v0s0,0,0,0v.05a.13.13,0,0,1,0,.06h0v.06a.08.08,0,0,1,0,0,.11.11,0,0,1,0,.05s0,0,0,0a.44.44,0,0,0,0,.15.32.32,0,0,0,.1.13h0l.08,0h.16a.09.09,0,0,1,.07,0,.19.19,0,0,1,0,.07s0,0,0,0v0s0,0,0,.06v.06Z" style="fill: #231815"/>
      </g>
      <path d="M83.85,58.55A17.93,17.93,0,0,1,83,60.39a.15.15,0,0,1-.19,0c-.14-.07-.22-.23-.35-.34s-.37-.44-.62-.66c-.34-.42-.69-.77-1-1.2l0-.09a4,4,0,0,1,1.58-.83,3.35,3.35,0,0,1,1.18-.13.78.78,0,0,1,.63.31A9,9,0,0,1,83.85,58.55Z" style="fill: #c7161d"/>
    </g>
  </g>
</svg>
