<svg xmlns="http://www.w3.org/2000/svg" viewBox="0 0 300 300"><title>Arizona D-backs cap on dark logo</title><path fill="#aa182c" d="m51.52 237.14-.29.17 54.94-34.06-11.54-28.31 37.46-23.61-12.11-22.45 36.19-17.32-11.86-20.55 27.55-12.39-10.32-15.84h42.98l38.86 174.43H182.6l13.4-18.13-20.72-92.67H157.1l-54.86 90.23-.27.43 9.76 20.07Zm118.63-67.95s-5.08 8.12-6.05 9.68c.63 2.09 7.21 24.08 7.21 24.08s-13.29-16.13-15.14-18.36c-2.68 2.2-21.5 17.76-21.5 17.76l14.28-24.69c-.4-1.54-2.16-8.47-2.16-8.47Z"/><path d="m149.32 109.39-36.22 17.48 12.92 23.16-37.36 23.42 11.75 27.96-61.27 38.6-3.02 1.91L152.84 57.93l.89 1.31 11.69 17.18-27.8 12.36ZM173 241.94l17.56-24.03-19.55-87.2h-11.27l-51.76 86.33 12.06 24.88H43.8l4.7-2.91.07-.05 2.66-1.65.29-.17h60.21l-9.76-20.07.27-.43 54.86-90.23h18.18L196 219.08l-13.4 18.13h60.78L204.52 62.78h-42.98v-.01l-.61-.93-2.55-3.91 50.19.03 40.92 183.96Z"/><path fill="#3ec1cc" d="m184.658 216.842-9.848-45.462-5.39 8.61 9.81 37.92-23.64-26.16-35.25 26.16 23.51-40.57-1.89-7.46-28.07 47.11 14.1 29.64H27.52L149.64 53.4l62.68-.04.16.73 43.04 192.54H163ZM156.18 184.59l15.14 18.36s-6.58-21.99-7.21-24.08c.97-1.56 6.05-9.68 6.05-9.68h-23.37s1.76 6.93 2.16 8.47l-14.28 24.69s18.83-15.56 21.5-17.76ZM145 164.77h28.37l-6.43-29.66h-4.27ZM36.12 241.91l3.02-1.9 61.28-38.6-11.76-27.96 37.37-23.42-12.92-23.16 36.21-17.48-11.7-20.61 27.8-12.36-11.69-17.18-.89-1.31L36.11 241.92Zm83.93.02-12.07-24.87 51.77-86.33h11.27l19.55 87.2-17.56 24.03 76.48-.02-40.91-183.96-50.2-.03 2.56 3.91.6.93 10.32 15.84-27.55 12.39 11.87 20.55-36.2 17.32 12.11 22.45-37.46 23.6 11.54 28.31-62.37 38.67h76.24Zm140.09-.97h4.59v1.01h-1.71v4.66h-1.16v-4.66h-1.72Zm12.34 0v5.67h-1.16v-4.51h-.02l-1.64 4.51h-1.12l-1.59-4.51h-.03v4.51h-1.16v-5.67h2.02l1.31 3.7h.03l1.37-3.7Z"/></svg>