<svg xmlns="http://www.w3.org/2000/svg" viewBox="0 0 300 300"><title>Boston Red Sox cap on dark logo</title><path fill="#bd3039" d="M208.12 174.08c-1.21-4.8-6.03-17.45-16.37-24.09 10.34-6.64 15.16-19.26 16.38-24.06.41-1.65.81-3.17 1.3-4.64 2.25-6.64 4.34-12.69 8.35-17.7-9.97-7.9-12.71-15.89-15.36-23.67-2.48-7.26-4.82-14.1-13.48-22.78-17.62-17.61-46.85-17.03-64.47.56-3.79-8.17-12.65-13.33-22.26-13.33-11.65 0-21.4 8.41-23.45 19.46 3.05-1.44 6.45-2.26 9.99-2.26 13.44 0 24.4 11.67 24.4 26.04v34.99c0 6.08-2.33 18.41-14.31 27.38 11.98 8.97 14.31 21.29 14.31 27.39v35c0 14.35-10.95 26.04-24.4 26.04-3.54 0-6.94-.83-9.99-2.27 2.06 11.05 11.8 19.45 23.45 19.45 9.61 0 18.46-5.14 22.25-13.32 17.62 17.6 46.85 18.18 64.47.55 8.66-8.66 11-15.51 13.48-22.75 2.65-7.79 5.39-15.78 15.36-23.7-4.01-4.99-6.09-11.05-8.35-17.68-.49-1.46-.89-3-1.3-4.63m-23.42 35.56c0 13.58-12.48 24.6-27.88 24.6-10.68 0-19.95-5.27-24.63-13.04v-49.23c4.68-7.76 13.95-13.06 24.63-13.06 15.4 0 27.88 11.01 27.88 24.61 0 4.8-1.56 9.26-4.27 13.06 2.71 3.8 4.27 8.27 4.27 13.06m0-93.1c0 13.59-12.48 24.58-27.88 24.58-10.68 0-19.95-5.27-24.63-13.03V78.83c4.68-7.77 13.95-13.06 24.63-13.06 15.4 0 27.88 11.03 27.88 24.61 0 4.8-1.56 9.27-4.27 13.06 2.71 3.78 4.27 8.27 4.27 13.07"/><path fill="#fff" d="M192.91 254.92h5.78v1.15h-2.19v6.06h-1.4v-6.06h-2.19Zm13.19.02h2.01v7.19h-1.3v-5.6h-.04l-2.15 5.6h-.97l-2.15-5.6h-.03v5.6h-1.3v-7.19h2.02l1.96 5.08Zm22.95-57.82c-26.15 15.15-13.53 28.92-35.22 50.62-18.74 18.71-48.18 20.21-68.61 4.45-5.64 6.33-13.87 10.32-23 10.32-17 0-30.78-13.77-30.78-30.77 0-3.65.64-7.21 1.83-10.47 2.94 6.1 8.77 10.23 15.49 10.23 9.66 0 17.48-8.59 17.48-19.13v-35c0-3.67-1.23-19.99-22.2-27.38 20.96-7.41 22.2-23.73 22.2-27.38V87.6c0-10.57-7.81-19.14-17.48-19.14-6.72 0-12.55 4.17-15.49 10.25a30.6 30.6 0 0 1-1.83-10.49c0-16.97 13.78-30.77 30.78-30.77 9.14 0 17.36 3.99 23 10.35 20.43-15.77 49.87-14.29 68.61 4.44 21.69 21.69 9.06 35.47 35.22 50.62-7.35 4.36-9.64 10.57-13.09 20.66-2.12 6.22-2.84 18.21-14.8 26.48 11.96 8.27 12.69 20.25 14.8 26.45 3.45 10.1 5.75 16.32 13.09 20.67m-26.65 22.96c2.65-7.79 5.39-15.78 15.37-23.7-4.01-4.99-6.08-11.04-8.35-17.68-.49-1.45-.89-3-1.3-4.64-1.22-4.79-6.04-17.44-16.38-24.06 10.35-6.65 15.16-19.27 16.38-24.07.41-1.66.81-3.17 1.3-4.64 2.27-6.64 4.33-12.7 8.35-17.7-9.98-7.91-12.72-15.9-15.37-23.67-2.48-7.24-4.81-14.1-13.48-22.76-17.64-17.63-46.85-17.08-64.47.55-3.79-8.18-12.64-13.33-22.25-13.33-11.65 0-21.39 8.42-23.45 19.48a23.26 23.26 0 0 1 9.99-2.27c13.45 0 24.4 11.67 24.4 26.04v35c0 6.07-2.33 18.42-14.31 27.38 11.98 8.95 14.31 21.28 14.31 27.38v35.01c0 14.35-10.96 26.02-24.4 26.02-3.54 0-6.94-.82-9.99-2.26 2.05 11.05 11.8 19.45 23.45 19.45 9.61 0 18.47-5.14 22.26-13.32 17.62 17.59 46.84 18.19 64.47.55 8.67-8.65 11-15.52 13.48-22.75ZM156.82 65.79c15.4 0 27.88 11.03 27.88 24.61 0 4.81-1.56 9.27-4.27 13.06 2.71 3.78 4.27 8.26 4.27 13.07 0 13.59-12.48 24.58-27.88 24.58-10.68 0-19.95-5.27-24.63-13.03V78.84c4.68-7.78 13.95-13.06 24.63-13.06Zm20.97 50.72c0-5.17-2.65-9.82-6.86-13.07 4.21-3.26 6.86-7.91 6.86-13.06 0-9.75-9.41-17.68-20.97-17.68-7.44 0-13.99 3.28-17.72 8.21v45.08c3.73 4.92 10.28 8.21 17.72 8.21 11.56 0 20.97-7.94 20.97-17.68Zm6.91 66.99c0 4.81-1.56 9.26-4.27 13.06 2.71 3.79 4.27 8.27 4.27 13.06 0 13.58-12.48 24.6-27.88 24.6-10.68 0-19.95-5.27-24.63-13.03v-49.24c4.68-7.78 13.95-13.06 24.63-13.06 15.4 0 27.88 11 27.88 24.61m-6.91 26.125c-.002-5.158-2.651-9.836-6.86-13.055 4.21-3.25 6.86-7.91 6.86-13.06 0-9.75-9.41-17.68-20.97-17.68-7.44 0-13.99 3.27-17.72 8.19v45.06c3.73 4.95 10.28 8.22 17.72 8.22 11.558 0 20.967-7.927 20.97-17.675"/></svg>