<svg xmlns="http://www.w3.org/2000/svg" viewBox="0 0 300 300"><title>Cincinnati Reds cap on dark logo</title><path fill="#fff" d="M162.59 92.98c-54.13 0-75.37 35.98-75.37 53.21 0 9.98 2.91 18.75 7.85 26.23 12.83 19.4 39.43 30.02 64.88 30.02 27.57 0 49.25-10.84 66.96-24.29h37.84c-17.64 29.46-55.13 53.4-103.59 53.4-55.33 0-77.09-23.74-102.71-50.95-10.51-11.16-17.08-21.24-34.1-33.79 0 0 .53-.18 1.76-1.02 3.36-2.29 12.16-9.55 31.29-32.21 19.74-23.38 53.31-49.33 99.12-49.33s91.62 21.12 109.37 56.17h-38.27c-8.06-12.75-33.19-27.44-65.02-27.44Zm96.63 120.59h-3.19v8.66h-2.16v-8.66h-3.18v-1.89h8.53Zm12.27 8.65v-8.39h-.04l-3.06 8.39h-2.08l-2.95-8.39h-.05v8.4h-2.15v-10.55h3.73l2.44 6.9h.05l2.55-6.9h3.71v10.54Z"/><path d="M161.18 231.54c48.46 0 85.96-23.94 103.59-53.4l2.65 6.2c-17.63 29.46-55.13 53.4-103.58 53.4-55.34 0-76.73-21.42-102.35-48.63-10.51-11.15-17.27-20.82-33.64-34.21l-3.49-8.09c17.02 12.56 23.58 22.63 34.1 33.79 25.62 27.21 47.37 50.95 102.71 50.95Zm3.255-132.24c-52.916.002-73.355 34.731-73.355 51.96 0 5.92.76 15.08 4 21.16-4.94-7.48-7.85-16.25-7.85-26.23 0-17.23 21.24-53.21 75.37-53.21 31.83 0 56.95 14.69 65.02 27.44h38.27s1.8 4.86 2.52 6.32h-40.07c-8.07-12.749-32.088-27.439-63.905-27.44"/></svg>