<svg xmlns="http://www.w3.org/2000/svg" viewBox="0 0 300 300"><title>Cleveland Guardians cap on dark logo</title><path fill="#fff" d="M206.31 256.47v8.28h-2.06v-8.28h-3.04v-1.8h8.14v1.8Zm14.77 8.28v-8.02h-.05l-2.91 8.02h-1.99l-2.83-8.02h-.04v8.02h-2.06v-10.08h3.57l2.34 6.58h.05l2.44-6.58h3.54v10.08Zm-48.14-84.41c13.44-1.78 26.49-2.96 39.14-3.36 3.76 16.21 8.7 42.11 11.07 57.33-27.28 13.04-51.2 22.14-75.12 30.44-25.31-8.7-48.63-18.58-72.75-30.05 5.14-21.55 8.11-54.36 8.11-97.26 0-29.45-1.78-47.04-6.33-69.38 23.72-12.25 47.05-22.93 72.55-32.81 11.06 4.47 21.35 9.23 31.42 14.26l3.17-8.53c8.3-1.19 25.1.2 40.52 2.57-2.96 19.57-6.32 40.52-9.88 61.87-.99 5.93-1.98 11.86-2.77 17.79-17.4 2.37-33.02 3.55-40.33 2.17.2-18.12.35-28.89.04-36.13-7.34-2.8-14.49-5.36-22.18-7.75-7.12 2.38-15.43 5.54-22.98 8.7-.75 39.99-1.21 79.99-1.16 119.98 7.4 2.88 15.03 5.5 22.96 7.91 8.52-1.95 16.55-4.31 24.51-7.06v-30.69Z"/><path fill="#e31937" d="M179.65 186.27v29.54c-10.09 3.67-20.44 6.87-31.63 9.2-9.99-3.05-19.83-6.39-29.27-10.26-.09-42.96.41-86.06 1.23-129.02 9.39-4.11 20.59-8.35 29.42-11.35 10.16 3.02 19.29 6.41 28.74 10.09.64 7.1.55 17.22.32 34.78 6.92.2 16.61-.59 27.67-1.98 3.76-23.33 7.51-46.45 10.87-68-10.67-1.38-20.95-2.17-28.07-1.98l-4.28 11.59c-11.35-5.84-22.75-11.24-35.05-16.33-22.73 8.9-43.69 18.38-65.04 29.26 3.95 20.36 5.53 38.15 5.53 65.63 0 39.93-2.57 71.56-7.12 93.5 21.55 10.08 42.5 18.78 65.04 26.69 23.13-8.11 45.86-16.8 67.41-27.08-1.19-9.09-5.14-30.64-8.7-46.65-8.9.4-17.79 1.19-27.08 2.37Z"/></svg>