<svg xmlns="http://www.w3.org/2000/svg" viewBox="0 0 300 300"><title>Houston Astros cap on dark logo</title><path fill="#002d62" d="M150.01 267.24c-64.65 0-117.25-52.6-117.25-117.24S85.36 32.76 150.01 32.76 267.24 85.36 267.24 150s-52.59 117.24-117.23 117.24"/><path fill="#eb6e1f" d="M157.55 191.22v4.33l-7.55-5.5-7.55 5.5v-4.33l-13.8-4.96v-7.84l9.68-13.39h33.04v21.23Zm84.32 54.75h-2.43v6.59h-1.63v-6.59h-2.43v-1.43h6.49Zm9.33 6.58v-6.38h-.05l-2.32 6.38h-1.58l-2.25-6.38h-.03v6.38h-1.65v-8.01h2.83l1.88 5.23h.02l1.95-5.23h2.83v8.01ZM150.01 40.7c60.37 0 109.31 48.92 109.31 109.31s-48.91 109.3-109.31 109.3S40.7 210.39 40.7 150 89.61 40.69 150.01 40.69Zm61.31 190.69c24.66-18.6 40.59-48.12 40.59-81.38 0-10.66-1.64-20.92-4.67-30.58l-53.4 38.79v-36.37h40.79l16.79-5.45h-5.21c-13.7-39.24-50.71-67.5-94.43-68.25l16.48 50.72h-10.7v17.53l13.82 4.94v21.25h-21.36V42.72l-1.78 5.44c-43.73.73-80.72 29.01-94.44 68.25h-5.18l16.78 5.44 40.8 29.66v6.72l-53.42-38.82c-3.04 9.68-4.69 19.96-4.69 30.61 0 33.27 15.95 62.81 40.61 81.38l-1.36 4.21 19.41-26.88h17.57L90.92 233c16.65 11.91 37.06 18.91 59.09 18.91s42.42-7.04 59.09-18.92l-33.42-24.27h28.26l7.37 22.67Z"/><path fill="#f4911e" d="M193.84 121.33v.51h40.78l16.79-5.45h-43.76m-65.2-17.53v17.53l-13.8 4.93v21.23H150V42.71l-1.75 5.44-16.48 50.72m-3.12 79.55 9.67-13.39h-9.67m-25.66 22.38 3.21-1.15zM88.7 231.39l-1.36 4.21 19.43-26.88h-10.7m-3.69-92.32H48.61l16.78 5.44 40.81 29.66v-30.16"/><path fill="#e7e9ea" d="M207.64 116.4V98.87l-4.46 4.47v9.91l-13.82 4.96v71.2l4.48-3.14v-64.92m13.8 69.86-4.46 3.12v9.92h-41.17l-4.47 4.46h50.1m-78.99-43.68h42.72l4.45-4.46h-51.63v28.82l4.47-3.15v-7.83m13.79 17.14v-4.33l-4.45 3.12v9.92H96.81l-4.44 4.46h50.07m-31.78-90.52-13.84-4.96-4.43 3.15 13.82 4.95m55.8-8.1-4.46 3.15 13.82 4.95 4.46-3.15m-33.38-1.79V98.87l-4.45 4.47v9.91l-13.83 4.96v28.83l4.47-4.47v-21.23"/><path fill="#fff" d="M92.38 191.21v17.5l4.43-4.46h41.18v-9.92l4.46-3.12-13.8-4.96-4.47 3.14v-28.82h51.64l-4.46 4.46v21.23l-13.82 4.96v17.5l4.46-4.46h41.18v-9.92l4.46-3.12-13.81-4.96-4.48 3.14v-71.2l13.84-4.96v-9.91l4.46-4.47h-50.1v17.53l4.46-3.15 13.81 4.95-4.46 3.13v21.23h-42.72l-4.47 4.47v-28.83l13.81-4.96v-9.91l4.46-4.47H92.37v17.53l4.43-3.15 13.84 4.95-4.45 3.13v64.93"/></svg>