<svg id="ロゴ" xmlns="http://www.w3.org/2000/svg" viewBox="0 0 160 160">
  <g id="スワローズ">
    <path d="M82.07,141.51a53.3,53.3,0,1,0-53.3-53.3,53.3,53.3,0,0,0,53.3,53.3" style="fill: #009f50"/>
    <path d="M132.42,93.45a32.47,32.47,0,0,0-14.52,3.44A47.15,47.15,0,0,0,107,104a61,61,0,0,1,14.43-15.65c.42-.33.27-.41-.09-.37a37.71,37.71,0,0,0-13.57,6.9,56.4,56.4,0,0,0-7.35,7.07,5.11,5.11,0,0,0-1.15,2.24c-.18.91.61,2.88.81,3.63a20.51,20.51,0,0,1,.43,3.83s-1.74-5.86-2.14-5.93-.67.58-.81.84a11.94,11.94,0,0,1-3,3.92c4.33-6.42,6.43-15.16,6.69-16.18s1.61-1.69,1.61-1.69a23.72,23.72,0,0,0,4.49-3.52,17.8,17.8,0,0,0,4.28-7.48c.82-2.59,3.26-7.22,3.79-10.54,1.27-7.88-3.33-13.95-4.64-15.45a21.7,21.7,0,0,0-12.26-7.33C91.51,47,85.56,51.74,85.09,52.06a2.43,2.43,0,0,1-2-.12,18.23,18.23,0,0,0-8.78-1.29,5.45,5.45,0,0,0-5,6.08c.27,2.63,3.09,4.78,3.48,5.14s.05.63.05.63l-1.48,1.24s-.81,0-1,.35a.71.71,0,0,0,.35.86c.35.23.4.22.4.22a3.37,3.37,0,0,0-2.47,1.41,40.74,40.74,0,0,0-4,6.3c-.29.35-.49,0-.49,0a12.12,12.12,0,0,1-1.06-1.24.3.3,0,0,0-.52-.07L61.38,72a9.24,9.24,0,0,0,4.35-8.47c0-1.94-2-3.42-2.43-3.63s-.47-.63-.52-1.12c-.2-3.12-3-5.79-3-5.79C66.05,35,71.12,28.62,73,25.63S79.38,17,79.11,11.37s-2.8-6.88-4.79-8.11C67.71,0,62.35,3.7,59.46,6.65c-6.63,6.76-8.26,12.88-9.65,18-2.76,9-2.3,26.15-2.3,26.15a10.19,10.19,0,0,0-4.77,5.27,9.93,9.93,0,0,0-.39,2,4.27,4.27,0,0,1,0,.93,17.83,17.83,0,0,0-1.8,5.06,14.37,14.37,0,0,0,.57,5.62c.5,1.41,1.43,3.25,1.56,4A5.64,5.64,0,0,0,44,76.2a6.25,6.25,0,0,0,2.9,1.86c.31.14.3,1.41.23,1.88s-.46.35-.68.37A6.94,6.94,0,0,0,41.39,83c-1.5,2-1,4-1.14,4.66s-.85,1.77-1,2.5a5.85,5.85,0,0,0,.05,2.31c.11.46,1.16,1.8,1.25,2.17,0,.68-.55.41-.46,2.72a4.7,4.7,0,0,0,2.36,3.88,1.68,1.68,0,0,1,1,.87,13,13,0,0,0,.24,2,5.08,5.08,0,0,0,1.79,2.13s1.37.43.69,1a29,29,0,0,0-2.28,1.8c-.36.4-2,2.78-.31,4.91s7,2,10.82.85,4.23-3.16,4-4.24a5.53,5.53,0,0,0-1.84-2.45,2.06,2.06,0,0,1-.63-1.3c-.14-.32-.26-1.09.21-1.09a26.92,26.92,0,0,0,5-2.62c.57-.38,1-.41,1.06.12a36.64,36.64,0,0,0,4,11.16c.16.31.34.62.52.93h0l.16.36h41.7l.13-.2c.2-.25.38-.47.52-.66C121.58,99,132.75,93.9,133.74,93.68,134.35,93.44,132.73,93.53,132.42,93.45Z"/>
    <g>
      <path d="M46.78,141.36S35.68,131,35.44,130.71a2.06,2.06,0,0,1-.63-1.21c.19-.93,1.6-1.78,3.66-2.5a25,25,0,0,1,6-1c.9,0,3.5-.4,3.4,1.27s-3.45,2.35-5.15,2.56a8.11,8.11,0,0,1-3.7-.63c.71,2.35,3.4,2.56,4.06,2.65.19.24-.11.44-.11.44l-.53.41c.6.77,3.22.64,3.22.64-.19.5-.26.44-.5.58.45.47,1.82.45,2.86.2,2.33-.42,5.55-2.32,6.47-5.42s-.88-5.88-4.55-7-12.09.77-12.09.77-8.3,1.73-11.58,3.56c-.72.4-3.75,2.65-4.07,5.22s1.7,4.18,2.62,5c0,0,10.93,9.2,11.81,10.44a1.75,1.75,0,0,1-.08,2.24s-1.92,1.89-2.47,2.28a5,5,0,0,1-3.34,1.38c-1.83,0-3.1-2-2.64-2.77a6.75,6.75,0,0,1,3-1.69,8.91,8.91,0,0,1,2.07,0L29.74,145a18.82,18.82,0,0,0-7,4.08,2.46,2.46,0,0,0-.28,3.18s4,3.72,5.2,4.69,2.31,1.55,4.71.6,9.64-5.6,11.4-6.88,3.59-3.07,4.13-5.33A4.56,4.56,0,0,0,46.78,141.36Z" style="fill: #0b308e"/>
      <path d="M124.49,138.93l-.56.17.86-2.19h-.55a16.19,16.19,0,0,0,1.14-2.75,4.22,4.22,0,0,0-.36-2.95c-1.55,3.49-6.85,11.35-6.85,11.35s.71-3.9.79-4.25.06-1.06-.19-1.17-.75.37-.75.37l-4.16,4.74s1.45-3.39,1.73-4a1.72,1.72,0,0,0,.22-1s-1.66-2.67-2.3-3.42L109.24,143l.1-1.59c0-2.12-1.14-3-1.84-3.21a4,4,0,0,0-1.77,0,3.35,3.35,0,0,0-3.31-1c-3.78.77-6.17,5.7-6.83,6.9a7.68,7.68,0,0,1-2.43,2.22l7.52-16.81h-2.1a.63.63,0,0,1-.48-.23.6.6,0,0,1-.15-.4.41.41,0,0,1,0-.11l.1-.55-2.87.14s-6.41,14.14-7.28,15.73A10.28,10.28,0,0,1,85,147l7.86-17.64a4.69,4.69,0,0,1-.45.18,9.26,9.26,0,0,1-4.29.11,3.68,3.68,0,0,1-1-.47c-1.17,2.58-6.16,13.6-6.92,15.17a6.66,6.66,0,0,1-2,2.69,4.43,4.43,0,0,1-1.87,1.2s3.94-8.69,4.37-9.8-.77-1.2-.77-1.2l-4.38.23-.31.7a6.47,6.47,0,0,0-4.77.05c-2.64.95-4.37,3.15-5.3,3.93l3.26-6.39s1-2.41,1.17-2.94a2.8,2.8,0,0,0-.23-1.63c-.14-.45-.46-.44-.64-.16l-3.26,4.38-6,7.69s.78-4.55.42-4.85-1.09.25-1.09.25l-4,4.67,1.93-5.78-4.7-2.73-2.19,7.23s-3.12,10.66-3.36,11.73a2,2,0,0,0,.91,2.32c2.79.49,5.55-4.65,5.55-4.65s-.72,4.1,1.08,4.38,4.84-4,4.84-4l3-4.12c-.85,2.79-.29,6.57,1.82,7.35s4.48-.88,6.11-1.93a2.14,2.14,0,0,0,1.59,2c2.23.42,4.2-1.72,5.37-2.7,0,0-.34,2.48,2.09,2.4s5.12-2.71,6.5-3.94c-1.06,2.89.46,3.42,1.25,3.49,3.28.28,7.3-3.6,8.18-4.38.44,2.14,1.13,3.32,3.18,4,4.34.88,8.33-4.63,9.71-6.68,0,0-2.33,5.69-.37,6.4s3.75-2.1,5.42-4.45c0,0-1,3.53.44,3.81,1.9.38,5.21-3.95,7.09-6.46C122,143.77,124.49,138.93,124.49,138.93Zm-51.27,3.39s-1.72,3.85-2.46,5.47-2.55,2.91-3.65,2.39-.55-2.49.8-4.41a14,14,0,0,1,4.5-3.52C73.37,141.72,73.22,142.32,73.22,142.32Zm32.12,1.05a12.67,12.67,0,0,1-3.25,4.87c-.92.62-1.24.93-1.87.61s-1-1.21-.6-2.37a12.68,12.68,0,0,1,2.42-3.85c.88-.92,1.79-1.73,2.78-1.29C104.82,141.34,105.91,141.67,105.34,143.37Z" style="fill: #0b308e"/>
      <path d="M136.13,135.84c-.76-1.38-3.92-1.82-7.38,0s-4,4.37-4,4.37c-.38,2.52,1.63,3.6,3,4.55s.53,1.78-.07,2.1a51.14,51.14,0,0,1-10.6,4.68c-.43.12-.25.32-.25.32a37.16,37.16,0,0,0,11.8-1.3s3.57-1.2,5.06-3.1a3.23,3.23,0,0,0,0-3.85s-2.9-2.26-3.86-3.07a1.23,1.23,0,0,1-.1-2,5.44,5.44,0,0,1,3-1.41c.63,0,1,.41.66,1.08s-1.47.59-1.76.74-.44.21.41,1a2.39,2.39,0,0,0,2.46.82A3.65,3.65,0,0,0,136.13,135.84Z" style="fill: #0b308e"/>
    </g>
    <g>
      <path d="M137.84,123.86a.69.69,0,0,0-.57-.22H137l.29-1.3a.65.65,0,0,0-.19-.63.68.68,0,0,0-.64-.16l-2.84.79a.67.67,0,0,0-.48.51s-.1.49-.17.78l-.39,0-.15,0,.28-1.31a.67.67,0,0,0-.66-.81h-2.55a.66.66,0,0,0-.65.51l-1,4,.32-1.71a.66.66,0,0,0-.14-.55.69.69,0,0,0-.51-.24h-2.64a.66.66,0,0,0-.65.51l-.62,2.55s-.12.28-.33.32l.47-2.62a.66.66,0,0,0-.66-.79h-2.53a.64.64,0,0,0-.51.26.69.69,0,0,0-.45-.18h-3a.65.65,0,0,0-.46.18l-.53.5.37-2a.67.67,0,0,0-.14-.55.69.69,0,0,0-.52-.24h-2.65a.67.67,0,0,0-.65.53l-.57,2.69c-.58-1.64-3.7-1.39-4.76-1.3a6.25,6.25,0,0,0-1.24.23l1-1.07a.67.67,0,0,0-.5-1.12H103a.64.64,0,0,0-.52.25l-1.33,1.65-.6-1.48a.67.67,0,0,0-.62-.41H96.66a.67.67,0,0,0-.61,1L98.22,127l-.3,1.74a.67.67,0,0,0,.14.55.69.69,0,0,0,.52.24h2.66a.68.68,0,0,0,.65-.5l.48-1.83,1.27-1.42a.66.66,0,0,0,.25.38l-.3.15a1.83,1.83,0,0,0-.86,1.87,1.86,1.86,0,0,0,1.71,1.5,6.65,6.65,0,0,0,1,.08,5,5,0,0,0,2-.4.67.67,0,0,0,.54.27h2.29a.65.65,0,0,1,1-.05l2.63,0h0a.68.68,0,0,0,.65-.5l.19-.72.47.83a.66.66,0,0,0,.58.33h3.4a.66.66,0,0,0,.59-.35s0-.06,0-.09a2.23,2.23,0,0,0,1.69.67,4.85,4.85,0,0,0,1.94-.36.64.64,0,0,0,.52.25h2.67a.66.66,0,0,0,.65-.51.53.53,0,0,0,.08.17.68.68,0,0,0,.53.26h2.72a.66.66,0,0,0,.65-.53l.63-3a.64.64,0,0,0,.41.2c-.08.53-.19,1.23-.27,1.69a1.3,1.3,0,0,0,.25,1.1c.46.56,1.32.69,2.46.72H135a3.9,3.9,0,0,0,1.8-.31.65.65,0,0,0,.33-.44l.23-1.08-.65-.14h0l-.09-.66h-.42l.19-.93h.71a.67.67,0,0,0,.66-.53l.26-1.21A.67.67,0,0,0,137.84,123.86Zm-18.21,1.38-.45,1.77a.5.5,0,0,0,0,.12,2.47,2.47,0,0,0,0,.46l-.78-1.2Z" style="fill: #fff"/>
      <path d="M94.05,124.29a5.25,5.25,0,0,0-3.09-.7,8.58,8.58,0,0,0-2.21.29,3.86,3.86,0,0,0-.8.35.65.65,0,0,0,0-.19.67.67,0,0,0-.6-.37H85.06a.66.66,0,0,0-.55.29l-.7,1-.3-.85a.66.66,0,0,0-.63-.45H80a.65.65,0,0,0-.31.08.67.67,0,0,0-.28-.06h-3a.63.63,0,0,0-.46.18l-.53.5.37-2.06a.69.69,0,0,0-.15-.55.66.66,0,0,0-.51-.24H72.48a.66.66,0,0,0-.65.53l-.64,3a2.48,2.48,0,0,0-.64-.77,5.2,5.2,0,0,0-3.08-.7,9,9,0,0,0-1.15.09l.38-1.3a.66.66,0,0,0-.64-.86H57a.69.69,0,0,0-.65.48l-.53,1.79a.66.66,0,0,0,.64.86h2.27l-1,4.07a.67.67,0,0,0,.65.83h2.79a.67.67,0,0,0,.65-.52l1-4.38h.91a3.31,3.31,0,0,0-1.15,2.18,2.32,2.32,0,0,0,1.87,2.85,8.47,8.47,0,0,0,2,.2,7.26,7.26,0,0,0,2.31-.31,3.85,3.85,0,0,0,1.57-1l0,.16a.67.67,0,0,0,.14.56.64.64,0,0,0,.52.25h2.63a.68.68,0,0,0,.65-.5l.18-.68.48.84a.67.67,0,0,0,.58.34H79s.07,0,.11,0l-.16.76a.69.69,0,0,0,.31.71,4.15,4.15,0,0,0,1.85.4,3.68,3.68,0,0,0,1.77-.5,5.06,5.06,0,0,0,1.35-1.19l2-2.67a2.3,2.3,0,0,0,1.87,2.65,8.5,8.5,0,0,0,2,.2,7.2,7.2,0,0,0,2.3-.31,3.63,3.63,0,0,0,2.5-2.73A2.39,2.39,0,0,0,94.05,124.29Zm-27.22,2.46c.18-.66.38-.68.5-.68h0a.72.72,0,0,1,0,.46c-.19.69-.36.82-.51.83A1.23,1.23,0,0,1,66.83,126.75Zm23.49,0c.18-.66.38-.68.5-.68h0a.88.88,0,0,1,0,.46c-.19.7-.36.82-.5.83A1.19,1.19,0,0,1,90.32,126.75Zm-10.76,1.76-1.38-2.12,1.39-1.29,1.31,3.1a2.63,2.63,0,0,1,.06.39.21.21,0,0,1-.21.08l-.81-.08a.68.68,0,0,0-.32,0A.33.33,0,0,0,79.56,128.51Z" style="fill: #fff"/>
    </g>
    <g>
      <polygon points="103.04 122.2 101 124.74 99.97 122.21 96.66 122.21 98.92 126.88 98.58 128.84 101.24 128.84 101.76 126.85 105.92 122.2 103.04 122.2" style="fill: #e5002d"/>
      <path d="M106.76,124.15c-2.16.18-2.5,1.21-2.5,1.21v.22h2.27a1.48,1.48,0,0,1,1.45-.48c.63.08.33.82.07,1a19.47,19.47,0,0,1-2.21.06,6.37,6.37,0,0,0-1.94.74,1.15,1.15,0,0,0,.64,2.11,5.1,5.1,0,0,0,3.46-.63v.57h2.29a14.5,14.5,0,0,0,.58-3.79C110.7,124.16,108.91,124,106.76,124.15Zm1,3.5c-.33.19-.48.42-.95.42s-.71-.15-.67-.37a1,1,0,0,1,.88-.7,1.68,1.68,0,0,1,1,.06A.58.58,0,0,1,107.74,127.65Z" style="fill: #e5002d"/>
      <polygon points="116.61 124.36 114.59 126.26 115.33 122.24 112.68 122.24 111.28 128.89 113.91 128.92 114.52 126.63 115.8 128.86 119.2 128.86 117.52 126.29 119.6 124.36 116.61 124.36" style="fill: #e5002d"/>
      <polygon points="76.41 124.36 74.39 126.26 75.13 122.19 72.48 122.19 71.08 128.88 73.71 128.88 74.31 126.63 75.6 128.88 79 128.88 77.31 126.29 79.39 124.36 76.41 124.36" style="fill: #e5002d"/>
      <path d="M124.23,127s-.34.86-1.1.75a.56.56,0,0,1-.52-.77l.48-2.66h-2.53l-.73,2.9s-.13,1.91,1.67,1.91a3.11,3.11,0,0,0,2.46-.83V129h2.67l.89-4.67h-2.64Z" style="fill: #e5002d"/>
      <polygon points="127.89 128.9 130.61 128.9 132.01 122.26 129.46 122.26 127.89 128.9" style="fill: #e5002d"/>
      <path d="M137.07,125.52l.27-1.22a4,4,0,0,1-.83,0,.31.31,0,0,1-.28-.43l.37-1.67-2.84.8s-.15.71-.21.94-.42.35-.42.35l-.53,0-.24,1.23h.71s-.23,1.63-.38,2.48.84,1,2.07,1a3.48,3.48,0,0,0,1.68-.22l.24-1.07a2.47,2.47,0,0,1-.58,0,.66.66,0,0,1-.63-.61l.34-1.66Z" style="fill: #e5002d"/>
      <path d="M70.12,124.81a5.11,5.11,0,0,0-2.66-.55,8.64,8.64,0,0,0-2,.26,2.84,2.84,0,0,0-2.08,2.39,1.66,1.66,0,0,0,1.4,2.12,8.47,8.47,0,0,0,3.89-.09,2.94,2.94,0,0,0,2.07-2.25A1.68,1.68,0,0,0,70.12,124.81ZM68,126.71c-.36,1.28-.88,1.36-1.32,1.32s-.66-.68-.45-1.46.56-1.15,1.17-1.18C67.35,125.39,68.29,125.42,68,126.71Z" style="fill: #e5002d"/>
      <path d="M93.62,124.81a5.13,5.13,0,0,0-2.66-.55,8.56,8.56,0,0,0-2,.26,2.83,2.83,0,0,0-2.08,2.39,1.65,1.65,0,0,0,1.4,2.12,8.47,8.47,0,0,0,3.89-.09,3,3,0,0,0,2.06-2.25A1.68,1.68,0,0,0,93.62,124.81Zm-2.18,1.9c-.35,1.28-.87,1.36-1.32,1.32s-.66-.68-.44-1.46.56-1.15,1.16-1.18C90.84,125.39,91.79,125.42,91.44,126.71Z" style="fill: #e5002d"/>
      <polygon points="66.06 122.19 57.03 122.19 56.5 123.98 59.62 123.98 58.47 128.88 61.26 128.88 62.41 123.98 65.53 123.98 66.06 122.19" style="fill: #e5002d"/>
      <path d="M85.06,124.34l-1.44,2.1-.74-2.1H80L81.52,128a1.47,1.47,0,0,1,0,.93.89.89,0,0,1-.86.41l-.81-.09-.24,1.17a3.38,3.38,0,0,0,1.5.3,3,3,0,0,0,1.44-.41,4.61,4.61,0,0,0,1.14-1l3.62-5Z" style="fill: #e5002d"/>
    </g>
    <path d="M76.31,74.06s-.83,0-.65-.65a5.88,5.88,0,0,1,2-3.07,12.78,12.78,0,0,0-1.3,3.72" style="fill: none"/>
    <g>
      <path d="M68.4,70.87l0-.68s0-.59-.34-.72-.8.44-.8.44a17.18,17.18,0,0,0-1.65,3.2,13.45,13.45,0,0,0-.73,2.94l4.26-1.43a5.31,5.31,0,0,1-.69-1.85A13.13,13.13,0,0,1,68.4,70.87Z" style="fill: #e5002d"/>
      <path d="M94.51,83.55a3.91,3.91,0,0,0-2.58-3.29,4.39,4.39,0,0,0-3.64.74c-.34.21-3,2-3.62,2.24a7,7,0,0,1-2.09.51,5.48,5.48,0,0,1-2.08-.52,3.26,3.26,0,0,1-1.29,2.07,5.45,5.45,0,0,1-2.64,1.08l8.28,3.4a9.68,9.68,0,0,0,3.85,1,5.57,5.57,0,0,0,5-2.43A7,7,0,0,0,94.51,83.55Z" style="fill: #e5002d"/>
    </g>
    <path d="M105.84,85.7A6.86,6.86,0,0,1,104,88c-.26.28-1.41,1-2.14.59s-.57-1.38-.48-1.87.34-.41.54-.1a1.77,1.77,0,0,0,.85.75c.5.13,1.32-.48,2-1.48a5.23,5.23,0,0,0,.94-2.66c0-.35-1-.89-1-.89a.4.4,0,0,1,.53-.27,1.56,1.56,0,0,1,.86.57,2.21,2.21,0,0,1,.16,1.8A13.25,13.25,0,0,1,105.84,85.7Z"/>
    <path d="M96.91,89.47a3.32,3.32,0,0,1-.52-1.53,12.37,12.37,0,0,1,.36-3.16c.13-.75,1.06-3,1.25-3.56a13.68,13.68,0,0,0,.37-1.63c.32,1.25.59,1.48,0,2.88A22.4,22.4,0,0,0,97,87.22,12.38,12.38,0,0,0,96.91,89.47Z"/>
    <g>
      <path d="M77.55,15.13c1.22-3.76.5-5.56,0-7C75.53,3.23,70.36,2.74,68,3c-5.71.68-10.56,7.36-10.56,7.36-5.1,7.29-6.35,14-7.2,17.87A98.05,98.05,0,0,0,49,50.45,13.73,13.73,0,0,1,58.42,52C61.13,45.09,66,34.61,68.3,31,69.52,29.11,76.33,18.89,77.55,15.13Z" style="fill: #fff000"/>
      <path d="M53.26,78.28a7.52,7.52,0,0,1,1.24-1.76c.38-.39.06-.51.06-.51a6.83,6.83,0,0,1-2.17,1.52,13,13,0,0,1-3.33.69c-.31,0-.28.23-.28.23l0,1.81,3.64.51A15.59,15.59,0,0,1,53.26,78.28Z" style="fill: #fff000"/>
      <path d="M78.42,77a5.18,5.18,0,0,0-2.86-2.31,10.26,10.26,0,0,0-4.93.25c-.73.18-4.71,1.22-6.43,2.72s-2.69,3.53.58,4.89,8.51.75,9.43.68.69-.59.64-.89.5-.76.5-.76a5.22,5.22,0,0,0,.13,1.14,3.54,3.54,0,0,0,.67.68s.78.33.55.83-1.19,0-1.43-.13a2.87,2.87,0,0,0-.88-.3l-2.62.54c.77.63,1.22.86,3.2,1.28,3,.22,3.84-.45,4.61-2.31S79,78,78.42,77Z" style="fill: #fff000"/>
      <path d="M55.34,108.48a4.66,4.66,0,0,1-1.06-2,22.55,22.55,0,0,1-6.35.64c-.42.62-1.62,1.14-2.08,1.5a7,7,0,0,0-1.75,2.12c-.23.68-.48,3.64,3.42,3.92a15.41,15.41,0,0,0,7.77-1.31A2.35,2.35,0,0,0,57,110.74C57,110,56,109,55.34,108.48Zm-2.8,1.74a16.49,16.49,0,0,0-3.59.13c-1.43.29-2.23.68-2.34,1.24a2.9,2.9,0,0,0,.07.91.86.86,0,0,1-.73-.23,1.18,1.18,0,0,1-.46-.88c0-.41.39-1.23,1.93-1.64a9.48,9.48,0,0,1,5.34.3Z" style="fill: #fff000"/>
    </g>
    <g>
      <path d="M88.34,51.89l-.1-.87a7,7,0,0,0-1,.73A6.64,6.64,0,0,0,86,53l2.71,1.76Z" style="fill: #0f1351"/>
      <path d="M89.68,51l1.22.45.23-.24,2.28-2.15a19.46,19.46,0,0,0-4.59,1.62Z" style="fill: #0f1351"/>
      <path d="M112,58.77c-2.76-5.17-8.55-8.16-10.41-8.89A14.49,14.49,0,0,0,98,49.09l-.1,0-1.58-.2.4,1.4-.13.14L97,50l.46,0,1.85.34,1.8.34-.86.75.08,0,.26.29L104,56.46l-4.6-.56-.25-.48L99,55l-.83,5.26-.87,0-2.21-.31a16,16,0,0,1,1.21,1.63h0l0,0,.21.33h.07A26.6,26.6,0,0,1,99.29,67a12.93,12.93,0,0,1,1.06,5.41,25.58,25.58,0,0,0-4.55-10,35,35,0,0,0-11.37-9,19,19,0,0,0-10.24-2C72,51.67,69.51,54.28,70,57a6.6,6.6,0,0,0,2.85,4.09c.74.83,1.09.45,1.09.45a8.84,8.84,0,0,1,2.53-1.4c1.81-.72,2.22-.4,3,0s.75,3,.75,3,0,1.08.23,1.08c.63-.09,1-3,1-3,3.45,0,5.89,1.93,7,2.55s1.1,1.09,1.1,1.09a22.72,22.72,0,0,0-2.9,1.72c-.68.59.1.59.1.59a27,27,0,0,1,4.39-.83c1.27,0,2.28.23,2.6,1.59a12.74,12.74,0,0,1-.31,4.11s-.46,1.39.08,1.39S95,70.93,95,70.93c1.08,1.22,1.22,2.25,1.35,4.88a21.56,21.56,0,0,1-.29,4.79c.5-.14.9-.21.58.74a35.24,35.24,0,0,0-1.4,5.39c-.45,4.16,2.22,5.35,4.61,5.36,5-.19,8.68-5.43,9.43-6.73A17.51,17.51,0,0,0,110.64,81a7.54,7.54,0,0,1,.55-1.74c.38-1,1-2.35,2.2-5C115.34,68.39,114.78,63.93,112,58.77Z" style="fill: #0f1351"/>
    </g>
    <g>
      <path d="M103.61,82.26A6.58,6.58,0,0,0,102,83.4a8.51,8.51,0,0,0-1.13,1.83s-.07.43.06.57.69.45,1,0A8.54,8.54,0,0,1,103.78,83s.51-.41.42-.68S103.61,82.26,103.61,82.26Z" style="fill: #fff"/>
      <path d="M99.17,83.39a5.87,5.87,0,0,0,.49-2.14c-.07-.85-.74-1.18-1.29-1.66l0,.06c.31,1.19.56,1.45,0,2.82A22.4,22.4,0,0,0,97,87.22a12.38,12.38,0,0,0-.12,2.25C97.63,90.79,98.38,91,99.1,91s.34-.37.34-.37A2.29,2.29,0,0,1,98,88.82a14.26,14.26,0,0,1,.34-2.65S99,84,99.17,83.39Z" style="fill: #fff"/>
      <path d="M77.54,64a1.85,1.85,0,0,0-.61-1.42,2.33,2.33,0,0,0-2,.26A7.72,7.72,0,0,0,73,64.31c.77.32,1.38,1.69,1.61,2.2a46.46,46.46,0,0,1,.66,4.6s1.14-2.92,2.68-6.45.22-3.89-.35-4.09-1.81.62-1.81.62c-.6.55.64.33.64.33,1.59.09,1.5,1.59,1.48,2A.44.44,0,0,1,77.54,64Z" style="fill: #fff"/>
      <path d="M72.12,65.22a20.86,20.86,0,0,0-2.37,3.91,10.11,10.11,0,0,0-.62,3.46,2.56,2.56,0,0,0,1,1.71l4.33-.69a16.14,16.14,0,0,0-.53-6C73.16,65.12,72.12,65.22,72.12,65.22Z" style="fill: #fff"/>
      <path d="M88.79,68.86a3.6,3.6,0,0,1,2.65.54c.52.22.7-.29.24-1s-2.4-.72-4.58.18-5.72,4.19-6.41,4.84A12.12,12.12,0,0,1,78,74.9a11.33,11.33,0,0,1,2.55,6.84c.09,1.09,1.41,1.25,2,1.28A3.59,3.59,0,0,0,84,82.69a1.79,1.79,0,0,1-1.21-1.63c-.18-.87.54-2.91,1-3.85s.76-.79.76-.79l2.27.49s-1.45-2-1.51-2.18c0-.5.94-1.56,1.72-2.22a2,2,0,0,1,3.09.65c.59,1.45-.76,5-.76,5a7.58,7.58,0,0,0,1.82-6.46,2.29,2.29,0,0,0-2.25-1.86c-.86,0-1.85.29-2.44.21C86.26,69.71,87.2,69.08,88.79,68.86Z" style="fill: #fff"/>
      <path d="M83,53.78a17.36,17.36,0,0,0-8-1.45,4.12,4.12,0,0,0-3.3,1.77,2.69,2.69,0,0,0-.3,1.52c.82-2,3.33-2,3.88-2,4.07.06,8.2,2.13,12.11,4.34a21,21,0,0,1,7.25,6.63c1.16,1.09,1.33.33,1.33.33s.17-.67-2.68-3.86A31.28,31.28,0,0,0,83,53.78Z" style="fill: #fff"/>
      <path d="M50.65,53.28a3.86,3.86,0,0,0,1.43-.63,11.94,11.94,0,0,1,2.65.05c2.65.2,5.64,3.09,6,5.2a3.89,3.89,0,0,1-1.46,3.46l1.12,1.46c1.36-1.5,2.07-3.13.78-6.39s-4.84-4.58-6.42-5a13.44,13.44,0,0,0-6.35.23A7.15,7.15,0,0,0,45,54.49C48.85,52.68,50,53.41,50.65,53.28Z" style="fill: #fff"/>
      <path d="M58.53,67.61l.59,1.1c.81-1,1.28-2.11.74-4.38A5.47,5.47,0,0,0,57,61a10.85,10.85,0,0,1,1.73,2.91,4.88,4.88,0,0,1,.2,3A3.12,3.12,0,0,1,58.53,67.61Z" style="fill: #fff"/>
      <path d="M63.5,68.62a8,8,0,0,0,1.19-5.33,2.81,2.81,0,0,0-1.49-2.18.48.48,0,0,0-.65.26c-.2.36-.78,1.78-.78,1.78A1.88,1.88,0,0,1,63,62.7c.65,0,1,.81,1,2.45a7.81,7.81,0,0,1-.72,3.23C63.19,68.66,63.36,68.82,63.5,68.62Z" style="fill: #fff"/>
      <path d="M55.57,73.29a.41.41,0,0,0-.24.19s0,.54,0,.66,0,.18.22.18c2.27-.73,3-2.93,2.61-4.9a4.16,4.16,0,0,0-2.61-3c-.31,0-.11.14-.11.14a4.34,4.34,0,0,1,1.92,4.59A2.5,2.5,0,0,1,55.57,73.29Z" style="fill: #fff"/>
      <path d="M52,76.52c2.6-.89,2.4-3,1.88-3.93a1.47,1.47,0,0,0-1.38-.77c.77.74,1.18.89,1.07,2.3A3.84,3.84,0,0,1,52,76.52Z" style="fill: #fff"/>
      <path d="M57.89,75.9c-1.81,0-3.11,1.85-3.52,2.48A27,27,0,0,0,53.16,82l-3.06-.6a17.33,17.33,0,0,0-5.19.16,5.53,5.53,0,0,0-3.43,3.36,6,6,0,0,0-.23,1.77l1.25-.62c.33-1.44,1-2.46,3.39-3.32s5.75-.26,7.49,0a13.35,13.35,0,0,1,1.54-3.81,4,4,0,0,1,3.15-2,4.4,4.4,0,0,1,2.69,1.35A3.14,3.14,0,0,0,57.89,75.9Z" style="fill: #fff"/>
      <path d="M42.59,92.29s-1,.07-1.26-.53a3.11,3.11,0,0,1,.08-2.61,12.28,12.28,0,0,1,1.44-1.83l0-.13a4.09,4.09,0,0,0-2.64,3.17c-.37,2.45,1.13,3.1,1.13,3.1Z" style="fill: #fff"/>
      <path d="M46.17,100.67a2.52,2.52,0,0,0-.91-.39c-.69-.21-2.76-1.41-3-3.09a4.4,4.4,0,0,1,1.57-4.09s.31-.16,0-.27c0,0-2.31,1.15-2.72,3a3.88,3.88,0,0,0,3.17,4.86A11.09,11.09,0,0,0,46.17,100.67Z" style="fill: #fff"/>
      <path d="M50,105.81a5.66,5.66,0,0,1-3-.77,2.58,2.58,0,0,1-1.24-1.69A2.7,2.7,0,0,1,46,101.9l-1.28-.05a3.31,3.31,0,0,0,1.35,3.53,7.19,7.19,0,0,0,3.76.73C50.3,106.1,50,105.81,50,105.81Z" style="fill: #fff"/>
      <path d="M72.17,85.74c-.72-.63-5.77-2-6-2.07s-2.88-.52-3.32-.62-.49-.37-.6-.76-.54-1.79-.54-1.79l-.35-.12s.08,1.67.1,2.72.6.87.6.87a17.34,17.34,0,0,0,1.93.25C65.8,84.22,72.17,85.74,72.17,85.74Z" style="fill: #fff"/>
      <path d="M93.36,92.1,90,91.78l0,.22,2.62,1.15c.57.25,1.14.1,1.23-.35S93.36,92.1,93.36,92.1Z" style="fill: #fff"/>
      <path d="M112.5,63.51s-.46-.62-.47.68a26.82,26.82,0,0,1-.84,5.15,29.86,29.86,0,0,1-1.72,4.38,1.53,1.53,0,0,0-.24.8c0,.4.5,2.92.5,2.92s.32.57.69,0A14.85,14.85,0,0,0,113.2,70C113.47,66,113.05,64.93,112.5,63.51Z" style="fill: #fff"/>
      <path d="M102.07,55.33l-.1-.14L99.9,52.38l0,0h0l-1.61-.25.81-.71.11-.1-.16,0L97.34,51h0l0,0L94.33,53.5l-1.34-1,2.68-2.43,0,0v0l-.38-1.3,0-.15-.12.11-3.38,3.2,0,0v0l0,.93v0l0,0,1.87,1.17L92,55.56l-1.1-.21.33-2.78v0l-.06,0-1.76-.66-.15-.05,0,.13.47,3.77v.05l.06,0,3,.79.94,2.21,0,.05h.06l3.53.49.1,0v-.08l1-6.32h.69L100,55l0,0H100l1.85.23Zm-6.06,3-1.58-.07-.94-2.08,3.19-2.78Z" style="fill: #fff"/>
      <path d="M88.22,104.76c-2-1.16-6.24-2.68-13-3.5a31,31,0,0,0-11.42.56,24,24,0,0,0,2.51,11,21.36,21.36,0,0,0,1.37,2.45h20c-.28-1.18-.63-2.41-1-3.62a31.55,31.55,0,0,0-3.47-6.56l-1.34-1.89c.41-.18.64-.08,1.06.17a15.21,15.21,0,0,1,4.9,2.58s1.58,1.37,2,1.17C90.76,106.29,88.92,105.19,88.22,104.76Z" style="fill: #fff"/>
      <path d="M56.7,22.11c.47-.54,4.42-6.8,5.2-7.9a61.67,61.67,0,0,1,6.5-6c1-.75,1.32-1.81.31-2.55s-4.1.38-6.75,3.16S57.47,15.65,56.44,18a7,7,0,0,0-.84,3.47C55.62,22.6,56.43,22.27,56.7,22.11Z" style="fill: #fff"/>
    </g>
    <g>
      <path d="M69.3,107.2l-1.77-1.66a.32.32,0,0,1-.1-.19c0-.14.25-.28.57-.39a3.85,3.85,0,0,1,.94-.16c.14,0,.55-.06.53.2s-.53.37-.8.4a1.32,1.32,0,0,1-.58-.1c.11.37.53.4.64.42s0,.06,0,.06l-.09.07c.1.12.51.1.51.1s0,.07-.08.09a.6.6,0,0,0,.45,0,1.35,1.35,0,0,0,1-.85.88.88,0,0,0-.71-1.09,5.29,5.29,0,0,0-1.89.12,9.49,9.49,0,0,0-1.81.55,1.45,1.45,0,0,0-.64.82,1,1,0,0,0,.41.79s1.71,1.43,1.85,1.63a.29.29,0,0,1,0,.35s-.3.29-.39.35a.81.81,0,0,1-.52.22c-.29,0-.49-.32-.42-.44a1.1,1.1,0,0,1,.47-.26,1.79,1.79,0,0,1,.33,0l-.54-.48a3,3,0,0,0-1.1.63.39.39,0,0,0,0,.5s.62.58.81.73a.61.61,0,0,0,.74.1,15,15,0,0,0,1.78-1.08,1.56,1.56,0,0,0,.64-.83A.69.69,0,0,0,69.3,107.2Z" style="fill: #0f1351"/>
      <path d="M81.44,106.82l-.08,0,.13-.34h-.08a2.35,2.35,0,0,0,.17-.43.65.65,0,0,0,0-.46c-.25.54-1.07,1.77-1.07,1.77l.12-.66c0-.06,0-.17,0-.18s-.12,0-.12,0l-.65.74.27-.63a.25.25,0,0,0,0-.16,6.35,6.35,0,0,0-.36-.53l-.67,1.43,0-.25a.5.5,0,0,0-.29-.5.61.61,0,0,0-.28,0,.51.51,0,0,0-.51-.15c-.59.12-1,.89-1.07,1.08a1.31,1.31,0,0,1-.38.34l1.28-2.85-1,0s-1,2.21-1.14,2.45a1.65,1.65,0,0,1-.46.46l1.29-2.9-.93,0s-1,2.18-1.12,2.46a.9.9,0,0,1-.31.42.75.75,0,0,1-.29.19s.62-1.36.68-1.53a.13.13,0,0,0-.12-.19l-.68,0-.05.11a1,1,0,0,0-.74,0,2.32,2.32,0,0,0-.83.62l.51-1s.16-.38.18-.46a.53.53,0,0,0,0-.26c0-.07-.08-.07-.11,0l-.51.68-.94,1.2a3.54,3.54,0,0,0,.07-.75c-.08-.07-.18,0-.18,0l-.63.73.31-.91-.74-.42-.34,1.13s-.49,1.66-.53,1.83a.32.32,0,0,0,.15.36c.43.08.86-.72.86-.72s-.11.64.17.68.76-.62.76-.62l.46-.64c-.13.43,0,1,.29,1.15s.7-.14,1-.31a.33.33,0,0,0,.25.31c.35.07.66-.26.84-.42,0,0,0,.39.33.38s.8-.43,1-.62c-.16.45.08.54.2.55.51,0,1.14-.57,1.28-.69.07.34.17.52.49.62.68.14,1.3-.72,1.52-1,0,0-.36.89-.06,1s.59-.33.85-.7c0,0-.15.55.07.6s.81-.62,1.11-1S81.44,106.82,81.44,106.82Zm-8,.53-.38.86c-.12.25-.4.45-.57.37s-.09-.39.12-.69a2.35,2.35,0,0,1,.71-.55C73.46,107.26,73.43,107.35,73.43,107.35Zm5,.17a2,2,0,0,1-.51.76c-.14.1-.19.14-.29.1s-.15-.19-.09-.38a2,2,0,0,1,.38-.6c.13-.14.28-.27.43-.2C78.37,107.2,78.54,107.25,78.45,107.52Z" style="fill: #0f1351"/>
      <path d="M83.26,106.34c-.12-.21-.61-.28-1.15,0a1.18,1.18,0,0,0-.63.68c-.06.4.25.57.47.71s.08.28,0,.33a7.83,7.83,0,0,1-1.66.73c-.06,0,0,0,0,0a6,6,0,0,0,1.85-.2,2.15,2.15,0,0,0,.79-.48.52.52,0,0,0,0-.61s-.46-.35-.61-.48a.19.19,0,0,1,0-.31.86.86,0,0,1,.47-.22c.1,0,.16.07.11.17s-.24.09-.28.12-.07,0,.07.15a.36.36,0,0,0,.38.13A.56.56,0,0,0,83.26,106.34Z" style="fill: #0f1351"/>
    </g>
  </g>
</svg>
