<svg id="ロゴ" xmlns="http://www.w3.org/2000/svg" viewBox="0 0 160 160">
  <g id="ファイターズ">
    <polygon points="79.99 16.35 78.03 17.99 6.81 77.64 4 80 6.81 82.35 78.03 142 79.99 143.65 81.97 142 153.19 82.35 156 80 153.19 77.64 81.97 17.99 79.99 16.35 79.99 16.35" style="fill: #221815"/>
    <polygon points="8.78 80 79.99 139.64 151.21 80 79.99 20.35 8.78 80 8.78 80" style="fill: #fff"/>
    <polygon points="112.94 47.94 112.94 112.05 151.21 80 112.94 47.94 112.94 47.94" style="fill: #006098"/>
    <polygon points="142.88 80 130.77 78.28 133.36 72.59 128.1 76.16 126.35 65.52 124.6 76.16 119.94 73.76 122.71 80.01 119.94 86.23 124.6 83.84 126.35 94.48 128.1 83.84 133.36 87.41 130.77 81.71 142.88 80 142.88 80" style="fill: #fff"/>
    <polygon points="60.55 53.6 105.1 53.6 105.1 47.95 54.77 47.95 54.77 107.44 60.55 112.59 60.55 53.6 60.55 53.6" style="fill: #221815"/>
    <polygon points="62.67 55.72 62.67 77.38 93.94 77.38 93.94 71.66 68.2 71.66 68.2 61.38 105.1 61.38 105.1 55.72 62.67 55.72 62.67 55.72" style="fill: #221815"/>
    <polygon points="62.67 79.39 62.67 114.49 68.2 119.42 68.2 85.1 93.94 85.1 93.94 79.39 62.67 79.39 62.67 79.39" style="fill: #221815"/>
  </g>
</svg>
