<svg xmlns="http://www.w3.org/2000/svg" viewBox="0 0 300 300"><title>Miami Marlins cap on dark logo</title><path fill="#fff" d="M131.81 203.91c-.06.1-.11.16-.15.24-.312.587-.413.838-.438 1.095l-.004.264.002.051v.68c0 .06-.018.542-.03.934l-.02 1.236c.03 1.77.02 4.01.01 6.62-.02 4.21-.03 9.36.11 14.95.22 8.6 4 19.5 5.96 22.93l2.3 4.02-5.5-1.22c-5.13-1.01-17.15-3.38-20.04-29.29l-1.45-13.17-2.51 5.91c-2.4 5.64-5.25 10.52-8.53 14.61-1.23 1.76-2.42 3.28-3.64 4.64-.49.55-1 1.08-1.54 1.61-12.87 13.32-32.1 14.82-39.34 15.38l-.54.04c-4.88.38-9.79.3-14.53.21l-6.01-.11 7.46-5.81c11.92-8.92 20.54-15.37 24.77-28.19.81-2.48 6.42-20.46 13.05-41.81l.28-.93-.65-.71c-5.97-6.48-16.17-20.21-17.41-39.39l-.09-1.7c-.15-5.47.41-10.91 1.66-16.15l.49-2.05-2.11-.02c-5.55.02-14.36.61-20.87 1.16 11.13-5.85 20.35-9.95 26.43-11.74l.7-.2.33-.65c4.65-9.23 10.37-15.97 18.61-21.88 2.71-2.07 6.17-4.11 8.8-5.66l2.13-1.3c3.25-2.19 5.61-4.15 7.44-6.21l.54-.63c.39-.47.83-1.02 1.24-1.62.16-.24.31-.52.55-.93l.63-1.11c2.65-5.39 2.79-11.66 2.72-14.06.04-6.69.56-11.61 1.59-15.08.27-1.04 1.14-4.04 1.81-5.5l1.1-2.39 2.04 1.66c1.78 1.45 2.56 2.14 4.59 4.17 11.67 12.67 19.37 25.9 23.78 34.76l.35.71.78.17c2.35.54 4.66 1.29 6.85 2.23l.4.17.44-.04c1.33-.14 4.87-.46 9.16-.38l62.16-11.14-11.77 11.37c-3.01 1.1-25.7 9.45-38.59 14.22l-7.6 2.81 8.08.43c11.88.65 18.06 6.44 19.67 8.21l2.75 2.99 1.22-.94c3.29-2.56 6.84-4.94 11.19-7.52 1.09-.68 2.27-1.39 3.47-2.08 5.47-3.07 11.43-5.5 17.83-7.27 10.45-3.69 20.22-4.47 26.6-4.47 4.75.06 9.66.7 10.59.83l4.98.71-4.05 2.96c-1.44 1.06-2.99 2.22-4.38 3.32l.01.02c-10.41 7.93-17.91 19.58-22.92 35.62l-28.85 92.93c-.81 2.76-1.36 4.85-1.61 6.78-.49 3.67-.32 6.43.53 8.73.23.68.37 1.09 1.09 2.92l.48 1.24-5.95 5.94-43.91.04 21.49-68.43-39.51 53.17h-.02l-7.56 10.11-7.64-36.346c-.422.748-.946 1.521-1.48 2.326m87.52 35.06h2.98v.73h-1.12v3.37h-.75v-3.37h-1.11Zm6.72 0h1.3v4.09h-.75v-3.26h-.02l-1.07 3.26h-.72l-1.04-3.26h-.02v3.27h-.75v-4.1h1.31l.85 2.68h.02Zm-26.04-135.66-35.73 3.84-9.8 9.59 6.88 32.82 2.22-3.02c6.75-9.18 13.4-18.23 14.5-19.73l.44-.57c6.46-8.25 12.07-14.44 17.64-19.46Z"/><path fill="#00a3e0" d="m107.12 111.68.018-.01h.002Zm.018-.01c-16.28-.72-38.179.09-59.068 6.89h-.03c7.69-3.9 15.49-6.79 23.05-8.9 4.38-9.16 9.87-16.25 18.66-22.56 3.32-2.52 7.69-4.97 10.1-6.42.23-.15.46-.31.69-.45 3.33-2.24 5.92-4.35 7.92-6.58.2-.21.37-.43.55-.65.49-.59.97-1.19 1.39-1.81.26-.39.49-.8.72-1.21.2-.34.41-.68.59-1.04 2.62-5.31 3.06-11.44 2.97-15.12.03-5.3.4-10.68 1.49-14.36 0 0 1.01-3.72 1.72-5.27 1.74 1.42 2.46 2.05 4.48 4.08 12.16 13.23 19.85 26.92 24.12 35.76.23.05.45.13.68.18 2.91.57 5.73 1.48 8.43 2.72 1.5-.18 4.43-.47 7.97-.47.65 0 1.29.01 1.93.03l55.91-10.02-3.39 3.27-10.3 2.64-34.1 6.15-7.87 1.42c-5.93-.21-10.72.54-10.72.54a33.6 33.6 0 0 0-8.91-2.94c-.68-.15-1.36-.3-2.05-.42-4.01-8.55-11.9-23.15-24.43-36.76-3.41 10.08 1.4 16.83-5.25 30.71-.75 1.55-1.43 2.96-2.93 4.61-5.79 6.37-9.03 7.13-14.95 11.14-9.49 5.96-16.37 13.42-20.9 21.66 3.36-.82 6.64-1.47 9.84-2.01 1.81-.31 3.6-.57 5.34-.8 12.82-1.66 23.58-1.28 29.99-.37a87.4 87.4 0 0 0-13.43 6.25c-.064.037-.145.073-.212.11m16.002-59.12v.024l-.01-.014Zm0 .024c6.535 8.845 11.261 17.389 13.88 22.516-8.21.05-15.37 2.03-21.04 4.46 3.74-5.01 8.03-13.83 7.18-25.99-.02-.157-.02-.574-.02-.986M84.47 176.22l-.63 2.02c-.01-.01-.02-.03-.03-.03-8.99-9.07-17.28-23.26-18.33-39.56l-.1-.86v-.29c-.01-.06-.02-.13-.02-.19s.02-.11.02-.17c-.21-7.1.8-14.16 3-20.77 1.21-.07 2.45-.13 3.74-.18-7.36 20.34-2.11 43.63 12.34 60.03Zm46.44 74.49c2.35 2.28 4.56 3.19 4.56 3.19-4.77-1.07-16.53-1.56-19.45-27.73-1.21-10.81-2.03-18.51-2.03-18.51-.14-1.57-.4-2.92-.83-4.18l-1.01 3.29c-.07.22-.15.51-.25.85-1.17 4-4.62 15.67-11.92 24.73-.47.58-.91 1.19-1.41 1.75-3.43 3.81-7.52 6.64-11.74 8.75-10.5 4.92-21.45 5.53-26.23 5.87-1.95.14-3.86.2-5.77.21 7.18-5.62 12.87-11.1 16.65-18.87a54 54 0 0 0 3.04-7.12c1.36-3.96 14.9-47.72 24.55-78.97 1.96-2.22 4.17-4.21 6.5-6.01-9.65 31.27-25.34 82.03-26.85 86.42-3.12 9.05-7.53 15.32-11.01 19.22 18.63-2.52 25.26-9.89 27.59-12.48 7.63-8.48 11.19-20.72 12.36-24.75l22.39-73.28 8.02 38.03a57 57 0 0 0-5.18 4.03c-3.46 3-4.46 3.65-7.13 6.1-2.638 2.419-4.837 3.808-7.126 4.359l-4.024 13.161c-.01.05-.03.09-.04.13 2 3.69 2.35 6.86 2.54 8.35.32 2.6.38 5.48 1.01 11.2.04.34.07.65.11 1 .08.69.18 1.46.28 2.23.07.53.12 1.01.2 1.58.18 1.39.39 2.88.64 4.54 2.79 18.69 9.57 22.2 11.22 22.79.23.08.36.11.36.11Zm-11.114-68.902c1.168-.431 2.377-1.23 4.084-2.598 1.03-.82 3.14-2.75 5.87-4.98 1.17-.96 2.45-1.96 3.82-2.97l-4.31-20.42-2.6 8.52ZM260.5 83.08c5.06.06 10.35.81 10.35.81-1.46 1.07-3.03 2.25-4.47 3.38-10.73 8.17-18.44 20.14-23.58 36.59l-28.84 92.9c-.84 2.88-1.42 5.09-1.69 7.15-.53 4.01-.33 7.08.63 9.67.2.62.31.96 1.11 2.99h-38.63l25.63-82.85-7.45 10.03-47.97 64.52-7.7-36.5c.86-1.24 2.13-3.05 3.51-4.87l6.5 30.83 65-87.43-31.51 101.84h26.52c-.48-2.56-.49-5.43-.04-8.81.31-2.33.93-4.73 1.84-7.84l28.86-92.94c4.68-15.01 11.46-26.52 20.63-35.02-8.8.15-21.45 1.9-34.03 8.94-10.91 6.24-19.73 14.35-33.68 30.97-7.94 10.33-16.46 21.87-22.69 30.29-2.98 4.03-5.33 7.22-6.7 9.02l-2.94 3.87-11.76-56.09c1.55-.16 3.05-.26 4.47-.28l8.43 40.18 1.2 5.72c1.08-1.46 2.34-3.16 3.74-5.05 6.25-8.45 14.8-20.02 22.77-30.4l.06-.07c14.35-17.09 23.49-25.47 34.92-32.02 3.82-2.14 7.63-3.79 11.36-5.1 10-3.52 19.34-4.43 26.15-4.43"/><path d="M136.3 194.88c-.11 1.83-.38 4.13-.98 5.75-.02.05-.05.11-.07.17l-.9-4.33-.93-4.41v-.04c.12-.24.28-.52.51-.86.13-.19.29-.43.48-.7.37-.54.85-1.23 1.4-2 .33-.46.68-.95 1.05-1.45.86-1.18 1.81-2.44 2.76-3.6.34-.42.68-.82 1.01-1.2.73-.84 1.44-1.66 2.14-2.46l.22-.25c.62-.71 1.24-1.41 1.84-2.09.12-.14.24-.27.37-.41q.81-.9 1.59-1.74c.16-.17.31-.32.47-.49.47-.49.94-.97 1.39-1.42l.19-.19h.01c2.14-2.09 4.08-3.64 5.79-4.21-.12-.04-.25-.02-.38-.04-.92-.04-3.37.32-7.63 3.67-2.22 1.91-4.96 4.57-8.27 8.31-3.72 4.2-5.45 7.09-6.73 8.75-.96 1.23-1.25 1.92-1.44 3.07-.03.21-.12 3.55-.75 5.26-.47 1.3-2.44 4.14-2.54 4.31-.92 1.53-.81 2.27-.78 3.12s-.14 12.14.18 24.7c.32 12.55 4.62 20.62 4.62 20.62-.01-.01-.13-.03-.36-.11-1.65-.59-8.43-4.11-11.22-22.79-.25-1.66-.46-3.16-.64-4.54-.08-.57-.13-1.05-.2-1.58-.1-.77-.2-1.55-.28-2.23-.04-.36-.07-.66-.11-1-.63-5.73-.69-8.6-1.01-11.2-.18-1.49-.54-4.65-2.54-8.35.01-.05.03-.09.04-.13 1.14-3.74 2.55-8.34 4.02-13.16 2.29-.54 4.49-1.94 7.13-4.36 2.67-2.45 3.66-3.09 7.13-6.1 1.87-1.62 3.59-2.94 5.18-4.03l-8.02-38.03s-22.29 72.92-22.39 73.28c-1.17 4.02-4.73 16.27-12.36 24.75-2.33 2.59-8.97 9.96-27.59 12.48 3.48-3.9 7.89-10.17 11.01-19.22 1.51-4.39 17.2-55.15 26.85-86.42-2.33 1.8-4.54 3.78-6.5 6.01-1 1.13-1.94 2.3-2.8 3.54-2.387 3.462-4.989 7.197-6.412 11.215q.014-.053.032-.105c.38-1.25.77-2.51 1.16-3.76.28-.91.57-1.79.83-2.58a40.7 40.7 0 0 1 3.04-7.68c5.87-11.3 17.77-18.63 26.4-22.63 8.48-3.93 18.02-6.61 26.08-7.45l11.76 56.09 2.94-3.87c1.36-1.8 3.72-4.99 6.7-9.02 6.23-8.42 14.75-19.96 22.69-30.29 13.96-16.61 22.78-24.72 33.68-30.97 12.58-7.04 25.23-8.79 34.03-8.94-9.17 8.5-15.94 20.01-20.63 35.02L209.7 215.5c-.9 3.11-1.53 5.51-1.84 7.84-.45 3.37-.44 6.25.04 8.81h-26.52l31.51-101.84-65 87.43-6.5-30.83a126 126 0 0 0-3.51 4.87c-.29.41-.54.79-.72 1.05-.62.91-.77 1.36-.83 1.87-.01.06-.01.17-.01.17Zm-46.51-35.97.058-.165q-.022.083-.058.165m83.1-61.74c11.49-.72 15.35 2.41 15.35 2.41l-26.96 2.88-8.55 8.32c-21.86-.17-69.06 17.58-64.39 52.88-1.28 4.17-2.6 8.42-3.88 12.56-14.45-16.4-19.7-39.69-12.34-60.03 2.49-.09 5.1-.16 7.85-.16-2.91 6.74-4.28 13.98-3.94 21.58.17 3.69.72 7.33 1.63 10.87-.98-12.8 1.3-23.55 5.91-32.41 4.96.07 10.23.33 15.72.85l.51-.39c.03-.02.04-.03.07-.05.67-.49 1.34-.99 2.02-1.46s1.48-1.01 2.39-1.59c.62-.4 1.25-.78 1.88-1.16.32-.19.62-.38.96-.57.07-.04.16-.08.23-.12 4.37-2.51 8.92-4.59 13.43-6.25-6.42-.91-17.17-1.29-29.99.37 10.61-11.79 26.55-18.65 44.31-20.91-.34 0-.69.01-1.03.02-15.13.47-29.15 4.55-39.2 12.14a51 51 0 0 0-4.58 3.9c-1.78 1.77-3.37 3.67-4.83 5.64-3.2.54-6.48 1.19-9.84 2.01 4.53-8.24 11.41-15.71 20.9-21.66 5.92-4.01 9.16-4.77 14.95-11.14 1.5-1.65 2.17-3.05 2.92-4.61 6.65-13.88 1.84-20.63 5.25-30.71 12.52 13.62 20.42 28.21 24.43 36.76.69.13 1.37.27 2.05.43 2.57.47 5.64 1.32 8.91 2.94 0 0 4.79-.76 10.72-.54l7.87-1.42 34.2-6.16S173.06 85.11 165.42 88s-7.46 10.08-7.46 10.08Zm-49.74-43.62c.85 12.16-3.44 20.98-7.17 25.99 5.67-2.42 12.83-4.41 21.04-4.46-2.62-5.12-7.36-13.67-13.89-22.53.01.42.01.85.02 1.01Zm34.45 36.88c-8.61 2.86-9.96 8.28-9.96 8.28l6.52-.4c.73-6.32 3.44-7.88 3.44-7.88"/><path fill="#41748d" d="M79.97 116.03c-2.75 0-5.36.06-7.85.16-1.29.05-2.53.11-3.74.18-11.94.67-19.81 2.11-20.33 2.21 20.9-6.79 42.79-7.6 59.07-6.89-.33.19-.64.38-.96.57a76.373 76.373 0 0 0-4.27 2.75c-.69.47-1.35.96-2.02 1.46-.03.02-.05.03-.07.05l-.51.39c-5.49-.52-10.76-.77-15.72-.85q-1.83-.03-3.6-.03m77.63-25.6s-2.7 1.56-3.44 7.88l-6.52.4s1.36-5.42 9.96-8.28m50.12-18.05 10.3-2.64-3.23 3.15c-.35.12-40.61 14.93-48.15 17.78-2.1.79-3.54 2.49-4.11 4.18l10.15-.62c1.28-.08 2.54-.14 3.73-.12 12.16.25 18.31 6.24 19.55 7.59l-32.6 3.51-9.24 9.02h-1.71c-.17 0-.36.02-.53.02-1.42.01-2.92.12-4.47.28-8.06.83-17.6 3.52-26.08 7.45-8.64 4-20.54 11.34-26.4 22.63-1.26 2.42-2.28 5-3.04 7.68-.26.78-.54 1.67-.83 2.58-.39 1.25-.77 2.51-1.16 3.76-.04.09-.06.18-.09.27-.1.28-.18.57-.27.85-.39 1.29-.79 2.58-1.2 3.9-4.68-35.3 42.53-53.05 64.39-52.88l8.55-8.32 26.96-2.88s-3.86-3.13-15.35-2.41l-14.93.91s-.18-7.19 7.46-10.08c7.65-2.89 42.4-15.61 42.4-15.61l-34.2 6.16 34.09-6.15Zm-74.25 119.63v.04c-.17.38-.27.7-.32 1-.01.06-.01.12-.01.17-.1 1.83-.3 4.13-.9 5.75-.44 1.2-1.51 2.88-2.6 4.52-.06.1-.1.16-.15.24-.42.81-.42.93-.39 1.36v.27c.01.25.03 1.07.06 3.06.08 4.64-.11 12.54.12 21.59.22 8.67 3.98 19.97 6.23 23.89 0 0-2.22-.91-4.56-3.19 0 0-4.3-8.06-4.62-20.62s-.15-23.85-.18-24.7c-.03-.84-.14-1.59.78-3.12.1-.18 2.06-3.01 2.54-4.31.63-1.7.71-5.05.75-5.26.19-1.15.48-1.84 1.44-3.07 1.28-1.66 3.01-4.55 6.73-8.75 3.32-3.74 6.05-6.4 8.27-8.31 4.26-3.35 6.71-3.7 7.63-3.67.12.02.26.01.38.04-1.71.57-3.65 2.11-5.79 4.21h-.01l-.19.19c-.46.44-.92.92-1.39 1.42-.16.16-.31.32-.47.49a152 152 0 0 0-1.96 2.15c-.6.67-1.21 1.37-1.84 2.09l-.22.25c-.7.8-1.41 1.62-2.14 2.46-.34.38-.67.79-1.01 1.2-.95 1.16-1.9 2.42-2.76 3.6-.37.5-.72.99-1.05 1.45-.55.77-1.02 1.46-1.4 2-.19.27-.35.51-.48.7-.23.33-.39.61-.51.86Z"/><path fill="#ef3340" d="M135.1 84.77h-.08l.08-.01Zm-.08 0c-17.728 2.271-33.636 9.118-44.23 20.9-1.74.23-3.53.5-5.34.8 1.46-1.97 3.05-3.86 4.83-5.64 1.44-1.37 2.96-2.68 4.58-3.9 10.05-7.58 24.07-11.67 39.2-12.14.323-.009.638-.018.96-.02m-58.98 52.84c-.33-7.61 1.03-14.84 3.94-21.58q1.77 0 3.6.03c-4.61 8.86-6.89 19.61-5.91 32.41a53 53 0 0 1-1.63-10.87Zm10.82 105.23c4.22-2.11 8.31-4.94 11.74-8.75.5-.56.94-1.17 1.41-1.75-1.11 1.6-2.3 3.17-3.63 4.65-.47.53-.95 1.02-1.44 1.51-12.71 13.15-31.87 14.32-38.63 14.86-4.88.39-9.96.29-14.69.2 13.22-9.96 23.69-16.89 28.48-31.43.81-2.47 6.63-21.13 13.71-43.93l.03.03.63-2.02c1.28-4.14 2.59-8.39 3.88-12.56q.6-1.965 1.2-3.9c.09-.29.17-.58.27-.85 1.41-4.08 4.05-7.87 6.47-11.38.86-1.24 1.81-2.41 2.8-3.54-9.65 31.25-23.19 75.02-24.55 78.97-.91 2.64-1.95 5-3.04 7.12-3.79 7.78-9.47 13.26-16.65 18.87 1.9-.01 3.82-.07 5.77-.21 4.77-.34 15.73-.95 26.23-5.87Zm42.89-68.59.009-.007.001.007Zm.009-.007-3.099-14.863 2.6-8.52 4.31 20.42a93 93 0 0 0-3.811 2.963m7.411 18.587c.18-.27.44-.64.72-1.05l7.7 36.5-3.59 4.79-6.72-32.28.07-.17c.6-1.62.87-3.92.98-5.75 0-.05.01-.1.01-.17.06-.51.21-.96.83-1.87m28.08-37.72c-1.4 1.89-2.66 3.59-3.74 5.05l-1.2-5.72c8.05-10.95 19.71-26.79 19.82-26.94 13.71-17.52 22.85-24.54 33.5-30.86 1.14-.72 2.3-1.42 3.49-2.1 5.85-3.28 11.68-5.5 17.23-7.03-3.72 1.31-7.54 2.96-11.36 5.1-11.44 6.55-20.57 14.93-34.92 32.02l-.06.07c-7.97 10.38-16.53 21.95-22.77 30.4Zm10.13 81.47H214l-4.4 4.4-40.3.03 24.26-77.25 7.45-10.02Z"/></svg>