<svg xmlns="http://www.w3.org/2000/svg" viewBox="0 0 300 300"><title>Milwaukee Brewers cap on dark logo</title><path fill="#ffc72c" d="M245.74 108.03v27.74c0 23.15-3.79 37.18-21.97 75.62-19.14 40.47-42.75 52.49-70.99 52.49-18.57 0-36.03-6.12-50.14-17.42l-.13.05-3.15-2.82-.58-.51c-4-3.58-7.42-7.43-10.36-11.38-.25-.33-.49-.65-.73-.99-.04-.05-.09-.11-.12-.17-.18-.24-.35-.48-.52-.72a81 81 0 0 1-4.65-7.38c-.16-.27-.32-.55-.46-.82-4.65-8.37-7.71-16.7-10.29-23.67-.74-1.99-1.43-3.87-2.11-5.62-5.33-13.69-15.65-40.45-20.64-53.93-5.19-14-5.99-23.94-2.66-33.23 3.56-9.95 11.52-17.91 22.38-26.79 10.88-8.9 20.21-16.29 33.11-25.61 8.08-5.83 16.74-8.92 25.06-8.92 3.52 0 6.85.57 9.9 1.68.55.2 1.15.42 1.94.72 2.8 1.06 5.29 2.5 7.44 4.27.22-.13.43-.25.64-.38 5.93-3.46 12.58-5.29 19.24-5.29 5.27 0 10.42 1.14 14.93 3.29.97.47 1.54.75 2.19 1.1.32.16.66.34 1.13.59 3.54 1.81 6.58 4.13 9.04 6.83 3.94-1.32 7.76-1.99 11.41-1.99 5.56 0 10.75 1.52 15.45 4.51l1.12.71c2.14 1.37 3.23 2.05 4.89 3.22 12.73 8.81 19.62 18.56 19.62 44.82"/><path fill="#13294b" d="M221.42 70c-1.79-1.24-2.83-1.89-5.75-3.75-5.67-3.62-13.19-4.81-23.45-.22-.68.3-1.31.58-1.94.86-2.28-4.68-6.33-7.81-9.83-9.6-1.44-.74-1.83-.97-3.13-1.59-6.97-3.33-17.03-3.81-26.44 1.68-1.89 1.1-4.37 2.57-6.49 3.82-2.17-3.71-5.52-5.94-8.66-7.12-.75-.28-1.33-.49-1.86-.68-6.94-2.53-17.09-1.19-27.29 6.17-12.15 8.78-21.06 15.76-32.71 25.3-21.31 17.44-25.84 27.46-17.2 50.77 4.75 12.81 14.82 38.96 20.59 53.81 3.31 8.51 6.77 19.54 13.01 30.19.57.97 1.16 1.94 1.79 2.91.16.25.34.5.5.75 2.84 4.31 6.21 8.47 10.27 12.34.32.31.65.63.98.93.17.15.32.31.49.46l.02-.02c12.72 11.58 29.56 18.62 48.47 18.62 34.69 0 62.81-28.13 62.81-62.8v-.07c0-33.11-26.84-59.95-59.95-59.95-17.99 0-36.06 10.4-46.72 26.8-4.53-11.09-14.23-34.82-21.53-52.6-3.93-9.57-3.03-14.41 2.98-19.98 3.07-2.84 6.8-5.69 10.94-8.5 4.23-2.87 9-1.18 9 4.42v59.25c9.66-9.75 21.51-16.1 36.69-18.9l-.23-48.91c1.08-.67 2.09-1.29 2.85-1.73 3.87-2.25 6.64.24 6.64 3.85v45.53c.24 0 .48-.01.72-.01 12.79 0 24.78 3.48 35.1 9.51V80.5c.97-.39 1.88-.76 2.58-1.04 3.88-1.54 6.5.86 6.5 4.37s-.27 54.11-.27 54.11c14.25 11.75 23.5 29.05 24.95 48.56 6.8-14.47 11.64-27.94 11.64-50.73v-27.74c0-23.1-5.24-30.54-16.06-38.03m-66.33 87.41c20 0 36.2 16.21 36.2 36.2s-16.21 36.2-36.2 36.2-36.2-16.21-36.2-36.2 16.21-36.2 36.2-36.2"/><path fill="#fff" d="M222.19 243.63h-2.63v7.18h-1.78v-7.18h-2.63v-1.56h7.04Zm11.96 7.18h-1.78v-6.95h-.05l-2.53 6.95h-1.73l-2.43-6.95h-.05v6.95h-1.79v-8.74h3.1l2.03 5.7h.05l2.12-5.7h3.06Zm-106.51-57.19c0-6.57 2.31-12.6 6.17-17.34 7.68 10.23 7.68 24.43 0 34.67-3.86-4.74-6.17-10.76-6.17-17.33m10.97 21.95c10.1-12.84 10.1-31.08 0-43.92 4.59-3.46 10.3-5.52 16.48-5.52s11.89 2.06 16.48 5.52c-10.1 12.84-10.1 31.08 0 43.92a27.3 27.3 0 0 1-16.48 5.52c-6.18 0-11.89-2.06-16.48-5.52m37.77-4.62c-7.68-10.23-7.68-24.43 0-34.67 3.86 4.74 6.18 10.77 6.18 17.34s-2.32 12.6-6.18 17.33"/></svg>